<svg id="Layer_1" data-name="Layer 1" xmlns="http://www.w3.org/2000/svg" viewBox="0 0 150 150"><defs><style>.cls-1{fill:#fff;}</style></defs><title>1</title><path class="cls-1" d="M54.67423,133.50806c-7.0806.00636-14.16137.02644-21.24177-.01484a7.79477,7.79477,0,0,1-4.972-1.56372,7.41968,7.41968,0,0,1-.559-11.53515,21.4442,21.4442,0,0,0,6.65475-12.09893c1.04313-5.92892,1.97558-11.8773,2.96043-17.81651,1.0161-6.12788,1.7839-12.3216,4.78718-17.92121a2.00107,2.00107,0,0,0,.178-1.53069,2.21424,2.21424,0,0,0-1.88779-1.73711,2.26375,2.26375,0,0,0-2.455,1.36475,34.50561,34.50561,0,0,0-3.3564,9.127c-.29539,1.45367-.88528,1.91288-2.37425,1.89185-6.12258-.08656-12.24716-.05211-18.37085-.02914a5.00709,5.00709,0,0,0-5.66413,5.65589c-.00777,2.05717-.02338,4.11471.00728,6.17146a1.6074,1.6074,0,0,1-.98769,1.7029,4.45478,4.45478,0,0,0-2.57408,3.86287c-.23138,2.38908-.05425,4.78062-.11823,7.17-.01789.66774.07158,1.38926-.70331,1.73243a5.93228,5.93228,0,0,0-2.75864,2.99549v10.90908a5.35127,5.35127,0,0,0,4.18087,3.28093c.80485.09654.69843.79157.70319,1.34387.01644,1.90227.05585,3.80622-.00275,5.70676a5.63611,5.63611,0,0,0,3.157,5.745H54.37273l.82656-4.40825C55.03347,133.52682,54.85272,133.50791,54.67423,133.50806ZM14.57088,86.311q8.82677.05886,17.65409.00015c.96581-.00586,1.28157.272,1.10286,1.23958-.3558,1.92592-.65033,3.86345-.95064,5.79923-.14491.93415-.67281,1.24514-1.59145,1.2323-2.72657-.03812-5.454-.01367-8.18107-.01367-2.67925.00051-5.35911-.03294-8.03743.01661-1.10789.02052-1.55-.36788-1.50787-1.5003.06556-1.76768.07092-3.542-.00192-5.30923C13.00984,86.62089,13.47269,86.30366,14.57088,86.311ZM10.71656,99.23919c3.25105.03827,6.50281.01457,9.75427.01457,3.15584-.00031,6.312.024,9.46728-.01388,1.06158-.01273,1.473.25464,1.21574,1.418-.40161,1.81624-.691,3.66162-.93182,5.507-.12245.93837-.50505,1.34674-1.45853,1.34421q-9.0371-.02394-18.07425.0043c-.99041.0036-1.35624-.39307-1.33142-1.373.04723-1.86364.05412-3.7305-.00265-5.59361C9.324,99.5207,9.75143,99.22783,10.71656,99.23919Zm1.024,34.269c-.67016.00095-.93466-.33532-.9324-.97576q.01115-3.21927-.00075-6.43858c-.00243-.63258.23978-.98956.91849-.98811,2.6708.00563,5.34172.014,8.0124-.00645.87128-.00665.99235.53132,1.04166,1.20894a13.67077,13.67077,0,0,0,2.65783,7.19721C19.34439,133.50548,15.5425,133.50269,11.7406,133.50823Zm11.23761-14.44495a2.71347,2.71347,0,0,1-2.87544,1.55206c-4.20691-.093-8.41782-.07508-12.62575-.00927-1.2669.01981-1.696-.4-1.63857-1.65.08321-1.81369.053-3.63474.0109-5.45115-.02285-.98422.3523-1.35427,1.348-1.34235,3.34754.04012,6.69586.01528,10.04391.01528,3.25236-.00134,6.50477-.00571,9.75711.00468.36769.00119.85511-.17312,1.07544.17551.27438.43413-.16438.79885-.38,1.1445A15.55346,15.55346,0,0,1,25.26,116.503a10.38715,10.38715,0,0,0-2.28179,2.56023Z"/><path class="cls-1" d="M115.32117,80.24426a41.00532,41.00532,0,0,0-21.3018-27.45089c-.83362-.44648-1.00366-.71025-.34846-1.53921a8.44105,8.44105,0,0,0-1.90365-12.93189c-.83214-.56145-.75323-.8734-.12383-1.47778,1.41455-1.35823,2.81206-2.73738,4.15749-4.16374a8.62105,8.62105,0,0,0,.29944-11.734,8.42277,8.42277,0,0,0-11.874-.8224c-1.09295.90749-1.30422.607-1.69938-.534a8.45459,8.45459,0,0,0-8.06868-5.58955,8.57789,8.57789,0,0,0-8.11649,5.95185c-.11169.35019-.10113.75962-.51218,1.02193-.14219-.10351-.30039-.20078-.438-.32148A8.601,8.601,0,0,0,53.228,20.59387q-.091.09018-.1794.183a8.70076,8.70076,0,0,0,.501,12.29454q.03965.03654.07974.07259c1.34489,1.36135,2.68811,2.72514,4.064,4.05473.57863.55916.78915.86791-.03552,1.50821A8.46349,8.46349,0,0,0,55.73947,50.5214q.2261.31374.48011.60586c.71552.87748.70612,1.18607-.33207,1.70455A39.2229,39.2229,0,0,0,44.528,61.47175a2.35529,2.35529,0,1,0,3.431,3.10152,36.04284,36.04284,0,0,1,9.47791-7.358,21.5619,21.5619,0,0,1,11.87873-3.09961c4.86321.285,9.756.07462,14.63585.05723a7.65965,7.65965,0,0,1,2.66808.43949,36.76985,36.76985,0,0,1,23.8321,25.10457,6.67864,6.67864,0,0,1,.28894,1.17058h4.79746A3.55564,3.55564,0,0,1,115.32117,80.24426ZM56.68038,29.59158a3.81021,3.81021,0,0,1-1.26409-3.625,3.9281,3.9281,0,0,1,6.40121-2.29905c.60237.46472,1.11143,1.04975,1.66862,1.57391a4.056,4.056,0,0,0,7.0475-2.59208,4.01569,4.01569,0,0,1,3.31017-3.97356,3.90611,3.90611,0,0,1,4.10209,2.00464,3.50963,3.50963,0,0,1,.4554,1.49553,4.1606,4.1606,0,0,0,7.59108,2.57938,4.75269,4.75269,0,0,1,4.07287-2.00694,3.83508,3.83508,0,0,1,2.65487,6.33912c-2.29881,2.6789-4.93168,5.07146-7.42537,7.58244-.45554.45873-1.06168.36769-1.63024.3685q-4.59259.00626-9.18518.00194c-2.96606,0-5.9328-.03642-8.89779.01976a3.16472,3.16472,0,0,1-2.524-1.05917C60.96178,33.83557,58.80249,31.73171,56.68038,29.59158Zm30.13456,19.899c-3.96745.02375-7.93514.00619-11.9027.00619-3.91976,0-7.83964.01629-11.75929-.00585a3.9631,3.9631,0,1,1-.18313-7.89526q12.04518-.102,24.09159.00024a4.0848,4.0848,0,0,1,4.19716,3.96926l.0013.0661a4.03649,4.03649,0,0,1-4.18963,3.87732Q86.94234,49.50365,86.81494,49.4906Z"/><path class="cls-1" d="M148.22428,131.60505c-.164-.54876-.34443-1.09324-.48963-1.647q-2.32813-8.8782-4.64309-17.75991a5.58994,5.58994,0,0,0-3.475-4.25455,9.90719,9.90719,0,0,0-3.398-.43242c-2.87048-.0134-5.741-.00323-8.61153-.00972-.62974-.00143-1.20368.01351-1.37838-.86823-1.38535-6.99124-3.50073-13.79991-5.23774-20.70372a5.007,5.007,0,0,0-4.03019-4.02279,1.74693,1.74693,0,0,1-1.42256-1.0193h-4.79734c.06651.69823-.37526.7475-1.77586.74835-6.60209.004-13.20446-.01435-19.80658.01063a5.44321,5.44321,0,0,0-5.8936,3.85573c-1.87083,6.82229-3.67224,13.66564-5.34165,20.53936-.30782,1.26749-.7906,1.47388-1.887,1.48359-3.3462.02914-6.69533-.176-10.03925.128a5.17412,5.17412,0,0,0-4.72014,3.79113c-.31143.90113-.5133,1.84133-.74395,2.769-1.54488,6.21385-3.45332,12.33663-4.69436,18.62529-.10276.52081-.34766.64919-.639.67423l-.82656,4.40825h68.58832c.06126-.07335.11711-.1521.18454-.21929a2.34164,2.34164,0,0,0,.78185-2.82,2.46308,2.46308,0,0,0-2.59684-1.37631c-4.9756.02159-9.95137.01236-14.92708.00637-2.00427-.00243-2.16973-.23968-1.6605-2.17612,1.53186-5.82549,3.07955-11.64708,4.56166-17.48528a1.90066,1.90066,0,0,1,2.07181-1.71251q.05228.005.10421.01281,12.55843.07706,25.11755.00537c1.19187-.00559,1.80461.32473,2.11469,1.55745,1.49254,5.934,3.08016,11.844,4.61983,17.76629.45249,1.74049.22241,2.0245-1.59285,2.03075-3.1098.01068-6.2197.017-9.32944-.00185-1.1953-.00716-2.21176.269-2.63829,1.51645a2.313,2.313,0,0,0,1.22712,2.896c5.45455,0,10.90918-.01574,16.36352.019.71824.00458.90457-.15965.881-.8809C148.18458,135.24271,148.22428,133.42324,148.22428,131.60505Zm-50.40478,1.905q-8.88959.01185-17.77922.003-8.81789.00044-17.63581-.00216c-1.90836-.00215-2.08714-.259-1.60135-2.10688,1.51785-5.77327,3.065-11.53928,4.51742-17.329a2.11249,2.11249,0,0,1,2.26207-1.95145q.08473.00625.16878.01929c8.26778.07018,16.53644.05884,24.80442.00775a1.9383,1.9383,0,0,1,2.255,1.55857q.01473.08071.02261.16246c1.46659,5.88446,3.04994,11.73965,4.57669,17.60922C99.86242,133.21932,99.6319,133.50764,97.8195,133.51007Zm6.87338-20.2491q-1.247,4.75854-2.493,9.5173l-.27883-.064c-.819-3.13282-1.6191-6.27084-2.46986-9.395-.22045-.80961-.07122-1.17062.81872-1.14741,1.19182.03115,2.3851.01891,3.5776.00728C104.62037,112.17154,104.88465,112.52919,104.69288,113.261Zm15.23582-5.75953q-8.966.01581-17.93213.004-8.82261.00072-17.64522-.00243c-1.85092-.00243-2.04269-.23973-1.584-2.00178,1.52861-5.87262,3.09675-11.73515,4.59053-17.61655a1.72914,1.72914,0,0,1,1.861-1.58627q.04663.00372.093.01,12.69569.05814,25.39172.00265a1.74355,1.74355,0,0,1,2.01589,1.41989q.00645.03716.01128.07458c1.52035,5.973,3.1153,11.927,4.67015,17.89124.41966,1.6101.26375,1.80168-1.47215,1.80473Z"/></svg>