<?xml version="1.0" encoding="utf-8"?>
<!-- Generator: Adobe Illustrator 23.0.5, SVG Export Plug-In . SVG Version: 6.00 Build 0)  -->
<svg version="1.1" id="Layer_1" xmlns="http://www.w3.org/2000/svg" xmlns:xlink="http://www.w3.org/1999/xlink" x="0px" y="0px"
	 viewBox="0 0 150 150" style="enable-background:new 0 0 150 150;" xml:space="preserve">
<style type="text/css">
	.st0{fill:#663399;}
</style>
<title>1</title>
<path class="st0" d="M54.7,133.5c-7.1,0-14.2,0-21.2,0c-1.8,0.1-3.5-0.5-5-1.6c-3.3-2.4-4-7.1-1.6-10.4c0.3-0.4,0.7-0.8,1.1-1.2
	c3.5-3.2,5.8-7.4,6.7-12.1c1-5.9,2-11.9,3-17.8c1-6.1,1.8-12.3,4.8-17.9c0.3-0.5,0.3-1,0.2-1.5c-0.2-0.9-1-1.6-1.9-1.7
	c-1-0.2-2.1,0.4-2.5,1.4c-1.5,2.9-2.7,5.9-3.4,9.1c-0.3,1.5-0.9,1.9-2.4,1.9c-6.1-0.1-12.2-0.1-18.4,0c-2.7-0.4-5.3,1.5-5.7,4.3
	c-0.1,0.5-0.1,0.9,0,1.4c0,2.1,0,4.1,0,6.2c0.1,0.7-0.3,1.4-1,1.7c-1.5,0.7-2.5,2.2-2.6,3.9c-0.2,2.4-0.1,4.8-0.1,7.2
	c0,0.7,0.1,1.4-0.7,1.7c-1.2,0.6-2.2,1.7-2.8,3v10.9c0.7,1.8,2.3,3,4.2,3.3c0.8,0.1,0.7,0.8,0.7,1.3c0,1.9,0.1,3.8,0,5.7
	c-0.3,2.4,1,4.7,3.2,5.7h45.1l0.8-4.4C55,133.5,54.9,133.5,54.7,133.5z M14.6,86.3c5.9,0,11.8,0,17.7,0c1,0,1.3,0.3,1.1,1.2
	c-0.4,1.9-0.7,3.9-1,5.8c-0.1,0.9-0.7,1.2-1.6,1.2c-2.7,0-5.5,0-8.2,0c-2.7,0-5.4,0-8,0c-1.1,0-1.6-0.4-1.5-1.5
	c0.1-1.8,0.1-3.5,0-5.3C13,86.6,13.5,86.3,14.6,86.3z M10.7,99.2c3.3,0,6.5,0,9.8,0c3.2,0,6.3,0,9.5,0c1.1,0,1.5,0.3,1.2,1.4
	c-0.4,1.8-0.7,3.7-0.9,5.5c-0.1,0.9-0.5,1.3-1.5,1.3c-6,0-12,0-18.1,0c-1,0-1.4-0.4-1.3-1.4c0-1.9,0.1-3.7,0-5.6
	C9.3,99.5,9.8,99.2,10.7,99.2z M11.7,133.5c-0.7,0-0.9-0.3-0.9-1c0-2.1,0-4.3,0-6.4c0-0.6,0.2-1,0.9-1c2.7,0,5.3,0,8,0
	c0.9,0,1,0.5,1,1.2c0.2,2.6,1.1,5.1,2.7,7.2C19.3,133.5,15.5,133.5,11.7,133.5L11.7,133.5z M23,119.1c-0.5,1.1-1.7,1.7-2.9,1.6
	c-4.2-0.1-8.4-0.1-12.6,0c-1.3,0-1.7-0.4-1.6-1.7c0.1-1.8,0.1-3.6,0-5.5c0-1,0.4-1.4,1.3-1.3c3.3,0,6.7,0,10,0c3.3,0,6.5,0,9.8,0
	c0.4,0,0.9-0.2,1.1,0.2c0.3,0.4-0.2,0.8-0.4,1.1c-0.7,1.1-1.5,2.1-2.4,3C24.4,117.2,23.6,118.1,23,119.1L23,119.1z"/>
<path class="st0" d="M115.3,80.2c-2.7-11.9-10.5-21.9-21.3-27.5c-0.8-0.4-1-0.7-0.3-1.5c3.1-3.4,2.9-8.8-0.5-11.9
	c-0.4-0.4-0.9-0.7-1.4-1c-0.8-0.6-0.8-0.9-0.1-1.5c1.4-1.4,2.8-2.7,4.2-4.2c3.2-3.2,3.3-8.3,0.3-11.7c-3.1-3.5-8.4-3.9-11.9-0.8
	c-1.1,0.9-1.3,0.6-1.7-0.5c-1.2-3.4-4.5-5.6-8.1-5.6c-3.7,0-7,2.4-8.1,6c-0.1,0.4-0.1,0.8-0.5,1c-0.1-0.1-0.3-0.2-0.4-0.3
	c-3.3-3.4-8.8-3.4-12.2-0.1c0,0,0,0,0,0c-0.1,0.1-0.1,0.1-0.2,0.2c-3.3,3.5-3,9,0.5,12.3c0,0,0,0,0,0c0,0,0.1,0,0.1,0.1
	c1.3,1.4,2.7,2.7,4.1,4.1c0.6,0.6,0.8,0.9,0,1.5c-3.8,2.7-4.7,8-1.9,11.8c0,0,0,0,0,0c0.2,0.2,0.3,0.4,0.5,0.6
	c0.7,0.9,0.7,1.2-0.3,1.7c-4.3,2.2-8.1,5.1-11.4,8.6c-1,0.8-1.2,2.3-0.5,3.3c0.8,1,2.3,1.2,3.3,0.5c0.2-0.2,0.4-0.4,0.6-0.7
	c2.7-3,5.9-5.5,9.5-7.4c3.6-2.2,7.7-3.2,11.9-3.1c4.9,0.3,9.8,0.1,14.6,0.1c0.9,0,1.8,0.1,2.7,0.4c11.6,3.9,20.6,13.3,23.8,25.1
	c0.1,0.4,0.2,0.8,0.3,1.2h4.8C115.4,80.7,115.4,80.5,115.3,80.2z M56.7,29.6c-1-0.9-1.5-2.3-1.3-3.6c0.4-2.1,2.4-3.6,4.6-3.2
	c0.7,0.1,1.3,0.4,1.8,0.9c0.6,0.5,1.1,1,1.7,1.6c1.5,1.7,4.1,1.8,5.7,0.3c0.8-0.7,1.3-1.8,1.3-2.8c0-2,1.4-3.6,3.3-4
	c1.7-0.3,3.3,0.5,4.1,2c0.3,0.5,0.4,1,0.5,1.5c-0.1,2.3,1.6,4.3,3.9,4.4c1.5,0.1,2.8-0.6,3.7-1.8c0.9-1.3,2.5-2.1,4.1-2
	c2.1,0.1,3.7,2,3.6,4.1c-0.1,0.8-0.4,1.6-0.9,2.3c-2.3,2.7-4.9,5.1-7.4,7.6c-0.5,0.5-1.1,0.4-1.6,0.4c-3.1,0-6.1,0-9.2,0
	c-3,0-5.9,0-8.9,0c-1,0-1.9-0.3-2.5-1.1C61,33.8,58.8,31.7,56.7,29.6z M86.8,49.5c-4,0-7.9,0-11.9,0c-3.9,0-7.8,0-11.8,0
	C61,49.7,59,48.2,58.8,46c-0.2-2.2,1.3-4.1,3.5-4.4c0.2,0,0.5,0,0.7,0c8-0.1,16.1-0.1,24.1,0c2.3-0.1,4.1,1.7,4.2,4l0,0.1
	c-0.1,2.2-2,4-4.2,3.9h0C87,49.5,86.9,49.5,86.8,49.5L86.8,49.5z"/>
<path class="st0" d="M148.2,131.6c-0.2-0.5-0.3-1.1-0.5-1.6c-1.6-5.9-3.1-11.8-4.6-17.8c-0.3-1.9-1.7-3.5-3.5-4.3
	c-1.1-0.3-2.2-0.5-3.4-0.4c-2.9,0-5.7,0-8.6,0c-0.6,0-1.2,0-1.4-0.9c-1.4-7-3.5-13.8-5.2-20.7c-0.4-2-2-3.7-4-4
	c-0.6-0.1-1.2-0.4-1.4-1h-4.8c0.1,0.7-0.4,0.7-1.8,0.7c-6.6,0-13.2,0-19.8,0c-2.6-0.3-5.1,1.3-5.9,3.9c-1.9,6.8-3.7,13.7-5.3,20.5
	c-0.3,1.3-0.8,1.5-1.9,1.5c-3.3,0-6.7-0.2-10,0.1c-2.2,0.1-4.1,1.6-4.7,3.8c-0.3,0.9-0.5,1.8-0.7,2.8c-1.5,6.2-3.5,12.3-4.7,18.6
	c-0.1,0.5-0.3,0.6-0.6,0.7l-0.8,4.4H123c0.1-0.1,0.1-0.2,0.2-0.2c0.9-0.6,1.2-1.8,0.8-2.8c-0.5-1-1.5-1.5-2.6-1.4c-5,0-10,0-14.9,0
	c-2,0-2.2-0.2-1.7-2.2c1.5-5.8,3.1-11.6,4.6-17.5c0.1-1,1-1.8,2.1-1.7c0,0,0,0,0,0c0,0,0.1,0,0.1,0c8.4,0.1,16.7,0.1,25.1,0
	c1.2,0,1.8,0.3,2.1,1.6c1.5,5.9,3.1,11.8,4.6,17.8c0.5,1.7,0.2,2-1.6,2c-3.1,0-6.2,0-9.3,0c-1.2,0-2.2,0.3-2.6,1.5
	c-0.4,1.1,0.1,2.4,1.2,2.9c5.5,0,10.9,0,16.4,0c0.7,0,0.9-0.2,0.9-0.9C148.2,135.2,148.2,133.4,148.2,131.6z M97.8,133.5
	c-5.9,0-11.9,0-17.8,0c-5.9,0-11.8,0-17.6,0c-1.9,0-2.1-0.3-1.6-2.1c1.5-5.8,3.1-11.5,4.5-17.3c0.1-1.2,1.1-2,2.3-2
	c0.1,0,0.1,0,0.2,0c8.3,0.1,16.5,0.1,24.8,0c1.1-0.2,2.1,0.5,2.3,1.6c0,0,0,0,0,0c0,0.1,0,0.1,0,0.2c1.5,5.9,3,11.7,4.6,17.6
	C99.9,133.2,99.6,133.5,97.8,133.5L97.8,133.5z M104.7,113.3c-0.8,3.2-1.7,6.3-2.5,9.5l-0.3-0.1c-0.8-3.1-1.6-6.3-2.5-9.4
	c-0.2-0.8-0.1-1.2,0.8-1.1c1.2,0,2.4,0,3.6,0C104.6,112.2,104.9,112.5,104.7,113.3L104.7,113.3z M119.9,107.5c-6,0-12,0-17.9,0
	c-5.9,0-11.8,0-17.6,0c-1.9,0-2-0.2-1.6-2c1.5-5.9,3.1-11.7,4.6-17.6c0.1-1,0.9-1.7,1.9-1.6c0,0,0.1,0,0.1,0c8.5,0,16.9,0,25.4,0
	c0.9-0.2,1.9,0.5,2,1.4c0,0,0,0,0,0.1c1.5,6,3.1,11.9,4.7,17.9C121.8,107.3,121.7,107.5,119.9,107.5L119.9,107.5z"/>
</svg>
