<svg id="Layer_1" data-name="Layer 1" xmlns="http://www.w3.org/2000/svg" viewBox="0 0 150 150"><defs><style>.cls-1{fill:#8dd280;}</style></defs><title>1</title><path class="cls-1" d="M141.91667,135.83333h-109.5a18.25,18.25,0,0,1-18.25-18.25v-109.5A6.08334,6.08334,0,0,0,2,8.08333v109.5A30.45316,30.45316,0,0,0,32.41667,148h109.5a6.08334,6.08334,0,0,0,0-12.16667Z"/><path class="cls-1" d="M38.5,123.66667a6.08334,6.08334,0,0,0,6.08333-6.08334V75a6.08333,6.08333,0,0,0-12.16666,0v42.58333A6.08334,6.08334,0,0,0,38.5,123.66667Z"/><path class="cls-1" d="M62.83333,62.83333v54.75a6.08334,6.08334,0,1,0,12.16667,0v-54.75a6.08334,6.08334,0,0,0-12.16667,0Z"/><path class="cls-1" d="M93.25,81.08333v36.5a6.08334,6.08334,0,1,0,12.16667,0v-36.5a6.08334,6.08334,0,0,0-12.16667,0Z"/><path class="cls-1" d="M123.66667,56.75v60.83333a6.08333,6.08333,0,1,0,12.16666,0V56.75a6.08333,6.08333,0,1,0-12.16666,0Z"/><path class="cls-1" d="M38.5,56.75a6.08336,6.08336,0,0,0,4.30092-1.78242L64.61575,33.15275a6.23542,6.23542,0,0,1,8.60183,0l13.213,13.213a18.25,18.25,0,0,0,25.80549,0l33.98151-33.9815a6.08333,6.08333,0,0,0-8.60183-8.60183l-33.9815,33.97541a6.08334,6.08334,0,0,1-8.60183,0l-13.213-13.20691a18.25,18.25,0,0,0-25.80551,0L34.19908,46.36575A6.08334,6.08334,0,0,0,38.5,56.75Z"/></svg>