<svg id="Layer_1" data-name="Layer 1" xmlns="http://www.w3.org/2000/svg" viewBox="0 0 150 150"><defs><style>.cls-1{fill:#fff;}</style></defs><title>2</title><path class="cls-1" d="M54.08312,148.9999a15.43018,15.43018,0,0,1-6.38774-3.77819,12.28656,12.28656,0,0,1,.55446-17.367q.222-.20832.4542-.40541a3.01685,3.01685,0,0,0,1.31113-2.81754,15.74021,15.74021,0,0,1,.00193-2.88684c.14464-1.43885-.354-2.01217-1.85233-1.8949a10.54557,10.54557,0,0,1-5.88632-1.07853,9.31961,9.31961,0,0,1-4.95643-9.21376,9.10689,9.10689,0,0,1,7.28709-7.97924c1.38173-.24779,1.452-.85839,1.2663-1.95469Q43.08027,83.11791,40.32126,66.606c-2.184-12.99841-4.39136-25.993-6.5318-38.99854a4.6562,4.6562,0,0,0-3.15107-4.04739c-5.75248-2.21013-11.45472-4.551-17.17678-6.84026-.3129-.1252-.63188-.23633-.94-.3723a2.391,2.391,0,0,1-1.56771-2.99594q.02214-.07077.04866-.14008a2.30109,2.30109,0,0,1,2.99412-1.27484q.07725.03112.1521.06776c6.49238,2.566,12.9911,5.11918,19.43482,7.80348A7.81667,7.81667,0,0,1,38.2589,26.161c1.05184,6.1649,2.107,12.32946,3.1,18.50394.1653,1.02771.56418,1.36167,1.58572,1.3492q5.85147-.0714,11.7042.00052c1.10184.01425,1.40008-.4113,1.39244-1.44689-.03648-4.961-.01714-9.92234-.013-14.88357a6.71039,6.71039,0,0,1,.06427-1.43954,2.159,2.159,0,0,1,2.07886-1.87845,2.09883,2.09883,0,0,1,2.37326,1.66541,8.2436,8.2436,0,0,1,.1983,2.00035c.016,4.7685.04025,9.53744-.01223,14.30543-.0135,1.22432.32316,1.68646,1.6269,1.68311q22.61438-.05837,45.229-.00037c1.26053.00316,1.65547-.35988,1.65121-1.63594q-.06192-18.64057.00331-37.28132c.00527-1.36522-.44763-1.69357-1.74424-1.69-14.54643.03954-29.093.02247-43.63955.02766-2.54438.00091-3.09964.57956-3.10431,3.1734-.005,2.79369.00091,5.5874-.00372,8.38112a11.12332,11.12332,0,0,1-.054,1.442,2.32088,2.32088,0,0,1-2.33468,2.307q-.06159-.00036-.12311-.004a2.29724,2.29724,0,0,1-2.20827-2.3829q.003-.0795.01155-.15864c-.02937-3.66043-.07065-7.32281.018-10.9814a6.323,6.323,0,0,1,3.29-5.44322c.4511-.2742.92136-.51677,1.38279-.7739h50.29675a5.51232,5.51232,0,0,1,2.92951,5.50732c-.041,12.4777-.01958,24.95563-.018,37.43348.00027,2.05189.00489,2.05424,2.07607,2.05473,5.73307.00137,11.47059.13631,17.19746-.05193a4.64964,4.64964,0,0,1,5.05686,5.81352c-1.6305,9.38624-3.166,18.789-4.74348,28.18445-.90828,5.40942-1.7925,10.82312-2.74529,16.2247a11.54944,11.54944,0,0,1-11.6508,9.81863c-3.95039.0236-7.901.00164-11.85151.007a3.60615,3.60615,0,0,1-2.08407-.45392,2.16776,2.16776,0,0,1-1.05958-2.08065,2.22353,2.22353,0,0,1,1.3632-1.90486,4.66984,4.66984,0,0,1,1.98344-.30052c3.85418.003,7.7084.01359,11.56247-.00354a6.77892,6.77892,0,0,0,7.17192-5.97116c1.39506-8.10843,2.72936-16.2271,4.08864-24.34157q1.53811-9.18213,3.08093-18.36347c.34429-2.02933.36882-2.02679-1.62207-2.02681q-43.79289-.00051-87.5858.00031c-1.80059,0-1.83477.00933-1.55188,1.69994,2.63627,15.75535,5.30348,31.50556,7.89894,47.26762.23047,1.39961.77265,1.78253,2.14134,1.77808,14.01936-.04562,28.03892-.02881,42.05842-.02468a6.69784,6.69784,0,0,1,2.15072.1643,2.23289,2.23289,0,0,1,1.73029,2.22562,2.18624,2.18624,0,0,1-1.88663,2.23636,9.02439,9.02439,0,0,1-1.86909.10192q-23.9199.00753-47.83977.0083a4.57769,4.57769,0,0,0-1.02846,9.09643c.71822.06047,1.44421.03766,2.16665.0377q38.5175.00246,77.035.00191c.57806,0,1.15855-.02365,1.73371.01981a2.51958,2.51958,0,0,1,2.58187,2.40154,2.45812,2.45812,0,0,1-2.60582,2.301l-.0527-.00384c-2.79374.03881-5.58835.0151-8.38263.01572-3.98545.00093-3.91371.00216-4.01845,3.93609a4.72023,4.72023,0,0,0,1.75408,4.08519,12.26209,12.26209,0,0,1-4.52735,20.60832c-.50036.16986-1.00349.33151-1.50532.497h-4.914c-.54595-.18519-1.09462-.36213-1.63706-.55677a12.18774,12.18774,0,0,1-4.77313-20.03818,6.35316,6.35316,0,0,0,2.27257-5.87322,5.395,5.395,0,0,1-.00453-.72195c-.0049-1.92869-.0049-1.93464-1.886-1.93515q-12.934-.00352-25.868-.00106c-2.84211,0-5.68471.03345-8.526-.01557-1.05569-.01821-1.49318.33769-1.43323,1.41675a30.99123,30.99123,0,0,1-.00127,3.46665,2.792,2.792,0,0,0,1.18358,2.57278,12.16571,12.16571,0,0,1,3.18643,15.01113,13.02183,13.02183,0,0,1-8.47412,6.6745Zm10.32814-12.17016a7.66147,7.66147,0,0,0-7.62628-7.69649q-.04077-.0002-.08153.00006a7.702,7.702,0,1,0,7.707,7.79766Q64.41121,136.88035,64.41126,136.82974Zm50.95433.01131a7.63975,7.63975,0,1,0-15.27889-.13615q-.00061.06969,0,.13938a7.63958,7.63958,0,1,0,15.27888.09151Q115.3659,136.88844,115.36559,136.84105ZM58.66678,122.37871c.00587-2.6206.00668-2.59057-2.63647-2.51978-.89574.024-1.37431.28384-1.2996,1.24742.0334.43088.00265.86644.00274,1.3.00034,2.00508.00057,2.003,2.035,2.00072a4.14211,4.14211,0,0,1,.86346.05385c.78868.16842,1.06279-.19441,1.0372-.92627C58.65569,123.14958,58.66678,122.764,58.66678,122.37871Zm51.11014-.07957c0-.14356.00025-.28711,0-.43064-.00371-1.98794-.00374-1.98794-1.80353-1.99479-2.161-.00825-2.161-.00825-2.172,1.96556-.01361,2.42972-.00714,2.36628,2.37013,2.60775,1.09794.11152,1.80554.07817,1.61091-1.28738A6.09453,6.09453,0,0,1,109.77692,122.29914Z"/><path class="cls-1" d="M84.85789,9.57132q8.15522-.00047,16.31039.00279a3.53225,3.53225,0,0,1,4.06535,3.8019c.0894,1.82391.07993,3.65788.00781,5.48316a3.56853,3.56853,0,0,1-4.10233,3.91853q-16.23822.01076-32.47642-.00073a3.50153,3.50153,0,0,1-3.958-3.874q-.03837-2.742.00049-5.48475a3.472,3.472,0,0,1,3.84233-3.84188C73.9843,9.56128,79.42113,9.57163,84.85789,9.57132Zm.07957,8.67056q7.00743,0,14.0149-.00639c.466-.00106,1.13445.20609,1.34636-.25844a5.373,5.373,0,0,0,.11847-3.38691c-.17177-.79211-1.06168-.46626-1.638-.46745q-13.50915-.028-27.01831-.013c-2.35739,0-2.28255.00347-2.3653,2.36831-.04914,1.40374.43445,1.815,1.81656,1.79223C75.78607,18.19477,80.36216,18.24185,84.93746,18.24188Z"/><path class="cls-1" d="M84.72261,42.39663q-8.16272,0-16.32542-.00159a11.19876,11.19876,0,0,1-1.44241-.04309,2.32968,2.32968,0,0,1,.003-4.65512,10.53228,10.53228,0,0,1,1.29845-.036q16.68659-.00246,33.37317.0002a9.80038,9.80038,0,0,1,1.29817.04059,2.32437,2.32437,0,0,1-.004,4.64714,10.53828,10.53828,0,0,1-1.44219.04613Q93.102,42.39891,84.72261,42.39663Z"/></svg>