<?xml version="1.0" encoding="utf-8"?>
<!-- Generator: Adobe Illustrator 23.0.5, SVG Export Plug-In . SVG Version: 6.00 Build 0)  -->
<svg version="1.1" id="Layer_1" xmlns="http://www.w3.org/2000/svg" xmlns:xlink="http://www.w3.org/1999/xlink" x="0px" y="0px"
	 viewBox="0 0 150 150" style="enable-background:new 0 0 150 150;" xml:space="preserve">
<style type="text/css">
	.st0{fill:#663399;}
</style>
<title>2</title>
<path class="st0" d="M54.1,149c-2.4-0.7-4.6-2-6.4-3.8c-4.6-4.9-4.4-12.7,0.6-17.4c0,0,0,0,0,0c0.1-0.1,0.3-0.3,0.5-0.4
	c0.9-0.6,1.4-1.7,1.3-2.8c-0.1-1-0.1-1.9,0-2.9c0.1-1.4-0.4-2-1.9-1.9c-2,0.2-4.1-0.2-5.9-1.1c-3.4-1.8-5.3-5.4-5-9.2
	c0.4-4,3.4-7.2,7.3-8c1.4-0.2,1.5-0.9,1.3-2c-1.9-11-3.7-22-5.6-33c-2.2-13-4.4-26-6.5-39c-0.1-1.9-1.4-3.5-3.2-4
	c-5.8-2.2-11.5-4.6-17.2-6.8c-0.3-0.1-0.6-0.2-0.9-0.4c-1.3-0.4-2-1.7-1.6-3c0,0,0-0.1,0-0.1c0.5-1.2,1.8-1.7,3-1.3
	c0.1,0,0.1,0,0.2,0.1c6.5,2.6,13,5.1,19.4,7.8c2.6,1.1,4.4,3.5,4.7,6.4c1.1,6.2,2.1,12.3,3.1,18.5c0.2,1,0.6,1.4,1.6,1.3
	c3.9,0,7.8,0,11.7,0c1.1,0,1.4-0.4,1.4-1.4c0-5,0-9.9,0-14.9c0-0.5,0-1,0.1-1.4c0.1-1.1,1-1.8,2.1-1.9c1.1-0.2,2.2,0.6,2.4,1.7
	c0.1,0.7,0.2,1.3,0.2,2c0,4.8,0,9.5,0,14.3c0,1.2,0.3,1.7,1.6,1.7c15.1,0,30.2,0,45.2,0c1.3,0,1.7-0.4,1.7-1.6c0-12.4,0-24.9,0-37.3
	c0-1.4-0.4-1.7-1.7-1.7c-14.5,0-29.1,0-43.6,0c-2.5,0-3.1,0.6-3.1,3.2c0,2.8,0,5.6,0,8.4c0,0.5,0,1-0.1,1.4c0,1.3-1.1,2.3-2.3,2.3
	l0,0c0,0-0.1,0-0.1,0c-1.3,0-2.3-1.1-2.2-2.4c0,0,0,0,0,0c0-0.1,0-0.1,0-0.2c0-3.7-0.1-7.3,0-11c0-2.3,1.3-4.4,3.3-5.4
	c0.5-0.3,0.9-0.5,1.4-0.8H111c2,1.1,3.2,3.2,2.9,5.5c0,12.5,0,25,0,37.4c0,2.1,0,2.1,2.1,2.1c5.7,0,11.5,0.1,17.2-0.1
	c2.5-0.3,4.9,1.5,5.2,4.1c0.1,0.6,0,1.2-0.1,1.8c-1.6,9.4-3.2,18.8-4.7,28.2c-0.9,5.4-1.8,10.8-2.7,16.2c-0.9,5.7-5.9,9.9-11.7,9.8
	c-4,0-7.9,0-11.9,0c-0.7,0.1-1.5-0.1-2.1-0.5c-0.7-0.4-1.1-1.2-1.1-2.1c0.1-0.8,0.6-1.6,1.4-1.9c0.6-0.2,1.3-0.3,2-0.3
	c3.9,0,7.7,0,11.6,0c3.6,0.2,6.7-2.4,7.2-6c1.4-8.1,2.7-16.2,4.1-24.3c1-6.1,2.1-12.2,3.1-18.4c0.3-2,0.4-2-1.6-2
	c-29.2,0-58.4,0-87.6,0c-1.8,0-1.8,0-1.6,1.7c2.6,15.8,5.3,31.5,7.9,47.3c0.2,1.4,0.8,1.8,2.1,1.8c14,0,28,0,42.1,0
	c0.7-0.1,1.4,0,2.2,0.2c1,0.2,1.8,1.2,1.7,2.2c0,1.1-0.8,2.1-1.9,2.2c-0.6,0.1-1.2,0.1-1.9,0.1c-15.9,0-31.9,0-47.8,0
	c-2.5-0.2-4.8,1.6-5,4.1c-0.2,2.5,1.5,4.7,4,5c0.7,0.1,1.4,0,2.2,0c25.7,0,51.4,0,77,0c0.6,0,1.2,0,1.7,0c1.4,0,2.5,1,2.6,2.4
	c-0.1,1.4-1.3,2.4-2.6,2.3c0,0,0,0,0,0l-0.1,0c-2.8,0-5.6,0-8.4,0c-4,0-3.9,0-4,3.9c-0.1,1.6,0.5,3.1,1.8,4.1
	c5,4.6,5.2,12.4,0.6,17.3c-1.4,1.5-3.2,2.6-5.1,3.3c-0.5,0.2-1,0.3-1.5,0.5h-4.9c-0.5-0.2-1.1-0.4-1.6-0.6
	c-6.4-2.2-9.8-9.1-7.6-15.5c0.6-1.7,1.5-3.3,2.8-4.6c1.7-1.4,2.6-3.7,2.3-5.9c0-0.2,0-0.5,0-0.7c0-1.9,0-1.9-1.9-1.9
	c-8.6,0-17.2,0-25.9,0c-2.8,0-5.7,0-8.5,0c-1.1,0-1.5,0.3-1.4,1.4c0.1,1.2,0.1,2.3,0,3.5c-0.1,1,0.4,2,1.2,2.6
	c4.5,3.6,5.8,9.9,3.2,15c-1.7,3.3-4.8,5.8-8.5,6.7L54.1,149z M64.4,136.8c0-4.2-3.4-7.7-7.6-7.7c0,0-0.1,0-0.1,0
	c-4.3,0-7.7,3.5-7.7,7.7c0,4.3,3.5,7.7,7.7,7.7c4.2,0,7.6-3.4,7.7-7.6C64.4,136.9,64.4,136.9,64.4,136.8L64.4,136.8z M115.4,136.8
	c0-4.2-3.3-7.7-7.6-7.7c-4.2,0-7.7,3.3-7.7,7.6c0,0,0,0,0,0c0,0,0,0.1,0,0.1c0,4.2,3.4,7.7,7.6,7.7c4.2,0,7.7-3.4,7.7-7.6
	C115.4,136.9,115.4,136.9,115.4,136.8C115.4,136.9,115.4,136.9,115.4,136.8L115.4,136.8z M58.7,122.4c0-2.6,0-2.6-2.6-2.5
	c-0.9,0-1.4,0.3-1.3,1.2c0,0.4,0,0.9,0,1.3c0,2,0,2,2,2c0.3,0,0.6,0,0.9,0.1c0.8,0.2,1.1-0.2,1-0.9
	C58.7,123.1,58.7,122.8,58.7,122.4z M109.8,122.3c0-0.1,0-0.3,0-0.4c0-2,0-2-1.8-2c-2.2,0-2.2,0-2.2,2c0,2.4,0,2.4,2.4,2.6
	c1.1,0.1,1.8,0.1,1.6-1.3C109.8,122.9,109.8,122.6,109.8,122.3z"/>
<path class="st0" d="M84.9,9.6c5.4,0,10.9,0,16.3,0c1.9-0.3,3.7,1,4,2.9c0,0.3,0.1,0.6,0,0.9c0.1,1.8,0.1,3.7,0,5.5
	c0.2,2-1.2,3.7-3.2,3.9c-0.3,0-0.6,0-0.9,0c-10.8,0-21.7,0-32.5,0c-1.9,0.3-3.7-1.1-3.9-3c0-0.3,0-0.6,0-0.9c0-1.8,0-3.7,0-5.5
	c-0.2-1.9,1.2-3.6,3.1-3.8c0.3,0,0.5,0,0.8,0C74,9.6,79.4,9.6,84.9,9.6z M84.9,18.2c4.7,0,9.3,0,14,0c0.5,0,1.1,0.2,1.3-0.3
	c0.4-1.1,0.4-2.3,0.1-3.4c-0.2-0.8-1.1-0.5-1.6-0.5c-9,0-18,0-27,0c-2.4,0-2.3,0-2.4,2.4c0,1.4,0.4,1.8,1.8,1.8
	C75.8,18.2,80.4,18.2,84.9,18.2z"/>
<path class="st0" d="M84.7,42.4c-5.4,0-10.9,0-16.3,0c-0.5,0-1,0-1.4,0c-1.3-0.1-2.3-1.1-2.2-2.4c0.1-1.2,1-2.2,2.2-2.2
	c0.4,0,0.9-0.1,1.3,0c11.1,0,22.2,0,33.4,0c0.4,0,0.9,0,1.3,0c1.3,0,2.3,1.1,2.3,2.4c0,1.2-1,2.2-2.3,2.3c-0.5,0-1,0.1-1.4,0
	C95.9,42.4,90.3,42.4,84.7,42.4z"/>
</svg>
