<svg id="Layer_1" data-name="Layer 1" xmlns="http://www.w3.org/2000/svg" viewBox="0 0 150 150"><defs><style>.cls-1{fill:#9667f3;}</style></defs><title>1</title><path class="cls-1" d="M118.16667,13.33333H112V7.16667a6.16667,6.16667,0,1,0-12.33333,0v6.16666H50.33333V7.16667A6.16667,6.16667,0,1,0,38,7.16667v6.16666H31.83333A30.87034,30.87034,0,0,0,1,44.16667v74A30.87033,30.87033,0,0,0,31.83333,149h86.33334A30.87031,30.87031,0,0,0,149,118.16667v-74A30.87033,30.87033,0,0,0,118.16667,13.33333ZM13.33333,44.16667a18.5,18.5,0,0,1,18.5-18.5h86.33334a18.5,18.5,0,0,1,18.5,18.5v6.16666H13.33333Zm104.83334,92.5H31.83333a18.5,18.5,0,0,1-18.5-18.5v-55.5H136.66667v55.5A18.5,18.5,0,0,1,118.16667,136.66667Z"/><circle class="cls-1" cx="75" cy="93.5" r="9.25"/><circle class="cls-1" cx="44.16667" cy="93.5" r="9.25"/><circle class="cls-1" cx="105.83333" cy="93.5" r="9.25"/></svg>