<svg id="Layer_1" data-name="Layer 1" xmlns="http://www.w3.org/2000/svg" viewBox="0 0 150 150"><defs><style>.cls-1{fill:#fff;}</style></defs><title>3</title><path class="cls-1" d="M132.56572,143.4085c-1.37416.18746-.88061-.46524-.87571-1.70047.03994-9.97827.08666-19.95735-.00034-29.935a20.21,20.21,0,0,0-10.2509-17.88663,90.23037,90.23037,0,0,0-10.4053-4.7083c-.741-.33776-1.49307-.65094-2.465-1.07315.75666-.36156,1.22054-.57979,1.68151-.80405a17.46633,17.46633,0,0,0,9.61584-17.92815,16.54739,16.54739,0,0,0-3.64327-8.43929,22.47672,22.47672,0,0,1-5.24244-12.26717c-.32952-3.43171-.10681-6.86463-.16205-10.29634a44.53016,44.53016,0,0,0-.47119-7.73263,33.4525,33.4525,0,0,0-65.8097-.40786,94.62344,94.62344,0,0,0-.5415,15.06839,29.24576,29.24576,0,0,1-.46494,5.04655,25.90462,25.90462,0,0,1-5.34221,10.76275A17.2417,17.2417,0,0,0,45.0002,87.61765c.28684.128.65444.15593.75385.57289-.32151.5223-.91579.61279-1.41228.832-2.84069,1.25429-5.71522,2.43391-8.5365,3.72972a20.59264,20.59264,0,0,0-12.99345,19.7451c-.09151,7.85932-.01934,15.72054-.01858,23.58091,0,.37645-.02018,9.41719.0209,9.78969a2.11739,2.11739,0,0,0,2.05474,2.11854,2.28929,2.28929,0,0,0,1.36768-.27879,2.38173,2.38173,0,0,1-1.03739-2.90932,2.11041,2.11041,0,0,1,2.11484-1.38857c.05573-3.07089.07073-7.58995.072-8.09925.01955-7.95439-.09056-15.91109.067-23.86252a14.93042,14.93042,0,0,1,8.41273-13.59457c4.57589-2.392,9.43789-4.23525,14.16262-6.34519.86492-.38625,1.06716-.08789,1.06166.74593-.02159,3.24753-.03787,6.49571.00655,9.74279.01474,1.07975-.4495,1.38823-1.44514,1.35733q-2.32756-.0723-4.65909.00086a6.57163,6.57163,0,0,0-6.60318,6.53994q-.001.21321.01178.42616c.32374,3.83909.80807,7.66462,1.21572,11.49674.7059,6.63612,1.37595,13.27632,2.13511,19.90636.16057,1.4023-.249,1.70965-1.62106,1.70512-15.344-.05051,3.20242-.02787-12.14177-.03915-.22912-.00016-.45533.00389-.67493.01934-.02626,1.44519-.06153,2.57089-.10878,2.80465a2.13147,2.13147,0,0,1-.96866,1.49334l.03311.02555c46.79,0,58.93615,0,105.72614-.00014C134.13848,146.85274,132.56572,143.4085,132.56572,143.4085ZM112.891,64.12122A11.802,11.802,0,0,1,114.068,77.40841a12.30445,12.30445,0,0,1-11.79447,7.002c-4.51143.28793-10.16315-3.44049-11.13416-7.1827-.29643-1.14245-.268-1.78333.85839-2.52173a20.5783,20.5783,0,0,0,9.71981-17.64182c.11025-4.70273.05545-9.41051.00021-14.11516-.01421-1.2083.31429-1.67168,1.589-1.62791,3.45711.11865,3.17842-.57252,3.0189,3.0749A28.348,28.348,0,0,0,112.891,64.12122ZM95.53759,94.32192A70.59806,70.59806,0,0,1,76.41313,96.6006,76.88578,76.88578,0,0,1,57.4243,94.33952a1.88418,1.88418,0,0,1-1.74269-2.28841c.15484-3.60721-.53674-2.82278,2.73178-4.15092a14.88373,14.88373,0,0,0,9.47562-9.734c.18449-.62094.50676-.78473,1.14107-.68267a51.522,51.522,0,0,0,16.55179-.00725c.5385-.08754.88627-.01015,1.06581.58784a14.77761,14.77761,0,0,0,9.89918,9.84956c.39707.14441.76678.36793,1.168.49559a1.4133,1.4133,0,0,1,1.10048,1.565C98.72383,94.146,99.4079,93.31569,95.53759,94.32192Zm-.03207,9.01251c-6.11886.02975-12.238.008-18.357.008-6.58972-.00044-13.17966-.02863-19.769.02387-1.28473.01024-1.72348-.37127-1.69845-1.683.05787-3.02995.00732-3.07637,2.949-2.41048a82.2082,82.2082,0,0,0,38.4331-.60837c1.67883-.42493,1.75453-.37543,1.73843,1.39291-.03466,3.824.48807,3.25868-3.296,3.27707Zm2.32009-87.37977a28.62309,28.62309,0,0,1,8.37905,19.05963c.05109,1.18683-.281,1.67344-1.54543,1.72137a23.23731,23.23731,0,0,1-14.6756-4.08056c-1.4972-1.049-2.75121-.942-3.58831.22905-.80676,1.12851-.45279,2.43753.98958,3.482a24.05525,24.05525,0,0,0,8.37539,3.94281,1.51116,1.51116,0,0,1,1.383,1.6293q-.00459.056-.01331.11153c-.05225,3.05766-.026,6.1168-.014,9.17534a4.05671,4.05671,0,0,1-.12435,1.0124,28.82063,28.82063,0,0,1-.495,8.51864l.11446-.08868A15.578,15.578,0,0,1,84.57112,72.97323a37.25186,37.25186,0,0,1-14.72464-.02664,16.10513,16.10513,0,0,1-12.43057-15.555c-.03871-5.03454.02494-10.07008-.03683-15.10421-.01412-1.15.44309-1.54722,1.482-1.74749A56.48483,56.48483,0,0,0,95.91236,16.13991c.69568-1.00971,1.15064-.98345,1.91331-.18525Zm-49.19,18.6402a26.12236,26.12236,0,0,1,3.8987-12.81343A28.29128,28.29128,0,0,1,75.19346,7.66894a28.60833,28.60833,0,0,1,16.78135,3.778c.92.51515,1.05023.93044.43707,1.83074a52.53965,52.53965,0,0,1-35.68765,23.0529,6.1193,6.1193,0,0,1-.98324.08408c-.9398.011-1.8798.00391-2.81974.00391v.05554c-.84645,0-1.693.00625-2.53933-.0013-1.72581-.01535-1.82141-.09386-1.74618-1.8779ZM45.66957,82.81478A12.69961,12.69961,0,0,1,42.10212,63.449a27.70211,27.70211,0,0,0,6.12959-13.44065,37.05016,37.05016,0,0,0,.343-7.31346c-.05264-1.19276.30375-1.69376,1.58416-1.64971,2.86.09845,2.60765-.2655,2.618,2.55818.00792,2.16323.00158,4.32653.00158,6.9923a59.335,59.335,0,0,0,.4538,10.46733,20.3524,20.3524,0,0,0,9.25748,13.59637,1.86859,1.86859,0,0,1,.90627,2.65028,9.56783,9.56783,0,0,1-3.482,4.67388A12.97928,12.97928,0,0,1,45.66957,82.81478Zm67.91375,28.40184c-.73769,6.62885-1.40583,13.26543-2.09826,19.89928q-.58515,5.60593-1.155,11.21347a1.017,1.017,0,0,1-1.19121,1.0661c-.32847-.01551-.65838.00176-.98767.00176q-29.84733.00033-59.69456.02787c-1.405.00285-2.02481-.20982-2.17456-1.833-.72494-7.85664-1.61323-15.69827-2.45272-23.54426-.23984-2.24172-.50295-4.481-.76845-6.71986-.30923-2.60734.3304-3.35534,2.91982-3.356q16.229-.00359,32.458-.001,16.15848,0,32.317.00116C113.33876,107.97283,113.86717,108.66573,113.58332,111.21662ZM125.536,143.42488c-3.05411-.08688-6.11332-.07051-9.16856-.00615-1.20221.02533-1.59013-.19018-1.43853-1.5615,1.14556-10.36066,2.19518-20.732,3.25187-31.10237a6.48075,6.48075,0,0,0-6.61083-7.40249c-2.25637-.04309-4.515-.047-6.77105.00438-1.056.024-1.39231-.39242-1.37859-1.41423q.06437-4.79564.001-9.5926c-.01528-1.168.32832-1.3877,1.40158-.9143,3.95663,1.74508,7.94888,3.40926,11.912,5.13964a16.56956,16.56956,0,0,1,10.53017,16.20812c.06437,4.74857.012,9.4988.012,14.24826.00027,4.89053-.04849,9.78189.03116,14.67114C127.33118,143.09767,126.86672,143.46273,125.536,143.42488Z"/></svg>