<svg id="Layer_1" data-name="Layer 1" xmlns="http://www.w3.org/2000/svg" viewBox="0 0 150 150"><defs><style>.cls-1{fill:#ff4802;}</style></defs><title>1</title><path class="cls-1" d="M47.625,81.08333A27.375,27.375,0,1,1,75,53.70833,27.375,27.375,0,0,1,47.625,81.08333Zm0-42.58333A15.20834,15.20834,0,1,0,62.83333,53.70833,15.20833,15.20833,0,0,0,47.625,38.5ZM93.25,141.91667V138.875a45.625,45.625,0,0,0-91.25,0v3.04167a6.08334,6.08334,0,0,0,12.16667,0V138.875a33.45833,33.45833,0,0,1,66.91666,0v3.04167a6.08334,6.08334,0,0,0,12.16667,0ZM148,111.5A42.58333,42.58333,0,0,0,77.02575,79.76325a6.08333,6.08333,0,0,0,8.0309,9.13961q.04248-.03733.08427-.07544A30.41666,30.41666,0,0,1,135.83333,111.5,6.08334,6.08334,0,0,0,148,111.5ZM108.45833,56.75a27.375,27.375,0,1,1,27.375-27.375A27.375,27.375,0,0,1,108.45833,56.75Zm0-42.58333A15.20833,15.20833,0,1,0,123.66667,29.375,15.20833,15.20833,0,0,0,108.45833,14.16667Z"/></svg>