<?xml version="1.0" encoding="utf-8"?>
<!-- Generator: Adobe Illustrator 23.0.5, SVG Export Plug-In . SVG Version: 6.00 Build 0)  -->
<svg version="1.1" id="Layer_1" xmlns="http://www.w3.org/2000/svg" xmlns:xlink="http://www.w3.org/1999/xlink" x="0px" y="0px"
	 viewBox="0 0 150 150" style="enable-background:new 0 0 150 150;" xml:space="preserve">
<style type="text/css">
	.st0{fill:#663399;}
</style>
<title>3</title>
<path class="st0" d="M132.6,143.4c-1.4,0.2-0.9-0.5-0.9-1.7c0-10,0.1-20,0-29.9c0.1-7.4-3.8-14.2-10.3-17.9
	c-3.4-1.8-6.8-3.4-10.4-4.7c-0.7-0.3-1.5-0.7-2.5-1.1c0.8-0.4,1.2-0.6,1.7-0.8c6.7-3.3,10.6-10.5,9.6-17.9c-0.4-3.1-1.7-6-3.6-8.4
	c-2.9-3.5-4.8-7.7-5.2-12.3c-0.3-3.4-0.1-6.9-0.2-10.3c0.1-2.6-0.1-5.2-0.5-7.7C107.1,12.4,89.8,0.3,71.6,3.5
	c-13.7,2.4-24.5,13.1-27,26.7c-0.6,5-0.8,10-0.5,15.1c0,1.7-0.2,3.4-0.5,5c-0.9,4-2.7,7.6-5.3,10.8c-5.9,7.5-4.6,18.3,2.9,24.2
	c1.2,0.9,2.5,1.7,3.9,2.3c0.3,0.1,0.7,0.2,0.8,0.6c-0.3,0.5-0.9,0.6-1.4,0.8c-2.8,1.3-5.7,2.4-8.5,3.7c-8.1,3.2-13.2,11.1-13,19.7
	c-0.1,7.9,0,15.7,0,23.6c0,0.4,0,9.4,0,9.8c0,1.1,0.9,2.1,2.1,2.1c0.5,0.1,1,0,1.4-0.3c-1-0.6-1.5-1.8-1-2.9
	c0.3-0.9,1.2-1.4,2.1-1.4c0.1-3.1,0.1-7.6,0.1-8.1c0-8-0.1-15.9,0.1-23.9c-0.1-5.8,3.2-11.1,8.4-13.6c4.6-2.4,9.4-4.2,14.2-6.3
	c0.9-0.4,1.1-0.1,1.1,0.7c0,3.2,0,6.5,0,9.7c0,1.1-0.4,1.4-1.4,1.4c-1.6,0-3.1,0-4.7,0c-3.6,0-6.6,2.9-6.6,6.5c0,0,0,0,0,0
	c0,0.1,0,0.3,0,0.4c0.3,3.8,0.8,7.7,1.2,11.5c0.7,6.6,1.4,13.3,2.1,19.9c0.2,1.4-0.2,1.7-1.6,1.7c-15.3-0.1,3.2,0-12.1,0
	c-0.2,0-0.5,0-0.7,0c0,1.4-0.1,2.6-0.1,2.8c-0.1,0.6-0.4,1.2-1,1.5l0,0c46.8,0,58.9,0,105.7,0C134.1,146.9,132.6,143.4,132.6,143.4z
	 M112.9,64.1c3.1,3.8,3.6,9,1.2,13.3c-2.1,4.5-6.8,7.3-11.8,7c-4.5,0.3-10.2-3.4-11.1-7.2c-0.3-1.1-0.3-1.8,0.9-2.5
	c6.1-3.8,9.8-10.5,9.7-17.6c0.1-4.7,0.1-9.4,0-14.1c0-1.2,0.3-1.7,1.6-1.6c3.5,0.1,3.2-0.6,3,3.1C105.9,51.6,108.3,58.6,112.9,64.1z
	 M95.5,94.3c-6.2,1.6-12.7,2.4-19.1,2.3c-6.4,0-12.8-0.7-19-2.3c-1-0.1-1.8-0.9-1.8-2c0-0.1,0-0.2,0-0.3c0.2-3.6-0.5-2.8,2.7-4.2
	c4.5-1.5,8.1-5.2,9.5-9.7c0.2-0.6,0.5-0.8,1.1-0.7c5.5,0.9,11.1,0.9,16.6,0c0.5-0.1,0.9,0,1.1,0.6c1.4,4.7,5.2,8.4,9.9,9.8
	c0.4,0.1,0.8,0.4,1.2,0.5c0.7,0.2,1.2,0.8,1.1,1.6C98.7,94.1,99.4,93.3,95.5,94.3z M95.5,103.3c-6.1,0-12.2,0-18.4,0
	c-6.6,0-13.2,0-19.8,0c-1.3,0-1.7-0.4-1.7-1.7c0.1-3,0-3.1,2.9-2.4c12.7,2.8,25.9,2.6,38.4-0.6c1.7-0.4,1.8-0.4,1.7,1.4
	C98.8,103.9,99.3,103.3,95.5,103.3L95.5,103.3z M97.8,16c5.1,5.1,8.1,11.9,8.4,19.1c0.1,1.2-0.3,1.7-1.5,1.7
	c-5.2,0.3-10.4-1.1-14.7-4.1c-1.5-1-2.8-0.9-3.6,0.2c-0.8,1.1-0.5,2.4,1,3.5c2.5,1.8,5.4,3.2,8.4,3.9c0.8,0.1,1.5,0.8,1.4,1.6
	c0,0,0,0,0,0c0,0,0,0.1,0,0.1c-0.1,3.1,0,6.1,0,9.2c0,0.3,0,0.7-0.1,1c0.3,2.8,0.1,5.7-0.5,8.5l0.1-0.1c-1.2,6.1-5.9,11-12,12.3
	c-4.9,1-9.9,1-14.7,0c-7.2-1.7-12.4-8.1-12.4-15.6c0-5,0-10.1,0-15.1c0-1.2,0.4-1.5,1.5-1.7C74,37.8,87.4,29,95.9,16.1
	C96.6,15.1,97.1,15.2,97.8,16L97.8,16z M48.6,34.6c0.2-4.5,1.5-9,3.9-12.8c4.7-8.2,13.2-13.5,22.7-14.1C81,7.2,86.9,8.5,92,11.4
	c0.9,0.5,1.1,0.9,0.4,1.8C84.3,25.6,71.3,34,56.7,36.3c-0.3,0.1-0.7,0.1-1,0.1c-0.9,0-1.9,0-2.8,0v0.1c-0.8,0-1.7,0-2.5,0
	C48.7,36.5,48.6,36.4,48.6,34.6L48.6,34.6z M45.7,82.8c-6.2-3.4-8.4-11.1-5-17.2c0.4-0.8,0.9-1.5,1.5-2.1c3.2-3.8,5.3-8.5,6.1-13.4
	c0.4-2.4,0.5-4.9,0.3-7.3c-0.1-1.2,0.3-1.7,1.6-1.6c2.9,0.1,2.6-0.3,2.6,2.6c0,2.2,0,4.3,0,7c-0.2,3.5,0,7,0.5,10.5
	c1,5.6,4.4,10.6,9.3,13.6c1,0.4,1.4,1.5,1,2.4c0,0.1-0.1,0.1-0.1,0.2c-0.6,1.9-1.9,3.5-3.5,4.7C55.8,85.1,50.2,85.4,45.7,82.8z
	 M113.6,111.2c-0.7,6.6-1.4,13.3-2.1,19.9c-0.4,3.7-0.8,7.5-1.2,11.2c0,0.6-0.4,1-1,1.1c-0.1,0-0.2,0-0.2,0c-0.3,0-0.7,0-1,0
	c-19.9,0-39.8,0-59.7,0c-1.4,0-2-0.2-2.2-1.8c-0.7-7.9-1.6-15.7-2.5-23.5c-0.2-2.2-0.5-4.5-0.8-6.7c-0.3-2.6,0.3-3.4,2.9-3.4
	c10.8,0,21.6,0,32.5,0c10.8,0,21.5,0,32.3,0C113.3,108,113.9,108.7,113.6,111.2z M125.5,143.4c-3.1-0.1-6.1-0.1-9.2,0
	c-1.2,0-1.6-0.2-1.4-1.6c1.1-10.4,2.2-20.7,3.3-31.1c0.5-3.5-1.9-6.8-5.5-7.3c-0.4-0.1-0.7-0.1-1.1-0.1c-2.3,0-4.5,0-6.8,0
	c-1.1,0-1.4-0.4-1.4-1.4c0-3.2,0-6.4,0-9.6c0-1.2,0.3-1.4,1.4-0.9c4,1.7,7.9,3.4,11.9,5.1c6.6,2.6,10.9,9.1,10.5,16.2
	c0.1,4.7,0,9.5,0,14.2c0,4.9,0,9.8,0,14.7C127.3,143.1,126.9,143.5,125.5,143.4z"/>
</svg>
