<svg id="Layer_1" data-name="Layer 1" xmlns="http://www.w3.org/2000/svg" viewBox="0 0 150 150"><defs><style>.cls-1{fill:#fff;}</style></defs><title>4</title><path class="cls-1" d="M52.09958,147.34883q-21.15222-.00081-42.30445-.00264a8.11434,8.11434,0,0,1-7.955-5.03524,8.35235,8.35235,0,0,1,1.53692-9.44623,7.8537,7.8537,0,0,1,3.82323-2.35478A1.43639,1.43639,0,0,0,8.393,128.8863q-.03058-20.24242.00306-40.4849A2.69549,2.69549,0,0,0,7.379,86.32955,19.307,19.307,0,0,1,5.96758,59.06184q.05994-.06648.12049-.13241a18.37249,18.37249,0,0,1,14.34525-6.43164c2.006,0,2.006-.01221,1.11787-1.81543A34.10036,34.10036,0,1,1,84.20373,24.00124c.59172,1.62058.5917,1.62058,1.90967.53656a26.88848,26.88848,0,0,1,43.47875,16.28459A24.5248,24.5248,0,0,1,129.351,50.901c-.32139,1.27664.10086,1.60168,1.27352,1.82972a19.5323,19.5323,0,0,1-2.53607,38.79737q-5.45825.04774-10.9171-.00488c-.92-.00857-1.56874.1345-1.72441,1.20128a2.04976,2.04976,0,0,1-.57082,1.04737c-2.30306,2.34208-4.60834,4.68319-6.96552,6.97038a2.39341,2.39341,0,0,1-3.20219.27138c-.79269-.527-1.21269-.51058-1.45726.51a2.65114,2.65114,0,0,1-3.02622,2.15214c-.90825-.03663-1.82447.05617-2.72776-.02-1.19491-.10091-1.5788.36173-1.56707,1.55618.05164,5.256.022,10.51272.02183,15.7692,0,2.52714.0508,5.0558-.02254,7.58079a1.79527,1.79527,0,0,0,1.46564,2.04914,8.62283,8.62283,0,0,1-.733,16.54806,10.89384,10.89384,0,0,1-2.71291.18689Q73.02442,147.35317,52.09958,147.34883ZM45.23429,74.33759q14.55885,0,29.11768-.00232a13.51131,13.51131,0,0,0,1.66409-.06152c.81208-.10134,1.20822-.40462.61635-1.27415a2.64125,2.64125,0,0,1,.48335-3.68191q3.16754-3.15928,6.329-6.32487a2.60377,2.60377,0,0,1,3.55137-.54738c.83088.54291,1.21048.43744,1.44874-.54423a2.687,2.687,0,0,1,3.04178-2.13459c2.83032.044,5.66159.00591,8.49246.0138,2.11947.00589,2.55474.284,3.33163,2.34509.26928.71441.50225.79525,1.18592.44074a2.65563,2.65563,0,0,1,3.907.58638c2.05292,2.02178,4.07432,4.07556,6.1173,6.10741a2.66557,2.66557,0,0,1,.57449,3.67309c-.492.74819-.43117,1.14182.487,1.36048a2.7509,2.7509,0,0,1,2.22169,3.13518c-.0505,2.57713.0052,5.15616-.02073,7.73392-.00853.848.202,1.34717,1.17967,1.31333,3.38086-.117,6.76483.159,10.14727-.224A14.3015,14.3015,0,0,0,140.45993,66.089a14.53012,14.53012,0,0,0-14.34128-8.52724c-2.922-.01443-3.92333-1.48768-2.88627-4.22164a22.27113,22.27113,0,0,0,1.43006-9.94043A21.62331,21.62331,0,0,0,95.51963,25.05557a22.193,22.193,0,0,0-9.90675,7.47836,2.519,2.519,0,0,1-4.4698-.08188,6.83935,6.83935,0,0,1-.52385-1.886A28.93033,28.93033,0,0,0,23.201,35.69823a27.37477,27.37477,0,0,0,5.81449,17.21146,2.94511,2.94511,0,0,1,.56294,3.36493c-.5992,1.1662-1.68176,1.28622-2.85035,1.30089a54.29173,54.29173,0,0,0-8.47425.27224A14.34938,14.34938,0,0,0,7.83037,78.53543c.15165.29451.23152.75154.668.72529.33416-.02015.39072-.41026.5253-.67281a7.42685,7.42685,0,0,1,7.24479-4.26843c9.655.05236,19.31051.01853,28.96586.01814Zm-.68282,5.06676q-13.64414,0-27.2883.001c-3.12.00095-3.81481.70157-3.81524,3.84721q-.003,22.437-.00035,44.8741c.00015,2.01787.00386,2.022,1.97363,2.02247,9.60145.00183,19.203.014,28.8043-.01282a2.82989,2.82989,0,0,1,3.06871,1.69345c.25981.6601.71586.75169,1.31137.749,2.37505-.01065,4.75017-.00366,7.12525-.005.51134-.00029,1.00624.01151,1.239-.61319.57217-1.53587,1.7949-1.83153,3.29157-1.82664,9.55079.03174,19.10177.01692,28.65269.01516,1.96682-.00034,1.97019-.00467,1.97055-2.02239q.0023-11.14272.00687-22.28546c.00183-1.12687.12122-2.198-1.34185-2.65251-.66756-.2074-.987-.9803-1.13311-1.70364-.17915-.88646-.56262-1.04505-1.34476-.52167a2.58589,2.58589,0,0,1-3.56073-.44809q-3.22473-3.207-6.434-6.42963a2.57147,2.57147,0,0,1-.48694-3.5529c.61813-.90631.26916-1.18683-.61-1.41806a2.63289,2.63289,0,0,1-2.08765-2.92421c.03714-1.66676-.07292-3.34007.03124-5.0011.08671-1.38283-.3603-1.82446-1.78086-1.8153C62.946,79.43333,53.74864,79.40445,44.55147,79.40435Zm7.57031,62.87857q20.3835,0,40.767-.003a13.77524,13.77524,0,0,0,1.96458-.0798,3.36961,3.36961,0,0,0,3.02895-2.377c.79923-2.54257-.92611-4.58453-4.01189-4.59335-10.15374-.029-20.30763-.00711-30.46141-.02242-.76846-.00114-1.32051.1066-1.6587.93987a2.39271,2.39271,0,0,1-2.4185,1.49325q-7.19856-.01251-14.39716-.00346a2.267,2.267,0,0,1-2.306-1.41394c-.38044-1.01122-1.07879-1.01451-1.92142-1.01356q-14.92767.01686-29.85537.00337a7.076,7.076,0,0,0-2.24245.29114,3.33594,3.33594,0,0,0-2.21817,4.08553c.47954,1.85015,1.79817,2.6874,4.35735,2.68885q20.68648.01188,41.37315.00464Zm57.45513-70.26848a6.49356,6.49356,0,0,0-1.83754-2.152c-1.88627-1.93-1.90058-1.916-4.29363-.67932a2.63923,2.63923,0,0,1-4.13246-1.71768c-.83745-2.62118-.83745-2.62118-3.65473-2.62089a2.59329,2.59329,0,0,1-.45387-.00347c-1.6919-.30525-2.3761.45386-2.71349,2.10387-.56277,2.75124-2.33747,3.497-4.6753,1.93682-1.444-.96358-2.42509-.86829-3.39082.4849a3.72369,3.72369,0,0,1-.42476.43116c-1.9129,1.91285-1.91287,1.91285-.70042,4.29127a2.63985,2.63985,0,0,1-1.534,4.114c-2.80163.98089-2.80163.98089-2.80033,3.97522a2.83862,2.83862,0,0,1-.00315.454c-.23065,1.41016.329,2.065,1.77421,2.36577,3.14316.65417,3.88938,2.33068,2.15387,4.994a1.896,1.896,0,0,0,.46213,3.01933,6.63344,6.63344,0,0,1,.64631.638c1.84442,1.84425,1.84442,1.84425,4.17857.6386a2.6518,2.6518,0,0,1,4.178,1.62432c.88821,2.69217.88821,2.69219,3.754,2.69168a4.83937,4.83937,0,0,1,.75659.0054c1.378.22053,2.03444-.38677,2.23109-1.74284a3.23985,3.23985,0,0,1,1.88369-2.8954,3.35867,3.35867,0,0,1,3.37.82227c1.04384.75729,1.80085.676,2.54243-.33422a7.06153,7.06153,0,0,1,.74316-.75485c1.96625-1.96633,1.96625-1.96633.71823-4.41012a2.64367,2.64367,0,0,1,1.78676-4.10648,9.64773,9.64773,0,0,1,1.31827-.33944,1.345,1.345,0,0,0,1.27293-1.68288,14.79561,14.79561,0,0,1-.00791-1.51406c0-2.61423,0-2.61423-2.43564-3.3343a2.71,2.71,0,0,1-1.78807-4.42121c.33475-.619.698-1.22258,1.07576-1.88139Z"/><path class="cls-1" d="M127.49676,106.89894c-.00114,2.9291.01954,5.85844-.006,8.78722a7.229,7.229,0,0,1-7.06333,7.39089h-.00009q-.15569.00351-.31146.00034c-2.01983.02157-4.04061-.026-6.05986.01359-.9698.019-1.35088-.35445-1.33762-1.33091.06127-4.5089-.47788-3.64709,3.46281-3.73941,1.05983-.02481,2.12144.014,3.18143-.01048,2.14028-.04939,3.04739-.92554,3.0577-3.07238.0264-5.50455.00913-11.00928.01191-16.51395.0011-2.24154.0042-2.25554,2.22509-2.24291,3.17142.018,2.81771-.314,2.83739,2.84008C127.511,101.64672,127.49794,104.27286,127.49676,106.89894Z"/><path class="cls-1" d="M74.11571,42.79216c5.50771,0,11.01543-.00921,16.52315.00289a7.2367,7.2367,0,0,1,7.73849,7.79048c.00423.96-.07434,1.92733.01775,2.87845.13346,1.37838-.47458,1.73028-1.75809,1.69477-3.86806-.10745-3.28029.42514-3.31853-3.29154-.03453-3.35568-.65083-4.00765-3.96614-4.00816q-15.462-.00245-30.924.0008c-3.00859.001-3.72278.73076-3.72806,3.78193-.00383,2.22331-.05008,4.4481.01756,6.6692.03646,1.19677-.28955,1.73612-1.60092,1.70076-4.10821-.11072-3.417.46359-3.47856-3.43573-.03106-1.9702-.00952-3.94122-.00427-5.91187A7.257,7.257,0,0,1,57.441,42.79451Q65.77839,42.77932,74.11571,42.79216Z"/></svg>