<svg id="Layer_1" data-name="Layer 1" xmlns="http://www.w3.org/2000/svg" viewBox="0 0 150 150"><defs><style>.cls-1{fill:#ffc309;}</style></defs><title>1</title><path class="cls-1" d="M118.16667,25.66667h-6.78334A30.88883,30.88883,0,0,0,81.16667,1H68.83333A30.88883,30.88883,0,0,0,38.61667,25.66667H31.83333A30.87033,30.87033,0,0,0,1,56.5v61.66667A30.87033,30.87033,0,0,0,31.83333,149h86.33334A30.87031,30.87031,0,0,0,149,118.16667V56.5A30.87031,30.87031,0,0,0,118.16667,25.66667ZM68.83333,13.33333H81.16667A18.5,18.5,0,0,1,98.532,25.66667H51.468A18.5,18.5,0,0,1,68.83333,13.33333ZM31.83333,38h86.33334a18.5,18.5,0,0,1,18.5,18.5V75H13.33333V56.5A18.5,18.5,0,0,1,31.83333,38Zm86.33334,98.66667H31.83333a18.5,18.5,0,0,1-18.5-18.5V87.33333h55.5V93.5a6.16667,6.16667,0,0,0,12.33334,0V87.33333h55.5v30.83334A18.5,18.5,0,0,1,118.16667,136.66667Z"/></svg>