<svg id="Layer_1" data-name="Layer 1" xmlns="http://www.w3.org/2000/svg" viewBox="0 0 150 150"><defs><style>.cls-1{fill:none;}.cls-2{fill:#fff;}</style></defs><title>5</title><path class="cls-1" d="M77.84993,134.89491a14.72111,14.72111,0,0,0-3.13422-.14014c-.85877,0-1.72313-.063-2.57527.01194a4.52631,4.52631,0,0,0-4.33752,4.1762,4.3832,4.3832,0,0,0,3.79651,4.90015l.00859.00108a17.66845,17.66845,0,0,0,6.12056-.01945,4.3225,4.3225,0,0,0,3.72119-4.40627A4.42531,4.42531,0,0,0,77.84993,134.89491Z"/><path class="cls-1" d="M24.09588,88.696c0,6.02628.00873,12.05256-.0063,18.07888a4.5761,4.5761,0,0,0,1.43333,3.74862,4.46559,4.46559,0,0,0,4.95618.75994,4.37484,4.37484,0,0,0,2.72115-4.34523q.01945-10.11553.00834-20.23109c.00034-5.35669.01755-10.71342-.01014-16.07a4.51223,4.51223,0,0,0-4.19077-4.81227q-.049-.00339-.098-.0057A4.34289,4.34289,0,0,0,24.1112,70.4737C24.07128,76.54764,24.09928,82.62191,24.09588,88.696Z"/><path class="cls-1" d="M5.58151,88.698a16.31794,16.31794,0,0,0,12.37514,15.689,3.33511,3.33511,0,0,0,.648.09613h0c.6254.0187.85909-.31331.8463-1.27456-.06355-4.78108-.02577-9.56353-.02558-14.34551,0-4.8298-.03778-9.6601.02573-14.489.01276-.97267-.1911-1.37767-.84645-1.37787h0a3.04018,3.04018,0,0,0-.7066.09986A16.3516,16.3516,0,0,0,5.58151,88.698Z"/><path class="cls-2" d="M17.95657,104.38689a16.08646,16.08646,0,0,1-.05859-31.291,3.04,3.04,0,0,1,.7066-.09986V68.22963a2.87951,2.87951,0,0,1-.48706.13024,20.689,20.689,0,0,0,.27474,40.80192c.07877.01408.1395.04009.21229.05784V104.483A3.33655,3.33655,0,0,1,17.95657,104.38689Z"/><path class="cls-2" d="M131.04342,105.10262a16.08646,16.08646,0,0,0,.05862-31.291,3.04034,3.04034,0,0,0-.70663-.09985v-4.7664a2.879,2.879,0,0,0,.48705.13025,20.689,20.689,0,0,1-.27473,40.80192c-.07876.01408-.1395.04011-.21229.05784v-4.73661A3.33489,3.33489,0,0,0,131.04342,105.10262Z"/><path class="cls-2" d="M129.81962,103.00875q-.00455-8.89005-.00336-17.78013a7.91316,7.91316,0,0,0-.0555-1.42975,2.1463,2.1463,0,0,0-2.15442-1.93748,2.09786,2.09786,0,0,0-2.25425,1.805,12.91268,12.91268,0,0,0-.193,2.422c-.01549,6.93034.01079,13.861-.0221,20.79125a4.32124,4.32124,0,0,1-4.813,4.76571,4.45927,4.45927,0,0,1-4.28848-4.62376q.00333-.0891.01026-.178c-.0266-6.07-.00825-12.14021-.00825-18.21018.00058-6.02224-.03443-12.04487.01325-18.06685a4.55213,4.55213,0,0,1,6.94856-4.12,3.94947,3.94947,0,0,1,2.10331,3.3746c.06079,1.52739.00547,3.06052.09766,4.58536.11065,1.82934,1.03978,2.87053,2.392,2.83919,1.37223-.03188,2.27758-1.1072,2.1938-2.94983-.03305-.72634.11733-1.08678.41032-1.23171V68.05757a.99231.99231,0,0,1-.3804-.92123c.017-1.48257-.02871-2.96615.00729-4.44812a54.68893,54.68893,0,0,0-7.56629-29.47063,1.90814,1.90814,0,0,1-.04651-1.99641,6.61789,6.61789,0,0,0-.8631-7.3953,47.50027,47.50027,0,0,0-3.28841-3.791C102.6879,4.45957,84.16828-1.43814,62.69727,2.56931A57.67291,57.67291,0,0,0,28.17953,23.43554a6.77217,6.77217,0,0,0-1.21825,7.6022,2.40262,2.40262,0,0,1-.15911,2.50812,55.63294,55.63294,0,0,0-6.27541,16.4027,74.87108,74.87108,0,0,0-1.089,16.70232c.00778.821-.10595,1.31568-.83319,1.57874v4.76645c.65535.0002.85921.4052.84644,1.37787-.0635,4.82891-.02572,9.6592-.02572,14.489-.0002,4.782-.038,9.56442.02558,14.34551.01279.96125-.22091,1.29326-.8463,1.27456v4.73662a1.84667,1.84667,0,0,1,1.44521,1.27231,8.0036,8.0036,0,0,0,1.91932,3.00032,8.8732,8.8732,0,0,0,9.7483,2.28967,9.11184,9.11184,0,0,0,6.144-8.98549c.07192-12.05307.10892-24.10769-.006-36.1602a9.20123,9.20123,0,0,0-12.62456-8.85443c-.989.43763-1.16321-.00563-1.13783-.86434a60.4395,60.4395,0,0,1,.36792-6.43733,50.59457,50.59457,0,0,1,6.38516-18.74588,1.18026,1.18026,0,0,1,1.36817-.70655,6.96273,6.96273,0,0,0,6.48712-2.60045c1.10409-1.257,2.23247-2.49251,3.35778-3.73058,1.25528-1.38111,1.383-2.62431.36316-3.66769-1.01785-1.04138-2.41875-.90516-3.74573.48283-1.25454,1.312-2.40051,2.727-3.63107,4.06284a2.35938,2.35938,0,0,1-3.22444.3836,2.31832,2.31832,0,0,1-.3185-3.223,28.9707,28.9707,0,0,1,2.1251-2.52122A54.09709,54.09709,0,0,1,80.27578,6.24631a53.24078,53.24078,0,0,1,32.05782,14.57,45.88029,45.88029,0,0,1,5.41221,5.92561,2.30606,2.30606,0,0,1-.33014,3.22256,2.36966,2.36966,0,0,1-3.12712-.28868,10.26485,10.26485,0,0,1-.74817-.86906,50.59429,50.59429,0,0,0-65.26781-10.902,7.844,7.844,0,0,0-.95305.63592,2.2436,2.2436,0,0,0-.53488,3.074,2.15272,2.15272,0,0,0,2.89829.7809c.6074-.27174,1.15646-.6719,1.73925-1.00095a45.66341,45.66341,0,0,1,37.0882-4.08453,44.43144,44.43144,0,0,1,21.65,14.6844,7.1901,7.1901,0,0,0,6.99769,3.017c.68231-.10819.95226.23557,1.228.7153a49.3212,49.3212,0,0,1,6.76621,25.17947c-.00343.83526-.1194,1.328-1.12832.8799a9.20255,9.20255,0,0,0-12.63613,8.83718q-.16936,18.07869.005,36.15991a9.12405,9.12405,0,0,0,12.14555,9.04351c1.15755-.32983,1.38906.02343,1.17226,1.05113a25.27619,25.27619,0,0,1-22.21707,19.99623c-5.061.44548-10.13385.12007-15.1992.2484a1.77381,1.77381,0,0,1-1.90854-1.2874,8.765,8.765,0,0,0-8.41045-5.61136c-1.7694-.02188-3.54045-.034-5.30888.01627a9.14453,9.14453,0,0,0-8.53322,9.71744q.02616.40306.0878.80264a9.42744,9.42744,0,0,0,7.09576,7.65228h8.60991a9.54045,9.54045,0,0,0,6.67025-5.98516c.3083-.84334.951-.80677,1.63067-.80645,4.30385.002,8.60779.01091,12.91164-.00219a29.87156,29.87156,0,0,0,29.43037-25.84877,38.048,38.048,0,0,0,.23967-5.14869,1.3819,1.3819,0,0,1,.38711-1.147v-4.96783C129.84284,104.417,129.82,104.0088,129.81962,103.00875ZM24.11139,70.4738a4.3429,4.3429,0,0,1,4.79849-4.65451,4.51224,4.51224,0,0,1,4.29445,4.72q-.00232.049-.0057.098c.02769,5.35656.01048,10.71329.01014,16.07q-.00066,10.11554-.00834,20.23109a4.37485,4.37485,0,0,1-2.72114,4.345,4.46563,4.46563,0,0,1-4.95619-.75994,4.57614,4.57614,0,0,1-1.43332-3.74862c.015-6.02623.0063-12.05251.0063-18.07889.0032-6.074-.0248-12.14828.01522-18.22211Zm53.61724,73.35088a17.66845,17.66845,0,0,1-6.12056.01944,4.38319,4.38319,0,0,1-3.80623-4.8926l.00108-.00861a4.52631,4.52631,0,0,1,4.33738-4.1762c.85213-.07491,1.71647-.01194,2.57527-.01194a14.72111,14.72111,0,0,1,3.13422.14014,4.42531,4.42531,0,0,1,3.5999,4.52349A4.32252,4.32252,0,0,1,77.72863,143.82468Z"/></svg>