<?xml version="1.0" encoding="utf-8"?>
<!-- Generator: Adobe Illustrator 23.0.5, SVG Export Plug-In . SVG Version: 6.00 Build 0)  -->
<svg version="1.1" id="Layer_1" xmlns="http://www.w3.org/2000/svg" xmlns:xlink="http://www.w3.org/1999/xlink" x="0px" y="0px"
	 viewBox="0 0 150 150" style="enable-background:new 0 0 150 150;" xml:space="preserve">
<style type="text/css">
	.st0{fill:#663399;}
</style>
<title>5</title>
<path class="st0" d="M77.8,134.9c-1-0.2-2.1-0.2-3.1-0.1c-0.9,0-1.7-0.1-2.6,0c-2.3,0.1-4.2,1.9-4.3,4.2c-0.3,2.4,1.4,4.6,3.8,4.9
	l0,0l0,0c2,0.3,4.1,0.3,6.1,0c2.2-0.3,3.8-2.2,3.7-4.4C81.5,137.2,80,135.3,77.8,134.9z"/>
<path class="st0" d="M18,104.4C9.3,102.3,4,93.7,6,85c1.4-5.9,6-10.5,11.9-11.9c0.2-0.1,0.5-0.1,0.7-0.1v-4.8
	c-0.2,0.1-0.3,0.1-0.5,0.1c-11.3,2-18.8,12.7-16.8,24c1.5,8.7,8.4,15.4,17.1,16.8c0.1,0,0.1,0,0.2,0.1v-4.7
	C18.4,104.5,18.2,104.4,18,104.4z"/>
<path class="st0" d="M131,105.1c8.6-2,14-10.7,11.9-19.4c-1.4-5.9-6-10.5-11.9-11.9c-0.2-0.1-0.5-0.1-0.7-0.1v-4.8
	c0.2,0.1,0.3,0.1,0.5,0.1c11.3,2,18.8,12.7,16.8,24c-1.5,8.7-8.4,15.4-17.1,16.8c-0.1,0-0.1,0-0.2,0.1v-4.7
	C130.6,105.2,130.8,105.2,131,105.1z"/>
<path class="st0" d="M129.8,103c0-5.9,0-11.9,0-17.8c0-0.5,0-1-0.1-1.4c-0.1-1.1-1-1.9-2.2-1.9c-1.1-0.1-2.1,0.7-2.3,1.8
	c-0.1,0.8-0.2,1.6-0.2,2.4c0,6.9,0,13.9,0,20.8c0.3,2.4-1.4,4.5-3.8,4.8c-0.3,0-0.7,0-1,0c-2.5-0.1-4.4-2.2-4.3-4.6v0
	c0-0.1,0-0.1,0-0.2c0-6.1,0-12.1,0-18.2c0-6,0-12,0-18.1c-0.1-2.5,1.8-4.7,4.3-4.8c0.9-0.1,1.9,0.2,2.7,0.7c1.3,0.7,2.1,2,2.1,3.4
	c0.1,1.5,0,3.1,0.1,4.6c0.1,1.8,1,2.9,2.4,2.8c1.4,0,2.3-1.1,2.2-2.9c0-0.7,0.1-1.1,0.4-1.2v-5c-0.3-0.2-0.4-0.6-0.4-0.9
	c0-1.5,0-3,0-4.4c0.3-10.3-2.3-20.6-7.6-29.5c-0.4-0.6-0.4-1.4,0-2c1.3-2.4,0.9-5.3-0.9-7.4c-1-1.3-2.1-2.6-3.3-3.8
	C102.7,4.5,84.2-1.4,62.7,2.6c-13.6,2.6-25.9,10-34.5,20.9c-1.9,2-2.4,5.1-1.2,7.6c0.4,0.8,0.4,1.8-0.2,2.5
	c-2.9,5.1-5.1,10.6-6.3,16.4c-1,5.5-1.4,11.1-1.1,16.7c0,0.8-0.1,1.3-0.8,1.6V73c0.7,0,0.9,0.4,0.8,1.4c-0.1,4.8,0,9.7,0,14.5
	c0,4.8,0,9.6,0,14.3c0,1-0.2,1.3-0.8,1.3v4.7c0.7,0.1,1.2,0.6,1.4,1.3c0.4,1.1,1.1,2.2,1.9,3c2.5,2.7,6.3,3.6,9.7,2.3
	c3.8-1.3,6.3-5,6.1-9c0.1-12.1,0.1-24.1,0-36.2c0.2-5.1-3.8-9.3-8.9-9.5c-1.3,0-2.6,0.2-3.7,0.7c-1,0.4-1.2,0-1.1-0.9
	c0-2.2,0.1-4.3,0.4-6.4c0.9-6.6,3-13,6.4-18.7c0.2-0.5,0.8-0.8,1.4-0.7c2.5,0.4,4.9-0.6,6.5-2.6c1.1-1.3,2.2-2.5,3.4-3.7
	c1.3-1.4,1.4-2.6,0.4-3.7c-1-1-2.4-0.9-3.7,0.5c-1.3,1.3-2.4,2.7-3.6,4.1c-0.8,1-2.2,1.1-3.2,0.4c-1-0.8-1.1-2.2-0.3-3.2
	c0.7-0.9,1.4-1.7,2.1-2.5c11.7-13.2,29.1-20,46.6-18c12,1.1,23.3,6.2,32.1,14.6c2,1.8,3.8,3.8,5.4,5.9c0.8,1,0.6,2.4-0.3,3.2
	c-1,0.7-2.3,0.6-3.1-0.3c-0.3-0.3-0.5-0.6-0.7-0.9c-16-19.3-43.8-24-65.3-10.9c-0.3,0.2-0.7,0.4-1,0.6c-1,0.7-1.2,2.1-0.5,3.1
	c0.6,1,1.9,1.3,2.9,0.8c0.6-0.3,1.2-0.7,1.7-1c11.2-6.6,24.7-8.1,37.1-4.1C97,19.9,104.6,25,110.2,32c1.6,2.3,4.3,3.4,7,3
	c0.7-0.1,1,0.2,1.2,0.7c4.5,7.6,6.8,16.3,6.8,25.2c0,0.8-0.1,1.3-1.1,0.9c-4.7-1.9-10.1,0.4-12,5.1c-0.5,1.2-0.7,2.5-0.7,3.7
	c-0.1,12.1-0.1,24.1,0,36.2c-0.2,5,3.6,9.3,8.7,9.6c1.2,0.1,2.4-0.1,3.5-0.5c1.2-0.3,1.4,0,1.2,1.1c-2.2,10.8-11.2,18.9-22.2,20
	c-5.1,0.4-10.1,0.1-15.2,0.2c-0.9,0.1-1.7-0.4-1.9-1.3c-1.3-3.5-4.7-5.7-8.4-5.6c-1.8,0-3.5,0-5.3,0c-5,0.3-8.9,4.7-8.5,9.7
	c0,0.3,0,0.5,0.1,0.8c0.6,3.7,3.4,6.8,7.1,7.7h8.6c3.1-0.8,5.6-3,6.7-6c0.3-0.8,1-0.8,1.6-0.8c4.3,0,8.6,0,12.9,0
	c14.9-0.1,27.4-11.1,29.4-25.8c0.2-1.7,0.3-3.4,0.2-5.1c-0.1-0.4,0.1-0.8,0.4-1.1v-5C129.8,104.4,129.8,104,129.8,103z M24.1,70.5
	c-0.2-2.4,1.6-4.5,4-4.7c0.3,0,0.5,0,0.8,0c2.5,0.1,4.4,2.2,4.3,4.7v0c0,0,0,0.1,0,0.1c0,5.4,0,10.7,0,16.1c0,6.7,0,13.5,0,20.2
	c0.1,1.9-1,3.6-2.7,4.3c-1.7,0.8-3.6,0.5-5-0.8c-1-1-1.6-2.3-1.4-3.7c0-6,0-12.1,0-18.1C24.1,82.6,24.1,76.5,24.1,70.5L24.1,70.5z
	 M77.7,143.8c-2,0.4-4.1,0.4-6.1,0c-2.4-0.3-4.1-2.5-3.8-4.9v0l0,0c0.2-2.3,2-4.1,4.3-4.2c0.9-0.1,1.7,0,2.6,0c1-0.1,2.1,0,3.1,0.1
	c2.2,0.4,3.7,2.3,3.6,4.5C81.5,141.6,79.9,143.5,77.7,143.8z"/>
</svg>
