<svg id="Layer_1" data-name="Layer 1" xmlns="http://www.w3.org/2000/svg" viewBox="0 0 150 150"><defs><style>.cls-1{fill:none;}.cls-2{fill:#fff;}</style></defs><title>6</title><path class="cls-1" d="M78.21593,13.18254a2.25643,2.25643,0,0,0,2.1142-2.143,2.12806,2.12806,0,1,0-2.11424,2.143Z"/><path class="cls-1" d="M55.19574,77.63227a2.12979,2.12979,0,0,0,2.11616-2.14322v-.00178a2.25575,2.25575,0,0,0-2.14311-2.11438,2.12968,2.12968,0,1,0,.02695,4.25927Z"/><path class="cls-1" d="M9.31107,78.68555a19.825,19.825,0,0,0,6.70259,2.47885,61.97429,61.97429,0,0,0,20.29269.507,24.47786,24.47786,0,0,0,9.1569-2.77389A4.7117,4.7117,0,0,0,48.19212,74.237c-.07667-1.24127-.01391-2.491-.0136-3.73685,0-1.38976.00251-2.77935-.00076-4.169-.00383-1.6157-.00592-1.61521-1.39582-.93988A25.0723,25.0723,0,0,1,42.626,66.97562a61.63726,61.63726,0,0,1-20.81852,1.55776A33.88012,33.88012,0,0,1,7.8137,65.11721c-.83331-.44144-.86721.04116-.866.65981.00518,2.87514.05284,5.75146-.01583,8.625A4.59747,4.59747,0,0,0,9.31107,78.68555Z"/><path class="cls-1" d="M9.76628,42.12178A21.17945,21.17945,0,0,0,15.966,44.33269a61.86574,61.86574,0,0,0,17.86759.80692A29.95378,29.95378,0,0,0,44.2677,42.68829c1.79-.84794,3.80387-1.78308,3.76247-4.079-.03967-2.19964-1.98752-3.14754-3.75388-3.93871a34.24847,34.24847,0,0,0-13.1568-2.58573c-.88946-.02737-1.169.38609-1.15971,1.21863.02517,2.20367-.00724,4.40776.0071,6.61156.00487.75068-.25432,1.283-1.06468,1.13454-1.22914-.22515-2.67825.7473-3.67734-.63461-.14122-.19542-.05892-.56091-.06041-.84781-.00547-1.00606-.00223-2.0121-.00533-3.01831,0-1.054-.04381-2.11039.01245-3.16144.0549-1.025-.39541-1.38486-1.36786-1.2984-1.47679.13145-2.96484.16535-4.43311.35585a25.16963,25.16963,0,0,0-9.71721,2.85118C6.13853,37.356,6.19655,40.10393,9.76628,42.12178Z"/><path class="cls-1" d="M56.2756,86.74831c.28454-.04021.57248-.05744.85594-.10452a11.33184,11.33184,0,0,0-1.36518-22.473c-2.31809-.26795-2.78193.13988-2.78193,2.44628,0,1.94163,0,1.94163,1.80335,1.88746A7.02855,7.02855,0,1,1,54.27,82.49037c-.441-.02709-1.03816-.47476-1.2759.40087C52.14067,86.03343,53.11565,87.19494,56.2756,86.74831Z"/><path class="cls-1" d="M126.43565,16.65648c-.01982-2.39329-.80783-3.19385-3.20773-3.19534Q104.74557,13.44959,86.263,13.441a2.07765,2.07765,0,0,0-2.05442,1.15779,6.89917,6.89917,0,0,1-11.98391.0453,2.1847,2.1847,0,0,0-2.17332-1.20645c-6.13665.03939-12.2736.01954-18.41042.02117-6.23274,0-12.46548-.0114-18.69805.00667-2.01167.00577-2.93125.82765-2.95791,2.70565-.04648,3.25943-.0025,6.5202-.024,9.78024-.005.78065.2869,1.09546,1.08631,1.15025,2.10017.14387,4.20774.28023,6.289.581a25.55623,25.55623,0,0,1,12.05956,4.285,8.04229,8.04229,0,0,1,3.59785,7.12258c-.05788,1.24394-.01762,2.49276-.00768,3.73921.02337,2.95671-.33294,2.62957,2.57655,2.64807,1.5822.00991,3.169.07726,4.74511-.02073,1.381-.08587,2.0127.27238,1.922,1.8075a4.55333,4.55333,0,0,0,1.68925,4.08775,4.5037,4.5037,0,0,0,6.18743-.8071c.92892-.97039,1.58-1.09546,2.56194-.08279,2.60276,2.684,5.26817,5.30869,7.94893,7.91545.712.6925.58044,1.16222-.06943,1.76355a5.48427,5.48427,0,0,0-1.98132,2.92044,4.37184,4.37184,0,0,0,4.831,5.40239c1.37568-.00177,1.8528.4308,1.826,1.80618-.06721,3.45057-.07076,6.90468.01183,10.35478.03286,1.37526-.2724,2.07936-1.80989,1.91139a4.828,4.828,0,0,0-2.64946.531,4.405,4.405,0,0,0-.85871,7.17157c1.44942,1.51469,1.47206,1.537-.00163,3.03945-2.31645,2.36148-4.66608,4.69035-7.00371,7.03125-1.43354,1.43551-1.44807,1.44675-2.85692.04766a4.51214,4.51214,0,0,0-3.97239-1.57671,4.3596,4.3596,0,0,0-3.86375,4.80454q.00483.04443.01056.08876c.02708,1.49162-.5091,1.9298-1.91376,1.86806-1.914-.08421-3.83841.0582-5.751-.04021-1.30788-.06721-1.66939.43108-1.60174,1.66258.08928,1.62531-.02753,3.26078.03213,4.88873a8.02332,8.02332,0,0,1-3.24909,6.72362,16.23048,16.23048,0,0,1-4.48606,2.54207A42.43306,42.43306,0,0,1,31.481,123.879c-1.19611.05521-1.56252.436-1.53617,1.60574.06707,2.97092.01081,5.94449.02666,8.917.01242,2.31632.81627,3.14058,3.11333,3.14236,12.36953.01008,24.73908-.00563,37.10847.02545a2.08388,2.08388,0,0,0,2.02528-1.20841,6.88768,6.88768,0,0,1,11.90308-.074,2.408,2.408,0,0,0,2.42455,1.28036q18.19455-.04217,36.38947-.01777c.14374,0,.28763.00118.43137-.00133,2.21845-.03879,3.03827-.84321,3.06656-3.05043.01909-1.48614-.06678-2.977.02618-4.45751a2.33065,2.33065,0,0,0-.03018-.4136h0c-.07492-.87119-.58075-1.127-1.568-1.10153-2.49142.0641-4.986.0413-7.47874.011a4.53974,4.53974,0,0,1-4.74063-4.32956l0-.00032q-.0084-.18294-.00178-.36638-.04041-11.50623-.00014-23.013a4.52027,4.52027,0,0,1,4.331-4.7019h0q.19719-.008.39437.001c2.01328-.029,4.02746.016,6.04075-.01317,3.43781-.05,2.96039.58207,3.05012-3.05308.02768-1.12479-.449-1.37791-1.45832-1.35867-2.54012.04826-5.082.03785-7.62261.00667a4.53673,4.53673,0,0,1-4.73419-4.33024v-.0001q-.00823-.18606-.00133-.37232-.03952-11.50656.00028-23.013a4.51989,4.51989,0,0,1,4.33669-4.696q.19758-.00786.39527.00158c2.01312-.02855,4.02744.0163,6.04073-.01315,3.4301-.0502,2.95375.58486,3.04362-3.05961.02782-1.13232-.46366-1.37081-1.46511-1.35172-2.49217.04752-4.986.03139-7.47891.00946a4.56965,4.56965,0,0,1-4.87674-4.8563q-.0284-11.36268.00062-22.72552a4.55791,4.55791,0,0,1,4.88619-4.8341c2.445-.02042,4.89288-.07194,7.33426.02148,1.10272.04218,1.52077-.32466,1.58177-1.17466h0a3.15113,3.15113,0,0,0,.02028-.48731C126.36844,19.44178,126.44731,18.04684,126.43565,16.65648Z"/><path class="cls-1" d="M9.37,60.31021a19.85938,19.85938,0,0,0,6.57128,2.42769,62.196,62.196,0,0,0,20.2927.53041,24.7742,24.7742,0,0,0,9.16635-2.747,4.76578,4.76578,0,0,0,2.79225-4.769c-.08043-1.19256-.01419-2.3949-.01419-3.593,0-1.48559-.06544-2.97477.01939-4.45542.07639-1.33232-.36815-1.32788-1.35926-.77511a19.11831,19.11831,0,0,1-4.14024,1.61774,61.68057,61.68057,0,0,1-20.81734,1.58056A33.96446,33.96446,0,0,1,7.88078,46.73371c-.91591-.48306-.93722.01672-.935.69945.00918,2.82719.06174,5.65613-.016,8.48126A4.66422,4.66422,0,0,0,9.37,60.31021Z"/><path class="cls-1" d="M54.34107,59.313a16.12492,16.12492,0,0,1,4.28645.29313,16.29446,16.29446,0,0,1,12.746,17.40022,16.46782,16.46782,0,0,1-14.152,14.66031c-1.35867.16625-3.11732-.59525-3.97979.41436-.82528.96623-.14241,2.676-.25742,3.82686,0,.80206-.00608,1.37718.001,1.952.03981,3.25249-.41258,2.769,2.79267,2.88817a2.17776,2.17776,0,0,0,2.46509-1.55467,8.87108,8.87108,0,0,1,10.84374-4.97661,3.11459,3.11459,0,0,0,4.10768-1.17289,1.55643,1.55643,0,0,1,.30453-.30422,1.89919,1.89919,0,0,0,.61316-2.584,8.95833,8.95833,0,0,1,4.32234-11.37267,2.87919,2.87919,0,0,0,1.97226-3.48949,1.9119,1.9119,0,0,1,.00045-.5738c.19334-1.18842-.3464-1.75614-1.44644-2.22659a9.01594,9.01594,0,0,1-4.991-11.2202,2.51652,2.51652,0,0,0-.86765-3.40823,2.826,2.826,0,0,1-.60872-.60812,1.98945,1.98945,0,0,0-2.70178-.66793,8.91223,8.91223,0,0,1-11.27292-4.25839,2.99368,2.99368,0,0,0-3.59368-2.04972,3.01572,3.01572,0,0,1-.71784.00268c-.9569-.09624-1.25163.36564-1.2346,1.27325.04021,2.15555.05135,4.31316-.00357,6.46812C52.94258,59.06241,53.37338,59.36043,54.34107,59.313Z"/><path class="cls-1" d="M117.419,65.43342c.04116,3.3083.01568,6.61733.01568,9.926,0,3.40468.02489,6.80964-.01568,10.2137-.01154.97936.2974,1.35839,1.31648,1.35349q10.14185-.04839,20.28383-.0034c.95009.00355,1.245-.36357,1.24172-1.27768q-.036-10.14185-.00045-20.28382c.00326-.91352-.29045-1.2817-1.24113-1.278q-10.14182.03864-20.28366-.00341C117.71682,64.07533,117.40683,64.45387,117.419,65.43342Z"/><path class="cls-1" d="M140.26068,48.81749q-.0357-10.14162-.00014-20.28368c.00326-.91312-.28972-1.28215-1.24082-1.27842q-10.14165.03861-20.28369-.0034c-1.01834-.00473-1.32892.37289-1.31706,1.35288.041,3.35611.01568,6.71312.01568,10.06968v.00014c0,3.35656.02517,6.71354-.01554,10.06965-.012.979.29639,1.35882,1.31589,1.35395q10.14186-.0484,20.28368-.00341C139.9686,50.09855,140.264,49.73188,140.26068,48.81749Z"/><path class="cls-1" d="M117.42223,102.18986q.0357,10.14186,0,20.28382c-.00327.914.29118,1.28125,1.24156,1.2777q10.14164-.0389,20.28368.00324c1.01893.0049,1.32875-.37393,1.31661-1.35333-.04115-3.30816-.01568-6.6172-.016-9.926,0-3.40454-.02486-6.80949.01571-10.2137.01169-.97936-.29771-1.35809-1.31664-1.35312q-10.14157.04821-20.28365.0034C117.71282,100.90818,117.419,101.2762,117.42223,102.18986Z"/><path class="cls-1" d="M78.26715,137.82244a2.13069,2.13069,0,1,0,2.063,2.19627v-.00149A2.2573,2.2573,0,0,0,78.26715,137.82244Z"/><path class="cls-1" d="M45.65058,115.61388a4.37162,4.37162,0,0,0,2.5138-3.75965c.02694-3.06656-.01124-6.13386.026-9.20025.01242-1.0142-.34538-1.01066-1.094-.6068a21.703,21.703,0,0,1-4.4,1.74237,57.77127,57.77127,0,0,1-17.37223,1.72452,40.25366,40.25366,0,0,1-17.4454-3.5391c-.695-.3483-.94683-.22752-.93514.56.02353,1.581.00709,3.16263.00577,4.74394,0,1.29383.0576,2.59076-.01315,3.88074a4.58984,4.58984,0,0,0,2.56223,4.46572,20.606,20.606,0,0,0,6.44827,2.35894,62.21169,62.21169,0,0,0,20.29315.52345A23.64038,23.64038,0,0,0,45.65058,115.61388Z"/><path class="cls-1" d="M9.40834,97.162a20.03707,20.03707,0,0,0,6.57719,2.41244,62.09775,62.09775,0,0,0,20.2927.51515A24.24352,24.24352,0,0,0,45.56258,97.253a4.65548,4.65548,0,0,0,2.62912-4.57355c-.07374-1.24142-.01349-2.491-.0142-3.73686,0-1.58132-.02148-3.16307.00873-4.74378.01628-.84558-.22915-1.02485-.99745-.60976a22.49475,22.49475,0,0,1-4.5336,1.79419,60.70173,60.70173,0,0,1-20.10172,1.62113A34.84591,34.84591,0,0,1,7.97227,83.60314c-.92464-.48347-1.0385-.12168-1.03166.703.02323,2.82717.06439,5.656-.00991,8.48123A4.65393,4.65393,0,0,0,9.40834,97.162Z"/><path class="cls-2" d="M126.45978,130.04036c-.093,1.48051-.00709,2.97137-.02618,4.45751-.02839,2.20721-.84812,3.01164-3.06656,3.05043-.14374.00251-.28763.00133-.43137.00133q-18.19485-.02444-36.38946.01777a2.408,2.408,0,0,1-2.42455-1.28036,6.88767,6.88767,0,0,0-11.90308.074,2.08388,2.08388,0,0,1-2.02528,1.20841c-12.36939-.03108-24.73894-.01537-37.10847-.02545-2.297-.00178-3.10091-.826-3.11333-3.14236-.01585-2.97256.0404-5.94613-.02666-8.917-.02635-1.16978.34005-1.55052,1.53617-1.60574a42.43261,42.43261,0,0,0,13.77854-2.56014,16.23048,16.23048,0,0,0,4.48606-2.54207A8.02328,8.02328,0,0,0,52.9947,112.053c-.05966-1.628.05715-3.26343-.03213-4.88874-.06765-1.2315.29386-1.72979,1.60174-1.66258,1.91263.09832,3.837-.04409,5.751.04021,1.40471.06174,1.94089-.37643,1.91376-1.86806a4.35959,4.35959,0,0,1,3.76443-4.88274q.04433-.00573.08876-.01056a4.51215,4.51215,0,0,1,3.9724,1.57672c1.40885,1.39908,1.42335,1.38784,2.85692-.04767,2.33763-2.34089,4.68725-4.66967,7.00371-7.03125,1.47376-1.5024,1.45105-1.52477.00163-3.03945a4.405,4.405,0,0,1,.85871-7.17157,4.82807,4.82807,0,0,1,2.64946-.531c1.53749.168,1.84279-.536,1.80989-1.91139-.08261-3.4501-.07906-6.90421-.01183-10.35478.0268-1.37538-.45032-1.80795-1.826-1.80617a4.37186,4.37186,0,0,1-4.831-5.4024,5.48427,5.48427,0,0,1,1.98132-2.92044c.64988-.60133.78147-1.071.06943-1.76355-2.68078-2.60676-5.34623-5.23143-7.94892-7.91546-.98191-1.01271-1.633-.88764-2.56194.0828a4.5037,4.5037,0,0,1-6.18744.80709,4.55332,4.55332,0,0,1-1.68924-4.08774c.09074-1.53512-.54092-1.89337-1.922-1.8075-1.57612.098-3.16291.03076-4.74511.02073-2.90949-.0185-2.55318.30863-2.57656-2.64807-.00993-1.24645-.05019-2.49527.00769-3.73922a8.04227,8.04227,0,0,0-3.59785-7.12257,25.55643,25.55643,0,0,0-12.05956-4.285c-2.08123-.3008-4.1888-.43716-6.289-.581-.79941-.05479-1.09132-.36951-1.08631-1.15025.02148-3.26-.02249-6.52082.024-9.78025.02666-1.878.94624-2.69987,2.95791-2.70564,6.23258-.01807,12.46532-.00667,18.69805-.00667,6.13682-.00163,12.27377.01822,18.41042-.02117a2.1847,2.1847,0,0,1,2.17332,1.20645,6.89917,6.89917,0,0,0,11.98391-.0453A2.07766,2.07766,0,0,1,86.2628,13.441q18.48236.00866,36.9649.02013c2.39993.00149,3.18794.802,3.20774,3.19534.01154,1.39036-.06721,2.7853.0234,4.16988a3.15238,3.15238,0,0,1-.02028.48731h4.80214c0-.03312-.00946-.053-.00844-.08779.04854-1.62885.01436-3.26018.0114-4.8905a6.95683,6.95683,0,0,0-7.63694-7.6827q-18.41267-.03063-36.82515.01807a2.75782,2.75782,0,0,1-2.77507-1.442A6.843,6.843,0,0,0,72.358,7.2746a2.65864,2.65864,0,0,1-2.65116,1.39894q-18.62825-.03465-37.25667-.01807a6.85077,6.85077,0,0,0-7.28631,7.30319c-.01242,3.26047-.0299,6.52139.012,9.78143.01258.98132-.30989,1.36932-1.31721,1.37287a35.3331,35.3331,0,0,0-3.7228.26871A32.31686,32.31686,0,0,0,7.21563,30.9758a9.21078,9.21078,0,0,0-5.11639,8.6275q.08043,36.17781.02218,72.35558a8.36965,8.36965,0,0,0,3.30121,6.84649A16.4291,16.4291,0,0,0,9.918,121.33182a42.68112,42.68112,0,0,0,13.78271,2.552c1.11395.05108,1.50418.38032,1.48107,1.51145-.06262,3.06744-.02354,6.137-.02027,9.20575a6.9798,6.9798,0,0,0,7.71043,7.75334q18.55653.03108,37.11291-.02028a2.31049,2.31049,0,0,1,2.28332,1.27294,6.89273,6.89273,0,0,0,11.90677-.0544,2.18734,2.18734,0,0,1,2.16768-1.217c6.329.04022,12.65852.02014,18.98777.01923,6.28144-.001,12.56286.0163,18.84429-.00723q.22.00665.44026-.001a6.866,6.866,0,0,0,6.62531-7.09855v0c.01585-1.82189.03835-3.64493-.008-5.46578-.00164-.06174.01362-.09919.0154-.15558H126.4296A2.33061,2.33061,0,0,1,126.45978,130.04036ZM52.97272,51.55658c-.017-.90761.2777-1.36949,1.2346-1.27325a3.01572,3.01572,0,0,0,.71784-.00268,2.99369,2.99369,0,0,1,3.59369,2.04972,8.91222,8.91222,0,0,0,11.27291,4.25839,1.98947,1.98947,0,0,1,2.70179.66793,2.826,2.826,0,0,0,.60871.60812,2.51652,2.51652,0,0,1,.86765,3.40823,9.016,9.016,0,0,0,4.991,11.2202c1.1.47045,1.63978,1.03817,1.44644,2.22659a1.9119,1.9119,0,0,0-.00045.5738,2.87918,2.87918,0,0,1-1.97226,3.48948,8.95836,8.95836,0,0,0-4.32234,11.37268,1.89919,1.89919,0,0,1-.61316,2.584,1.55611,1.55611,0,0,0-.30452.30422A3.11458,3.11458,0,0,1,69.087,94.21685a8.87109,8.87109,0,0,0-10.84375,4.97666,2.17776,2.17776,0,0,1-2.46509,1.55467c-3.20537-.11915-2.75286.3643-2.79267-2.88817-.0071-.57484-.001-1.14994-.001-1.952.115-1.15083-.56786-2.86063.25743-3.82686.86247-1.00961,2.62107-.24811,3.97979-.41436A16.4678,16.4678,0,0,0,71.3735,77.0064a16.29446,16.29446,0,0,0-12.746-17.40021,16.1245,16.1245,0,0,0-4.28645-.29312c-.96769.04731-1.39849-.25064-1.372-1.28835.0551-2.155.04389-4.31259.00363-6.46814ZM52.994,82.8912c.23775-.87563.83491-.428,1.27591-.40088a7.02855,7.02855,0,1,0,.51783-13.98579c-1.80336.05417-1.80336.05417-1.80336-1.88746.00014-2.30645.46394-2.71423,2.78193-2.44628a11.33184,11.33184,0,0,1,1.36519,22.473c-.28335.04708-.57141.06425-.85594.10451-3.15992.44667-4.1349-.71484-3.28161-3.857Zm.05876-7.37513A2.12982,2.12982,0,0,1,55.16894,73.373a2.25576,2.25576,0,0,1,2.1431,2.11439v.00177a2.12968,2.12968,0,1,1-4.25927.02695ZM78.18717,8.92665a2.12794,2.12794,0,0,1,2.143,2.11281v.00008a2.25643,2.25643,0,0,1-2.11424,2.143,2.128,2.128,0,0,1-.02873-4.25586ZM6.94768,65.777c-.00119-.61865.03271-1.10125.866-.65981a33.88018,33.88018,0,0,0,13.99379,3.41622A61.63718,61.63718,0,0,0,42.626,66.97567a25.0723,25.0723,0,0,0,4.15594-1.58429c1.3899-.67533,1.392-.67577,1.39582.93988.00327,1.38962.00076,2.77921.00076,4.169-.00031,1.24587-.06307,2.4957.0136,3.73685a4.71168,4.71168,0,0,1-2.72887,4.66045,24.47786,24.47786,0,0,1-9.1569,2.77389,61.97429,61.97429,0,0,1-20.29269-.507,19.82538,19.82538,0,0,1-6.7026-2.47885A4.59748,4.59748,0,0,1,6.93185,74.402C7.00052,71.52843,6.95286,68.65216,6.94768,65.777ZM9.65339,35.29608a25.16959,25.16959,0,0,1,9.71714-2.851c1.46837-.1905,2.95642-.2244,4.43311-.35586.97245-.08646,1.42276.27342,1.36786,1.29841-.05626,1.05105-.01245,2.10743-.01245,3.16144.0031,1.00621-.00014,2.01224.00533,3.01831.00149.2869-.08081.65238.06041.8478.99909,1.38191,2.4482.40946,3.67734.63462.81035.14849,1.06955-.38386,1.06468-1.13454-.01436-2.2038.01805-4.4079-.0071-6.61156-.00932-.83255.27018-1.246,1.15971-1.21863a34.24842,34.24842,0,0,1,13.15679,2.58573c1.76637.7911,3.71422,1.739,3.75389,3.9387.04145,2.29588-1.97243,3.231-3.76247,4.079a29.954,29.954,0,0,1-10.43412,2.45132,61.86574,61.86574,0,0,1-17.86759-.80693,21.17912,21.17912,0,0,1-6.19964-2.211C6.19655,40.10393,6.13853,37.356,9.65339,35.29608Zm-2.70763,12.137c-.00222-.68273.01909-1.18251.935-.69945a33.96461,33.96461,0,0,0,14.00015,3.39333,61.68057,61.68057,0,0,0,20.81734-1.58056,19.118,19.118,0,0,0,4.14023-1.61774c.99119-.55276,1.43566-.55721,1.35927.77511-.08483,1.48065-.0194,2.96988-.0194,4.45542,0,1.19806-.06623,2.40039.0142,3.593a4.76578,4.76578,0,0,1-2.79225,4.769,24.77431,24.77431,0,0,1-9.16636,2.74709,62.19607,62.19607,0,0,1-20.29267-.53034A19.85938,19.85938,0,0,1,9.37,60.31021,4.66424,4.66424,0,0,1,6.92977,55.9143C7.0075,53.0892,6.95494,50.26024,6.94576,47.43305ZM6.94058,84.30617c-.00681-.82471.107-1.18651,1.03166-.703A34.846,34.846,0,0,0,22.55343,87.0044a60.70173,60.70173,0,0,0,20.10172-1.62113,22.4953,22.4953,0,0,0,4.5336-1.79418c.7683-.41509,1.01373-.23583.99746.60975-.03021,1.58071-.00874,3.16246-.00874,4.74378.00074,1.24587-.05951,2.49544.0142,3.73686A4.65547,4.65547,0,0,1,45.56255,97.253a24.24352,24.24352,0,0,1-9.28435,2.83651,62.0974,62.0974,0,0,1-20.29269-.51515A20.03686,20.03686,0,0,1,9.40834,97.162,4.65393,4.65393,0,0,1,6.9306,92.7874C7.005,89.96215,6.96372,87.13333,6.94058,84.30617Zm9.00618,33.67819a20.60579,20.60579,0,0,1-6.44827-2.359,4.58984,4.58984,0,0,1-2.56219-4.46564c.07075-1.29.01315-2.58692.01315-3.88075.00121-1.58131.01777-3.16292-.00577-4.74393-.01169-.78756.24013-.90839.93514-.56a40.25382,40.25382,0,0,0,17.4454,3.53909,57.7712,57.7712,0,0,0,17.37223-1.72452,21.70251,21.70251,0,0,0,4.4-1.74237c.74862-.40385,1.10641-.4074,1.094.6068-.0373,3.06639.00088,6.13369-.026,9.20025a4.37161,4.37161,0,0,1-2.51384,3.75958,23.64055,23.64055,0,0,1-9.41074,2.894A62.21154,62.21154,0,0,1,15.94676,117.98436Zm64.38337,22.03435a2.13068,2.13068,0,1,1-2.063-2.19627,2.25729,2.25729,0,0,1,2.063,2.19478Z"/><path class="cls-2" d="M132.55915,54.873c2.54043.04916,5.08249.03241,7.62368.00932a4.57155,4.57155,0,0,0,4.864-4.87155q.03075-11.3643-.00133-22.728a4.554,4.554,0,0,0-4.77327-4.81322c-2.589-.02839-5.17887-.03359-7.76756.00414-.88674.013-1.262-.293-1.26377-1.16h-4.80214c-.061.85-.47906,1.21684-1.58177,1.17466-2.4413-.09342-4.8893-.0419-7.33426-.02148a4.558,4.558,0,0,0-4.8862,4.8341q-.02908,11.36289-.00061,22.72552a4.56959,4.56959,0,0,0,4.87674,4.8563c2.49293.0219,4.98667.038,7.47891-.00946,1.00145-.0191,1.49292.2194,1.4651,1.35172-.08989,3.64447.38652,3.0094-3.04362,3.0596-2.01328.02945-4.02758-.0154-6.04072.01316a4.51987,4.51987,0,0,0-4.73038,4.29909q-.00944.19752-.00158.39528-.03995,11.50656-.00028,23.013-.00687.18608.00133.37232a4.5367,4.5367,0,0,0,4.73408,4.33034h.0001c2.54065.03108,5.0825.04158,7.62262-.00667,1.00933-.01923,1.486.23388,1.45832,1.35867-.08973,3.63515.38769,3.00305-3.05013,3.05308-2.01328.02916-4.02746-.01585-6.04074.01317q-.19721-.00914-.39437-.001a4.52027,4.52027,0,0,0-4.33107,4.70186v0q-.04021,11.50661.00015,23.013-.00666.18318.00178.36638a4.53976,4.53976,0,0,0,4.74033,4.3299l.00031,0c2.49277.03035,4.98733.05315,7.47874-.011.98726-.02546,1.49309.23034,1.568,1.10153h4.81795c.0265-.80768.39349-1.10658,1.25549-1.094,2.58869.03806,5.17859.03312,7.76756.004a4.55678,4.55678,0,0,0,4.775-4.81325q.03641-11.43594-.00252-22.87175.0078-.18366.00045-.36759a4.53982,4.53982,0,0,0-4.71489-4.3577h0c-2.06138-.03034-4.12368.01079-6.18521-.01275-3.27872-.0373-2.81652.48633-2.92191-2.89985-.03879-1.24838.4542-1.54682,1.59775-1.51706,2.49158.06468,4.98642.04159,7.47948.01109q.18274.00817.366.00178a4.5412,4.5412,0,0,0,4.37755-4.69894q.04107-11.50791,0-23.01537.00666-.18316-.00164-.36638a4.54025,4.54025,0,0,0-4.73991-4.33139h0c-2.01345-.028-4.02806.01656-6.04149-.013-3.41754-.05017-2.95315.58816-3.02852-3.07113C131.21,55.21854,131.55368,54.85362,132.55915,54.873Zm6.38794,46.03545c1.01893-.00487,1.32833.37377,1.31664,1.35312-.04057,3.4042-.01571,6.80916-.01571,10.21369.00031,3.30872-.02517,6.61776.016,9.926.01214.97936-.29768,1.35823-1.31661,1.35333q-10.14207-.04194-20.28368-.00324c-.95038.00355-1.24482-.36373-1.24156-1.2777q.0357-10.14207,0-20.28383c-.00327-.91366.29059-1.28168,1.24127-1.278Q128.80556,100.95673,138.94709,100.90847Zm.07225-36.82483c.95068-.00372,1.2443.36446,1.24112,1.278q-.03529,10.14207.00046,20.28383c.00324.91411-.29163,1.28123-1.24173,1.27768q-10.14205-.04494-20.28382.0034c-1.01907.0049-1.328-.37407-1.31647-1.35349.04057-3.40408.01568-6.809.01568-10.2137,0-3.30858.02548-6.61762-.01568-9.926-.01214-.97955.29785-1.35809,1.31678-1.35312q10.14191.04221,20.28373.00343ZM118.73492,50.09827c-1.01957.00487-1.32787-.375-1.31588-1.35395.04071-3.35611.01554-6.7131.01554-10.06965v-.00014c0-3.35656.02531-6.71355-.01568-10.06968-.01183-.98.29873-1.35764,1.31706-1.35288q10.14208.04218,20.28369.0034c.95111-.00371,1.24408.3652,1.24081,1.27841q-.03547,10.14207.00015,20.28369c.00327.91442-.29208,1.28108-1.24194,1.27742q-10.14189-.04487-20.28367.0034Z"/></svg>