<?xml version="1.0" encoding="utf-8"?>
<!-- Generator: Adobe Illustrator 23.0.5, SVG Export Plug-In . SVG Version: 6.00 Build 0)  -->
<svg version="1.1" id="Layer_1" xmlns="http://www.w3.org/2000/svg" xmlns:xlink="http://www.w3.org/1999/xlink" x="0px" y="0px"
	 viewBox="0 0 150 150" style="enable-background:new 0 0 150 150;" xml:space="preserve">
<style type="text/css">
	.st0{fill:#663399;}
</style>
<title>6</title>
<path class="st0" d="M78.2,13.2c1.1-0.1,2.1-1,2.1-2.1c0-1.2-1-2.1-2.1-2.1c-1.2,0-2.1,1-2.1,2.1C76.1,12.2,77,13.2,78.2,13.2
	L78.2,13.2z"/>
<path class="st0" d="M78.3,137.8c-1.2,0-2.2,0.9-2.2,2.1c0,1.2,0.9,2.2,2.1,2.2c1.2,0,2.2-0.9,2.2-2.1v0v0
	C80.3,138.9,79.4,137.9,78.3,137.8z"/>
<path class="st0" d="M126.5,130c-0.1,1.5,0,3,0,4.5c0,2.2-0.8,3-3.1,3.1c-0.1,0-0.3,0-0.4,0c-12.1,0-24.3,0-36.4,0
	c-1,0.1-2-0.4-2.4-1.3c-1.9-3.3-6.2-4.4-9.4-2.4c-1,0.6-1.9,1.5-2.5,2.5c-0.4,0.8-1.2,1.3-2,1.2c-12.4,0-24.7,0-37.1,0
	c-2.3,0-3.1-0.8-3.1-3.1c0-3,0-5.9,0-8.9c0-1.2,0.3-1.6,1.5-1.6c4.7-0.1,9.4-0.9,13.8-2.6c1.6-0.6,3.1-1.5,4.5-2.5
	c2.1-1.6,3.3-4.1,3.2-6.7c-0.1-1.6,0.1-3.3,0-4.9c-0.1-1.2,0.3-1.7,1.6-1.7c1.9,0.1,3.8,0,5.8,0c1.4,0.1,1.9-0.4,1.9-1.9
	c-0.3-2.4,1.4-4.6,3.8-4.9c0,0,0.1,0,0.1,0c1.5-0.2,3,0.4,4,1.6c1.4,1.4,1.4,1.4,2.9,0c2.3-2.3,4.7-4.7,7-7c1.5-1.5,1.5-1.5,0-3
	c-1.8-1.6-2-4.4-0.4-6.2c0.3-0.4,0.8-0.7,1.2-1c0.8-0.4,1.7-0.6,2.6-0.5c1.5,0.2,1.8-0.5,1.8-1.9c-0.1-3.5-0.1-6.9,0-10.4
	c0-1.4-0.5-1.8-1.8-1.8c-2.4,0.3-4.6-1.3-4.9-3.7c-0.1-0.6,0-1.1,0.1-1.7c0.3-1.2,1-2.2,2-2.9c0.6-0.6,0.8-1.1,0.1-1.8
	c-2.7-2.6-5.3-5.2-7.9-7.9c-1-1-1.6-0.9-2.6,0.1c-1.5,1.9-4.2,2.2-6.2,0.8c-1.2-1-1.9-2.5-1.7-4.1c0.1-1.5-0.5-1.9-1.9-1.8
	c-1.6,0.1-3.2,0-4.7,0c-2.9,0-2.6,0.3-2.6-2.6c0-1.2-0.1-2.5,0-3.7c0.1-2.8-1.2-5.6-3.6-7.1c-3.6-2.4-7.7-3.9-12.1-4.3
	c-2.1-0.3-4.2-0.4-6.3-0.6C30.2,27,30,26.7,30,26c0-3.3,0-6.5,0-9.8c0-1.9,0.9-2.7,3-2.7c6.2,0,12.5,0,18.7,0c6.1,0,12.3,0,18.4,0
	c0.9-0.1,1.8,0.4,2.2,1.2c1.9,3.3,6.1,4.4,9.4,2.5c1.1-0.6,2-1.5,2.6-2.6c0.4-0.8,1.2-1.2,2.1-1.2c12.3,0,24.6,0,37,0
	c2.4,0,3.2,0.8,3.2,3.2c0,1.4-0.1,2.8,0,4.2c0,0.2,0,0.3,0,0.5h4.8c0,0,0-0.1,0-0.1c0-1.6,0-3.3,0-4.9c0.4-3.8-2.3-7.3-6.2-7.7
	c-0.5-0.1-1-0.1-1.5,0c-12.3,0-24.6,0-36.8,0c-1.1,0.1-2.2-0.4-2.8-1.4C82,4,77.8,3,74.6,5c-0.9,0.6-1.7,1.3-2.2,2.2
	c-0.5,1-1.6,1.5-2.7,1.4c-12.4,0-24.8,0-37.3,0c-3.8-0.2-7,2.6-7.3,6.4c0,0.3,0,0.6,0,0.9c0,3.3,0,6.5,0,9.8c0,1-0.3,1.4-1.3,1.4
	c-1.2,0-2.5,0.1-3.7,0.3c-4.5,0.3-8.9,1.5-12.9,3.6C4,32.6,2,36,2.1,39.6c0.1,24.1,0.1,48.2,0,72.4c-0.1,2.7,1.2,5.2,3.3,6.8
	c1.4,1.1,2.9,1.9,4.5,2.5c4.4,1.6,9.1,2.5,13.8,2.6c1.1,0.1,1.5,0.4,1.5,1.5c-0.1,3.1,0,6.1,0,9.2c-0.5,3.8,2.3,7.3,6.1,7.7
	c0.5,0.1,1.1,0.1,1.6,0c12.4,0,24.7,0,37.1,0c1-0.1,1.9,0.4,2.3,1.3c1.9,3.3,6.2,4.4,9.4,2.4c1-0.6,1.9-1.5,2.5-2.5
	c0.4-0.8,1.3-1.3,2.2-1.2c6.3,0,12.7,0,19,0c6.3,0,12.6,0,18.8,0c0.1,0,0.3,0,0.4,0c3.8-0.1,6.8-3.3,6.6-7.1c0,0,0,0,0,0l0,0
	c0-1.8,0-3.6,0-5.5c0-0.1,0-0.1,0-0.2h-4.8C126.5,129.8,126.5,129.9,126.5,130z M53,51.6c0-0.9,0.3-1.4,1.2-1.3c0.2,0,0.5,0,0.7,0
	c1.6-0.4,3.1,0.5,3.6,2c2.1,4.1,7,6,11.3,4.3c0.9-0.5,2.1-0.3,2.7,0.7c0.2,0.2,0.4,0.4,0.6,0.6c1.2,0.7,1.6,2.2,0.9,3.4
	c-1.5,4.5,0.6,9.4,5,11.2c1.1,0.5,1.6,1,1.4,2.2c0,0.2,0,0.4,0,0.6c0.4,1.5-0.5,3.1-2,3.5c-4.2,2.1-6.1,7-4.3,11.4
	c0.5,0.9,0.3,2-0.6,2.6c-0.1,0.1-0.2,0.2-0.3,0.3c-0.8,1.4-2.6,1.9-4.1,1.2c-4.4-1.4-9.1,0.8-10.8,5c-0.3,1.1-1.4,1.7-2.5,1.6
	c-3.2-0.1-2.8,0.4-2.8-2.9c0-0.6,0-1.1,0-2c0.1-1.2-0.6-2.9,0.3-3.8c0.9-1,2.6-0.2,4-0.4c7.5-1,13.4-7.1,14.2-14.7
	c0.7-8.2-4.7-15.6-12.7-17.4c-1.4-0.3-2.9-0.4-4.3-0.3c-1,0-1.4-0.3-1.4-1.3C53,55.9,53,53.7,53,51.6L53,51.6z M53,82.9
	c0.2-0.9,0.8-0.4,1.3-0.4c3.8,0.5,7.4-2.2,7.9-6.1c0.5-3.8-2.2-7.4-6.1-7.9c-0.4-0.1-0.9-0.1-1.3,0C53,68.6,53,68.6,53,66.6
	c0-2.3,0.5-2.7,2.8-2.4c6.2,0.3,11,5.7,10.7,11.9c-0.3,5.3-4.2,9.6-9.3,10.5c-0.3,0-0.6,0.1-0.9,0.1C53.1,87.2,52.1,86,53,82.9
	L53,82.9z M53.1,75.5c0-1.2,0.9-2.1,2.1-2.1c1.1,0.1,2.1,1,2.1,2.1v0c0,1.2-0.9,2.1-2.1,2.1C54,77.6,53.1,76.7,53.1,75.5
	C53.1,75.5,53.1,75.5,53.1,75.5L53.1,75.5z M78.2,8.9c1.2,0,2.1,0.9,2.1,2.1c0,0,0,0,0,0v0c-0.1,1.1-1,2.1-2.1,2.1
	c-1.2,0-2.1-0.9-2.1-2.1C76.1,9.9,77,8.9,78.2,8.9L78.2,8.9z M6.9,65.8c0-0.6,0-1.1,0.9-0.7c4.4,2.1,9.1,3.3,14,3.4
	c7,0.7,14,0.1,20.8-1.6c1.4-0.4,2.8-0.9,4.2-1.6c1.4-0.7,1.4-0.7,1.4,0.9c0,1.4,0,2.8,0,4.2c0,1.2-0.1,2.5,0,3.7
	c0.2,2-0.9,3.8-2.7,4.7c-2.8,1.5-6,2.5-9.2,2.8c-6.7,0.9-13.6,0.8-20.3-0.5c-2.4-0.4-4.6-1.3-6.7-2.5c-1.6-0.9-2.5-2.5-2.4-4.3
	C7,71.5,7,68.7,6.9,65.8z M9.7,35.3c3-1.6,6.3-2.6,9.7-2.9c1.5-0.2,3-0.2,4.4-0.4c1-0.1,1.4,0.3,1.4,1.3c-0.1,1.1,0,2.1,0,3.2
	c0,1,0,2,0,3c0,0.3-0.1,0.7,0.1,0.8c1,1.4,2.4,0.4,3.7,0.6c0.8,0.1,1.1-0.4,1.1-1.1c0-2.2,0-4.4,0-6.6c0-0.8,0.3-1.2,1.2-1.2
	c4.5,0,9,0.9,13.2,2.6c1.8,0.8,3.7,1.7,3.8,3.9c0,2.3-2,3.2-3.8,4.1c-3.3,1.4-6.8,2.3-10.4,2.5c-6,0.6-12,0.3-17.9-0.8
	c-2.2-0.4-4.3-1.2-6.2-2.2C6.2,40.1,6.1,37.4,9.7,35.3z M6.9,47.4c0-0.7,0-1.2,0.9-0.7c4.4,2.1,9.1,3.3,14,3.4
	c7,0.7,14,0.1,20.8-1.6c1.4-0.4,2.8-0.9,4.1-1.6c1-0.6,1.4-0.6,1.4,0.8c-0.1,1.5,0,3,0,4.5c0,1.2-0.1,2.4,0,3.6
	c0.2,2-0.9,3.9-2.8,4.8c-2.8,1.5-6,2.4-9.2,2.7c-6.7,0.9-13.6,0.8-20.3-0.5c-2.3-0.4-4.5-1.2-6.6-2.4c-1.6-0.9-2.6-2.6-2.4-4.4
	C7,53.1,7,50.3,6.9,47.4L6.9,47.4z M6.9,84.3c0-0.8,0.1-1.2,1-0.7c4.6,2.2,9.5,3.3,14.6,3.4c6.7,0.6,13.5,0,20.1-1.6
	c1.6-0.4,3.1-1,4.5-1.8c0.8-0.4,1-0.2,1,0.6c0,1.6,0,3.2,0,4.7c0,1.2-0.1,2.5,0,3.7c0.2,1.9-0.9,3.7-2.6,4.6c-2.9,1.6-6,2.5-9.3,2.8
	c-6.7,0.9-13.6,0.8-20.3-0.5c-2.3-0.4-4.5-1.2-6.6-2.4c-1.6-0.8-2.6-2.6-2.5-4.4C7,90,7,87.1,6.9,84.3z M15.9,118
	c-2.3-0.4-4.4-1.2-6.4-2.4c-1.7-0.8-2.7-2.6-2.6-4.5c0.1-1.3,0-2.6,0-3.9c0-1.6,0-3.2,0-4.7c0-0.8,0.2-0.9,0.9-0.6
	c5.5,2.5,11.4,3.7,17.4,3.5c5.8,0.3,11.7-0.3,17.4-1.7c1.5-0.4,3-1,4.4-1.7c0.7-0.4,1.1-0.4,1.1,0.6c0,3.1,0,6.1,0,9.2
	c-0.1,1.6-1,3.1-2.5,3.8c-2.9,1.6-6.1,2.6-9.4,2.9C29.5,119.4,22.6,119.3,15.9,118z M80.3,140c0,1.2-1,2.1-2.2,2.1
	c-1.2,0-2.1-1-2.1-2.2c0-1.2,1-2.1,2.2-2.1C79.4,137.9,80.3,138.9,80.3,140L80.3,140z"/>
<path class="st0" d="M132.6,54.9c2.5,0,5.1,0,7.6,0c2.5,0.2,4.7-1.7,4.9-4.3c0-0.2,0-0.4,0-0.6c0-7.6,0-15.2,0-22.7
	c0.1-2.5-1.8-4.7-4.3-4.8c-0.2,0-0.3,0-0.5,0c-2.6,0-5.2,0-7.8,0c-0.9,0-1.3-0.3-1.3-1.2h-4.8c-0.1,0.9-0.5,1.2-1.6,1.2
	c-2.4-0.1-4.9,0-7.3,0c-2.5-0.2-4.7,1.7-4.9,4.2c0,0.2,0,0.4,0,0.6c0,7.6,0,15.2,0,22.7c-0.2,2.5,1.7,4.7,4.3,4.9c0.2,0,0.4,0,0.6,0
	c2.5,0,5,0,7.5,0c1,0,1.5,0.2,1.5,1.4c-0.1,3.6,0.4,3-3,3.1c-2,0-4,0-6,0c-2.5-0.1-4.6,1.8-4.7,4.3c0,0,0,0,0,0c0,0.1,0,0.3,0,0.4
	c0,7.7,0,15.3,0,23c0,0.1,0,0.2,0,0.4c0.1,2.5,2.2,4.4,4.7,4.3l0,0h0c2.5,0,5.1,0,7.6,0c1,0,1.5,0.2,1.5,1.4c-0.1,3.6,0.4,3-3.1,3.1
	c-2,0-4,0-6,0c-0.1,0-0.3,0-0.4,0c-2.5,0.1-4.4,2.2-4.3,4.7l0,0c0,7.7,0,15.3,0,23c0,0.1,0,0.2,0,0.4c0.1,2.5,2.2,4.4,4.7,4.3h0
	c2.5,0,5,0.1,7.5,0c1,0,1.5,0.2,1.6,1.1h4.8c0-0.8,0.4-1.1,1.3-1.1c2.6,0,5.2,0,7.8,0c2.5,0.1,4.7-1.8,4.8-4.3c0-0.2,0-0.3,0-0.5
	c0-7.6,0-15.2,0-22.9c0-0.1,0-0.2,0-0.4c-0.1-2.5-2.2-4.5-4.7-4.4l0,0c-2.1,0-4.1,0-6.2,0c-3.3,0-2.8,0.5-2.9-2.9
	c0-1.2,0.5-1.5,1.6-1.5c2.5,0.1,5,0,7.5,0c0.1,0,0.2,0,0.4,0c2.5-0.1,4.5-2.2,4.4-4.7c0-7.7,0-15.3,0-23c0-0.1,0-0.2,0-0.4
	c-0.1-2.5-2.2-4.4-4.7-4.3l0,0c-2,0-4,0-6,0c-3.4-0.1-3,0.6-3-3.1C131.2,55.2,131.6,54.9,132.6,54.9z M138.9,100.9
	c1,0,1.3,0.4,1.3,1.4c0,3.4,0,6.8,0,10.2c0,3.3,0,6.6,0,9.9c0,1-0.3,1.4-1.3,1.4c-6.8,0-13.5,0-20.3,0c-1,0-1.2-0.4-1.2-1.3
	c0-6.8,0-13.5,0-20.3c0-0.9,0.3-1.3,1.2-1.3C125.4,100.9,132.2,100.9,138.9,100.9L138.9,100.9z M139,64.1c1,0,1.2,0.4,1.2,1.3
	c0,6.8,0,13.5,0,20.3c0,0.9-0.3,1.3-1.2,1.3c-6.8,0-13.5,0-20.3,0c-1,0-1.3-0.4-1.3-1.4c0-3.4,0-6.8,0-10.2c0-3.3,0-6.6,0-9.9
	c0-1,0.3-1.4,1.3-1.4C125.5,64.1,132.3,64.1,139,64.1L139,64.1z M118.7,50.1c-1,0-1.3-0.4-1.3-1.4c0-3.4,0-6.7,0-10.1v0
	c0-3.4,0-6.7,0-10.1c0-1,0.3-1.4,1.3-1.4c6.8,0,13.5,0,20.3,0c1,0,1.2,0.4,1.2,1.3c0,6.8,0,13.5,0,20.3c0,0.9-0.3,1.3-1.2,1.3
	C132.3,50.1,125.5,50.1,118.7,50.1L118.7,50.1z"/>
</svg>
