<svg id="Layer_1" data-name="Layer 1" xmlns="http://www.w3.org/2000/svg" viewBox="0 0 150 150"><defs><style>.cls-1{fill:#fff;}</style></defs><title>7</title><path class="cls-1" d="M73.11531,66.63168a3.94422,3.94422,0,0,0-.00058.98888c.15855,1.27315-.3449,1.76877-1.68238,1.7318a57.34851,57.34851,0,0,0-6.71724.10294,4.307,4.307,0,0,0-4.26049,4.353q.00209.19391.02161.387c-.01362,2.73531-.00609,5.47065-.00313,8.206.004,3.651,1.70015,5.31963,5.44988,5.3473,1.95585.01435,3.91187-.00075,5.8676.01006.41947.00221.99482-.09126,1.14567.37076a4.8368,4.8368,0,0,1,.01924,3.056c-.26729.77471-1.16844.444-1.79156.44587-6.82175.02116-13.64348.0097-20.46523.01525-2.86132.00221-3.617.76834-3.62517,3.63811-.00371,1.2733-.0324,2.54748.00666,3.81974.02765.90629-.33531,1.266-1.26324,1.25069-2.2415-.03728-4.48429-.02678-6.7262-.00415a4.32693,4.32693,0,0,0-4.65525,4.59506q-.03227,4.45707-.0004,8.91343a4.42083,4.42083,0,0,0,4.12344,4.69943q.17543.01146.35135.00894,10.5197.12825,21.03658-.00191a4.34386,4.34386,0,0,0,4.44523-4.69867c.01805-3.01814.02588-6.03684-.00443-9.0548a4.262,4.262,0,0,0-4.48459-4.45824c-2.24162-.03121-4.48411-.00429-6.72617-.01435-.41874-.00191-1.01685.14656-1.189-.2714a5.31713,5.31713,0,0,1-.08723-3.32249c.18857-.75415,1.05959-.45314,1.63462-.45362q21.46715-.02331,42.93408-.0071c2.89018.00222,2.62765-.39666,2.69865,2.65561.02706,1.16221-.45584,1.45-1.52961,1.42089-2.1452-.05828-4.293-.03107-6.43955-.01168a4.297,4.297,0,0,0-4.6782,4.55587q-.03345,4.52736.00015,9.05477a4.35542,4.35542,0,0,0,4.53619,4.61386q10.44781.10959,20.89371-.00177a4.432,4.432,0,0,0,4.52856-4.33322q.00366-.16593-.00511-.33179.04331-4.52761-.00163-9.05462a4.30891,4.30891,0,0,0-4.60348-4.50145c-2.14636-.02484-4.29613-.07187-6.439.017-1.28943.05355-1.69453-.428-1.60949-1.64129.08224-1.17331.02116-2.35683.01643-3.53591-.01124-2.75441-.7975-3.54213-3.57763-3.54465q-10.08951-.00111-20.179-.00242c-2.32563-.00028-2.26913-.00266-2.30167-2.36509-.01626-1.18041.40643-1.583,1.58093-1.5456,2.04922.06543,4.10343.0608,6.15294.00133a4.55813,4.55813,0,0,0,4.92306-5.00372c.00933-2.92389.02013-5.84809-.00577-8.77183a4.32,4.32,0,0,0-3.90462-4.479,39.72643,39.72643,0,0,0-5.857-.146c-3.16541-.045-2.79712.27383-2.89093-2.79921a2.029,2.029,0,0,1,.26741-1.23559H72.89851A1.82956,1.82956,0,0,1,73.11531,66.63168Zm-14.497,38.15592c.884-.00324,1.31147.24109,1.29254,1.19757q-.065,3.39012-.00046,6.77854c.0179.94112-.38556,1.22747-1.2804,1.21889-3.04738-.02927-6.09523-.01107-9.1429-.01107-2.95244.00087-5.90577-.0417-8.857.02159-1.20377.02588-1.59232-.42877-1.55919-1.57162.06005-2.06962.0466-4.14292.00577-6.21342-.01983-1.00323.31638-1.43228,1.39843-1.42593Q49.54683,104.82066,58.61829,104.7876Zm42.80777.01168c2.95258-.00058,5.906.04484,8.857-.02262,1.20705-.02765,1.59144.419,1.55757,1.56365-.06123,2.0696-.04631,4.14275-.00652,6.21357.01939,1.00291-.3245,1.43895-1.40093,1.43318q-9.07186-.03505-18.14358-.00485c-.8852.003-1.308-.25883-1.2897-1.2092q.06609-3.39038-.00046-6.77869c-.01849-.94732.38958-1.2168,1.28352-1.20748C95.33037,104.81925,98.37838,104.79928,101.42606,104.79928ZM84.61391,73.92878c.9874-.00485,1.35792.32568,1.33557,1.31221-.05027,2.21514-.04362,4.43265-.00339,6.64824.0167.91951-.34182,1.25109-1.26193,1.24135-3.1-.03255-6.20067-.01228-9.30117-.01228-3.005.00089-6.0105-.03121-9.01471.01834-1.0547.0173-1.43851-.33926-1.40965-1.39029.05944-2.16752.05294-4.3386.00242-6.50656-.02307-.9877.35054-1.31583,1.33676-1.311Q75.4559,73.97361,84.61391,73.92878Z"/><path class="cls-1" d="M142.03022,23.71966a15.66853,15.66853,0,0,0-16.63881-1.29886,7.96151,7.96151,0,0,0-4.80168,7.72456c.017,6.366-.02908,12.73238.03107,19.09784.01243,1.31-.40776,1.71168-1.71324,1.69823-5.43709-.0559-10.87519-.03845-16.31268-.0102-.987.005-1.61955-.17542-1.75652-1.30969a10.61608,10.61608,0,0,0-2.68784-4.59462c-1.199-1.706-.76155-2.77776,1.31384-3.12114,1.08057-.17866,2.17076-.31534,3.238-.55272a4.85618,4.85618,0,0,0,4.00977-4.70609c.07381-1.83607.06686-3.67909.00445-5.51589a4.7999,4.7999,0,0,0-3.8656-4.655c-1.15572-.27022-2.34767-.38559-3.51758-.60109-1.878-.34594-2.32547-1.48494-1.2548-3.02166a15.22339,15.22339,0,0,0,2.6386-4.17283,4.55975,4.55975,0,0,0-1.11063-4.59537c-1.27683-1.398-2.63252-2.73427-4.03671-4.008a4.86161,4.86161,0,0,0-6.30555-.447c-.99613.64546-1.91418,1.4082-2.90645,2.05976A1.664,1.664,0,0,1,83.6011,10.5097c-.22141-1.1563-.34237-2.33288-.59825-3.48075a4.8026,4.8026,0,0,0-4.96719-4.0135q-2.57617-.03083-5.15145-.00015a4.80515,4.80515,0,0,0-4.9765,4.00432c-.24671,1.10175-.38115,2.22774-.5746,3.34144-.28856,1.66154-1.50018,2.197-2.89241,1.25541-.90486-.612-1.75576-1.30274-2.66557-1.90678a4.92368,4.92368,0,0,0-6.5355.45479c-1.32578,1.21991-2.61313,2.48715-3.84176,3.80261a4.75683,4.75683,0,0,0-.49829,6.23259c.62355.94732,1.33806,1.83563,1.99981,2.759.9874,1.37757.52889,2.53491-1.16815,2.87584-1.21238.24358-2.45342.35733-3.656.63685a4.79613,4.79613,0,0,0-3.881,4.64144c-.06448,1.83682-.05975,3.67909-.00281,5.51635a4.87032,4.87032,0,0,0,4.13522,4.7406c1.16873.22466,2.3499.38529,3.52321.58761a1.62947,1.62947,0,0,1,1.16207,2.69909,12.92155,12.92155,0,0,0-3.12563,5.62873c-.06877.61885-.63746.62343-1.1192.62387-5.77161.00443-11.54325-.00829-17.31472.01139-1.15.00385-1.14033-.70919-1.13929-1.51378q.01063-9.47833.00191-18.95647a8.27493,8.27493,0,0,0-5.68054-8.44606A16.18349,16.18349,0,0,0,2.07961,36.77167c-.02336,3.5837-.0093,24.13025-.004,27.71408l.00339.0315q-.00157-2.56061-.00519-5.12114c.00017-2.33422.70417-3.41731,2.224-3.43253,1.53273-.01524,2.27017,1.081,2.27032,3.38816q0,2.55894.00073,5.1176l.00637-.05c.10027-4.09693-.29714-25.16824.2399-29.25361a11.576,11.576,0,0,1,16.29168-8.85512A4.00912,4.00912,0,0,1,25.6755,30.433c-.047,10.704-.02159,21.40855-.02159,32.11285q.00069,26.242-.00058,52.484c0,.51873.00281,1.03786-.0195,1.55572-.03432.79323-.36281,1.10115-1.2029.79411A16.24225,16.24225,0,0,0,7.01075,120.5968c-.0608.05331-.16876.054-.2896.08947a2.9977,2.9977,0,0,1-.14363-1.63569Q6.57,91.76,6.56894,64.46939c-.06254,2.01355-.81566,3.07239-2.28582,3.04575-1.43275-.02587-2.19192-1.05307-2.20406-2.99784.01376,22.248.10235,44.49682-.07234,66.74345a16.48928,16.48928,0,0,0,12.80353,16.54166A3.724,3.724,0,0,1,15.34182,148H51.98233c-.70875-.77932-1.45744-1.54959-1.047-2.7405a2.34326,2.34326,0,0,1,2.51966-1.60784c-8.7988.00591-25.921.00635-31.92754.00176a38.57532,38.57532,0,0,1-4.99545-.21431A11.39788,11.39788,0,0,1,8.14546,126.5087a11.60009,11.60009,0,0,1,14.35133-4.96141,6.54835,6.54835,0,0,0,3.18746.62208,5.17638,5.17638,0,0,0,4.62923-5.66172Q30.351,86.93776,30.28774,57.368c-.003-1.39579.33026-1.87957,1.82129-1.85916,5.962.08181,11.92675.096,17.88813-.001a6.13309,6.13309,0,0,1,5.05831,1.8831A4.92421,4.92421,0,0,0,62.001,57.896l.02437-.02121c.82427-.56219,1.6157-1.17183,2.44173-1.73147a1.6868,1.6868,0,0,1,2.87094,1.249c.18058,1.11578.3356,2.23666.55657,3.34483a4.59055,4.59055,0,0,0,3.70379,3.86241,2.001,2.001,0,0,1,1.30008.70018h5.14583a1.81424,1.81424,0,0,1,1.22687-.67917,4.60019,4.60019,0,0,0,3.7318-3.83544c.25173-1.19727.376-2.42043.6061-3.62275a1.63811,1.63811,0,0,1,2.67305-1.125c.99126.654,1.92648,1.39133,2.91856,2.04418a4.98014,4.98014,0,0,0,6.21817-.25734,8.23962,8.23962,0,0,0,1.25377-1.15468,3.24675,3.24675,0,0,1,2.7578-1.14833c6.3443.04466,12.68921.02087,19.03382.02159,2.12669.00029,2.12787.00194,2.12892,2.05777.00162,3.27623-.01021,16.9302.0053,21.73957v-.28088c.00208-1.73431.67313-2.647,2.00528-2.764a2.04085,2.04085,0,0,1,2.42183,1.57q.01023.04791.01814.09626a12.15649,12.15649,0,0,1,.159,1.96873c.02617-.4386.062-.87706.05057-1.3165.00444-12.026.03255-36.1684-.02278-48.19424a4.05467,4.05467,0,0,1,2.848-4.22737,11.22607,11.22607,0,0,1,11.37507,1.31131,12.127,12.127,0,0,1,4.88548,10.49368q.008,40.74687-.00605,81.49407c-.00015.39579.16478.84039-.22126,1.25437a21.19694,21.19694,0,0,0-4.32853-2.96738,16.44728,16.44728,0,0,0-12.92317-.55359c-1.38794.49383-1.55122.38365-1.59883-1.08119-.01391-.42406-.00485-.84881-.00485-1.27329q.01-17.19021-.00841-34.38026c.00444-.18768-.04119-.37212-.04527-.55965-.013.21978-.00266.44059-.0253.65978-.20616,1.58581-1.15955,2.44747-2.50221,2.33082a2.31342,2.31342,0,0,1-2.08012-2.52527q.00327-.03386.00754-.0676c-.00163-.26091-.003-.60492-.00414-.98784q-.00531,11.24891-.005,22.49785c.00015,5.04614-.01907,10.09246.0111,15.13847a5.10046,5.10046,0,0,0,4.66418,5.19942,7.42377,7.42377,0,0,0,3.45414-.74026,11.68007,11.68007,0,0,1,13.027,3.584,11.30577,11.30577,0,0,1,.56779,13.4684,11.97686,11.97686,0,0,1-10.68954,5.16752q-31.77117-.00021-63.54235,0-5.6735.00023-11.347-.00547c1.2092-.00176,2.36364.02692,2.97269,1.33084.59709,1.27819-.142,2.15274-.91877,3.019h76.77569a17.93756,17.93756,0,0,0,9.1657-5.15353,18.48176,18.48176,0,0,0,4.0019-7.86394V34.23735A16.74793,16.74793,0,0,0,142.03022,23.71966ZM94.00044,47.13628c.63923.692,1.09863,1.54361,1.71006,2.26455a1.18869,1.18869,0,0,1-.18,1.92672c-1.09317.97926-1.98948,2.54867-3.23835,2.88124-1.357.36161-2.52146-1.26208-3.62052-2.1526-3.27029-2.64967-9.19054.226-9.6449,4.12473-.55878,4.79427.27688,3.96685-4.61844,4.03509-1.96489.02736-2.03395-.06611-2.29663-2.01963a18.39864,18.39864,0,0,1-.28369-1.95571c-.09894-4.00271-6.33882-6.85281-9.52525-4.188-.87116.72855-1.86623,1.31042-2.76734,2.0063a.95558.95558,0,0,1-1.481-.10264c-1.05011-1.09289-2.58592-1.98915-3.07638-3.28021-.57608-1.51673,1.20023-2.60678,2.09831-3.70334,2.45031-2.99208.105-9.26317-4.05448-9.456-.8494-.0395-1.68658-.37449-2.53471-.39964-1.431-.04229-1.67057-.803-1.6639-2.03114.02217-4.07445-.03536-4.2401,4.08523-4.74874,4.51208-.557,6.69009-6.85856,4.02985-9.63885a2.10907,2.10907,0,0,1-.25068-.34388c-.64323-1.0285-2.16382-1.99993-1.84375-3.02477.49044-1.57014,2.19413-2.518,3.41241-3.69964.48659-.47195.97657-.1192,1.411.18858.85253.60418,1.747,1.16163,2.53891,1.83636a6.3017,6.3017,0,0,0,9.60957-4.03153c.06848-1.02824.35438-2.04064.48926-3.06694A1.10144,1.10144,0,0,1,73.6446,7.45466a2.83785,2.83785,0,0,0,.28594-.00148c4.464-.08966,4.60482-.10679,5.14821,4.27143.49476,3.98624,6.43069,6.51323,9.46763,4.03471.84406-.68879,1.78709-1.25767,2.65263-1.92258a1.20751,1.20751,0,0,1,1.86348.1229c.84484.896,1.74779,1.73844,2.62055,2.60916a1.37006,1.37006,0,0,1,.52877.91063,6.29974,6.29974,0,0,1-.37139.65913c-.52077.73271-1.02019,1.48511-1.59691,2.17345a6.02491,6.02491,0,0,0,.09007,7.93943,5.81751,5.81751,0,0,0,4.3315,2.13691c3.81368.65537,3.37073-.11047,3.39894,3.80082.00148.18857.00047.37715,0,.56573-.00484,2.12463-.005,2.12448-2.14942,2.46155a12.48428,12.48428,0,0,1-1.834.277C93.79248,37.515,91.17017,44.0732,94.00044,47.13628Z"/></svg>