<svg id="Layer_1" data-name="Layer 1" xmlns="http://www.w3.org/2000/svg" viewBox="0 0 150 150"><defs><style>.cls-1{fill:#fff;}</style></defs><title>8</title><path class="cls-1" d="M9.25894,16.27271a6.61306,6.61306,0,0,1,7.20833-4.79761c2.93851-.00336,5.8771-.01217,8.81559.00526,1.81531.01077,2.822.81674,2.87189,2.23731.05053,1.43733-.86609,2.40459-2.67592,2.46842-2.98384.10528-5.97325.04812-8.96025.06911-2.27864.016-2.74275.47083-2.74314,2.77911q-.00755,44.22465-.001,88.44933c.00035,2.51414.57925,3.03064,3.34094,3.03074,37.75995.00151,80.39037.00209,118.15032.00171.6366,0,1.2752-.02211,1.90948.01887,1.22793-.05189-2.60508.90151-2.55319,2.12943.00258.06134,4.87315.12278,4.87064.18415a2.20061,2.20061,0,0,1-2.36949,2.26176c-3.67258.04628-12.21652.02029-15.88962.02511-1.94764.00244-1.9482.00427-1.95324,1.92214-.002.73464.00343,1.46931-.0018,2.2039a5.31142,5.31142,0,0,1-5.86237,5.8195c-6.26874.02435-12.53763.00667-18.80649.008-2.25141.00047-2.25548.00427-1.25266,1.97037,2.98111,5.84479,5.98019,11.68041,8.94081,17.53552.96812,1.91454.28559,3.58226-1.51923,3.85744-1.42148.21673-2.14416-.69081-2.71094-1.79634q-3.01578-5.88216-6.02878-11.76551c-1.47474-2.87537-2.97987-5.73559-4.4145-8.63078a1.89218,1.89218,0,0,0-1.9474-1.18684q-10.72537.04651-21.45095-.00553a2.09773,2.09773,0,0,0-2.13642,1.3663C58.706,133.11715,55.272,139.77528,51.85316,146.441c-.13394.26126-.26415.52625-.42078.77395a2.26215,2.26215,0,0,1-3.01763,1.06234q-.05982-.02867-.11788-.0608a2.309,2.309,0,0,1-1.02738-3.0378c.65233-1.52819,1.446-2.99739,2.20594-4.47808,2.4145-4.70441,4.84673-9.39975,7.261-14.10429.73589-1.43394.69-1.50327-.9495-1.505q-9.47672-.00954-18.95353-.00439c-4.29234-.00377-6.22181-1.91293-6.23394-6.14777-.01091-3.80425-.01091-3.80425-3.74492-3.80425-3.3793,0-6.76354-.11446-10.13655.03119a7.09944,7.09944,0,0,1-7.45916-4.542ZM74.95307,115.135q-18.441,0-36.882.00524c-3.21592.00343-2.82214-.398-2.843,2.78468-.01539,2.34222-.00129,2.34538,2.33735,2.34546q36.882.00126,73.764-.00473c3.45218-.00134,3.14573.43983,3.15577-3.13285.00563-1.99349-.00653-1.9969-2.06232-1.9972Q93.688,115.13388,74.95307,115.135Z"/><path class="cls-1" d="M106.99111,97.18683a20.40277,20.40277,0,0,1-1.02415,2.7433,8.45761,8.45761,0,0,1-14.50708.93253c-3.11351-4.21259-6.0895-8.52682-9.1247-12.79723-1.50342-2.11525-3.05867-4.19675-4.47874-6.3667a1.88668,1.88668,0,0,0-2.43461-.89786,27.82711,27.82711,0,0,1-22.2171-2.92039,28.10878,28.10878,0,0,1-13.7621-19.38134,28.9265,28.9265,0,1,1,52.16329,10.8473,1.816,1.816,0,0,0,.08845,2.45973q6.38472,8.88768,12.6955,17.82844c.789,1.11534,1.47788,2.30185,2.213,3.45547ZM91.88527,50.558a24.12442,24.12442,0,1,0,.02453.257Q91.89824,50.68644,91.88527,50.558Zm6.84427,49.15173a3.71353,3.71353,0,0,0,2.7462-5.98812c-1.10624-1.7271-2.36411-3.35709-3.55409-5.03057q-4.8025-6.7537-9.59814-13.51236c-.47468-.67171-.85234-1.18-1.66964-.359a20.16738,20.16738,0,0,1-4.40229,3.14748c-.67858.38788-.73707.77835-.29264,1.40027,4.51981,6.32434,9.01433,12.66709,13.544,18.98451a3.35047,3.35047,0,0,0,3.2267,1.35784Z"/><path class="cls-1" d="M84.69491,16.25408q-23.808-.00039-47.616-.0084a15.45578,15.45578,0,0,1-2.77659-.20239,2.11866,2.11866,0,0,1-1.88415-2.32969v-.00016l.01048-.08327a2.18719,2.18719,0,0,1,2.07454-2.11379,9.90742,9.90742,0,0,1,1.46726-.04074q12.27141-.003,24.54281-.00256c1.92429-.00058,1.91272-.00653,1.93936-1.97686A21.1664,21.1664,0,0,1,62.58844,6.861a5.70931,5.70931,0,0,1,5.96131-5.31371c4.261-.06013,8.52449-.0667,12.78527.002a5.73257,5.73257,0,0,1,5.926,5.5324q.00968.28161-.00834.56317c.03381,3.83035.03381,3.8294,3.86758,3.82931q21.08924-.00054,42.17832.00109c4.97333.00107,7.42692,2.43391,7.43118,7.36784.00544,6.27043.005,85.59826-.00121,91.86868a6.74975,6.74975,0,0,1-.06977,1.46359,2.19429,2.19429,0,0,1-2.24162,1.93568,2.09188,2.09188,0,0,1-2.28855-1.84,12.44658,12.44658,0,0,1-.19021-2.1871c-.01481-6.02546-.00314-85.10839-.01188-91.13385-.00349-2.397-.30441-2.693-2.73391-2.69358Q108.94376,16.2502,84.69491,16.25408Zm-9.85523-4.7799c1.56677,0,3.13383.01916,4.70026-.00388,3.53414-.052,3.07085.55356,3.08962-3.12062.00891-1.73738-.28492-1.99624-2.0908-2.00153C77.30733,6.3387,74.07588,6.345,70.84443,6.345c-3.76709,0-3.74054-.00085-3.61245,3.8475.03129.93981.3356,1.3134,1.292,1.29336C70.62839,11.44176,72.73449,11.47215,74.83968,11.47418Z"/></svg>