<?xml version="1.0" encoding="utf-8"?>
<!-- Generator: Adobe Illustrator 23.0.5, SVG Export Plug-In . SVG Version: 6.00 Build 0)  -->
<svg version="1.1" id="Layer_1" xmlns="http://www.w3.org/2000/svg" xmlns:xlink="http://www.w3.org/1999/xlink" x="0px" y="0px"
	 viewBox="0 0 150 150" style="enable-background:new 0 0 150 150;" xml:space="preserve">
<style type="text/css">
	.st0{fill:#663399;}
</style>
<title>8</title>
<path class="st0" d="M9.3,16.3c0.9-3.2,3.9-5.2,7.2-4.8c2.9,0,5.9,0,8.8,0c1.8,0,2.8,0.8,2.9,2.2c0.1,1.4-0.9,2.4-2.7,2.5
	c-3,0.1-6,0-9,0.1c-2.3,0-2.7,0.5-2.7,2.8c0,29.5,0,59,0,88.4c0,2.5,0.6,3,3.3,3c37.8,0,80.4,0,118.2,0c0.6,0,1.3,0,1.9,0
	c1.2-0.1-2.6,0.9-2.6,2.1c0,0.1,4.9,0.1,4.9,0.2c0,1.2-0.9,2.2-2.1,2.3c-0.1,0-0.2,0-0.2,0c-3.7,0-12.2,0-15.9,0c-1.9,0-1.9,0-2,1.9
	c0,0.7,0,1.5,0,2.2c0.3,2.9-1.8,5.5-4.7,5.8c-0.4,0-0.7,0-1.1,0c-6.3,0-12.5,0-18.8,0c-2.3,0-2.3,0-1.3,2c3,5.8,6,11.7,8.9,17.5
	c1,1.9,0.3,3.6-1.5,3.9c-1.4,0.2-2.1-0.7-2.7-1.8c-2-3.9-4-7.8-6-11.8c-1.5-2.9-3-5.7-4.4-8.6c-0.3-0.8-1.1-1.3-1.9-1.2
	c-7.2,0-14.3,0-21.5,0c-0.9-0.1-1.8,0.5-2.1,1.4c-3.4,6.7-6.8,13.3-10.2,20c-0.1,0.3-0.3,0.5-0.4,0.8c-0.5,1.1-1.9,1.6-3,1.1
	c0,0,0,0,0,0c0,0-0.1,0-0.1-0.1c-1.1-0.6-1.6-1.9-1-3c0.7-1.5,1.4-3,2.2-4.5c2.4-4.7,4.8-9.4,7.3-14.1c0.7-1.4,0.7-1.5-0.9-1.5
	c-6.3,0-12.6,0-19,0c-4.3,0-6.2-1.9-6.2-6.1c0-3.8,0-3.8-3.7-3.8c-3.4,0-6.8-0.1-10.1,0c-3.2,0.4-6.3-1.5-7.5-4.5L9.3,16.3z
	 M75,115.1c-12.3,0-24.6,0-36.9,0c-3.2,0-2.8-0.4-2.8,2.8c0,2.3,0,2.3,2.3,2.3c24.6,0,49.2,0,73.8,0c3.5,0,3.1,0.4,3.2-3.1
	c0-2,0-2-2.1-2C99.9,115.1,87.4,115.1,75,115.1z"/>
<path class="st0" d="M107,97.2c-0.3,0.9-0.6,1.9-1,2.7c-2.1,4.2-7.2,5.8-11.4,3.7c-1.3-0.6-2.3-1.6-3.1-2.7
	c-3.1-4.2-6.1-8.5-9.1-12.8c-1.5-2.1-3.1-4.2-4.5-6.4c-0.4-0.9-1.5-1.3-2.4-0.9c-7.5,2.2-15.5,1.1-22.2-2.9
	C46,73.8,40.9,66.7,39.4,58.5c-3.1-15.7,7.1-30.9,22.8-34s30.9,7.1,34,22.8c1.5,7.7-0.1,15.6-4.6,22.1c-0.6,0.7-0.6,1.8,0.1,2.5
	c4.3,5.9,8.5,11.9,12.7,17.8c0.8,1.1,1.5,2.3,2.2,3.5L107,97.2z M91.9,50.6C90.5,37.3,78.7,27.6,65.5,29
	c-13.3,1.3-22.9,13.2-21.6,26.4S57,78.3,70.3,77c13.2-1.3,22.8-13,21.6-26.2C91.9,50.7,91.9,50.6,91.9,50.6z M98.7,99.7
	c2-0.1,3.6-1.8,3.5-3.9c0-0.8-0.3-1.5-0.8-2.1c-1.1-1.7-2.4-3.4-3.6-5c-3.2-4.5-6.4-9-9.6-13.5c-0.5-0.7-0.9-1.2-1.7-0.4
	c-1.3,1.2-2.8,2.3-4.4,3.1c-0.7,0.4-0.7,0.8-0.3,1.4c4.5,6.3,9,12.7,13.5,19C96.2,99.4,97.5,99.9,98.7,99.7L98.7,99.7z"/>
<path class="st0" d="M84.7,16.3c-15.9,0-31.7,0-47.6,0c-0.9,0-1.9-0.1-2.8-0.2c-1.2-0.1-2-1.2-1.9-2.3c0,0,0,0,0,0v0l0-0.1
	c0-1.1,0.9-2.1,2.1-2.1c0.5,0,1-0.1,1.5,0c8.2,0,16.4,0,24.5,0c1.9,0,1.9,0,1.9-2c0-0.9,0-1.8,0.1-2.6c0.2-3.1,2.9-5.5,6-5.3
	c4.3-0.1,8.5-0.1,12.8,0c3.2-0.1,5.8,2.4,5.9,5.5c0,0,0,0,0,0c0,0.2,0,0.4,0,0.6c0,3.8,0,3.8,3.9,3.8c14.1,0,28.1,0,42.2,0
	c5,0,7.4,2.4,7.4,7.4c0,6.3,0,85.6,0,91.9c0,0.5,0,1-0.1,1.5c-0.1,1.1-1.1,2-2.2,1.9c-1.1,0.1-2.2-0.7-2.3-1.8
	c-0.1-0.7-0.2-1.5-0.2-2.2c0-6,0-85.1,0-91.1c0-2.4-0.3-2.7-2.7-2.7C117,16.3,100.9,16.3,84.7,16.3z M74.8,11.5c1.6,0,3.1,0,4.7,0
	c3.5-0.1,3.1,0.6,3.1-3.1c0-1.7-0.3-2-2.1-2c-3.2,0-6.5,0-9.7,0c-3.8,0-3.7,0-3.6,3.8c0,0.9,0.3,1.3,1.3,1.3
	C70.6,11.4,72.7,11.5,74.8,11.5z"/>
</svg>
