<?xml version="1.0" encoding="utf-8"?>
<!-- Generator: Adobe Illustrator 23.0.5, SVG Export Plug-In . SVG Version: 6.00 Build 0)  -->
<svg version="1.1" id="Layer_1" xmlns="http://www.w3.org/2000/svg" xmlns:xlink="http://www.w3.org/1999/xlink" x="0px" y="0px"
	 viewBox="0 0 18.5 18.9" style="enable-background:new 0 0 18.5 18.9;" xml:space="preserve">
<style type="text/css">
	.st0{fill:#663399;}
</style>
<title>briefcase</title>
<path class="st0" d="M14.5,3.5h-0.8c-0.4-1.7-1.9-3-3.7-3H8.5c-1.8,0-3.3,1.3-3.7,3H4C2,3.5,0.3,5.2,0.3,7.2v7.5
	c0,2.1,1.7,3.7,3.8,3.8h10.5c2.1,0,3.7-1.7,3.8-3.8V7.2C18.3,5.2,16.6,3.5,14.5,3.5z M8.5,2H10c1,0,1.8,0.6,2.1,1.5H6.4
	C6.7,2.6,7.6,2,8.5,2z M4,5h10.5c1.2,0,2.3,1,2.3,2.2c0,0,0,0,0,0v2.3h-15V7.2C1.8,6,2.8,5,4,5z M14.5,17H4c-1.2,0-2.3-1-2.3-2.3V11
	h6.8v0.8c0,0.4,0.3,0.8,0.8,0.8s0.8-0.3,0.8-0.8V11h6.8v3.8C16.8,16,15.8,17,14.5,17L14.5,17z"/>
</svg>
