<svg id="Layer_1" data-name="Layer 1" xmlns="http://www.w3.org/2000/svg" viewBox="0 0 150 150"><defs><style>.cls-1{fill:#639;}</style></defs><title>brief-out</title><path class="cls-1" d="M114.61547,29.72518h-6.22529A28.3477,28.3477,0,0,0,80.65935,7.08777H69.34065A28.3477,28.3477,0,0,0,41.60982,29.72518H35.38453A28.33072,28.33072,0,0,0,7.08777,58.02194v56.59353a28.33072,28.33072,0,0,0,28.29676,28.29676h79.23094a28.33072,28.33072,0,0,0,28.29676-28.29676V58.02194A28.33072,28.33072,0,0,0,114.61547,29.72518ZM69.34065,18.40647h11.3187A16.97807,16.97807,0,0,1,96.59609,29.72518H53.40391A16.97807,16.97807,0,0,1,69.34065,18.40647ZM35.38453,41.04388h79.23094a16.97806,16.97806,0,0,1,16.97806,16.97806V75H18.40647V58.02194A16.97806,16.97806,0,0,1,35.38453,41.04388Zm79.23094,90.54965H35.38453a16.97806,16.97806,0,0,1-16.97806-16.97806V86.31871H69.34065v5.65935a5.65935,5.65935,0,0,0,11.3187,0V86.31871h50.93418v28.29676A16.97806,16.97806,0,0,1,114.61547,131.59353Z"/></svg>