<svg id="Layer_1" data-name="Layer 1" xmlns="http://www.w3.org/2000/svg" viewBox="0 0 116 150"><defs><style>.cls-1{fill:#121828;}</style></defs><title>bulb</title><path class="cls-1" d="M95.47353,14.24813A56.23267,56.23267,0,0,0,19.69554,97.344a39.1389,39.1389,0,0,1,13.32333,28.53392V126.884a23.0846,23.0846,0,0,0,23.05961,23.05961H59.953A23.08461,23.08461,0,0,0,83.0126,126.884v-3.43082A33.26451,33.26451,0,0,1,95.08608,98.45632a56.20546,56.20546,0,0,0,.38745-84.22069ZM59.953,137.44518H56.07847A10.57367,10.57367,0,0,1,45.5173,126.884s-.04375-1.6248-.05-1.93725H70.51416V126.884A10.57367,10.57367,0,0,1,59.953,137.44518ZM86.82462,89.07a47.91277,47.91277,0,0,0-14.77315,23.37832H64.265V67.554a18.74764,18.74764,0,0,0,12.49843-17.5978,6.24922,6.24922,0,0,0-12.49843,0,6.24922,6.24922,0,0,1-12.49844,0,6.24922,6.24922,0,0,0-12.49843,0A18.74767,18.74767,0,0,0,51.76651,67.554v44.89437H43.50505A53.95578,53.95578,0,0,0,28.207,88.1951,43.74451,43.74451,0,0,1,52.89762,12.74832a46.57084,46.57084,0,0,1,5.17435-.28747A43.25082,43.25082,0,0,1,87.14332,23.572a43.7008,43.7008,0,0,1-.3,65.498Z"/></svg>