<svg id="Layer_1" data-name="Layer 1" xmlns="http://www.w3.org/2000/svg" viewBox="0 0 150 150"><defs><style>.cls-1{fill:#639;}</style></defs><title>cal-out</title><path class="cls-1" d="M114.61283,17.58869h-5.79435V11.79435a5.79435,5.79435,0,1,0-11.58869,0v5.79434H50.875V11.79435a5.79435,5.79435,0,1,0-11.58869,0v5.79434H33.492A29.0065,29.0065,0,0,0,4.52025,46.56042v69.53216A29.00649,29.00649,0,0,0,33.492,145.06431h81.12085a29.00648,29.00648,0,0,0,28.97173-28.97173V46.56042A29.0065,29.0065,0,0,0,114.61283,17.58869ZM16.10894,46.56042a17.383,17.383,0,0,1,17.383-17.383h81.12085a17.383,17.383,0,0,1,17.383,17.383v5.79435H16.10894Zm98.50389,86.9152H33.492a17.383,17.383,0,0,1-17.383-17.383V63.94346H131.99587v52.14912A17.383,17.383,0,0,1,114.61283,133.47562Z"/><circle class="cls-1" cx="74.0524" cy="92.91519" r="8.69152"/><circle class="cls-1" cx="45.08067" cy="92.91519" r="8.69152"/><circle class="cls-1" cx="103.02414" cy="92.91519" r="8.69152"/></svg>