<svg id="Layer_1" data-name="Layer 1" xmlns="http://www.w3.org/2000/svg" viewBox="0 0 150 150"><defs><style>.cls-1{fill:#639;}</style></defs><title>calender</title><path class="cls-1" d="M1.1875,117.7552a30.83123,30.83123,0,0,0,30.79427,30.79427h86.224A30.83122,30.83122,0,0,0,149,117.7552V62.32551H1.1875ZM105.888,90.04035a9.23829,9.23829,0,1,1-9.23828,9.23828A9.23828,9.23828,0,0,1,105.888,90.04035Zm-30.79427,0a9.23829,9.23829,0,1,1-9.23828,9.23828A9.23828,9.23828,0,0,1,75.09375,90.04035Zm-30.79427,0a9.23829,9.23829,0,1,1-9.23828,9.23828A9.23828,9.23828,0,0,1,44.29948,90.04035Z"/><path class="cls-1" d="M118.20573,13.05468h-6.15885V6.89582a6.15886,6.15886,0,0,0-12.31771,0v6.15886H50.45833V6.89582a6.15885,6.15885,0,1,0-12.3177,0v6.15886H31.98177A30.83122,30.83122,0,0,0,1.1875,43.849V50.0078H149V43.849A30.83121,30.83121,0,0,0,118.20573,13.05468Z"/></svg>