<?xml version="1.0" encoding="utf-8"?>
<!-- Generator: Adobe Illustrator 23.0.5, SVG Export Plug-In . SVG Version: 6.00 Build 0)  -->
<svg version="1.1" id="Layer_1" xmlns="http://www.w3.org/2000/svg" xmlns:xlink="http://www.w3.org/1999/xlink" x="0px" y="0px"
	 viewBox="0 0 18.5 18.9" style="enable-background:new 0 0 18.5 18.9;" xml:space="preserve">
<style type="text/css">
	.st0{fill:#121828;}
</style>
<title>calender</title>
<path class="st0" d="M14.5,2.3h-0.8V1.5c0-0.4-0.3-0.8-0.8-0.8S12.1,1,12.1,1.5v0.8h-6V1.5c0-0.4-0.3-0.8-0.8-0.8S4.8,1.1,4.8,1.5
	v0.8H4C2,2.3,0.3,3.9,0.3,6v9c0,2.1,1.7,3.7,3.8,3.8h10.5c2.1,0,3.7-1.7,3.8-3.8V6C18.3,3.9,16.6,2.3,14.5,2.3z M1.8,6
	c0-1.2,1-2.3,2.3-2.3h10.5c1.2,0,2.3,1,2.3,2.2l0,0v0.8h-15L1.8,6z M14.5,17.3H4c-1.2,0-2.3-1-2.3-2.3V8.3h15V15
	C16.8,16.3,15.8,17.3,14.5,17.3L14.5,17.3z"/>
<circle class="st0" cx="9.3" cy="12" r="1.1"/>
<circle class="st0" cx="5.5" cy="12" r="1.1"/>
<circle class="st0" cx="13" cy="12" r="1.1"/>
</svg>
