<svg id="Layer_1" data-name="Layer 1" xmlns="http://www.w3.org/2000/svg" xmlns:xlink="http://www.w3.org/1999/xlink" viewBox="0 0 1920 400"><defs><style>.cls-1{fill:none;stroke:#ddd;stroke-miterlimit:10;}.cls-2{clip-path:url(#clip-path);}.cls-3{fill:url(#linear-gradient);}.cls-4{fill:#fcc63c;}</style><clipPath id="clip-path"><rect class="cls-1" x="-365.30927" y="-1854.65217" width="1015.97705" height="521.21739" rx="13.22887"/></clipPath><linearGradient id="linear-gradient" x1="186.99952" y1="972.93082" x2="1732.93082" y2="-573.00048" gradientUnits="userSpaceOnUse"><stop offset="0" stop-color="#6a11cb"/><stop offset="0.17356" stop-color="#6610c3"/><stop offset="0.44914" stop-color="#5b0eac"/><stop offset="0.79032" stop-color="#490b86"/><stop offset="1" stop-color="#3c096c"/></linearGradient></defs><title>cta-bgg</title><g class="cls-2"><image width="1903" height="5095" transform="translate(-365.30927 -1855.97506) scale(0.53388)" xlink:href="../CMS%20Landing-pages/Marketing/Marketing-testimonial-pat.jpg"/></g><rect class="cls-1" x="-365.30927" y="-1854.65217" width="1015.97705" height="521.21739" rx="13.22887"/><polygon class="cls-3" points="2295.41 410.382 -375.41 410.522 -375.41 -10.522 2295.41 -10.522 2295.41 410.382"/><circle class="cls-4" cx="64.67179" cy="144.47001" r="24.45416" transform="translate(-91.50118 170.23873) rotate(-75.25384)"/><path class="cls-4" d="M98.83091,147.60971a35.09489,35.09489,0,1,1,35.09488-35.09582A35.13477,35.13477,0,0,1,98.83091,147.60971Zm0-68.31926a33.22438,33.22438,0,1,0,33.22437,33.22344A33.26091,33.26091,0,0,0,98.83091,79.29045Z"/><path class="cls-4" d="M1940.51733,399.17716A2.8271,2.8271,0,0,1,1938.497,400a2.90864,2.90864,0,0,1-2.0385-.86025l-22.933-23.51212-23.11913,23.344c-.01833,0-.01833,0-.01833.01871-.01908,0-.01908,0-.01908.0187a2.09833,2.09833,0,0,0-.243.18687c-.05667.03741-.13149.11223-.18724.14983a2.65051,2.65051,0,0,1-.3178.16853,1.837,1.837,0,0,1-.18723.09315,2.17987,2.17987,0,0,1-.37448.11223.57913.57913,0,0,1-.14889.03741,2.8464,2.8464,0,0,1-.5617.0563,2.65974,2.65974,0,0,1-.54265-.0563c-.05556,0-.11223-.03741-.168-.03741-.11241-.03741-.243-.07482-.35521-.11223-.075-.0376-.1315-.075-.20651-.11242a2.18135,2.18135,0,0,1-.29872-.14926c-.07482-.05631-.13056-.11242-.20538-.16854a1.964,1.964,0,0,1-.22465-.18686.0185.0185,0,0,0-.01926-.01871.01821.01821,0,0,0-.01834-.0187l-22.95115-23.5125-23.11914,23.344a.01849.01849,0,0,1-.01925.0187v.01871c-.07482.075-.168.11241-.243.18723a.853.853,0,0,1-.20538.14946,1.572,1.572,0,0,1-.29966.16853.8544.8544,0,0,1-.18722.09353,2.80422,2.80422,0,0,1-.37449.11185c-.05573.01927-.11149.03741-.168.05668a5.03535,5.03535,0,0,1-.54265.037,2.536,2.536,0,0,1-.54245-.05631.53467.53467,0,0,1-.16814-.03741c-.13058-.03741-.24281-.07444-.35523-.11185-.07482-.03741-.13056-.07482-.20557-.11242a2.18162,2.18162,0,0,1-.29946-.14964c-.075-.0563-.13057-.11186-.20557-.16816a1.96551,1.96551,0,0,1-.22465-.18724l-.01908-.0187a.01807.01807,0,0,1-.01833-.01871l-22.95116-23.5125-23.11932,23.344-.01927.01926a.01777.01777,0,0,1-.01814.01815,1.982,1.982,0,0,1-.22465.18724c-.075.0563-.13075.11241-.20557.16853-.09408.0563-.20631.09371-.29964.14945a1.75632,1.75632,0,0,1-.56079.206c-.05648.0187-.11223.03741-.16891.05611a2.774,2.774,0,0,1-.39281.03741h-.28037V392.35l.14981.14983,23.11933-23.344h.01907l.01834-.01927a.937.937,0,0,1,.20556-.168c.07482-.0563.14964-.13112.22466-.18724a1.78823,1.78823,0,0,1,.26205-.13056c.075-.0376.14982-.09371.243-.13112a1.57217,1.57217,0,0,1,.28038-.075,1.21291,1.21291,0,0,1,.24391-.07482c.09315-.01871.1863-.01871.28039-.03741.09316,0,.18724-.01871.28039-.01871.07482,0,.168.01871.26206.01871.09316.0187.18724.0187.28039.03741s.16817.05612.26224.07482c.07389.0376.168.0563.26113.09371a.96052.96052,0,0,1,.24391.11242c.09315.05555.168.09315.26112.14927a1.94746,1.94746,0,0,1,.22466.18724c.075.05611.13074.09352.20556.14926,0,.01927,0,.01927.01927.01927,0,.01814,0,.01814.01814.01814l22.933,23.5125,23.11914-23.344c.01832,0,.01832,0,.03758-.01871v-.01871c.07482-.05611.13057-.09352.20539-.14926a2.72553,2.72553,0,0,1,.243-.18724.99986.99986,0,0,1,.24391-.13112,1.5537,1.5537,0,0,1,.243-.13113,1.6046,1.6046,0,0,1,.2804-.07482,1.08313,1.08313,0,0,1,.26205-.07444c.07482-.01871.168-.01871.26206-.03741.09316,0,.18649-.01871.28039-.01871.09315,0,.16817.01871.26224.01871.09315.0187.1863.0187.28039.03741.09317.0187.168.05611.26206.07444a1.101,1.101,0,0,1,.26132.07482c.09408.0376.168.09372.26205.13113a1.53755,1.53755,0,0,0,.243.13112,2.23909,2.23909,0,0,1,.22464.20538,1.94472,1.94472,0,0,1,.20558.14983c0,.01871,0,.01871.01906.01871a.01821.01821,0,0,0,.01835.0187l22.95116,23.5125,23.1193-23.344.01908-.0187v-.01871a1.87554,1.87554,0,0,0,.20559-.14982,1.19447,1.19447,0,0,1,.243-.18668,1.5068,1.5068,0,0,1,.24373-.13112c.09316-.05612.16816-.09353.243-.13113.09315-.03741.18723-.05611.2804-.09352a1.31319,1.31319,0,0,1,.26223-.05612,1.472,1.472,0,0,1,.28039-.0376c.07482,0,.168-.01814.26206-.01814.09317,0,.1863.01814.26131.01814.0939.01927.187.01927.28114.0376a1.37276,1.37276,0,0,1,.26131.07482,1.56594,1.56594,0,0,1,.28132.07482,2.72286,2.72286,0,0,0,.243.13113,1.54484,1.54484,0,0,0,.24281.13112c.075.05574.14981.13056.243.20538a1.27645,1.27645,0,0,1,.18726.14983l.01925.0187.01816.01871,24.98981,25.58858A2.86142,2.86142,0,0,1,1940.51733,399.17716Z"/><path class="cls-4" d="M1727.82518,75.40463a6.50713,6.50713,0,1,1-6.50713-6.507A6.5071,6.5071,0,0,1,1727.82518,75.40463Z"/><path class="cls-4" d="M1748.5177,90.26377a4.58434,4.58434,0,1,1-4.58425-4.58443A4.58435,4.58435,0,0,1,1748.5177,90.26377Z"/><circle class="cls-4" cx="1870.12056" cy="241.95944" r="6.50713"/><path class="cls-4" d="M1859.96369,266.47172a4.58434,4.58434,0,1,1-4.58443-4.58443A4.58438,4.58438,0,0,1,1859.96369,266.47172Z"/><path class="cls-4" d="M230.94553,331.63035a6.50711,6.50711,0,1,1-7.60942-5.17533A6.507,6.507,0,0,1,230.94553,331.63035Z"/><path class="cls-4" d="M247.36638,306.65268a4.58433,4.58433,0,1,1-5.36088-3.646A4.58458,4.58458,0,0,1,247.36638,306.65268Z"/></svg>