<svg id="Layer_1" data-name="Layer 1" xmlns="http://www.w3.org/2000/svg" xmlns:xlink="http://www.w3.org/1999/xlink" viewBox="0 0 64 64"><defs><style>.cls-1{fill:#639;}.cls-2{fill:url(#linear-gradient);}</style><linearGradient id="linear-gradient" x1="-70.03001" y1="1868.66543" x2="-41.00693" y2="1868.64798" gradientTransform="translate(216.07593 -1814.80379) rotate(3.99986)" gradientUnits="userSpaceOnUse"><stop offset="0" stop-color="#8ebb3f"/><stop offset="0.05" stop-color="#a1b138"/><stop offset="0.16" stop-color="#c3a12d"/><stop offset="0.26" stop-color="#db9525"/><stop offset="0.36" stop-color="#e98d20"/><stop offset="0.44" stop-color="#ee8b1e"/><stop offset="0.51" stop-color="#ed8423"/><stop offset="0.62" stop-color="#ec6f32"/><stop offset="0.76" stop-color="#e94e4b"/><stop offset="0.91" stop-color="#e5206c"/><stop offset="1" stop-color="#e30083"/></linearGradient></defs><title>favicon</title><path class="cls-1" d="M56.31664,37.4246c-1.22019-1.22019-1.04588-2.789-.6101-4.35782a2.94373,2.94373,0,0,0,.08716-1.74313,8.16309,8.16309,0,0,0-3.922-4.09635c-5.05507-2.35323-10.63308-1.39451-14.11934,3.05047a41.54041,41.54041,0,0,0-4.7936,8.01839,16.40036,16.40036,0,0,1-7.58261,8.10555c-4.88076-4.35782-7.93123-10.72024-7.93123-16.47256,0-8.8028,19.523-15.77531,29.02308-17.43128,2.52754-.43579,5.22939-1.22019,5.83948-3.74773a6.221,6.221,0,0,0-2.789-6.711l-1.3945-.87157A6.36141,6.36141,0,0,0,44.37621.20881c-15.68815,1.04588-41.225,12.72484-41.225,28.67446,0,14.72943,10.54593,29.80749,24.49095,33.11943a27.03093,27.03093,0,0,0,6.101,1.133c6.44957.43578,12.11474-1.48166,16.3854-6.53673,4.35782-5.22939,5.92664-11.50465,6.53673-18.12854A1.38925,1.38925,0,0,0,56.31664,37.4246Zm-9.93583,7.66976a10.97577,10.97577,0,0,1-6.7982,7.32114c-.69725.26146-1.3945.52293-2.17891.7844l.69725-1.56881a18.819,18.819,0,0,1-10.72024-3.57341c.87157-.78441,1.74313-1.656,2.61469-2.52754,2.44038-2.17891,4.70645-4.61929,7.4083-6.711a6.40885,6.40885,0,0,1,6.10095-1.133C46.38081,38.55763,47.42668,41.6081,46.38081,45.09436ZM52.74322,32.631a1.57152,1.57152,0,0,1-1.04587-1.04587c0-.43578.52293-.95872,1.04587-1.656.6101.78441,1.04588,1.2202,1.133,1.74313C53.87626,32.0209,53.09185,32.71815,52.74322,32.631Z"/><path class="cls-1" d="M60.84877,34.287,56.491,36.20441c-.08716-1.30735-.08716-2.35323-.17431-3.83489Z"/><path class="cls-2" d="M17.09626,53.1999a24.09842,24.09842,0,0,0,4.09635-1.74312,58.69519,58.69519,0,0,0,6.88535-5.4037c3.13763-2.87616,5.83948-6.36242,9.84868-8.10555a9.80544,9.80544,0,0,1,4.96791-.78441,4.68971,4.68971,0,0,1,4.09635,5.22939v.17431c-.52293,5.14223-3.48625,8.27986-8.10554,10.1973-4.88076,1.91744-9.93583,1.91744-14.9909,1.48166-2.26607-.17431-4.445-.43578-6.62389-.69726Z"/></svg>