<svg id="Layer_1" data-name="Layer 1" xmlns="http://www.w3.org/2000/svg" viewBox="0 0 150 150"><defs><style>.cls-1{fill:#fafaf9;}</style></defs><title>fb</title><path class="cls-1" d="M80.8391,148.5H68.77452c-2.59875-.37654-5.21749-.6493-7.79326-1.14519A73.677,73.677,0,0,1,2.15233,62.638c6.95674-41.1966,46.729-68.58151,87.53976-59.73415,28.9429,6.27453,47.57382,24.46,56.24,52.78663a75.86277,75.86277,0,0,1,2.41122,13.24067V80.99576c-.34563,2.40939-.54436,4.85066-1.0592,7.22335q-9.61519,44.31257-52.93459,57.79671A74.88607,74.88607,0,0,1,80.8391,148.5Zm.17659-49.72113q0-9.621.00113-19.24192c.001-2.09252.00708-2.09554,2.15643-2.09845,2.77619-.00375,5.55247-.01394,8.32854.00426.87075.00571,1.48407-.18524,1.58062-1.21086.37632-3.99757.75588-7.99532,1.19851-11.98586.13232-1.19282-.21236-1.60759-1.44485-1.58258-3.34918.068-6.70169-.02662-10.05078.04355-1.39145.02916-1.8402-.48954-1.79109-1.84581.08482-2.34234.01264-4.69.02658-7.03536.01845-3.10044,1.376-4.47012,4.47044-4.49694,2.441-.02114,4.88258-.03255,7.3232.002,1.046.0148,1.45195-.40847,1.44332-1.45187q-.04689-5.67166-.00023-11.3439c.0087-1.05381-.42455-1.44836-1.4569-1.44087-4.64249.03367-9.28943-.0916-13.92691.06818A15.1471,15.1471,0,0,0,64.73411,45.73505a19.37894,19.37894,0,0,0-1.08865,6.47741c.01043,2.72824-.00239,5.4566-.01183,8.18488-.00775,2.239-.04956,2.28028-2.21556,2.28788-1.6274.00572-3.25557.03363-4.882-.00592-1.037-.02521-1.45973.3852-1.45107,1.44019q.0489,5.95884-.00022,11.91828c-.00908,1.07586.45074,1.44171,1.473,1.40961,1.43453-.045,2.87191-.03031,4.30745-.00556,2.63266.04538,2.77385-.559,2.77228,2.84161q-.00868,18.81111.00006,37.62223c.00063,2.02728.05709,2.078,2.1121,2.07994q6.67722.00628,13.35447-.00092c1.86213-.00264,1.909-.05437,1.90986-1.96388Q81.01862,108.39983,81.01569,98.77887Z"/></svg>