<svg id="Layer_1" data-name="Layer 1" xmlns="http://www.w3.org/2000/svg" xmlns:xlink="http://www.w3.org/1999/xlink" viewBox="0 0 204 46"><defs><style>.cls-1{fill:#639;}.cls-2{fill:url(#linear-gradient);}.cls-3{fill:url(#linear-gradient-2);}.cls-4{fill:url(#linear-gradient-3);}.cls-5{fill:#fff;}</style><linearGradient id="linear-gradient" x1="-27.91437" y1="3045.90804" x2="-8.55365" y2="3045.89633" gradientTransform="matrix(0.9976, 0.06975, -0.06975, 0.9976, 249.87715, -3005.74729)" gradientUnits="userSpaceOnUse"><stop offset="0" stop-color="#8dba3f"/><stop offset="0.05" stop-color="#a0b038"/><stop offset="0.16" stop-color="#c2a02d"/><stop offset="0.26" stop-color="#da9425"/><stop offset="0.36" stop-color="#e88c20"/><stop offset="0.44" stop-color="#ed8a1e"/><stop offset="0.51" stop-color="#ec8323"/><stop offset="0.62" stop-color="#eb6f32"/><stop offset="0.76" stop-color="#e84e4b"/><stop offset="0.91" stop-color="#e4206c"/><stop offset="1" stop-color="#e20082"/></linearGradient><linearGradient id="linear-gradient-2" x1="92.23469" y1="-1552.57023" x2="116.54346" y2="-1522.55675" gradientTransform="matrix(1, 0, 0, -1, 0, -1512)" xlink:href="#linear-gradient"/><linearGradient id="linear-gradient-3" x1="140.03434" y1="474.53434" x2="193.68433" y2="420.88433" gradientTransform="translate(0 -424)" xlink:href="#linear-gradient"/></defs><title>Go1cms-logo-color</title><path class="cls-1" d="M36.6,26.2a2.76653,2.76653,0,0,1-.4-2.9,2.46216,2.46216,0,0,0,.1-1.2,4.91728,4.91728,0,0,0-2.6-2.7,7.54308,7.54308,0,0,0-9.4,2,29.52506,29.52506,0,0,0-3.2,5.4A11.133,11.133,0,0,1,16,32.2a15.63318,15.63318,0,0,1-5.3-11c0-5.9,13-10.5,19.4-11.6,1.7-.3,3.5-.8,3.9-2.5a4.15608,4.15608,0,0,0-1.9-4.5l-1-.6a3.61408,3.61408,0,0,0-2.5-.6C18.1,2,1.1,9.8,1.1,20.5c0,9.8,7,19.9,16.3,22.1a18.606,18.606,0,0,0,4.1.8A12.38627,12.38627,0,0,0,32.4,39c2.9-3.5,4-7.7,4.4-12.1A1.44531,1.44531,0,0,0,36.6,26.2Zm-6.7,5.1a7.13846,7.13846,0,0,1-4.5,4.9c-.5.2-.9.3-1.5.5l.5-1a12.43961,12.43961,0,0,1-7.2-2.4,13.65011,13.65011,0,0,0,1.7-1.7c1.6-1.5,3.1-3.1,4.9-4.5a4.61206,4.61206,0,0,1,4.1-.8C29.9,26.9,30.6,29,29.9,31.3ZM34.2,23a1.208,1.208,0,0,1-.7-.7c0-.3.3-.6.7-1.1a3.54867,3.54867,0,0,1,.8,1.2,1.55511,1.55511,0,0,1-.8.6Z"/><path class="cls-1" d="M39.6,24.1l-2.9,1.3a21.74974,21.74974,0,0,1-.1-2.6Z"/><path class="cls-2" d="M10.4,36.7a13.06915,13.06915,0,0,0,2.7-1.2,40.56057,40.56057,0,0,0,4.6-3.6c2.1-1.9,3.9-4.2,6.6-5.4a6.21936,6.21936,0,0,1,3.3-.5,3.14462,3.14462,0,0,1,2.7,3.5h0v.1C30,33,28,35.1,24.9,36.4a22.54288,22.54288,0,0,1-10,1c-1.5-.1-3-.3-4.4-.5Z"/><path class="cls-3" d="M93.9,34h4.6V15.9l-4.6.3V9.1a18.30779,18.30779,0,0,0,5.2-.9,19.5209,19.5209,0,0,0,5.4-2.7h5.8V34h4.6v8H94Z"/><path class="cls-1" d="M83.1,24.2a20.75151,20.75151,0,0,1-41.5,0,20.803,20.803,0,0,1,41.6-.1v.1Zm-11.2,0a9.55118,9.55118,0,1,0-9.7,9.4h.2a9.53985,9.53985,0,0,0,9.5-9.4Z"/><path class="cls-4" d="M135.1,3.9h63.5a4.95143,4.95143,0,0,1,5,5V38.5a4.95143,4.95143,0,0,1-5,5H135.1a4.95142,4.95142,0,0,1-5-5V8.9A5.01452,5.01452,0,0,1,135.1,3.9Z"/><path class="cls-5" d="M150.2,29.8a8.6756,8.6756,0,0,1-2.8.5,6.06194,6.06194,0,0,1-4.3-1.8,5.71017,5.71017,0,0,1-1.3-2.1,8.57366,8.57366,0,0,1-.5-2.7,7.51156,7.51156,0,0,1,.5-2.6,5.71017,5.71017,0,0,1,1.3-2.1,4.96776,4.96776,0,0,1,1.9-1.3,6.87391,6.87391,0,0,1,2.4-.5,6.46141,6.46141,0,0,1,2.7.5,8.57767,8.57767,0,0,1,2,1.3l3.1-3.1a11.54738,11.54738,0,0,0-3.3-2.1,10.91693,10.91693,0,0,0-4.3-.8,10.59905,10.59905,0,0,0-4.3.8,9.4897,9.4897,0,0,0-3.4,2.2,11.34029,11.34029,0,0,0-2.3,3.4,12.04611,12.04611,0,0,0-.8,4.2,10.13385,10.13385,0,0,0,.8,4.2,9.7556,9.7556,0,0,0,2.3,3.4,10.14443,10.14443,0,0,0,3.5,2.3,12.60244,12.60244,0,0,0,4.3.8,12.1299,12.1299,0,0,0,4.3-.7,10.7827,10.7827,0,0,0,3.4-2.1l-3.1-3.1A5.95654,5.95654,0,0,1,150.2,29.8Z"/><polygon class="cls-5" points="168.4 24.8 161.1 13.4 157.9 13.4 157.9 34.1 162.4 34.1 162.4 22.6 166.9 29.6 169.9 29.6 174.4 22.6 174.4 34.1 179 34.1 179 13.4 175.7 13.4 168.4 24.8"/><path class="cls-5" d="M196.3,25.4a6.22773,6.22773,0,0,0-1.4-1.8,7.60725,7.60725,0,0,0-1.9-1.2,18.02787,18.02787,0,0,0-2.1-.8c-.7-.2-1.3-.5-1.9-.7a4.19454,4.19454,0,0,1-1.4-.9,1.61249,1.61249,0,0,1-.6-1.3,1.70939,1.70939,0,0,1,.7-1.3,4.13622,4.13622,0,0,1,1.9-.5,4.98981,4.98981,0,0,1,2.1.5,8.46657,8.46657,0,0,1,1.9,1.4l3-2.9a9.03851,9.03851,0,0,0-3-2.1,10.45724,10.45724,0,0,0-3.9-.8,9.85675,9.85675,0,0,0-3.8.7,5.09076,5.09076,0,0,0-2.5,2.1,4.76658,4.76658,0,0,0-.9,3.2,5.83427,5.83427,0,0,0,.6,2.6,5.79478,5.79478,0,0,0,1.4,1.7,11.78156,11.78156,0,0,0,1.9,1.1,18.02719,18.02719,0,0,0,2.1.8c.7.2,1.3.5,1.9.7a4.1944,4.1944,0,0,1,1.4.9,1.872,1.872,0,0,1,0,2.6c-.1.1-.2.2-.3.2a4.64529,4.64529,0,0,1-2.3.6,6.38816,6.38816,0,0,1-2.8-.6,6.20057,6.20057,0,0,1-2.2-1.7l-3,2.9a9.04569,9.04569,0,0,0,3.3,2.5,11.05987,11.05987,0,0,0,4.3.9,10.09994,10.09994,0,0,0,5.9-1.6,5.64744,5.64744,0,0,0,2.1-4.7A6.16473,6.16473,0,0,0,196.3,25.4Z"/></svg>