<?xml version="1.0" encoding="utf-8"?>
<!-- Generator: Adobe Illustrator 23.0.5, SVG Export Plug-In . SVG Version: 6.00 Build 0)  -->
<svg version="1.1" id="Layer_1" xmlns="http://www.w3.org/2000/svg" xmlns:xlink="http://www.w3.org/1999/xlink" x="0px" y="0px"
	 viewBox="0 0 204 46" style="enable-background:new 0 0 204 46;" xml:space="preserve">
<style type="text/css">
	.st0{fill:#FFFFFF;}
	.st1{fill:url(#SVGID_1_);}
	.st2{fill:url(#SVGID_2_);}
	.st3{fill:url(#SVGID_3_);}
</style>
<title>Go1cms-logo</title>
<path class="st0" d="M36.6,26.2c-0.7-0.8-0.8-1.9-0.4-2.9c0.1-0.4,0.2-0.8,0.1-1.2c-0.5-1.2-1.4-2.2-2.6-2.7c-3.2-1.7-7.2-0.8-9.4,2
	c-1.3,1.7-2.3,3.5-3.2,5.4c-1,2.3-2.8,4.2-5.1,5.4c-3.2-2.8-5.1-6.8-5.3-11c0-5.9,13-10.5,19.4-11.6c1.7-0.3,3.5-0.8,3.9-2.5
	c0.4-1.7-0.3-3.5-1.9-4.5L31.1,2c-0.7-0.5-1.6-0.7-2.5-0.6C18.1,2,1.1,9.8,1.1,20.5c0,9.8,7,19.9,16.3,22.1c1.3,0.4,2.7,0.7,4.1,0.8
	c4.1,0.5,8.2-1.2,10.9-4.4c2.9-3.5,4-7.7,4.4-12.1C36.8,26.6,36.7,26.4,36.6,26.2z M29.9,31.3c-0.6,2.3-2.3,4.1-4.5,4.9
	c-0.5,0.2-0.9,0.3-1.5,0.5l0.5-1c-2.6,0-5.1-0.9-7.2-2.4c0.6-0.5,1.2-1.1,1.7-1.7c1.6-1.5,3.1-3.1,4.9-4.5c1.1-0.9,2.7-1.2,4.1-0.8
	C29.9,26.9,30.6,29,29.9,31.3z M34.2,23c-0.3-0.1-0.6-0.4-0.7-0.7c0-0.3,0.3-0.6,0.7-1.1c0.4,0.5,0.7,0.8,0.8,1.2
	C34.9,22.6,34.4,23,34.2,23L34.2,23z"/>
<path class="st0" d="M39.6,24.1l-2.9,1.3c-0.1-0.9-0.1-1.6-0.1-2.6L39.6,24.1z"/>
<linearGradient id="SVGID_1_" gradientUnits="userSpaceOnUse" x1="-42.0067" y1="-2594.1204" x2="-22.64" y2="-2594.1086" gradientTransform="matrix(0.9976 6.975403e-02 6.975403e-02 -0.9976 232.4155 -2553.9722)">
	<stop  offset="0" style="stop-color:#8DBA3F"/>
	<stop  offset="5.000000e-02" style="stop-color:#A0B038"/>
	<stop  offset="0.16" style="stop-color:#C2A02D"/>
	<stop  offset="0.26" style="stop-color:#DA9425"/>
	<stop  offset="0.36" style="stop-color:#E88C20"/>
	<stop  offset="0.44" style="stop-color:#ED8A1E"/>
	<stop  offset="0.51" style="stop-color:#EC8323"/>
	<stop  offset="0.62" style="stop-color:#EB6F32"/>
	<stop  offset="0.76" style="stop-color:#E84E4B"/>
	<stop  offset="0.91" style="stop-color:#E4206C"/>
	<stop  offset="1" style="stop-color:#E20082"/>
</linearGradient>
<path class="st1" d="M10.4,36.7c0.9-0.3,1.9-0.7,2.7-1.2c1.6-1.1,3.2-2.3,4.6-3.6c2.1-1.9,3.9-4.2,6.6-5.4c1-0.5,2.2-0.6,3.3-0.5
	c1.7,0.2,2.9,1.8,2.7,3.5c0,0,0,0,0,0v0.1C30,33,28,35.1,24.9,36.4c-3.2,1.1-6.6,1.4-10,1c-1.5-0.1-3-0.3-4.4-0.5L10.4,36.7z"/>
<linearGradient id="SVGID_2_" gradientUnits="userSpaceOnUse" x1="92.2082" y1="1600.5657" x2="116.4938" y2="1570.5808" gradientTransform="matrix(1 0 0 1 0 -1560)">
	<stop  offset="0" style="stop-color:#8DBA3F"/>
	<stop  offset="5.000000e-02" style="stop-color:#A0B038"/>
	<stop  offset="0.16" style="stop-color:#C2A02D"/>
	<stop  offset="0.26" style="stop-color:#DA9425"/>
	<stop  offset="0.36" style="stop-color:#E88C20"/>
	<stop  offset="0.44" style="stop-color:#ED8A1E"/>
	<stop  offset="0.51" style="stop-color:#EC8323"/>
	<stop  offset="0.62" style="stop-color:#EB6F32"/>
	<stop  offset="0.76" style="stop-color:#E84E4B"/>
	<stop  offset="0.91" style="stop-color:#E4206C"/>
	<stop  offset="1" style="stop-color:#E20082"/>
</linearGradient>
<path class="st2" d="M93.9,34h4.6V15.9l-4.6,0.3V9.1c1.8,0,3.5-0.4,5.2-0.9c1.9-0.6,3.7-1.5,5.4-2.7h5.8V34h4.6v8H94L93.9,34z"/>
<path class="st0" d="M83.1,24.2C83,35.7,73.6,44.8,62.1,44.7c-11.2-0.2-20.3-9.2-20.5-20.5c0.2-11.5,9.6-20.6,21.1-20.5
	c11.2,0.2,20.2,9.2,20.5,20.4V24.2z M71.9,24.2c0.1-5.3-4.1-9.6-9.4-9.7c-5.3-0.1-9.6,4.1-9.7,9.4c-0.1,5.3,4.1,9.6,9.4,9.7h0.2
	C67.6,33.6,71.8,29.4,71.9,24.2C71.9,24.2,71.9,24.2,71.9,24.2z"/>
<linearGradient id="SVGID_3_" gradientUnits="userSpaceOnUse" x1="140.007" y1="-2.5763" x2="193.6601" y2="51.0768" gradientTransform="matrix(1 0 0 -1 0 48)">
	<stop  offset="0" style="stop-color:#8DBA3F"/>
	<stop  offset="5.000000e-02" style="stop-color:#A0B038"/>
	<stop  offset="0.16" style="stop-color:#C2A02D"/>
	<stop  offset="0.26" style="stop-color:#DA9425"/>
	<stop  offset="0.36" style="stop-color:#E88C20"/>
	<stop  offset="0.44" style="stop-color:#ED8A1E"/>
	<stop  offset="0.51" style="stop-color:#EC8323"/>
	<stop  offset="0.62" style="stop-color:#EB6F32"/>
	<stop  offset="0.76" style="stop-color:#E84E4B"/>
	<stop  offset="0.91" style="stop-color:#E4206C"/>
	<stop  offset="1" style="stop-color:#E20082"/>
</linearGradient>
<path class="st3" d="M135.1,3.9h63.5c2.8,0,5,2.2,5,5v29.6c0,2.8-2.2,5-5,5h-63.5c-2.8,0-5-2.2-5-5V8.9
	C130.1,6.2,132.3,3.9,135.1,3.9z"/>
<path class="st0" d="M150.2,29.8c-0.9,0.3-1.8,0.5-2.8,0.5c-0.8,0-1.7-0.2-2.4-0.5c-0.7-0.3-1.4-0.8-1.9-1.3c-0.6-0.6-1-1.3-1.3-2.1
	c-0.3-0.9-0.5-1.8-0.5-2.7c0-0.9,0.2-1.8,0.5-2.6c0.3-0.8,0.7-1.5,1.3-2.1c0.5-0.6,1.2-1,1.9-1.3c0.8-0.3,1.6-0.5,2.4-0.5
	c0.9,0,1.8,0.1,2.7,0.5c0.7,0.3,1.4,0.8,2,1.3l3.1-3.1c-1-0.9-2.1-1.6-3.3-2.1c-1.4-0.6-2.9-0.8-4.3-0.8c-1.5,0-2.9,0.2-4.3,0.8
	c-1.3,0.5-2.4,1.2-3.4,2.2c-1,1-1.7,2.1-2.3,3.4c-0.5,1.3-0.8,2.8-0.8,4.2c0,1.4,0.2,2.9,0.8,4.2c0.5,1.3,1.3,2.4,2.3,3.4
	c1,1,2.2,1.8,3.5,2.3c1.4,0.5,2.8,0.8,4.3,0.8c1.5,0,3-0.2,4.3-0.7c1.3-0.5,2.4-1.2,3.4-2.1l-3.1-3.1C151.7,29,151,29.5,150.2,29.8z
	"/>
<polygon class="st0" points="168.4,24.8 161.1,13.4 157.9,13.4 157.9,34.1 162.4,34.1 162.4,22.6 166.9,29.6 169.9,29.6 174.4,22.6 
	174.4,34.1 179,34.1 179,13.4 175.7,13.4 "/>
<path class="st0" d="M196.3,25.4c-0.4-0.7-0.8-1.3-1.4-1.8c-0.6-0.5-1.2-0.9-1.9-1.2c-0.7-0.3-1.4-0.6-2.1-0.8
	c-0.7-0.2-1.3-0.5-1.9-0.7c-0.5-0.2-1-0.5-1.4-0.9c-0.4-0.3-0.6-0.8-0.6-1.3c0-0.5,0.3-1,0.7-1.3c0.6-0.3,1.2-0.5,1.9-0.5
	c0.7,0,1.5,0.2,2.1,0.5c0.7,0.4,1.3,0.8,1.9,1.4l3-2.9c-0.8-0.9-1.9-1.6-3-2.1c-1.2-0.5-2.6-0.8-3.9-0.8c-1.3,0-2.6,0.2-3.8,0.7
	c-1,0.4-1.9,1.1-2.5,2.1c-0.7,1-1,2.1-0.9,3.2c0,0.9,0.2,1.8,0.6,2.6c0.4,0.7,0.8,1.2,1.4,1.7c0.6,0.4,1.2,0.8,1.9,1.1
	c0.7,0.3,1.4,0.6,2.1,0.8c0.7,0.2,1.3,0.5,1.9,0.7c0.5,0.2,1,0.5,1.4,0.9c0.7,0.7,0.7,1.9,0,2.6c-0.1,0.1-0.2,0.2-0.3,0.2
	c-0.7,0.4-1.5,0.6-2.3,0.6c-1,0-2-0.2-2.8-0.6c-0.9-0.4-1.6-1-2.2-1.7l-3,2.9c0.9,1.1,2,1.9,3.3,2.5c1.4,0.6,2.9,0.9,4.3,0.9
	c2.1,0.1,4.2-0.5,5.9-1.6c1.4-1.1,2.2-2.9,2.1-4.7C196.8,27.2,196.7,26.3,196.3,25.4z"/>
</svg>
