<svg id="Layer_1" data-name="Layer 1" xmlns="http://www.w3.org/2000/svg" viewBox="0 0 150 150"><defs><style>.cls-1{fill:#fafaf9;}</style></defs><title>instagram</title><path class="cls-1" d="M3.26929,80.59315V68.2619c.14261-.9675.30126-1.93294.42543-2.9028A69.2104,69.2104,0,0,1,23.19158,24.65936C39.92575,7.60684,60.365.4011,84.12643,3.15123A67.63094,67.63094,0,0,1,124.2,22.067c18.57918,17.95229,26.23847,40.02255,21.36815,65.36664-5.54661,28.86348-23.301,47.50168-51.34124,56.28794A72.50314,72.50314,0,0,1,80.90011,146.173H69.12938c-2.35105-.33724-4.73237-.534-7.04856-1.033C33.28677,138.936,14.52861,121.70728,5.71607,93.63567A76.39626,76.39626,0,0,1,3.26929,80.59315Zm71.78248,34.97944c6.57654-.26735,13.1736.03046,19.73346-.61465,8.16672-.80311,14.55033-4.468,18.3793-11.96893a25.9869,25.9869,0,0,0,2.61682-11.23869c.33981-12.416.71224-24.84689-.27341-37.24376-.618-7.773-4.16663-13.97444-11.17381-17.85972A25.85345,25.85345,0,0,0,92.3426,33.66059c-12.41523-.34687-24.84752-.74532-37.2412.27676-8.46124.69778-14.934,4.75229-18.59991,12.67656a26.5334,26.5334,0,0,0-2.257,10.47986c-.35389,12.41644-.61163,24.83893.2386,37.247a21.92071,21.92071,0,0,0,20.68948,20.644C61.79275,115.477,68.42561,115.29986,75.05177,115.57259Z"/><path class="cls-1" d="M74.96315,108.40465c-5.64988.016-11.30176.05646-16.94368-.28246-4.255-.25562-8.3337-1.079-11.65347-4.07794-3.71836-3.35907-4.788-7.799-5.0362-12.51271-.50124-9.518-.33166-19.04754-.21662-28.57118a51.83075,51.83075,0,0,1,.70357-9.62055c1.43675-7.16366,6.33107-11.6355,13.65542-12.35274,8.243-.80718,16.51275-.47412,24.77293-.52526a134.01575,134.01575,0,0,1,14.26571.51779c7.93449.79849,13.15188,6.02845,13.954,13.97055.58756,5.81767.51327,11.65426.5245,17.48841.01212,6.30327.05882,12.60754-.27048,18.90565a26.10734,26.10734,0,0,1-.89543,5.79832c-1.75012,6.1567-6.57513,10.04934-13.27085,10.72974C88.03577,108.53447,81.49652,108.3646,74.96315,108.40465Zm20.995-33.96657a20.944,20.944,0,1,0-21.02547,20.933A20.82581,20.82581,0,0,0,95.95811,74.43808Zm1.10763-26.79649a4.78777,4.78777,0,1,0,4.7351,4.78421A4.93977,4.93977,0,0,0,97.06574,47.64159Z"/><path class="cls-1" d="M75.02983,60.58912A13.8384,13.8384,0,1,1,61.17652,74.30773,13.71152,13.71152,0,0,1,75.02983,60.58912Z"/></svg>