<svg id="Layer_1" data-name="Layer 1" xmlns="http://www.w3.org/2000/svg" viewBox="0 0 72 72"><defs><style>.cls-1{fill:#fff;}</style></defs><title>link-white</title><path id="Path_2520" data-name="Path 2520" class="cls-1" d="M60.99677,60.99856H50.47605V44.523c0-3.92909-.07-8.98477-5.472-8.98477-5.479,0-6.31872,4.279-6.31872,8.70137v16.759H28.16806V27.11673H38.26893v4.62884h.14a11.07334,11.07334,0,0,1,9.96443-5.472c10.66417,0,12.627,7.015,12.627,16.13621ZM16.29683,22.48439a6.10531,6.10531,0,1,1,6.1053-6.1053,6.10413,6.10413,0,0,1-6.1053,6.1053h0m5.25861,38.51417H11.02422V27.11673H21.55544ZM66.24139.50529H5.73762A5.18243,5.18243,0,0,0,.5,5.624V66.37613a5.18312,5.18312,0,0,0,5.23762,5.12216H66.24139A5.1945,5.1945,0,0,0,71.5,66.37613V5.62045A5.1937,5.1937,0,0,0,66.24139.50179"/></svg>