<?xml version="1.0" encoding="utf-8"?>
<!-- Generator: Adobe Illustrator 23.0.5, SVG Export Plug-In . SVG Version: 6.00 Build 0)  -->
<svg version="1.1" id="Capa_1" xmlns="http://www.w3.org/2000/svg" xmlns:xlink="http://www.w3.org/1999/xlink" x="0px" y="0px"
	 viewBox="0 0 512 512" style="enable-background:new 0 0 512 512;" xml:space="preserve">
<style type="text/css">
	.st0{fill:#FFFFFF;}
</style>
<path id="Path_2520" class="st0" d="M433.3,433.3h-74.8V316.1c0-27.9-0.5-63.9-38.9-63.9c-39,0-44.9,30.4-44.9,61.9v119.2h-74.8
	v-241h71.8v32.9h1c14.7-25,41.9-40,70.9-38.9c75.9,0,89.8,49.9,89.8,114.8L433.3,433.3z M115.4,159.3c-24,0-43.4-19.4-43.4-43.4
	s19.4-43.4,43.4-43.4s43.4,19.4,43.4,43.4C158.8,139.9,139.3,159.3,115.4,159.3L115.4,159.3 M152.8,433.3H77.9v-241h74.9V433.3z
	 M470.6,3H40.3C19.9,2.8,3.2,19.1,3,39.4v432.1c0.2,20.4,16.9,36.7,37.3,36.4h430.3c20.4,0.2,37.1-16.1,37.4-36.4V39.4
	C507.7,19,491,2.7,470.6,3"/>
</svg>
