<svg id="Layer_1" data-name="Layer 1" xmlns="http://www.w3.org/2000/svg" viewBox="0 0 72 66.09783"><defs><style>.cls-1{fill:#fff;}</style></defs><title>mail-white</title><path class="cls-1" d="M71.36079,14.06387,46.49842,38.92625a14.78808,14.78808,0,0,1-20.887,0L.749,14.06387c-.04135.46665-.13586.889-.13586,1.3527V50.8583A14.78511,14.78511,0,0,0,15.38057,65.62569H56.72926A14.7851,14.7851,0,0,0,71.49665,50.8583V15.41657C71.49665,14.95287,71.40214,14.53052,71.36079,14.06387Z"/><path class="cls-1" d="M42.3222,34.75,69.29927,7.77a14.72605,14.72605,0,0,0-12.57-7.12083H15.38057A14.726,14.726,0,0,0,2.81057,7.77L29.78764,34.75A8.8811,8.8811,0,0,0,42.3222,34.75Z"/></svg>