<svg id="Layer_1" data-name="Layer 1" xmlns="http://www.w3.org/2000/svg" viewBox="0 0 150 150"><defs><style>.cls-1{fill:#121828;}</style></defs><title>menu</title><path class="cls-1" d="M44.11761,1.49141H25.804a24.4181,24.4181,0,0,0-24.4181,24.4181V44.22308A24.41811,24.41811,0,0,0,25.804,68.64118H44.11761a24.4181,24.4181,0,0,0,24.4181-24.4181V25.90951A24.41809,24.41809,0,0,0,44.11761,1.49141Zm12.209,42.73167a12.209,12.209,0,0,1-12.209,12.209H25.804A12.20905,12.20905,0,0,1,13.595,44.22308V25.90951A12.209,12.209,0,0,1,25.804,13.70046H44.11761a12.209,12.209,0,0,1,12.209,12.20905Z"/><path class="cls-1" d="M123.47644,1.49141H105.16286a24.4181,24.4181,0,0,0-24.4181,24.4181V44.22308a24.41811,24.41811,0,0,0,24.4181,24.4181h18.31358a24.4181,24.4181,0,0,0,24.41809-24.4181V25.90951A24.41809,24.41809,0,0,0,123.47644,1.49141Zm12.209,42.73167a12.20905,12.20905,0,0,1-12.209,12.209H105.16286a12.20905,12.20905,0,0,1-12.209-12.209V25.90951a12.209,12.209,0,0,1,12.209-12.20905h18.31358a12.209,12.209,0,0,1,12.209,12.20905Z"/><path class="cls-1" d="M44.11761,80.85023H25.804a24.4181,24.4181,0,0,0-24.4181,24.4181V123.5819A24.41811,24.41811,0,0,0,25.804,148H44.11761a24.4181,24.4181,0,0,0,24.4181-24.4181V105.26833A24.41809,24.41809,0,0,0,44.11761,80.85023Zm12.209,42.73167a12.209,12.209,0,0,1-12.209,12.20905H25.804A12.209,12.209,0,0,1,13.595,123.5819V105.26833A12.20905,12.20905,0,0,1,25.804,93.05928H44.11761a12.209,12.209,0,0,1,12.209,12.20905Z"/><path class="cls-1" d="M123.47644,80.85023H105.16286a24.4181,24.4181,0,0,0-24.4181,24.4181V123.5819A24.41811,24.41811,0,0,0,105.16286,148h18.31358a24.4181,24.4181,0,0,0,24.41809-24.4181V105.26833A24.41809,24.41809,0,0,0,123.47644,80.85023Zm12.209,42.73167a12.209,12.209,0,0,1-12.209,12.20905H105.16286a12.209,12.209,0,0,1-12.209-12.20905V105.26833a12.20905,12.20905,0,0,1,12.209-12.20905h18.31358a12.20905,12.20905,0,0,1,12.209,12.20905Z"/></svg>