<svg id="Layer_1" data-name="Layer 1" xmlns="http://www.w3.org/2000/svg" viewBox="0 0 150 150"><defs><style>.cls-1{fill:#639;}</style></defs><title>menu</title><path class="cls-1" d="M24.91715,0H43.58406a24.88915,24.88915,0,0,1,24.8891,24.8891V43.556a24.88915,24.88915,0,0,1-24.8891,24.8891H24.91716A24.88878,24.88878,0,0,1,.02805,43.556V24.8891A24.88915,24.88915,0,0,1,24.91715,0Z"/><path class="cls-1" d="M105.80725,0h18.6669a24.88915,24.88915,0,0,1,24.8891,24.8891V43.556a24.88915,24.88915,0,0,1-24.8891,24.8891h-18.6669A24.88915,24.88915,0,0,1,80.91814,43.556V24.88911A24.88879,24.88879,0,0,1,105.80725,0Z"/><path class="cls-1" d="M24.91715,80.88981H43.58406a24.88915,24.88915,0,0,1,24.8891,24.8891v18.6669a24.88915,24.88915,0,0,1-24.8891,24.88911H24.91716A24.88873,24.88873,0,0,1,.02805,124.4461V105.7792A24.88921,24.88921,0,0,1,24.91715,80.88981Z"/><path class="cls-1" d="M105.80725,80.88981h18.6669a24.88915,24.88915,0,0,1,24.8891,24.8891v18.6669a24.8892,24.8892,0,0,1-24.8891,24.88939h-18.6669a24.88915,24.88915,0,0,1-24.88911-24.8891V105.7792A24.88884,24.88884,0,0,1,105.80725,80.88981Z"/></svg>