<svg id="Layer_1" data-name="Layer 1" xmlns="http://www.w3.org/2000/svg" viewBox="0 0 150 150"><defs><style>.cls-1{fill:#639;}</style></defs><title>settings</title><path class="cls-1" d="M11.137,112.077a18.46161,18.46161,0,0,0,25.213,6.77942l.01788-.01039,2.73836-1.58163a55.24343,55.24343,0,0,0,17.526,10.11691v3.15721a18.46152,18.46152,0,1,0,36.923,0v-3.15692a55.23863,55.23863,0,0,0,17.526-10.12932l2.75077,1.58769A18.47186,18.47186,0,0,0,132.2936,86.83976h0l-2.73231-1.57528a56.00459,56.00459,0,0,0,0-20.24623l2.7323-1.57529A18.47186,18.47186,0,0,0,113.83207,31.4428l-2.73837,1.58163A55.24557,55.24557,0,0,0,93.55527,22.92627V19.76935a18.46152,18.46152,0,1,0-36.923,0v3.15692a55.2386,55.2386,0,0,0-17.526,10.12932l-2.75076-1.59375A18.47174,18.47174,0,1,0,17.8939,63.46172h0L20.6262,65.037a56.00459,56.00459,0,0,0,0,20.24623l-2.7323,1.57529A18.49827,18.49827,0,0,0,11.137,112.077ZM75.09375,50.53865A24.61527,24.61527,0,1,1,50.47848,75.15391,24.61531,24.61531,0,0,1,75.09375,50.53865Z"/></svg>