<svg id="Layer_1" data-name="Layer 1" xmlns="http://www.w3.org/2000/svg" viewBox="0 0 17.96664 21.47133"><defs><style>.cls-1{fill:#663396;}.cls-2{fill:#fff;}</style></defs><title>shield</title><path class="cls-1" d="M14.8174,2.003,9.26189.15061a.88681.88681,0,0,0-.56043,0L3.14594,2.003A4.42758,4.42758,0,0,0,.11413,6.20891v4.53752c0,6.70652,8.15814,10.41049,8.50752,10.56479a.88675.88675,0,0,0,.72,0c.34938-.1543,8.50752-3.85827,8.50752-10.56479V6.20891A4.42758,4.42758,0,0,0,14.8174,2.003Z"/><path class="cls-2" d="M13.16538,8.722,9.37716,12.51019a1.66086,1.66086,0,0,1-1.18381.49037H8.16409a1.66,1.66,0,0,1-1.19269-.532L4.92655,10.3403A.88675.88675,0,1,1,6.20436,9.11481l1.98987,2.075L11.908,7.46544a.88676.88676,0,0,1,1.25387,1.25388Z"/></svg>