<svg id="Layer_1" data-name="Layer 1" xmlns="http://www.w3.org/2000/svg" viewBox="0 0 72 72"><defs><style>.cls-1{fill:#fff;}</style></defs><title>skype-white</title><g id="Page-1"><g id="Logo"><path id="Shape" class="cls-1" d="M36.14488,57.333c-11.77552,0-17.1538-5.99852-17.1538-10.3992a3.81341,3.81341,0,0,1,4.02559-3.81589c5.04158,0,3.72138,7.5609,13.12821,7.5609,4.80826,0,7.63178-2.89441,7.63178-5.61456,0-1.63328-.9333-3.49987-4.10828-4.2471L29.16581,38.16787c-8.43809-2.14718-9.90892-6.8373-9.90892-11.19073,0-9.03173,8.26088-12.30123,16.12894-12.30123,7.24784,0,15.86018,4.002,15.86018,9.41864,0,2.33325-1.9493,3.58257-4.21166,3.58257-4.30618,0-3.58257-6.04577-12.24217-6.04577-4.30617,0-6.57149,2.02018-6.57149,4.8437s3.34924,3.78045,6.29091,4.42431l7.74992,1.75142C50.75868,34.56463,53.021,39.54715,53.021,44.32c0,7.33939-5.68249,13.013-16.885,13.013M68.65676,41.80065a33.58626,33.58626,0,0,0,.50209-5.83607A33.16788,33.16788,0,0,0,30.24974,3.1603a19.49163,19.49163,0,0,0-9.779-2.602A19.84021,19.84021,0,0,0,3.35241,30.21416,33.1876,33.1876,0,0,0,41.7683,68.83974a19.51686,19.51686,0,0,0,9.76715,2.602,19.84175,19.84175,0,0,0,17.12131-29.6411"/></g></g></svg>