<?xml version="1.0" encoding="utf-8"?>
<!-- Generator: Adobe Illustrator 23.0.5, SVG Export Plug-In . SVG Version: 6.00 Build 0)  -->
<svg version="1.1" id="Capa_1" xmlns="http://www.w3.org/2000/svg" xmlns:xlink="http://www.w3.org/1999/xlink" x="0px" y="0px"
	 viewBox="0 0 512 512" style="enable-background:new 0 0 512 512;" xml:space="preserve">
<style type="text/css">
	.st0{fill:#FFFFFF;}
</style>
<g id="Page-1_1_">
	<g id="Logo_1_" transform="translate(-1.000000, 0.000000)">
		<path id="Shape_1_" class="st0" d="M258,410.1c-85.1,0-123.9-43.3-123.9-75.1c0-7.6,3.1-14.8,8.6-20.1c5.5-5.2,12.9-7.9,20.5-7.5
			c36.4,0,26.9,54.6,94.8,54.6c34.7,0,55.1-20.9,55.1-40.6c0-11.8-6.7-25.3-29.7-30.7l-75.9-19.1c-60.9-15.5-71.6-49.4-71.6-80.8
			c0-65.2,59.7-88.9,116.5-88.9c52.4,0,114.6,28.9,114.6,68c0,16.9-14.1,25.9-30.4,25.9c-31.1,0-25.9-43.7-88.4-43.7
			c-31.1,0-47.5,14.6-47.5,35s24.2,27.3,45.4,32l56,12.7c61.4,13.8,77.7,49.8,77.7,84.3C379.9,369.1,338.9,410.1,258,410.1
			 M492.9,297.9c2.4-13.9,3.6-28,3.6-42.2c0.3-71-30.9-138.4-85.1-184.1s-126-65.1-195.9-52.8C194,6.4,169.6-0.1,144.8,0
			C93.9,0.3,47,27.6,21.6,71.7C-3.8,115.7-4,170,21.2,214.2c-14,77.2,10.6,156.4,65.9,212s134.4,80.7,211.6,67
			c21.5,12.4,45.8,18.8,70.5,18.8c50.9-0.3,97.7-27.6,123.2-71.6S518,342.1,492.9,297.9"/>
	</g>
</g>
</svg>
