<?xml version="1.0" encoding="utf-8"?>
<!-- Generator: Adobe Illustrator 23.0.5, SVG Export Plug-In . SVG Version: 6.00 Build 0)  -->
<svg version="1.1" id="Layer_1" xmlns="http://www.w3.org/2000/svg" xmlns:xlink="http://www.w3.org/1999/xlink" x="0px" y="0px"
	 viewBox="0 0 18.5 18.9" style="enable-background:new 0 0 18.5 18.9;" xml:space="preserve">
<style type="text/css">
	.st0{fill:#663399;}
</style>
<title>statistics</title>
<path class="st0" d="M17.5,17.1H4c-1.2,0-2.3-1-2.3-2.3V1.4c0-0.4-0.3-0.8-0.8-0.8S0.3,0.9,0.3,1.4v13.5c0,2.1,1.7,3.7,3.8,3.8h13.5
	c0.4,0,0.8-0.3,0.8-0.8S18,17.1,17.5,17.1z"/>
<path class="st0" d="M4.8,15.6c0.4,0,0.8-0.3,0.8-0.8V9.6c0-0.4-0.3-0.8-0.8-0.8S4,9.2,4,9.6v5.3C4,15.3,4.4,15.6,4.8,15.6z"/>
<path class="st0" d="M7.8,8.1v6.8c0,0.4,0.3,0.8,0.8,0.8s0.8-0.3,0.8-0.8V8.1c0-0.4-0.3-0.8-0.8-0.8S7.8,7.7,7.8,8.1z"/>
<path class="st0" d="M11.5,10.4v4.5c0,0.4,0.3,0.8,0.8,0.8s0.8-0.3,0.8-0.8v-4.5c0-0.4-0.3-0.8-0.8-0.8S11.5,9.9,11.5,10.4z"/>
<path class="st0" d="M15.3,7.4v7.5c0,0.4,0.3,0.8,0.8,0.8c0.4,0,0.8-0.3,0.8-0.8V7.4c0-0.4-0.3-0.8-0.8-0.8S15.3,6.9,15.3,7.4z"/>
<path class="st0" d="M4.8,7.4c0.2,0,0.4-0.1,0.5-0.2L8,4.4c0.3-0.3,0.8-0.3,1.1,0L10.7,6c0.9,1,2.3,1,3.2,0.1l4.2-4.2
	c0.3-0.3,0.3-0.8,0-1.1s-0.8-0.3-1,0L12.8,5c-0.3,0.3-0.8,0.3-1.1,0l-1.6-1.6C9.3,2.5,7.8,2.5,7,3.4L4.3,6.1C4,6.4,4,6.8,4.3,7.1
	C4.4,7.3,4.6,7.4,4.8,7.4z"/>
</svg>
