<svg id="Layer_1" data-name="Layer 1" xmlns="http://www.w3.org/2000/svg" viewBox="0 0 150 150"><defs><style>.cls-1{fill:#639;}</style></defs><title>stat-out</title><path class="cls-1" d="M135.2802,131.064H35.32293a16.65955,16.65955,0,0,1-16.65955-16.65954V14.44716a5.55318,5.55318,0,0,0-11.10636,0v99.95727a27.79922,27.79922,0,0,0,27.76591,27.7659H135.2802a5.55318,5.55318,0,0,0,0-11.10636Z"/><path class="cls-1" d="M40.87611,119.95761a5.55318,5.55318,0,0,0,5.55318-5.55318V75.53215a5.55318,5.55318,0,0,0-11.10636,0v38.87228A5.55318,5.55318,0,0,0,40.87611,119.95761Z"/><path class="cls-1" d="M63.08884,64.42579v49.97864a5.55318,5.55318,0,1,0,11.10636,0V64.42579a5.55318,5.55318,0,1,0-11.10636,0Z"/><path class="cls-1" d="M90.85474,81.08534v33.31909a5.55319,5.55319,0,0,0,11.10637,0V81.08534a5.55319,5.55319,0,1,0-11.10637,0Z"/><path class="cls-1" d="M118.62065,58.87261v55.53182a5.55319,5.55319,0,0,0,11.10637,0V58.87261a5.55319,5.55319,0,0,0-11.10637,0Z"/><path class="cls-1" d="M40.87611,58.87261a5.55322,5.55322,0,0,0,3.9261-1.62708l19.9137-19.91371a5.692,5.692,0,0,1,7.8522,0L84.62962,49.39333a16.65956,16.65956,0,0,0,23.5566,0l31.02007-31.02007a5.55318,5.55318,0,0,0-7.8522-7.8522L100.334,41.53558a5.55319,5.55319,0,0,1-7.8522,0l-12.06151-12.056a16.65954,16.65954,0,0,0-23.5566,0L36.95,49.39333a5.55319,5.55319,0,0,0,3.9261,9.47928Z"/></svg>