<svg id="Layer_1" data-name="Layer 1" xmlns="http://www.w3.org/2000/svg" viewBox="0 0 150 150"><defs><style>.cls-1{fill:#fafaf9;}</style></defs><title>twitter</title><path class="cls-1" d="M80.85649,147.92944H68.89991c-2.38817-.34256-4.807-.54267-7.15986-1.04932-29.25153-6.29876-48.3004-23.80546-57.25451-52.31745A77.5081,77.5081,0,0,1,2,81.31421V68.78827c.1451-.98283.30671-1.96356.43282-2.94882A70.29826,70.29826,0,0,1,22.23721,24.49693C39.23568,7.17528,59.99768-.144,84.13424,2.64967a68.6995,68.6995,0,0,1,40.70609,19.21472C143.713,40.1001,151.49241,62.51922,146.54565,88.263c-5.63378,29.31924-23.66919,48.25142-52.152,57.17642A73.64758,73.64758,0,0,1,80.85649,147.92944Zm-44.6944-46.33628a7.78537,7.78537,0,0,0,.64605.55337c.4082.241.82022.47622,1.23837.69945A47.37424,47.37424,0,0,0,65.38207,108.324c13.38749-1.25766,24.25346-7.11121,32.47474-17.72928A47.80393,47.80393,0,0,0,107.987,62.12855c.07013-2.36556.65228-3.95652,2.56281-5.34947a22.56887,22.56887,0,0,0,5.22856-5.793c-3.03426.78945-5.61009,2.00736-8.49666,1.76774A18.367,18.367,0,0,0,113.8218,44.221a41.94251,41.94251,0,0,1-8.53359,3.36235,2.73142,2.73142,0,0,1-2.82741-.66123A15.62233,15.62233,0,0,0,89.174,42.85373C79.76733,44.352,74.11085,51.91832,75.00241,61.51947c.14769,1.59044.01113,1.74445-1.52406,1.58849A47.69381,47.69381,0,0,1,41.7401,47.08809c-1.012-1.12713-1.184-1.10326-1.80646.2681a16.54022,16.54022,0,0,0,4.3851,19.16855c.42778.37547,1.07147.60715,1.1816,1.47806a15.4204,15.4204,0,0,1-5.3139-1.12138c-1.587-.598-1.79382-.43948-1.633,1.27384a5.27314,5.27314,0,0,0,.08.56262A16.45709,16.45709,0,0,0,49.86132,81.73881c.46.164,1.03162.13956,1.39218.76536-1.73881.80111-3.53629.61043-5.30409.597-1.54531-.01173-1.60787.01846-.90851,1.4417A16.39287,16.39287,0,0,0,58.176,94.028c.43956.06239,1.10663-.17554,1.23242.40368.11206.516-.53189.7192-.90076.98045a33.94433,33.94433,0,0,1-13.24844,5.64017A41.47587,41.47587,0,0,1,36.16209,101.59316Z"/></svg>