<svg id="Layer_1" data-name="Layer 1" xmlns="http://www.w3.org/2000/svg" viewBox="0 0 150 150"><defs><style>.cls-1{fill:#639;}</style></defs><title>users</title><path class="cls-1" d="M47.68331,81.09111a27.41,27.41,0,1,1,27.41-27.41A27.41,27.41,0,0,1,47.68331,81.09111Zm39.5922,67.00218H8.09111A6.0911,6.0911,0,0,1,2,142.00219v-3.04556a45.68331,45.68331,0,0,1,91.36662,0v3.04556A6.0911,6.0911,0,0,1,87.27551,148.09329Zm21.31888-91.36661a27.41,27.41,0,1,1,27.41-27.41A27.41,27.41,0,0,1,108.59439,56.72668ZM99.93893,69.0368A41.57183,41.57183,0,0,0,71.49345,86.28073a58.0909,58.0909,0,0,1,29.9317,31.357h40.67033a6.09111,6.09111,0,0,0,6.09111-6.0911v-.23147A42.68651,42.68651,0,0,0,99.93893,69.0368Z"/></svg>