<?xml version="1.0" encoding="utf-8"?>
<!-- Generator: Adobe Illustrator 23.0.5, SVG Export Plug-In . SVG Version: 6.00 Build 0)  -->
<svg version="1.1" id="Layer_1" xmlns="http://www.w3.org/2000/svg" xmlns:xlink="http://www.w3.org/1999/xlink" x="0px" y="0px"
	 viewBox="0 0 18.5 18.9" style="enable-background:new 0 0 18.5 18.9;" xml:space="preserve">
<style type="text/css">
	.st0{fill:#663399;}
</style>
<title>users</title>
<path class="st0" d="M5.9,10.2c-1.9,0-3.4-1.5-3.4-3.4S4,3.4,5.9,3.4S9.3,5,9.3,6.8l0,0C9.3,8.7,7.8,10.2,5.9,10.2z M5.9,5
	C4.9,5,4,5.8,4,6.8s0.8,1.9,1.9,1.9s1.9-0.8,1.9-1.9S7,5,5.9,5z M11.5,17.7v-0.4c0-3.1-2.5-5.6-5.6-5.6s-5.6,2.5-5.6,5.6v0.4
	c0,0.4,0.3,0.8,0.8,0.8s0.8-0.3,0.8-0.8v-0.4c0-2.3,1.8-4.1,4.1-4.1s4.1,1.8,4.1,4.1v0.4c0,0.4,0.3,0.8,0.8,0.8S11.5,18.1,11.5,17.7
	z M18.3,14c0-2.9-2.4-5.2-5.3-5.2c-1.3,0-2.5,0.5-3.5,1.3c-0.3,0.3-0.3,0.7-0.1,1.1c0.3,0.3,0.7,0.3,1.1,0.1l0,0l0,0
	c1.5-1.4,3.9-1.2,5.3,0.3c0.6,0.7,1,1.6,1,2.5c0,0.4,0.3,0.8,0.8,0.8S18.3,14.4,18.3,14z M13.4,7.2c-1.9,0-3.4-1.5-3.4-3.4
	s1.5-3.4,3.4-3.4s3.4,1.5,3.4,3.4S15.3,7.2,13.4,7.2L13.4,7.2z M13.4,2c-1,0-1.9,0.8-1.9,1.9s0.8,1.9,1.9,1.9s1.9-0.8,1.9-1.9
	S14.5,2,13.4,2L13.4,2z"/>
</svg>
