<svg xmlns="http://www.w3.org/2000/svg" xmlns:xlink="http://www.w3.org/1999/xlink" id="Group_2663" data-name="Group 2663" width="2731.281" height="2731.477" viewBox="0 0 2731.281 2731.477"><defs><clipPath id="clip-path"><rect id="Rectangle_884" data-name="Rectangle 884" width="2731.281" height="2731.476" fill="none"></rect></clipPath></defs><g id="Group_2660" data-name="Group 2660"><g id="Group_2659" data-name="Group 2659" clip-path="url(#clip-path)"><path id="Path_997" data-name="Path 997" d="M1150.842,49.184,353.258,680.58q4.646-1.122,9.326-2.175a582.394,582.394,0,0,1,127.241-14.153A576.553,576.553,0,0,1,630.45,681.69l1194.4,277.136q-1.514-7.146-3.045-13.954A1365.35,1365.35,0,0,0,1150.842,49.184" transform="translate(876.03 121.969)" fill="#232c51"></path><path id="Path_998" data-name="Path 998" d="M752.313,36.51C392.858,202.684,126.193,513.362,15.366,896.226l792.687,636.748a586.005,586.005,0,0,1-60.1-270.162Z" transform="translate(38.105 90.54)" fill="#0477bf"></path><path id="Path_999" data-name="Path 999" d="M1084.134,1436.053,1528.689,521.5a578.229,578.229,0,0,1-239.915,116.44L82.091,908.695c240.448,309.679,611.039,505.115,1002.043,527.358" transform="translate(203.574 1293.248)" fill="#ea633b"></path><path id="Path_1000" data-name="Path 1000" d="M386.8,1762.936q9.3.13,18.555.129a1371.851,1371.851,0,0,0,299.884-33.334c280.059-62.843,528.142-208.51,718.514-421.665L985.974,390.511a571.364,571.364,0,0,1-47.43,236l.512.254L927.44,650.7Z" transform="translate(959.197 968.412)" fill="#898d8d"></path><path id="Path_1001" data-name="Path 1001" d="M667.444,479.069l527.741,1106.1c252.029-307.059,357.482-702.636,290.878-1094.127l-991.8-230.137c73.982,57.3,134.187,132.081,173.186,218.163" transform="translate(1225.689 647.01)" fill="#5886b1"></path><path id="Path_1002" data-name="Path 1002" d="M467.782,33.425a1378.476,1378.476,0,0,0-222.711,70.293l-3.626,1018.346C280.9,1037.249,340.548,961.813,416,904.388l960.531-760.4C1187.695,49.683,978.194,0,768.021,0A1373.7,1373.7,0,0,0,467.782,33.425" transform="translate(598.749 0.002)" fill="#253c80"></path><path id="Path_1003" data-name="Path 1003" d="M33.126,921.395c39.931,177.953,113.168,342.836,217.787,490.357L1243.706,1189a583.548,583.548,0,0,1-214.655-94.805l-.435.9-29.735-23.858L38.457,299.753c-49.348,202.764-51.29,416.811-5.331,621.642" transform="translate(-0.001 743.345)" fill="#169586"></path><path id="Path_1004" data-name="Path 1004" d="M677.055,801.937a7.3,7.3,0,0,1-7.308,7.3H625.473a7.3,7.3,0,1,1,0-14.608h44.274a7.3,7.3,0,0,1,7.308,7.308m0-19.1a7.3,7.3,0,0,0-7.308-7.308H625.473a7.308,7.308,0,1,0,0,14.615h44.274a7.3,7.3,0,0,0,7.308-7.308M654.6,702.684H640.631v68.508h7.315v-.066c2.21.066,4.437.066,6.653.066Zm-31.371-27.94a10.535,10.535,0,1,0,0,21.071h10.541V685.281a10.55,10.55,0,0,0-10.541-10.537m59.3,10.537a10.535,10.535,0,1,0-21.071,0v10.533h10.537a10.546,10.546,0,0,0,10.534-10.533m23.211-19.066c-4.74-18.677-27.056-38.891-58.127-38.922-31.072.031-53.388,20.246-58.138,38.922-3.609,14.219-.31,27.7,6.5,40.812,6.156,11.863,12.538,21.61,17.855,33.751,2.9,6.633,4.016,15.9,5.575,22.9,1.235,5.568,3.362,7.457,10.123,7.5,1.416.017,2.829.017,4.242.017V702.684H623.228a17.4,17.4,0,1,1,17.4-17.615v10.746H654.6V685.069a17.393,17.393,0,1,1,17.4,17.615H661.458v68.508c1.409,0,2.826,0,4.239-.017,6.751-.042,8.877-1.931,10.116-7.5,1.555-6.995,2.679-16.265,5.578-22.9,5.31-12.141,11.7-21.888,17.859-33.751,6.8-13.116,10.1-26.593,6.49-40.812M654,605.593a6.391,6.391,0,1,0-12.782,0V617.4a6.391,6.391,0,0,0,12.782,0Zm35.46,10.436a6.386,6.386,0,1,0-11.233-6.079L672.6,620.326a6.385,6.385,0,1,0,11.226,6.086Zm26.155,20.635a6.386,6.386,0,1,0-8.491-9.542l-8.828,7.844a6.384,6.384,0,1,0,8.48,9.545Zm13.77,31.378a6.39,6.39,0,0,0-2.276-12.576l-11.616,2.112a6.387,6.387,0,1,0,2.276,12.569Zm-2.846,34.228a6.384,6.384,0,1,0,2.554-12.51L717.518,687.4a6.384,6.384,0,1,0-2.551,12.51Zm-116-75.857a6.386,6.386,0,1,0,11.229-6.086l-5.623-10.377a6.386,6.386,0,1,0-11.233,6.079Zm-22.943,18.1a6.384,6.384,0,1,0,8.48-9.545l-8.828-7.844a6.383,6.383,0,1,0-8.48,9.542Zm-10.989,25.636a6.387,6.387,0,0,0,2.283-12.569l-11.623-2.112a6.391,6.391,0,0,0-2.283,12.576ZM579.4,699.91a6.383,6.383,0,1,0-2.547-12.51l-11.571,2.359a6.383,6.383,0,1,0,2.544,12.51Z" transform="translate(1388.067 1485.931)" fill="#fff"></path><path id="Path_1005" data-name="Path 1005" d="M393.683,366.093h-8.811c-.167,2.513-.369,5.056-.609,7.6-1.159,12.284-3.031,30.832-10.944,53.27-4.141,11.738-11.39,31.719-28.458,52.539a173.432,173.432,0,0,1-37.217,33.2c-11.664,7.579-28.326,15.983-29.92,16.783-4.538,2.279-8.237,4.016-10.969,5.3-.717.337-1.482.693-2.258,1.054a10.5,10.5,0,0,0,8.018,3.744H393.683a10.54,10.54,0,0,0,10.509-10.509V376.6a10.54,10.54,0,0,0-10.509-10.509" transform="translate(655.915 907.859)" fill="#898d8d"></path><path id="Path_1006" data-name="Path 1006" d="M269.96,363.192A10.539,10.539,0,0,0,259.451,373.7V526.175a10.478,10.478,0,0,0,3.389,7.7,10.767,10.767,0,0,0,14.01,2.248,8.156,8.156,0,0,0,1.427-.685c4.531-2.794,15.492-9.709,21.335-14.678a51.966,51.966,0,0,0,16.056-23.719c6.389-19.686-1.2-40.492-15.134-54.846-9.183-9.465-19.515-19.731-30.108-27.606,25.793,19.177,56.12,26.1,78.078,14.956,12.531-6.358,21.45-18.12,23.715-21.165,10.662-14.316,14.09-28.354,16.783-39.4.48-1.966.9-3.9,1.267-5.784ZM356,409a15.465,15.465,0,1,1-17.859-17.859A15.45,15.45,0,0,1,356,409" transform="translate(643.401 900.664)" fill="#2b478b"></path><path id="Path_1007" data-name="Path 1007" d="M313.084,366.735c3.675,34.778-7.478,47.7-7.36,47.451a47.748,47.748,0,0,0,3.709-32.269s-8.3,4.621-8.286,4.165c.129-3.222,1.608-12.618,1.378-12.938-.738-1.016-9.354-9.1-8.874-9.208,3.027-.658,11.856-2.617,12.058-3.052,1.319-2.812,5.55-11.793,5.745-11.456,1.413,2.45,6.427,11.163,6.427,11.163,3.278.772,12.308,1.792,12.308,1.792-2.62,3.469-8.32,9.618-8.233,10.175.518,3.309,1.994,12.9,1.688,12.761-2.008-.95-7.812-4-7.812-4Z" transform="translate(728.169 866.513)" fill="#2b478b" fill-rule="evenodd"></path><path id="Path_1008" data-name="Path 1008" d="M311.228,373.807l37.537-.01-.01,58.409h71.866l.042-9.149,35.992.111v76.324q0,10.716,0,21.432c-6.33-.553-11.8-1.625-17.636-4.538a39.811,39.811,0,0,1-14.285-12.037c-4.186-6.069-3.748-12.858-3.887-19.967-.09-4.663-.15-9.329-.226-13.992l-71.427-.007c-.258,13.951,1.642,28.712-9.1,39.141a44.239,44.239,0,0,1-11.671,8.094c-.953.449-17.128,3.88-17.138,2.86Z" transform="translate(771.801 926.963)" fill="#2b478b"></path><path id="Path_1009" data-name="Path 1009" d="M342.355,411.111c2.408-9.135,6.584-15.8,12.973-22.511,4.844-5.1,10-7.875,16-11.219,6.507-3.626,14.219-3.222,21.415-3.344,12.882-.212,24.954.174,37.245.042,11.685-.125,23.4-.007,35.091.076,10.6.073,21.217-.007,31.823.091,8.755.08,17.994.658,26.356,3.584,6.626,2.318,12.228,6.413,17.26,11.407,7.217,7.176,12.764,17.448,13.523,27.933a85.9,85.9,0,0,1-.327,18.725c-1.9,12.214-8.449,24.512-18.144,31.747-.762.571-10.429,6.083-10.9,5.46l35.606,47.169-47.19.223-26.384-39.079h-57.48c-.386,6.657-.289,13.318-3,19.5a31.434,31.434,0,0,1-16.849,16.147,33.568,33.568,0,0,1-11.038,2.756l-4.934.449.139-74.347c11.825-.021,22.553.129,33.25-.087,10.8-.223,22.3.16,34.7.143,9.761-.014,21.182-.014,31.924-.289,8.926-.226,21.8-1.879,23.158-13.272.762-6.458-.484-16.108-6.445-18.749-4.764-2.112-10.784-2.154-16.341-2.112-19.581.15-40.631-.411-60.8-.428q-20.676-.021-41.348-.007c-11.135-.01-22.278.007-33.417-.007-5.147,0-10.3.038-15.451,0a3.508,3.508,0,0,0-.424,0" transform="translate(848.992 927.396)" fill="#2b478b"></path><path id="Path_1010" data-name="Path 1010" d="M441.832,518.5H409.466V374.622h73.55q31.444,0,46.644,12.7t15.2,29.989q0,19.71-16.446,31.935T486.7,461.476H441.832Zm0-79.264h38.289q15,0,22.894-5.905a18.631,18.631,0,0,0,7.9-15.7q0-8.858-7.3-15.179t-26.381-6.326H441.832Z" transform="translate(1015.417 929.009)" fill="#898d8d"></path><path id="Path_1011" data-name="Path 1011" d="M591.3,518.5H557.086L529.2,459.367H483.668V518.5H451.3V374.622H529.2q32.5,0,47.761,11.755t15.263,30.407q0,27.722-32.366,38.157ZM483.668,438.6H523.93q17.5,0,26.054-5.9a18.689,18.689,0,0,0,8.553-16.234q0-9.484-8.421-15.336t-23.552-5.85h-42.9Z" transform="translate(1119.165 929.009)" fill="#898d8d"></path><path id="Path_1012" data-name="Path 1012" d="M573.545,521.651q-37.776,0-58.813-21.5T493.7,447.026q0-31.407,22.355-52.542t59.022-21.133q36.941,0,58.4,21.133t21.457,52.859q0,33.313-22.289,53.809t-59.091,20.5m.278-20.869q18.468,0,31.246-11.595t12.778-42.054q0-24.768-10.554-38.842t-32.773-14.073q-43.888,0-43.884,53.653,0,26.031,11.177,39.472t32.011,13.439" transform="translate(1224.296 925.855)" fill="#898d8d"></path></g></g><text id="ATTRACT" transform="matrix(0.778, -0.628, 0.628, 0.778, 1249.705, 669.819)" fill="#f2f2f2" font-size="125" font-family="Montserrat-Medium, Montserrat" font-weight="500"><tspan x="0" y="0" letter-spacing="-0.025em">A</tspan><tspan y="0" letter-spacing="0.02em">T</tspan><tspan y="0" letter-spacing="0.01em">TR</tspan><tspan y="0">A</tspan><tspan y="0" letter-spacing="0.002em">C</tspan><tspan y="0">T</tspan></text><text id="ON-BOARD" transform="translate(1747.41 824.347) rotate(11.707)" fill="#f2f2f2" font-size="125" font-family="Montserrat-Medium, Montserrat" font-weight="500"><tspan x="0" y="0" letter-spacing="0.009em">O</tspan><tspan y="0" letter-spacing="0.01em">N-B</tspan><tspan y="0">O</tspan><tspan y="0" letter-spacing="0.009em">A</tspan><tspan y="0" letter-spacing="0.01em">R</tspan><tspan y="0">D</tspan></text><text id="ENGAGE" transform="translate(2073.933 1401.963) rotate(64.168)" fill="#f2f2f2" font-size="124" font-family="Montserrat-Medium, Montserrat" font-weight="500"><tspan x="0" y="0" letter-spacing="0.009em">EN</tspan><tspan y="0" letter-spacing="0.01em">G</tspan><tspan y="0">A</tspan><tspan y="0" letter-spacing="0.01em">G</tspan><tspan y="0">E</tspan></text><text id="DEVELOP" transform="translate(1595.093 2518.351) rotate(-64.684)" fill="#f2f2f2" font-size="125" font-family="Montserrat-Medium, Montserrat" font-weight="500"><tspan x="0" y="0" letter-spacing="0.01em">D</tspan><tspan y="0">E</tspan><tspan y="0" letter-spacing="-0.004em">V</tspan><tspan y="0" letter-spacing="0.01em">E</tspan><tspan y="0" letter-spacing="-0.003em">L</tspan><tspan y="0" letter-spacing="0.01em">O</tspan><tspan y="0">P</tspan></text><text id="REWARD" transform="translate(656.75 2241.542) rotate(-11.502)" fill="#f2f2f2" font-size="125" font-family="Montserrat-Medium, Montserrat" font-weight="500"><tspan x="0" y="0" letter-spacing="0.01em">R</tspan><tspan y="0">E</tspan><tspan y="0" letter-spacing="-0.026em">W</tspan><tspan y="0" letter-spacing="0.009em">A</tspan><tspan y="0" letter-spacing="0.01em">R</tspan><tspan y="0">D</tspan></text><text id="RETAIN" transform="translate(231.451 1370.973) rotate(36.539)" fill="#f2f2f2" font-size="124" font-family="Montserrat-Medium, Montserrat" font-weight="500"><tspan x="0" y="0" letter-spacing="0.01em">RE</tspan><tspan y="0" letter-spacing="-0.024em">T</tspan><tspan y="0" letter-spacing="0.009em">A</tspan><tspan y="0" letter-spacing="0.01em">I</tspan><tspan y="0">N</tspan></text><text id="TRANSITION" transform="translate(656.847 389.019) rotate(90)" fill="#f2f2f2" font-size="125" font-family="Montserrat-Medium, Montserrat" font-weight="500"><tspan x="0" y="0" letter-spacing="0.01em">TRA</tspan><tspan y="0" letter-spacing="0.009em">N</tspan><tspan y="0" letter-spacing="0.01em">S</tspan><tspan y="0" letter-spacing="0.009em">I</tspan><tspan y="0" letter-spacing="0.01em">TI</tspan><tspan y="0" letter-spacing="0.009em">O</tspan><tspan y="0">N</tspan></text><g id="Group_2662" data-name="Group 2662"><g id="Group_2661" data-name="Group 2661" clip-path="url(#clip-path)"><path id="Path_1013" data-name="Path 1013" d="M688.727,479.353c-.612-2.481-1.159-4.994-1.58-7.558a90.245,90.245,0,0,1,40.9-90.908,89.073,89.073,0,0,1,33.483-12.681,91.312,91.312,0,0,1,9.831-1.089l19.185,21.888-18.952,19.9c-1.093.1-2.182.219-3.312.421a48.515,48.515,0,0,0-39.966,55.723,42.175,42.175,0,0,0,1.559,6.514c.056.205.129.452.205.689l-17.559-4.266-9.911-2.38-3.268,9.632-5.958,17.6c-.9-2.105-1.764-4.211-2.509-6.347-.177-.557-.313-1.117-.491-1.65-.574-1.8-1.173-3.612-1.656-5.488m141.421,35.3-9.966,1.99-2.871-9.744-5.133-17.455c-.626.675-1.2,1.375-1.862,2.029a3.918,3.918,0,0,0-.352.369c-1.044,1-2.081,1.938-3.139,2.815-.264.219-.529.4-.783.633-1.044.786-2.032,1.562-3.115,2.258-.428.264-.859.532-1.322.825-.922.571-1.9,1.166-2.906,1.7-.654.341-1.288.626-1.97.947-.859.407-1.684.8-2.61,1.187-.919.362-1.883.682-2.843,1-.7.223-1.357.484-2.063.682a53.508,53.508,0,0,1-5.23,1.152,48.954,48.954,0,0,1-6.476.605h-.839c-.177,0-.355.063-.56.063a44.329,44.329,0,0,1-5.971-.411c-.188-.021-.365-.066-.55-.1a44.5,44.5,0,0,1-5.679-1.107c-.64-.17-1.315-.421-2-.633-1.329-.4-2.672-.867-3.946-1.381-.751-.3-1.458-.616-2.189-.957-1.173-.55-2.352-1.152-3.463-1.792-.717-.407-1.43-.839-2.091-1.274-1.107-.7-2.168-1.434-3.226-2.238-.619-.442-1.26-.933-1.841-1.437a39.269,39.269,0,0,1-3.128-2.864,18.331,18.331,0,0,1-1.423-1.423,51.529,51.529,0,0,1-4.009-4.806L709.9,478.8l-9.361,27.6a90.646,90.646,0,0,0,54.418,38.477,91.923,91.923,0,0,0,9.74,1.75c1.037.143,2.116.177,3.149.285,2.245.205,4.507.355,6.768.39,1.719.014,3.452.014,5.188-.063.874-.038,1.761-.038,2.666-.108,2.749-.205,5.495-.5,8.289-.96A89.478,89.478,0,0,0,848.4,511.026Zm35-72.061a90.17,90.17,0,0,0-67.826-73.063,91.518,91.518,0,0,0-10.186-1.865q-.193-.021-.407-.062h-.111l12.27,14.069,6.73,7.642-7.022,7.363-12.49,13.154a48.283,48.283,0,0,1,34.1,67.541l7.771,26.4,28.549-5.724a89.747,89.747,0,0,0,8.623-55.455" transform="translate(1701.058 910.398)" fill="#fff"></path><path id="Path_1014" data-name="Path 1014" d="M759.595,143.361l23.729,59.54L753.5,215.756c-15.611-13.578-63.949-55.337-68.052-55.577-3.483,0-18.426,5.237-20.068,5.822-.09.021-9.177,2.673-17.062,2.673-3.793,0-6.674-.605-8.536-1.8-1.942-1.228-2.892-2.673-2.829-4.3.115-3.062,3.633-6.2,5.488-7.186,12.7-6.8,46.627-19.571,50.075-19.954.15-.014.362-.021.619-.021,8.181,0,60.153,7.085,66.458,7.948m20.984-16.693a6.661,6.661,0,0,0-2.436.47l-9.876,3.908a6.657,6.657,0,0,0-3.73,8.623L789.3,202.205a6.738,6.738,0,0,0,8.623,3.734l9.865-3.911a6.571,6.571,0,0,0,3.654-3.532,6.64,6.64,0,0,0,.087-5.091l-24.76-62.536a6.619,6.619,0,0,0-6.187-4.2M555.046,212.45a6.647,6.647,0,0,0,6.128,7.123l10.586.8a6.646,6.646,0,0,0,7.123-6.128l5.289-70.279a6.649,6.649,0,0,0-6.121-7.13l-10.586-.8q-.256-.021-.512-.021a6.678,6.678,0,0,0-6.619,6.142ZM660.61,275a10.658,10.658,0,0,0-4.009-6.222c-4.482-3.675-9.041-3.083-13.036,1.8l-4.813,5.815-.584.783-4.158,5.077c-5.672,6.928-.171,12.333,1.649,13.818a9.226,9.226,0,0,0,5.8,2.387c2.523,0,4.962-1.406,7.231-4.186l7.05-8.609h-.007l2.523-3.069c2.029-2.474,2.819-5.035,2.352-7.593m-50.037-4.03c-3.477,4.249-2.61,8,2.93,12.531,4.479,3.668,9.041,3.08,13.036-1.8l12.2-14.588c5.665-6.921.164-12.319-1.656-13.812-4.485-3.675-9.044-3.076-13.039,1.8l-6.674,7.955.014.007-.7.88Zm-17.709-17.709c-2.011,2.46-2.8,5.011-2.339,7.569a10.705,10.705,0,0,0,4,6.229c4.489,3.675,9.044,3.08,13.039-1.806l13.464-15.844c2.025-2.474,2.815-5.035,2.352-7.586a10.668,10.668,0,0,0-4.009-6.229c-4.486-3.675-9.044-3.076-13.036,1.8l-6.692,7.969.007.007-.682.859Zm-2.906-5.822L603.322,231.7c5.665-6.925.164-12.326-1.656-13.812-4.486-3.675-9.041-3.087-13.036,1.8l-4.374,5.589.045.035-.7.877-6.1,7.029c-2.255,2.6-3.278,5.133-3.059,7.513a7.643,7.643,0,0,0,2.958,5.161c2.276,1.813,4.826,3.849,7.6,3.849a7.265,7.265,0,0,0,4.962-2.3M749.806,233.7c2.836-3.5,4.927-8.71-1.26-13.742l-4.833-4.486c-24.2-20.942-52.7-44.935-59.029-48.965-3.045.606-11.007,3.142-17.291,5.352l-.254.087c-.407.122-10.074,2.93-18.819,2.93-5.067,0-8.95-.9-11.87-2.766-5.154-3.285-5.78-7.53-5.693-9.775.205-5.495,4.84-10.1,8.216-12.12l-48.829-6.065-5.025,70.436c3.97-4.179,7.983-5.1,10.746-5.1a15.267,15.267,0,0,1,9.611,3.741c4.7,3.845,6.9,8.919,6.187,14.125,4.058-.654,7.958.668,11.522,3.581,4.7,3.845,6.9,8.922,6.187,14.125,4.051-.644,7.958.668,11.522,3.584,4.064,3.327,6.3,7.722,6.3,12.27,4.479-1.329,9.141-.136,13.22,3.2,5.644,4.628,7.649,10.976,5.439,17.128l4.207,3.424c.33.271.654.511.981.734l.178.118a9.254,9.254,0,0,0,5.119,1.757c3.052,0,5.31-1.99,6.667-3.654,2.937-3.612,4.729-6.455,1.033-10.238l-.306-.306-21.739-18.426a3.482,3.482,0,0,1-.407-4.917,3.6,3.6,0,0,1,4.92-.407l28.427,24.1a9.623,9.623,0,0,0,4.806,1.347,10.087,10.087,0,0,0,7.764-4.075,9.352,9.352,0,0,0,2.359-6.831c-.24-2.481-1.705-4.886-4.249-6.946l-3.372-2.746.031-.035-15.785-12.837a3.492,3.492,0,0,1-.512-4.907,3.6,3.6,0,0,1,4.914-.5l26.005,21.137a9.488,9.488,0,0,0,6.041,2.338c3.066,0,6.229-1.729,8.679-4.743a9.786,9.786,0,0,0,2.582-6.925c-.191-2.422-1.594-4.719-4.172-6.817l-7.628-6.2.028-.028-13.557-11.021a3.494,3.494,0,0,1-.5-4.91,3.59,3.59,0,0,1,4.913-.5l22.08,17.949c4.684,3.81,10.231,2.707,14.452-2.467" transform="translate(1376.387 314.119)" fill="#fff"></path><path id="Path_1015" data-name="Path 1015" d="M99.665,248.9h14.052V371.513H99.665a22.044,22.044,0,0,1-22.048-22.041V270.939A22.044,22.044,0,0,1,99.665,248.9m145.162,0h-15.44V371.513h15.44a22.042,22.042,0,0,0,22.041-22.041V270.939A22.042,22.042,0,0,0,244.828,248.9m-37.534,0h14.027V371.513H121.783V248.9H137.2a21.583,21.583,0,0,1,21.582-21.582H185.7A21.589,21.589,0,0,1,207.294,248.9m-13.1,0A11.326,11.326,0,0,0,182.911,238.3H161.583A11.332,11.332,0,0,0,150.294,248.9Z" transform="translate(192.479 563.709)" fill="#fff"></path><path id="Path_1016" data-name="Path 1016" d="M206.9,580.789c3.278,0,5.958-.059,8.634.014,4.573.118,7.607,3.042,7.614,7.607.045,29.133-.017,58.27.077,87.4.014,3.449-1.858,4.9-4.632,5.665a17.184,17.184,0,0,1-4.472.275q-58.117.021-116.238.01c-7.1,0-8.143-1.037-8.143-7.972q-.005-41.45,0-82.9c0-8.682,1.441-10.106,10.193-10.109h6.038c0-5.22-.021-10.259,0-15.3.122-24.721,15.886-44.452,39.91-49.971,30.014-6.9,60.09,16.31,60.995,47.121.171,5.836.024,11.682.024,18.154m-71.984-.33h43.126c0-6.159.271-12.006-.059-17.817A21.348,21.348,0,0,0,156.834,542.8c-11.254-.132-20.917,8.066-21.826,19.087-.5,6.073-.09,12.225-.09,18.572m22.052,79.668c3.153,0,6.306.035,9.458-.007,4.6-.059,5.648-1.4,4.35-5.794-2.039-6.9-4.078-13.8-6.354-20.622-.849-2.544-.713-4.155,1.315-6.295,7.088-7.464,4.078-19.407-5.342-22.25A12.993,12.993,0,0,0,145.82,610.5a13.423,13.423,0,0,0,1.757,16.613c2.387,2.4,2.276,4.357,1.4,7.064-2.21,6.845-4.308,13.725-6.354,20.622-1.155,3.887-.129,5.22,3.984,5.314,3.452.08,6.908.017,10.36.017" transform="translate(222.54 1275.374)" fill="#fff"></path><path id="Path_1017" data-name="Path 1017" d="M435.623,840.423H368.98V818.134c3.619-.167,7.064-.331,10.983-.511v-11.3h10.753V778.293H379.737c0-3.062-.014-5.415,0-7.767.042-5.369-3.3-8.647-8.348-10.45-7.012-2.506-14.424-4.945-20.35-9.229-17.469-12.618-25.908-31.033-29.972-51.614-1.4-7.116-1.747-14.438-2.652-22.309h28.309c-.3-5.1-.574-9.656-.849-14.215H457.835V677.19h26.523a12.325,12.325,0,0,1,.414,2.13c-.428,22.045-6.107,42.409-19.866,59.986-7.951,10.154-17.9,17.587-30.758,20.562-7.182,1.66-9.479,4.67-9.476,12.159,0,2,0,4.005,0,6.5H413.735v28.152h10.948v11.2h10.941ZM330.876,688.659c.9,23.34,17.347,51.665,33.188,56.67-9.218-18.057-13.888-36.995-16.411-56.67Zm110.291,56.255c20.994-12.858,28.6-33.125,32-56.2H456.721c-2.488,19.588-7.113,38.4-15.555,56.2" transform="translate(789.631 1643.427)" fill="#fff"></path></g></g></svg>