<svg version="1.1" id="Layer_1" xmlns="http://www.w3.org/2000/svg" xmlns:xlink="http://www.w3.org/1999/xlink" x="0px" y="0px"
	 width="100%" viewBox="0 0 131 131" enable-background="new 0 0 131 131" xml:space="preserve">
<path fill="#F2F3F2" opacity="1.000000" stroke="none" 
	d="
M1.000000,57.000000 
	C1.000000,52.310745 1.000000,47.621487 1.352215,42.400093 
	C2.292998,40.933514 2.924973,40.023319 3.462934,39.060596 
	C6.459473,33.698067 9.606628,28.409977 12.363276,22.926022 
	C14.842978,17.993010 18.293644,14.735891 23.589220,12.641978 
	C29.161516,10.438647 34.249886,6.987445 39.481617,3.963687 
	C40.788742,3.208214 41.834248,2.000084 43.000000,1.000000 
	C60.020893,1.000000 77.041786,1.000000 94.592796,1.350379 
	C96.469345,2.526466 97.775902,3.427671 99.169617,4.163860 
	C103.522339,6.463049 108.350929,8.125791 112.185654,11.084338 
	C119.430695,16.673994 124.152626,24.428404 128.334457,32.503033 
	C129.068878,33.921127 130.753952,34.846874 132.000000,36.000000 
	C132.000000,40.024544 132.000000,44.049088 131.620789,48.482712 
	C130.522003,48.084843 129.128616,47.224834 129.187332,46.479160 
	C129.756317,39.253185 123.223915,35.589195 120.734955,29.844004 
	C118.450836,24.571653 113.380013,20.276062 108.906372,16.251020 
	C104.858589,12.609142 100.295158,8.931650 93.653091,11.036837 
	C92.206360,11.380600 91.103790,11.689898 90.007080,11.625481 
	C91.570457,7.410717 89.696846,5.620535 86.134399,5.254537 
	C77.917976,4.410398 69.690948,3.334981 61.452972,3.183693 
	C57.627747,3.113444 53.789738,5.654895 49.916206,5.785326 
	C45.654465,5.928829 43.076515,7.731040 40.625198,10.999689 
	C39.500805,10.999584 38.751209,10.999716 37.910419,10.839693 
	C37.546795,10.785914 37.274372,10.892290 36.798927,11.237837 
	C33.523224,12.692557 29.627907,13.113530 27.537445,15.277806 
	C22.029669,20.980066 15.450964,25.493622 11.706356,33.244949 
	C8.549318,39.780006 4.167130,45.541130 3.860449,53.208420 
	C3.808454,54.508335 1.998021,55.737923 1.000000,57.000000 
z"/>
<path fill="#F4F4F4" opacity="1.000000" stroke="none" 
	d="
M78.000000,132.000000 
	C69.645767,132.000000 61.291534,132.000000 52.421188,131.633820 
	C49.879120,130.176727 47.907623,128.964859 45.814781,128.022491 
	C42.449986,126.507416 38.710922,125.616753 35.683533,123.622116 
	C33.088142,121.912109 32.694214,119.447128 37.420456,118.998123 
	C40.558029,118.998573 43.279224,118.998764 46.438957,119.001854 
	C50.926125,119.053947 54.974762,119.103142 59.487881,119.139938 
	C64.962372,119.128357 69.972374,119.129173 75.295364,119.386528 
	C79.015411,119.700241 82.422485,119.757401 86.269180,119.874176 
	C90.136337,119.613258 93.563858,119.292747 97.187988,119.247742 
	C100.522072,122.022720 98.322845,123.901070 96.239075,124.735809 
	C91.879303,126.482285 87.228996,127.489082 82.791573,129.063354 
	C81.064476,129.676086 79.589706,131.000031 78.000000,132.000000 
z"/>
<path fill="#F4F4F4" opacity="1.000000" stroke="none" 
	d="
M93.997253,11.002371 
	C100.295158,8.931650 104.858589,12.609142 108.906372,16.251020 
	C113.380013,20.276062 118.450836,24.571653 120.734955,29.844004 
	C123.223915,35.589195 129.756317,39.253185 129.187332,46.479160 
	C129.128616,47.224834 130.522003,48.084843 131.620789,48.945900 
	C132.000000,62.354229 132.000000,75.708458 131.652069,89.572403 
	C127.994980,94.497231 123.995560,98.564774 121.552704,103.416115 
	C118.550621,109.378029 113.343796,112.968040 109.040054,117.529358 
	C106.587547,120.128632 105.046181,118.611359 104.137863,115.691528 
	C104.737747,114.698318 105.054588,113.809784 105.684601,113.357353 
	C112.846642,108.214211 117.733826,101.272461 121.365097,93.400421 
	C123.644020,88.460037 126.367874,83.538460 127.504860,78.306946 
	C128.801834,72.339264 129.102081,66.008987 128.792557,59.889042 
	C128.583328,55.752285 126.537819,51.716305 125.381104,47.616219 
	C124.808327,45.585964 124.917877,43.151161 123.806389,41.521740 
	C119.059769,34.563301 114.341118,27.518732 108.849785,21.164534 
	C106.230545,18.133730 103.668182,13.357821 97.750076,14.999956 
	C97.500153,14.999913 97.000305,15.000206 96.941879,14.659053 
	C95.922295,13.878625 94.961151,13.439350 93.999573,12.667109 
	C93.998512,11.890218 93.997879,11.446294 93.997253,11.002371 
z"/>
<path fill="#F4F4F4" opacity="1.000000" stroke="none" 
	d="
M38.001617,10.999847 
	C38.751209,10.999716 39.500805,10.999584 40.625389,11.249775 
	C41.000355,11.666821 41.000328,11.833544 40.656258,12.062199 
	C37.875443,13.750303 35.438679,15.376476 32.657806,17.039156 
	C28.322065,20.771055 23.481834,23.894047 20.520449,28.284370 
	C14.849532,36.691635 7.878441,44.238979 6.640377,55.456947 
	C4.938706,70.875610 7.302965,85.137581 15.308020,98.104431 
	C19.176908,104.371376 25.039988,109.407204 29.787188,115.274765 
	C28.069510,115.559326 26.028002,116.211441 25.147606,115.475174 
	C19.634970,110.864937 15.809792,104.672295 11.114297,99.442108 
	C6.217870,93.988129 5.325363,88.575714 4.814124,82.126236 
	C4.645325,79.996765 2.332500,78.037231 1.000000,76.000000 
	C1.000000,69.978851 1.000000,63.957695 1.000000,57.468269 
	C1.998021,55.737923 3.808454,54.508335 3.860449,53.208420 
	C4.167130,45.541130 8.549318,39.780006 11.706356,33.244949 
	C15.450964,25.493622 22.029669,20.980066 27.537445,15.277806 
	C29.627907,13.113530 33.523224,12.692557 37.048832,11.238238 
	C37.501755,10.999469 38.001617,10.999847 38.001617,10.999847 
z"/>
<path fill="#F1F1F1" opacity="1.000000" stroke="none" 
	d="
M1.000000,76.468620 
	C2.332500,78.037231 4.645325,79.996765 4.814124,82.126236 
	C5.325363,88.575714 6.217870,93.988129 11.114297,99.442108 
	C15.809792,104.672295 19.634970,110.864937 25.147606,115.475174 
	C26.028002,116.211441 28.069510,115.559326 30.175694,115.323830 
	C32.855324,115.401909 34.933487,115.705223 37.008110,116.382217 
	C37.004402,117.503220 37.004238,118.250542 37.004078,118.997864 
	C32.694214,119.447128 33.088142,121.912109 35.683533,123.622116 
	C38.710922,125.616753 42.449986,126.507416 45.814781,128.022491 
	C47.907623,128.964859 49.879120,130.176727 51.952538,131.633820 
	C46.311958,132.000000 40.623920,132.000000 34.407997,131.653809 
	C30.422037,128.755981 26.816498,126.379196 23.537952,123.614624 
	C17.544334,118.560623 10.780075,114.321976 7.539591,106.469963 
	C6.344296,103.573647 3.235855,101.466881 1.000001,99.000000 
	C1.000000,91.645744 1.000000,84.291496 1.000000,76.468620 
z"/>
<path fill="#F1F1F1" opacity="1.000000" stroke="none" 
	d="
M104.000275,115.998779 
	C105.046181,118.611359 106.587547,120.128632 109.040054,117.529358 
	C113.343796,112.968040 118.550621,109.378029 121.552704,103.416115 
	C123.995560,98.564774 127.994980,94.497231 131.652069,90.041061 
	C132.000000,92.370560 132.000000,94.741112 131.658356,97.612480 
	C127.878319,103.742371 124.439941,109.371460 120.888763,115.216270 
	C120.575592,115.700966 120.317146,115.890915 119.646454,116.040039 
	C118.192917,116.761086 117.064934,117.402229 115.998871,118.133621 
	C109.896965,122.319946 105.312691,129.082581 96.767563,129.184723 
	C95.833961,129.195892 94.922005,131.017899 94.000000,132.000000 
	C88.977905,132.000000 83.955818,132.000000 78.466858,132.000000 
	C79.589706,131.000031 81.064476,129.676086 82.791573,129.063354 
	C87.228996,127.489082 91.879303,126.482285 96.239075,124.735809 
	C98.322845,123.901070 100.522072,122.022720 97.187454,118.879623 
	C96.982758,117.498245 96.975189,116.760490 97.408417,116.014198 
	C99.899574,116.003372 101.949928,116.001076 104.000275,115.998779 
z"/>
<path fill="#ECEDEC" opacity="1.000000" stroke="none" 
	d="
M132.000000,35.536812 
	C130.753952,34.846874 129.068878,33.921127 128.334457,32.503033 
	C124.152626,24.428404 119.430695,16.673994 112.185654,11.084338 
	C108.350929,8.125791 103.522339,6.463049 99.169617,4.163860 
	C97.775902,3.427671 96.469345,2.526466 95.061455,1.350379 
	C99.024544,1.000000 103.049088,1.000000 107.580063,1.358773 
	C108.916298,2.699512 109.550232,4.097585 110.607910,4.595400 
	C117.104912,7.653364 122.312027,12.001060 126.208725,18.130339 
	C127.499306,20.160345 130.034073,21.399345 132.000000,22.999998 
	C132.000000,27.024544 132.000000,31.049088 132.000000,35.536812 
z"/>
<path fill="#EBEBEB" opacity="1.000000" stroke="none" 
	d="
M1.000001,99.449982 
	C3.235855,101.466881 6.344296,103.573647 7.539591,106.469963 
	C10.780075,114.321976 17.544334,118.560623 23.537952,123.614624 
	C26.816498,126.379196 30.422037,128.755981 33.940060,131.653809 
	C30.969406,132.000000 27.938814,132.000000 24.409597,131.644165 
	C23.576269,130.735840 23.352062,130.058197 22.889843,129.650162 
	C18.053085,125.380325 13.024678,121.313889 8.371894,116.854576 
	C5.616665,114.213905 3.437952,110.971710 1.000000,108.000000 
	C1.000000,105.299988 1.000000,102.599968 1.000001,99.449982 
z"/>
<path fill="#E8EAE9" opacity="1.000000" stroke="none" 
	d="
M20.000000,1.000000 
	C23.030594,1.000000 26.061186,1.000000 29.507811,1.345526 
	C27.461668,4.025027 25.307896,6.864243 22.476151,8.592769 
	C15.576391,12.804451 10.213095,18.240864 6.222663,25.269260 
	C5.121229,27.209229 2.775049,28.442482 1.000000,30.000000 
	C1.000000,26.638712 1.000000,23.277426 1.334028,19.405333 
	C7.106797,14.134476 12.591466,9.425018 17.942120,4.567927 
	C18.910070,3.689263 19.328094,2.204791 20.000000,1.000000 
z"/>
<path fill="#EEF0EF" opacity="1.000000" stroke="none" 
	d="
M1.000000,30.460636 
	C2.775049,28.442482 5.121229,27.209229 6.222663,25.269260 
	C10.213095,18.240864 15.576391,12.804451 22.476151,8.592769 
	C25.307896,6.864243 27.461668,4.025027 29.961922,1.345526 
	C34.024544,1.000000 38.049088,1.000000 42.536816,1.000000 
	C41.834248,2.000084 40.788742,3.208214 39.481617,3.963687 
	C34.249886,6.987445 29.161516,10.438647 23.589220,12.641978 
	C18.293644,14.735891 14.842978,17.993010 12.363276,22.926022 
	C9.606628,28.409977 6.459473,33.698067 3.462934,39.060596 
	C2.924973,40.023319 2.292998,40.933514 1.352215,41.933979 
	C1.000000,38.307091 1.000000,34.614182 1.000000,30.460636 
z"/>
<path fill="#E6E6E6" opacity="1.000000" stroke="none" 
	d="
M132.000000,22.545887 
	C130.034073,21.399345 127.499306,20.160345 126.208725,18.130339 
	C122.312027,12.001060 117.104912,7.653364 110.607910,4.595400 
	C109.550232,4.097585 108.916298,2.699512 108.043251,1.358773 
	C111.692909,1.000000 115.385818,1.000000 119.578445,1.355326 
	C123.153038,6.423206 126.357040,10.999405 132.000000,13.000000 
	C132.000000,16.030594 132.000000,19.061186 132.000000,22.545887 
z"/>
<path fill="#E6E6E6" opacity="1.000000" stroke="none" 
	d="
M1.000000,108.463181 
	C3.437952,110.971710 5.616665,114.213905 8.371894,116.854576 
	C13.024678,121.313889 18.053085,125.380325 22.889843,129.650162 
	C23.352062,130.058197 23.576269,130.735840 23.955486,131.644165 
	C20.969406,132.000000 17.938814,132.000000 14.415920,131.653412 
	C9.615746,127.871231 5.307872,124.435616 0.999999,121.000000 
	C1.000000,116.975456 1.000000,112.950912 1.000000,108.463181 
z"/>
<path fill="#E1E2E2" opacity="1.000000" stroke="none" 
	d="
M19.550022,1.000000 
	C19.328094,2.204791 18.910070,3.689263 17.942120,4.567927 
	C12.591466,9.425018 7.106797,14.134476 1.334028,18.947264 
	C1.000000,15.969407 1.000000,12.938813 1.365530,9.449482 
	C4.820707,6.327162 7.910353,3.663581 11.000000,1.000000 
	C13.700013,1.000000 16.400026,1.000000 19.550022,1.000000 
z"/>
<path fill="#E6E6E6" opacity="1.000000" stroke="none" 
	d="
M132.000000,111.000000 
	C132.000000,113.041664 132.000000,115.083336 131.651062,117.601608 
	C126.868073,122.718803 122.434036,127.359406 118.000000,132.000000 
	C115.629440,132.000000 113.258888,132.000000 110.484650,131.653839 
	C115.313950,126.243889 120.507858,121.138733 125.800339,116.137894 
	C127.747063,114.298447 129.926636,112.705429 132.000000,111.000000 
z"/>
<path fill="#EBEBEB" opacity="1.000000" stroke="none" 
	d="
M132.000000,110.583344 
	C129.926636,112.705429 127.747063,114.298447 125.800339,116.137894 
	C120.507858,121.138733 115.313950,126.243889 110.040482,131.653839 
	C108.285645,132.000000 106.571281,132.000000 104.472351,131.645966 
	C105.023613,130.491241 106.007347,129.739685 106.887169,128.881577 
	C111.273323,124.603706 115.632156,120.297844 120.000610,116.001831 
	C120.317146,115.890915 120.575592,115.700966 121.234970,115.177818 
	C123.453308,113.293442 125.173637,111.618362 126.983536,110.046402 
	C128.604431,108.638588 130.323975,107.344353 132.000000,106.000000 
	C132.000000,107.388893 132.000000,108.777779 132.000000,110.583344 
z"/>
<path fill="#DDDDDD" opacity="1.000000" stroke="none" 
	d="
M132.000000,12.520824 
	C126.357040,10.999405 123.153038,6.423206 120.039078,1.355326 
	C123.921982,1.000000 127.843964,1.000000 132.000000,1.000000 
	C132.000000,4.678595 132.000000,8.360122 132.000000,12.520824 
z"/>
<path fill="#DDDDDD" opacity="1.000000" stroke="none" 
	d="
M0.999999,121.482956 
	C5.307872,124.435616 9.615746,127.871231 13.961809,131.653412 
	C9.752580,132.000000 5.505159,132.000000 1.000000,132.000000 
	C1.000000,128.657837 1.000000,125.311874 0.999999,121.482956 
z"/>
<path fill="#ECEDEC" opacity="1.000000" stroke="none" 
	d="
M119.646454,116.040039 
	C115.632156,120.297844 111.273323,124.603706 106.887169,128.881577 
	C106.007347,129.739685 105.023613,130.491241 104.043892,131.645966 
	C100.969406,132.000000 97.938812,132.000000 94.454109,132.000000 
	C94.922005,131.017899 95.833961,129.195892 96.767563,129.184723 
	C105.312691,129.082581 109.896965,122.319946 115.998871,118.133621 
	C117.064934,117.402229 118.192917,116.761086 119.646454,116.040039 
z"/>
<path fill="#E1E2E2" opacity="1.000000" stroke="none" 
	d="
M118.428467,132.000000 
	C122.434036,127.359406 126.868073,122.718803 131.651062,118.039108 
	C132.000000,120.041664 132.000000,122.083336 131.634766,124.567078 
	C128.846359,127.339439 126.423180,129.669724 124.000000,132.000000 
	C122.285645,132.000000 120.571281,132.000000 118.428467,132.000000 
z"/>
<path fill="#ECEDEC" opacity="1.000000" stroke="none" 
	d="
M132.000000,105.555832 
	C130.323975,107.344353 128.604431,108.638588 126.983536,110.046402 
	C125.173637,111.618362 123.453308,113.293442 121.347778,114.962090 
	C124.439941,109.371460 127.878319,103.742371 131.658356,98.056641 
	C132.000000,100.370560 132.000000,102.741112 132.000000,105.555832 
z"/>
<path fill="#DDDDDD" opacity="1.000000" stroke="none" 
	d="
M10.513435,1.000000 
	C7.910353,3.663581 4.820707,6.327162 1.365530,8.995371 
	C1.000000,6.405429 1.000000,3.810858 1.000000,1.000000 
	C4.007114,1.000000 7.016993,1.000000 10.513435,1.000000 
z"/>
<path fill="#DDDDDD" opacity="1.000000" stroke="none" 
	d="
M124.494728,132.000000 
	C126.423180,129.669724 128.846359,127.339439 131.634766,125.004578 
	C132.000000,127.254570 132.000000,129.509140 132.000000,132.000000 
	C129.665680,132.000000 127.327568,132.000000 124.494728,132.000000 
z"/>
<path fill="#F8F8F8" opacity="1.000000" stroke="none" 
	d="
M33.001915,17.002649 
	C35.438679,15.376476 37.875443,13.750303 41.102699,12.062194 
	C44.646305,11.705411 48.184971,12.396825 50.013149,10.940706 
	C56.993999,5.380557 64.572075,8.222773 71.850075,8.732018 
	C77.946808,9.158610 83.954247,10.861459 90.001221,11.999198 
	C91.103790,11.689898 92.206360,11.380600 93.653091,11.036837 
	C93.997879,11.446294 93.998512,11.890218 93.999573,12.667070 
	C94.000000,13.000000 94.000916,13.001756 93.661835,13.057402 
	C92.881409,14.061634 92.440071,15.010221 91.536438,16.041004 
	C75.359314,16.132189 59.641777,15.993101 43.931957,16.278620 
	C40.892670,16.333855 37.883537,18.048321 34.556446,18.945000 
	C33.835571,18.262617 33.418743,17.632633 33.001915,17.002649 
z"/>
<path fill="#F6F7F6" opacity="1.000000" stroke="none" 
	d="
M90.007080,11.625481 
	C83.954247,10.861459 77.946808,9.158610 71.850075,8.732018 
	C64.572075,8.222773 56.993999,5.380557 50.013149,10.940706 
	C48.184971,12.396825 44.646305,11.705411 41.446747,12.000262 
	C41.000328,11.833544 41.000355,11.666821 41.000191,11.250010 
	C43.076515,7.731040 45.654465,5.928829 49.916206,5.785326 
	C53.789738,5.654895 57.627747,3.113444 61.452972,3.183693 
	C69.690948,3.334981 77.917976,4.410398 86.134399,5.254537 
	C89.696846,5.620535 91.570457,7.410717 90.007080,11.625481 
z"/>
<path fill="#F6F7F6" opacity="1.000000" stroke="none" 
	d="
M37.910419,10.839693 
	C38.001617,10.999847 37.501755,10.999469 37.251850,10.999067 
	C37.274372,10.892290 37.546795,10.785914 37.910419,10.839693 
z"/>
<path fill="#C6C6C6" opacity="1.000000" stroke="none" 
	d="
M85.829552,119.814568 
	C82.422485,119.757401 79.015411,119.700241 75.437599,119.065643 
	C75.611282,117.879799 75.955711,117.271393 76.638626,116.520477 
	C79.953056,116.289391 82.929024,116.200821 85.925079,116.485474 
	C85.906639,117.843979 85.868095,118.829269 85.829552,119.814568 
z"/>
<path fill="#C6C6C6" opacity="1.000000" stroke="none" 
	d="
M59.023396,119.152336 
	C54.974762,119.103142 50.926125,119.053947 46.431110,118.650589 
	C45.950386,117.829231 45.916039,117.362038 46.303268,116.862808 
	C50.181271,116.465347 53.637695,116.099930 57.077492,115.982758 
	C57.060867,116.231010 57.003719,116.725334 57.122540,117.024460 
	C57.835369,117.933174 58.429382,118.542755 59.023396,119.152336 
z"/>
<path fill="#E1E2E2" opacity="1.000000" stroke="none" 
	d="
M86.269180,119.874176 
	C85.868095,118.829269 85.906639,117.843979 86.371399,116.446014 
	C88.864975,116.021599 90.932335,116.009857 93.396988,116.004425 
	C94.852066,116.014740 95.909843,116.018738 96.967621,116.022736 
	C96.975189,116.760490 96.982758,117.498245 96.990860,118.604118 
	C93.563858,119.292747 90.136337,119.613258 86.269180,119.874176 
z"/>
<path fill="#969696" opacity="1.000000" stroke="none" 
	d="
M59.487881,119.139938 
	C58.429382,118.542755 57.835369,117.933174 57.570824,117.068344 
	C60.286724,116.598724 62.673153,116.384346 65.495514,116.299385 
	C69.387680,116.506859 72.843910,116.584923 76.300148,116.662987 
	C75.955711,117.271393 75.611282,117.879799 75.124619,118.809097 
	C69.972374,119.129173 64.962372,119.128357 59.487881,119.139938 
z"/>
<path fill="#E6E6E6" opacity="1.000000" stroke="none" 
	d="
M45.881691,116.894844 
	C45.916039,117.362038 45.950386,117.829231 45.992577,118.647690 
	C43.279224,118.998764 40.558029,118.998573 37.420456,118.998123 
	C37.004238,118.250542 37.004402,117.503220 37.255432,116.379105 
	C37.506306,116.002304 38.001175,115.992203 38.418549,115.994720 
	C41.184513,116.296440 43.533100,116.595642 45.881691,116.894844 
z"/>
<path fill="#F6F7F6" opacity="1.000000" stroke="none" 
	d="
M97.408424,116.014198 
	C95.909843,116.018738 94.852066,116.014740 93.396957,115.637024 
	C92.996384,114.528397 92.993141,113.793488 93.335777,113.005463 
	C96.120094,112.634697 98.558517,112.317039 101.277786,111.783852 
	C102.365303,110.770950 103.114151,109.354881 103.987717,109.273232 
	C111.584976,108.563148 112.619225,102.671967 114.236389,96.804245 
	C114.612251,94.686264 113.546844,92.103821 117.217285,92.230995 
	C118.046677,92.097984 119.126877,91.808998 119.200485,91.356339 
	C120.420921,83.851097 125.544373,77.283211 124.097984,69.076195 
	C123.219376,64.090866 123.458900,58.916508 122.834114,53.871902 
	C122.703072,52.813828 120.986145,51.952168 119.760101,50.827621 
	C119.346901,50.103394 119.173607,49.551544 119.000206,48.565933 
	C120.053780,39.297058 113.970985,33.078171 110.248558,26.236652 
	C108.409370,22.856371 104.775085,18.551758 99.022591,19.699324 
	C98.616295,18.902077 98.308029,18.406784 97.999908,17.548246 
	C98.000031,16.456667 98.000015,15.728333 98.000000,15.000000 
	C103.668182,13.357821 106.230545,18.133730 108.849785,21.164534 
	C114.341118,27.518732 119.059769,34.563301 123.806389,41.521740 
	C124.917877,43.151161 124.808327,45.585964 125.381104,47.616219 
	C126.537819,51.716305 128.583328,55.752285 128.792557,59.889042 
	C129.102081,66.008987 128.801834,72.339264 127.504860,78.306946 
	C126.367874,83.538460 123.644020,88.460037 121.365097,93.400421 
	C117.733826,101.272461 112.846642,108.214211 105.684601,113.357353 
	C105.054588,113.809784 104.737747,114.698318 104.137863,115.691528 
	C101.949928,116.001076 99.899574,116.003372 97.408424,116.014198 
z"/>
<path fill="#F8F8F8" opacity="1.000000" stroke="none" 
	d="
M97.750076,14.999956 
	C98.000015,15.728333 98.000031,16.456667 97.674942,17.628895 
	C96.191376,17.485308 95.032913,16.897829 93.911865,15.979673 
	C93.966393,15.427799 93.983498,15.206601 94.375565,14.988574 
	C95.500443,14.994566 96.250374,14.997386 97.000305,15.000206 
	C97.000305,15.000206 97.500153,14.999913 97.750076,14.999956 
z"/>
<path fill="#F1F1F1" opacity="1.000000" stroke="none" 
	d="
M96.941879,14.659053 
	C96.250374,14.997386 95.500443,14.994566 94.375443,14.658154 
	C94.000557,13.883625 94.000740,13.442691 94.000916,13.001756 
	C94.000916,13.001756 94.000000,13.000000 94.000000,13.000038 
	C94.961151,13.439350 95.922295,13.878625 96.941879,14.659053 
z"/>
<path fill="#F6F7F6" opacity="1.000000" stroke="none" 
	d="
M38.001175,115.992203 
	C38.001175,115.992203 37.506306,116.002304 37.258980,116.005424 
	C34.933487,115.705223 32.855324,115.401909 30.388649,115.049530 
	C25.039988,109.407204 19.176908,104.371376 15.308020,98.104431 
	C7.302965,85.137581 4.938706,70.875610 6.640377,55.456947 
	C7.878441,44.238979 14.849532,36.691635 20.520449,28.284370 
	C23.481834,23.894047 28.322065,20.771055 32.657806,17.039156 
	C33.418743,17.632633 33.835571,18.262617 34.551876,19.317282 
	C34.476265,21.161829 34.101177,22.581699 33.353394,24.003822 
	C30.651333,25.343502 27.719618,26.180616 26.111286,28.116945 
	C22.103622,32.941921 18.139158,37.971054 15.221048,43.481518 
	C12.716113,48.211754 9.858566,53.928204 10.414203,58.840076 
	C11.319611,66.843933 5.934674,75.921516 13.716954,83.012650 
	C14.334558,83.575409 13.892962,85.257561 14.020034,86.411087 
	C14.249781,88.496666 18.367243,92.648743 20.699673,93.122131 
	C20.880507,93.226234 20.974916,93.632721 20.696529,93.951492 
	C20.278296,94.515327 20.138453,94.760384 19.737091,95.238075 
	C19.296274,99.764420 27.985453,112.138443 31.941645,112.664581 
	C33.300171,112.845253 34.860062,111.511757 36.557251,110.898102 
	C36.786537,110.926193 37.098129,111.267311 37.149651,111.669365 
	C37.467838,113.378349 37.734509,114.685272 38.001175,115.992203 
z"/>
<path fill="#111111" opacity="1.000000" stroke="none" 
	d="
M33.726086,24.001568 
	C34.101177,22.581699 34.476265,21.161829 34.855927,19.369678 
	C37.883537,18.048321 40.892670,16.333855 43.931957,16.278620 
	C59.641777,15.993101 75.359314,16.132189 91.834679,16.168098 
	C93.021614,16.245445 93.448029,16.277897 93.874443,16.310350 
	C95.032913,16.897829 96.191376,17.485308 97.674805,17.992138 
	C98.308029,18.406784 98.616295,18.902077 98.922386,20.158905 
	C98.920204,29.028376 98.920204,37.136314 98.920204,45.642418 
	C102.093407,45.642418 104.547020,45.642418 107.312866,45.800953 
	C108.083084,46.027653 108.541054,46.095818 109.186905,46.420425 
	C110.664528,48.118332 111.954269,49.559792 113.233841,51.470383 
	C113.296906,63.859173 113.489670,75.780418 113.330940,87.696983 
	C113.303024,89.792274 111.803001,91.867966 110.648857,94.123611 
	C107.544228,94.934631 104.773552,95.574753 101.581848,96.143158 
	C100.480354,96.723640 99.276733,97.330482 99.215546,98.036369 
	C99.015862,100.339714 99.232948,102.679192 99.196907,105.381042 
	C98.854797,106.754593 98.605484,107.751869 98.039162,108.872765 
	C95.818703,110.009315 93.915245,111.022255 91.542435,112.043365 
	C75.362823,112.046387 59.652424,112.072037 43.942451,112.001961 
	C41.659962,111.991791 39.379517,111.523582 37.098129,111.267319 
	C37.098129,111.267311 36.786537,110.926193 36.501842,110.718353 
	C35.928238,110.300659 35.639332,110.090797 35.171425,109.525696 
	C34.319477,106.129974 33.271851,103.112648 33.082165,100.042313 
	C32.903370,97.148293 32.080402,96.111336 29.073689,95.901833 
	C26.334692,95.710983 23.671513,94.432053 20.974915,93.632721 
	C20.974916,93.632721 20.880507,93.226234 20.568150,92.835075 
	C20.085209,79.047333 19.802559,65.649933 19.899632,52.255287 
	C19.910572,50.745789 21.762348,48.589226 23.290308,47.889267 
	C26.425495,46.453033 29.920038,45.801247 33.726086,44.692719 
	C33.726086,38.151825 33.726086,31.076696 33.726086,24.001568 
M23.669224,55.759682 
	C23.651331,64.914162 23.651424,74.068733 23.610161,83.223106 
	C23.573589,91.336945 25.246634,92.731071 34.074978,91.292519 
	C34.074978,84.682869 34.074978,77.969620 34.074978,71.398178 
	C56.025803,71.398178 77.425537,71.398178 99.183411,71.398178 
	C99.183411,78.293083 99.183411,84.896416 99.183411,91.443832 
	C106.966309,92.426445 109.207161,91.214264 109.303177,85.560829 
	C109.472740,75.576912 109.359970,65.587608 109.308861,55.600842 
	C109.289169,51.752205 107.260605,49.788803 103.392769,49.788124 
	C78.757080,49.783810 54.121399,49.786835 29.485714,49.776337 
	C26.063234,49.774876 23.641912,50.850147 23.669224,55.759682 
M47.616207,107.940819 
	C61.602695,107.940788 75.591835,108.070305 89.572495,107.784813 
	C91.421906,107.747047 94.753693,105.665321 94.811722,104.410568 
	C95.254356,94.838852 95.054375,85.237427 95.054375,75.531883 
	C75.729477,75.531883 57.004002,75.531883 37.914310,75.531883 
	C37.914310,85.317818 37.774830,94.784180 38.080246,104.236160 
	C38.121185,105.503136 40.215004,107.142914 41.713066,107.795860 
	C43.113976,108.406471 44.986591,107.934853 47.616207,107.940819 
M66.499756,45.473072 
	C75.905312,45.473072 85.310867,45.473072 95.071846,45.473072 
	C95.071846,38.283340 95.381813,31.636728 94.858978,25.056284 
	C94.724350,23.361729 91.997818,20.534220 90.413826,20.500685 
	C74.461273,20.162956 58.496986,20.197142 42.541653,20.464254 
	C41.002274,20.490025 38.270363,22.711060 38.187649,24.043156 
	C37.749573,31.098059 37.981926,38.194592 37.981926,45.473099 
	C47.557579,45.473099 56.528664,45.473099 66.499756,45.473072 
z"/>
<path fill="#F2F3F2" opacity="1.000000" stroke="none" 
	d="
M93.911865,15.979673 
	C93.448029,16.277897 93.021614,16.245445 92.296967,16.085899 
	C92.440071,15.010221 92.881409,14.061634 93.661835,13.057402 
	C94.000740,13.442691 94.000557,13.883625 94.000488,14.654982 
	C93.983498,15.206601 93.966393,15.427799 93.911865,15.979673 
z"/>
<path fill="#F8F8F8" opacity="1.000000" stroke="none" 
	d="
M37.149651,111.669373 
	C39.379517,111.523582 41.659962,111.991791 43.942451,112.001961 
	C59.652424,112.072037 75.362823,112.046387 91.646637,112.263474 
	C92.422714,112.741104 92.679283,112.935493 92.989891,113.058571 
	C92.993141,113.793488 92.996384,114.528397 92.999664,115.630714 
	C90.932335,116.009857 88.864975,116.021599 86.351303,116.072800 
	C82.929024,116.200821 79.953056,116.289391 76.638626,116.520477 
	C72.843910,116.584923 69.387680,116.506859 65.307465,116.032944 
	C62.153694,115.669556 59.623905,115.702034 57.094120,115.734512 
	C53.637695,116.099930 50.181271,116.465347 46.303268,116.862808 
	C43.533100,116.595642 41.184513,116.296440 38.418549,115.994720 
	C37.734509,114.685272 37.467838,113.378349 37.149651,111.669373 
z"/>
<path fill="#E6E6E6" opacity="1.000000" stroke="none" 
	d="
M57.077492,115.982758 
	C59.623905,115.702034 62.153694,115.669556 64.871536,115.903519 
	C62.673153,116.384346 60.286724,116.598724 57.452003,116.769211 
	C57.003719,116.725334 57.060867,116.231010 57.077492,115.982758 
z"/>
<path fill="#FAFAFA" opacity="1.000000" stroke="none" 
	d="
M110.982819,93.952713 
	C111.803001,91.867966 113.303024,89.792274 113.330940,87.696983 
	C113.489670,75.780418 113.296906,63.859173 113.586960,51.458241 
	C115.633598,50.317875 117.316956,49.658787 119.000305,48.999695 
	C119.173607,49.551544 119.346901,50.103394 119.760086,51.264595 
	C118.804039,59.986134 119.161720,67.948853 121.636406,75.856171 
	C122.087425,77.297310 121.335846,79.786682 120.237747,80.913353 
	C117.087196,84.145859 116.736397,87.918098 116.999710,91.998856 
	C113.546844,92.103821 114.612251,94.686264 113.934891,96.669846 
	C112.592484,95.805450 111.787651,94.879082 110.982819,93.952713 
z"/>
<path fill="#F8F8F8" opacity="1.000000" stroke="none" 
	d="
M119.000206,48.565933 
	C117.316956,49.658787 115.633598,50.317875 113.597122,50.989105 
	C111.954269,49.559792 110.664528,48.118332 109.242615,46.055954 
	C113.267929,42.333633 111.820320,38.618889 111.360069,34.265903 
	C110.726715,28.275623 105.897552,28.225727 102.819908,25.513628 
	C100.246422,35.487782 101.726501,41.117870 107.242920,42.705448 
	C107.162399,43.681465 107.081512,44.661942 107.000633,45.642418 
	C104.547020,45.642418 102.093407,45.642418 98.920204,45.642418 
	C98.920204,37.136314 98.920204,29.028376 99.020409,20.460857 
	C104.775085,18.551758 108.409370,22.856371 110.248558,26.236652 
	C113.970985,33.078171 120.053780,39.297058 119.000206,48.565933 
z"/>
<path fill="#F8F8F8" opacity="1.000000" stroke="none" 
	d="
M110.648865,94.123611 
	C111.787651,94.879082 112.592484,95.805450 113.698807,96.866211 
	C112.619225,102.671967 111.584976,108.563148 103.987717,109.273232 
	C103.114151,109.354881 102.365303,110.770950 101.260941,111.382179 
	C100.094231,110.380417 99.225204,109.564781 98.356171,108.749146 
	C98.605484,107.751869 98.854797,106.754593 99.582352,105.356979 
	C100.708023,102.042732 101.355453,99.128799 102.002884,96.214874 
	C104.773552,95.574753 107.544228,94.934631 110.648865,94.123611 
z"/>
<path fill="#F8F8F8" opacity="1.000000" stroke="none" 
	d="
M117.217285,92.230995 
	C116.736397,87.918098 117.087196,84.145859 120.237747,80.913353 
	C121.335846,79.786682 122.087425,77.297310 121.636406,75.856171 
	C119.161720,67.948853 118.804039,59.986134 119.999992,51.436974 
	C120.986145,51.952168 122.703072,52.813828 122.834114,53.871902 
	C123.458900,58.916508 123.219376,64.090866 124.097984,69.076195 
	C125.544373,77.283211 120.420921,83.851097 119.200485,91.356339 
	C119.126877,91.808998 118.046677,92.097984 117.217285,92.230995 
z"/>
<path fill="#F1F1F1" opacity="1.000000" stroke="none" 
	d="
M98.039162,108.872757 
	C99.225204,109.564781 100.094231,110.380417 100.980103,111.597717 
	C98.558517,112.317039 96.120094,112.634697 93.335777,113.005463 
	C92.679283,112.935493 92.422714,112.741104 92.115982,112.255295 
	C93.915245,111.022255 95.818703,110.009315 98.039162,108.872757 
z"/>
<path fill="#F9F9F9" opacity="1.000000" stroke="none" 
	d="
M33.353394,24.003822 
	C33.726086,31.076696 33.726086,38.151825 33.726086,44.692719 
	C29.920038,45.801247 26.425495,46.453033 23.290308,47.889267 
	C21.762348,48.589226 19.910572,50.745789 19.899632,52.255287 
	C19.802559,65.649933 20.085209,79.047333 20.387318,92.730972 
	C18.367243,92.648743 14.249781,88.496666 14.020034,86.411087 
	C13.892962,85.257561 14.334558,83.575409 13.716954,83.012650 
	C5.934674,75.921516 11.319611,66.843933 10.414203,58.840076 
	C9.858566,53.928204 12.716113,48.211754 15.221048,43.481518 
	C18.139158,37.971054 22.103622,32.941921 26.111286,28.116945 
	C27.719618,26.180616 30.651333,25.343502 33.353394,24.003822 
z"/>
<path fill="#F9F9F9" opacity="1.000000" stroke="none" 
	d="
M20.696527,93.951500 
	C23.671513,94.432053 26.334692,95.710983 29.073689,95.901833 
	C32.080402,96.111336 32.903370,97.148293 33.082165,100.042313 
	C33.271851,103.112648 34.319477,106.129974 34.767616,109.555222 
	C32.798042,109.228683 30.486742,108.993912 29.413433,107.717857 
	C26.025728,103.690178 23.101912,99.272324 19.998610,95.005432 
	C20.138453,94.760384 20.278296,94.515327 20.696527,93.951500 
z"/>
<path fill="#F8F8F8" opacity="1.000000" stroke="none" 
	d="
M19.737091,95.238075 
	C23.101912,99.272324 26.025728,103.690178 29.413433,107.717857 
	C30.486742,108.993912 32.798042,109.228683 34.946617,109.910454 
	C35.639332,110.090797 35.928238,110.300659 36.272552,110.690262 
	C34.860062,111.511757 33.300171,112.845253 31.941645,112.664581 
	C27.985453,112.138443 19.296274,99.764420 19.737091,95.238075 
z"/>
<path fill="#FBFBFB" opacity="1.000000" stroke="none" 
	d="
M23.709299,55.293785 
	C23.641912,50.850147 26.063234,49.774876 29.485714,49.776337 
	C54.121399,49.786835 78.757080,49.783810 103.392769,49.788124 
	C107.260605,49.788803 109.289169,51.752205 109.308861,55.600842 
	C109.359970,65.587608 109.472740,75.576912 109.303177,85.560829 
	C109.207161,91.214264 106.966309,92.426445 99.183411,91.443832 
	C99.183411,84.896416 99.183411,78.293083 99.183411,71.398178 
	C77.425537,71.398178 56.025803,71.398178 34.074978,71.398178 
	C34.074978,77.969620 34.074978,84.682869 34.074978,91.292519 
	C25.246634,92.731071 23.573589,91.336945 23.610161,83.223106 
	C23.651424,74.068733 23.651331,64.914162 23.709299,55.293785 
M93.932137,57.095196 
	C91.627235,60.172031 91.966248,62.809151 95.735130,64.031143 
	C96.881294,64.402771 99.134468,63.473343 99.862885,62.429558 
	C100.600571,61.372513 100.694527,58.580128 99.978912,58.065418 
	C98.534149,57.026249 96.349747,57.015404 93.932137,57.095196 
z"/>
<path fill="#F1F1F1" opacity="1.000000" stroke="none" 
	d="
M47.133904,107.940178 
	C44.986591,107.934853 43.113976,108.406471 41.713066,107.795860 
	C40.215004,107.142914 38.121185,105.503136 38.080246,104.236160 
	C37.774830,94.784180 37.914310,85.317818 37.914310,75.531883 
	C57.004002,75.531883 75.729477,75.531883 95.054375,75.531883 
	C95.054375,85.237427 95.254356,94.838852 94.811722,104.410568 
	C94.753693,105.665321 91.421906,107.747047 89.572495,107.784813 
	C75.591835,108.070305 61.602695,107.940788 47.133904,107.940178 
M87.253609,93.398972 
	C86.032265,92.670258 84.819733,91.326286 83.588188,91.308640 
	C72.100807,91.144028 60.609898,91.171417 49.120853,91.256760 
	C47.904964,91.265785 46.694473,92.002235 45.481480,92.401207 
	C45.529057,92.930824 45.576637,93.460442 45.624214,93.990051 
	C47.259533,94.240570 48.892174,94.684441 50.530651,94.707161 
	C56.690701,94.792587 62.854282,94.828842 69.013428,94.715096 
	C74.964920,94.605171 80.912567,94.287674 87.253609,93.398972 
M63.501610,80.974014 
	C47.612026,80.973839 47.612026,80.973839 45.223774,84.093979 
	C59.732758,84.104233 73.416084,84.178833 87.119942,82.852249 
	C79.680550,80.210594 72.039185,81.328247 63.501610,80.974014 
M87.175873,102.495651 
	C86.099983,101.953407 85.028641,100.950378 83.947517,100.939728 
	C72.306770,100.825043 60.664333,100.840515 49.022865,100.907784 
	C47.902103,100.914253 46.784737,101.508522 45.665794,101.829926 
	C45.685410,102.334366 45.705025,102.838799 45.724644,103.343239 
	C47.341469,103.599808 48.956394,104.063080 50.575443,104.077995 
	C58.558105,104.151535 66.543037,104.186783 74.524734,104.069550 
	C78.625908,104.009315 82.721992,103.602272 87.175873,102.495651 
z"/>
<path fill="#F4F4F4" opacity="1.000000" stroke="none" 
	d="
M65.999756,45.473083 
	C56.528664,45.473099 47.557579,45.473099 37.981926,45.473099 
	C37.981926,38.194592 37.749573,31.098059 38.187649,24.043156 
	C38.270363,22.711060 41.002274,20.490025 42.541653,20.464254 
	C58.496986,20.197142 74.461273,20.162956 90.413826,20.500685 
	C91.997818,20.534220 94.724350,23.361729 94.858978,25.056284 
	C95.381813,31.636728 95.071846,38.283340 95.071846,45.473072 
	C85.310867,45.473072 75.905312,45.473072 65.999756,45.473083 
z"/>
<path fill="#FAFAFA" opacity="1.000000" stroke="none" 
	d="
M107.312866,45.800953 
	C107.081512,44.661942 107.162399,43.681465 107.242920,42.705448 
	C101.726501,41.117870 100.246422,35.487782 102.819908,25.513628 
	C105.897552,28.225727 110.726715,28.275623 111.360069,34.265903 
	C111.820320,38.618889 113.267929,42.333633 109.054741,45.799507 
	C108.541054,46.095818 108.083084,46.027653 107.312866,45.800953 
z"/>
<path fill="#F6F7F6" opacity="1.000000" stroke="none" 
	d="
M101.581848,96.143158 
	C101.355453,99.128799 100.708023,102.042732 99.675148,104.980713 
	C99.232948,102.679192 99.015862,100.339714 99.215546,98.036369 
	C99.276733,97.330482 100.480354,96.723640 101.581848,96.143158 
z"/>
<path fill="#111111" opacity="1.000000" stroke="none" 
	d="
M94.201279,56.837811 
	C96.349747,57.015404 98.534149,57.026249 99.978912,58.065418 
	C100.694527,58.580128 100.600571,61.372513 99.862885,62.429558 
	C99.134468,63.473343 96.881294,64.402771 95.735130,64.031143 
	C91.966248,62.809151 91.627235,60.172031 94.201279,56.837811 
z"/>
<path fill="#383838" opacity="1.000000" stroke="none" 
	d="
M87.057755,93.730164 
	C80.912567,94.287674 74.964920,94.605171 69.013428,94.715096 
	C62.854282,94.828842 56.690701,94.792587 50.530651,94.707161 
	C48.892174,94.684441 47.259533,94.240570 45.624214,93.990051 
	C45.576637,93.460442 45.529057,92.930824 45.481480,92.401207 
	C46.694473,92.002235 47.904964,91.265785 49.120853,91.256760 
	C60.609898,91.171417 72.100807,91.144028 83.588188,91.308640 
	C84.819733,91.326286 86.032265,92.670258 87.057755,93.730164 
z"/>
<path fill="#040404" opacity="1.000000" stroke="none" 
	d="
M64.001221,80.974014 
	C72.039185,81.328247 79.680550,80.210594 87.119942,82.852249 
	C73.416084,84.178833 59.732758,84.104233 45.223774,84.093979 
	C47.612026,80.973839 47.612026,80.973839 64.001221,80.974014 
z"/>
<path fill="#0A0A0A" opacity="1.000000" stroke="none" 
	d="
M86.998123,102.923798 
	C82.721992,103.602272 78.625908,104.009315 74.524734,104.069550 
	C66.543037,104.186783 58.558105,104.151535 50.575443,104.077995 
	C48.956394,104.063080 47.341469,103.599808 45.724644,103.343239 
	C45.705025,102.838799 45.685410,102.334366 45.665794,101.829926 
	C46.784737,101.508522 47.902103,100.914253 49.022865,100.907784 
	C60.664333,100.840515 72.306770,100.825043 83.947517,100.939728 
	C85.028641,100.950378 86.099983,101.953407 86.998123,102.923798 
z"/>
</svg>