<svg version="1.1" id="Layer_1" xmlns="http://www.w3.org/2000/svg" xmlns:xlink="http://www.w3.org/1999/xlink" x="0px" y="0px"
	 width="100%" viewBox="0 0 132 132" enable-background="new 0 0 132 132" xml:space="preserve">
<path fill="#F3F5F6" opacity="1.000000" stroke="none" 
	d="
M133.000000,46.000000 
	C133.000000,75.333336 133.000000,104.166664 133.000000,133.000000 
	C89.000000,133.000000 45.000000,133.000000 1.000000,133.000000 
	C1.000000,89.000000 1.000000,45.000000 1.000000,1.000000 
	C45.000000,1.000000 89.000000,1.000000 133.000000,1.000000 
	C133.000000,15.833333 133.000000,30.666666 133.000000,46.000000 
M36.851795,14.882162 
	C36.851795,14.882162 36.832111,14.724882 36.159054,14.735511 
	C35.089001,15.478725 34.018948,16.221941 32.976009,17.006323 
	C32.976009,17.006323 32.982830,16.957609 32.345200,17.097971 
	C31.176937,18.045113 30.008675,18.992256 28.417915,20.068508 
	C28.153311,20.234030 27.985785,20.468821 27.289211,20.984110 
	C26.459085,21.933325 25.628958,22.882540 24.986303,23.998976 
	C24.986303,23.998976 24.810600,23.819820 24.336939,23.963314 
	C24.039438,24.140438 23.834126,24.392633 23.112879,24.953514 
	C22.050493,26.277596 20.988106,27.601677 19.359179,29.250898 
	C18.472237,30.624420 17.585295,31.997942 16.569887,33.526871 
	C16.569887,33.526871 16.601503,33.726009 16.012892,33.989048 
	C5.812669,49.667606 3.254527,66.428490 8.873560,85.100899 
	C14.417464,103.447578 26.397566,116.032104 43.737759,123.654251 
	C52.054867,127.310158 60.728485,127.582474 69.858047,127.499794 
	C79.911133,127.408752 88.654716,125.063416 97.766350,120.038635 
	C100.149925,118.359360 102.533508,116.680092 105.125305,114.825890 
	C105.125305,114.825890 105.134239,114.554085 105.737007,114.342552 
	C106.186653,113.916115 106.636299,113.489677 106.998093,113.027374 
	C106.998093,113.027374 107.063957,113.095688 107.722755,112.935608 
	C109.587883,110.707825 111.453003,108.480049 113.351372,106.184227 
	C113.351372,106.184227 113.392616,106.247734 113.898758,106.076637 
	C114.104507,105.786438 114.310249,105.496246 114.818260,105.134422 
	C114.818260,105.134422 115.001595,104.883667 115.571594,104.592995 
	C116.144882,103.478806 116.718178,102.364616 117.195999,100.991020 
	C117.195999,100.991020 117.260582,101.259491 117.840958,101.062019 
	C118.216194,100.373619 118.591431,99.685219 119.501831,98.564095 
	C127.585587,86.162827 129.313446,72.353340 127.578865,58.122955 
	C125.817566,43.673386 118.780479,31.589607 108.093811,21.900558 
	C99.753555,14.338878 90.330582,8.450577 77.929001,7.243042 
	C68.425728,5.097808 59.074368,5.534370 49.934425,8.842379 
	C49.934425,8.842379 49.871635,8.830914 49.109142,8.869593 
	C46.213428,10.168671 43.317715,11.467748 39.917316,12.720331 
	C39.611244,12.854100 39.305176,12.987869 38.402462,13.166409 
	C37.856628,13.694125 37.310795,14.221840 36.851795,14.882162 
z"/>
<path fill="#41A9DC" opacity="1.000000" stroke="none" 
	d="
M38.999104,13.121639 
	C39.305176,12.987869 39.611244,12.854100 40.592033,12.799953 
	C43.886356,12.353426 46.535618,11.931502 49.097473,11.202439 
	C49.544304,11.075279 49.622940,9.654318 49.871635,8.830914 
	C49.871635,8.830914 49.934425,8.842379 50.348434,8.904395 
	C53.702572,8.755393 56.639572,8.460304 59.583481,8.350681 
	C65.905746,8.115257 72.231567,7.975451 78.555931,7.796499 
	C90.330582,8.450577 99.753555,14.338878 108.093811,21.900558 
	C118.780479,31.589607 125.817566,43.673386 127.578865,58.122955 
	C129.313446,72.353340 127.585587,86.162827 118.904076,98.837822 
	C117.957741,99.827530 117.609161,100.543510 117.260582,101.259491 
	C117.260582,101.259491 117.195999,100.991020 116.865997,101.093872 
	C116.024529,102.425697 115.513062,103.654686 115.001595,104.883667 
	C115.001595,104.883667 114.818260,105.134422 114.290642,105.106033 
	C113.511337,105.048149 113.259644,105.018639 112.891052,104.778664 
	C112.574257,104.306206 112.321877,104.112663 111.967865,103.623734 
	C111.509254,102.087677 111.099777,100.915459 110.735840,99.748909 
	C110.781387,99.754578 110.725403,99.827309 111.026794,99.727783 
	C111.530647,99.057449 111.733116,98.486633 111.957245,97.949738 
	C111.978905,97.983658 111.899773,97.968987 112.139786,97.838074 
	C112.554314,97.191940 112.728828,96.676735 112.903336,96.161522 
	C112.589844,96.125725 112.276344,96.089935 111.623993,96.059593 
	C110.839943,95.991386 110.394745,95.917725 109.632217,95.588120 
	C104.111954,95.224274 98.909119,95.063240 93.706017,95.054359 
	C92.693398,95.052635 89.833084,94.773682 92.792084,97.247421 
	C92.515381,98.021004 92.234840,98.505768 91.607468,99.060265 
	C90.919624,100.146500 90.578606,101.162994 90.166031,102.115952 
	C90.094475,102.052422 90.268288,102.132507 89.948288,102.279320 
	C89.430840,103.313637 89.233391,104.201141 88.969177,105.431969 
	C86.605560,109.779259 84.308693,113.783234 82.011826,117.787209 
	C82.349510,118.182404 82.687195,118.577599 83.024872,118.972794 
	C87.577911,116.937950 92.130943,114.903107 97.028206,112.879234 
	C97.845894,112.486511 98.319359,112.082825 98.827423,111.724571 
	C98.862007,111.770004 98.748032,111.762840 99.019539,111.720352 
	C99.460793,111.371506 99.630539,111.065147 99.766922,110.769157 
	C99.733559,110.779533 99.734955,110.709663 100.080170,110.762238 
	C100.931274,110.182831 101.437157,109.550858 101.975189,108.949707 
	C102.007339,108.980530 101.928246,108.940369 102.245636,108.931313 
	C102.958282,108.506569 103.353539,108.090874 103.715797,107.674332 
	C103.682800,107.673470 103.686058,107.607544 104.054604,107.701706 
	C106.944786,106.536064 109.466423,105.276253 112.107254,104.225616 
	C112.428230,104.695557 112.682388,104.886703 113.058128,105.328415 
	C113.215759,105.848343 113.304192,106.048042 113.392616,106.247734 
	C113.392616,106.247734 113.351372,106.184227 112.982651,106.255798 
	C110.763947,108.583481 108.913948,110.839584 107.063957,113.095688 
	C107.063957,113.095688 106.998093,113.027374 106.695961,113.067963 
	C105.973961,113.590393 105.554100,114.072235 105.134232,114.554077 
	C105.134239,114.554085 105.125305,114.825890 104.643471,114.911530 
	C101.805573,116.742256 99.449501,118.487335 97.093430,120.232407 
	C88.654716,125.063416 79.911133,127.408752 69.858047,127.499794 
	C60.728485,127.582474 52.054867,127.310158 43.737759,123.654251 
	C26.397566,116.032104 14.417464,103.447578 8.913482,84.281601 
	C8.783224,79.505493 6.963692,74.304359 8.804343,71.864578 
	C12.100017,67.496178 8.370420,64.874634 8.443313,61.537010 
	C8.520101,58.021149 9.012799,54.388802 10.077995,51.047810 
	C11.949658,45.177322 14.395901,39.490028 16.601503,33.726009 
	C16.601503,33.726009 16.569887,33.526871 16.876118,33.720619 
	C18.396391,36.200527 19.682453,35.570148 20.999840,34.356060 
	C21.383537,35.485893 21.758907,36.268093 22.142567,37.259411 
	C22.150854,37.468533 22.057486,37.876556 22.176834,38.233612 
	C24.052292,39.725101 25.882820,41.916748 27.550808,41.799335 
	C32.947048,41.419487 39.460815,43.396866 43.119175,37.789394 
	C45.196323,34.605579 45.667259,30.373861 46.865433,26.362339 
	C47.145409,25.713802 47.421516,25.317003 47.999359,24.796549 
	C48.510445,24.083757 48.719803,23.494621 48.942245,22.952637 
	C48.955334,22.999790 48.888302,22.928480 49.268356,22.908606 
	C50.387390,21.466766 51.126369,20.044802 51.873306,18.446594 
	C51.881256,18.270350 52.086407,17.983273 52.297112,17.844673 
	C52.653286,17.407682 52.798756,17.109287 52.905952,16.543579 
	C52.336613,15.895413 51.805550,15.514563 50.912872,15.066659 
	C48.712528,14.389716 46.755871,13.557457 46.772972,16.992752 
	C46.207088,17.136421 45.871349,17.168514 45.145016,17.170326 
	C44.146782,17.545221 43.539146,17.950392 42.860043,18.382259 
	C42.788574,18.408958 42.657833,18.330299 42.272362,18.271755 
	C41.303364,18.867020 40.719837,19.520830 40.094490,20.173937 
	C40.052666,20.173233 40.126793,20.134560 39.806175,20.115849 
	C39.024715,20.470167 38.563873,20.843193 38.085403,21.161388 
	C38.067780,21.106558 38.165524,21.167500 37.810539,21.158005 
	C37.024651,21.629511 36.593750,22.110510 36.126358,22.720970 
	C36.089867,22.850433 35.860641,22.991236 35.554222,22.989666 
	C34.837967,23.001175 34.428131,23.014254 33.652458,23.061085 
	C32.252995,24.467192 31.219366,25.839550 30.096077,27.132374 
	C30.006414,27.052839 30.205019,27.186932 29.807167,27.126297 
	C28.609013,27.040768 27.808710,27.015873 26.958248,26.675575 
	C26.276922,25.902187 25.645750,25.444204 24.980129,24.691727 
	C24.900652,24.204763 24.855627,24.012293 24.810600,23.819820 
	C24.810600,23.819820 24.986303,23.998976 25.262201,23.935108 
	C26.330511,22.838451 27.122921,21.805664 27.915333,20.772877 
	C27.985785,20.468821 28.153311,20.234030 28.964111,20.024372 
	C30.732912,20.097307 31.955515,20.214376 33.159946,20.329706 
	C33.089691,18.992109 33.036259,17.974859 32.982830,16.957609 
	C32.982830,16.957609 32.976009,17.006323 33.323135,16.992435 
	C34.724209,16.227327 35.778160,15.476105 36.832111,14.724882 
	C36.832111,14.724882 36.851795,14.882162 37.138325,14.864480 
	C37.949604,14.271745 38.474354,13.696692 38.999104,13.121639 
M52.278107,29.242401 
	C52.278107,29.242401 52.336258,29.237530 51.753647,29.324413 
	C51.535370,30.234011 51.317097,31.143608 51.019684,32.564632 
	C50.928127,32.710835 50.836567,32.857037 50.081066,33.180069 
	C49.758163,34.220047 49.435261,35.260025 49.151241,36.847370 
	C49.111912,37.210987 49.072582,37.574604 49.008652,38.622311 
	C49.006641,39.078609 49.004627,39.534904 48.494423,39.998230 
	C48.325024,40.000301 48.155621,40.002369 47.429680,40.250854 
	C46.623062,40.826706 45.816444,41.402557 44.492470,41.994591 
	C44.320042,41.997570 44.147617,42.000546 43.305450,42.016140 
	C42.528450,42.518036 41.751453,43.019932 40.974453,43.521828 
	C41.166553,43.803665 41.358650,44.085499 41.550747,44.367336 
	C42.358894,43.910069 43.167042,43.452801 43.988869,43.682228 
	C44.003235,44.140640 44.017605,44.599056 44.019161,45.870968 
	C43.523689,47.908943 42.694317,49.932259 42.604088,51.988022 
	C42.430313,55.947193 42.674629,59.924713 43.377045,64.497292 
	C48.823887,64.612457 54.270477,64.794357 59.717678,64.814857 
	C62.475800,64.825241 63.920338,63.436359 63.817642,60.474129 
	C63.685814,56.671627 63.626560,52.854362 63.811707,49.056896 
	C63.967598,45.859600 62.439445,45.086552 59.608555,45.181313 
	C55.143997,45.330753 50.671947,45.256290 46.085270,45.070534 
	C46.085270,45.070534 45.959667,44.869125 46.143780,44.209396 
	C48.144135,44.139057 50.189671,44.302608 52.131168,43.927570 
	C53.815689,43.602180 55.382389,42.666836 57.662468,41.998554 
	C58.103340,41.997318 58.544216,41.996082 59.340935,42.439415 
	C59.900658,41.956074 60.460381,41.472736 61.737442,40.853226 
	C62.824512,38.666573 64.629509,36.549950 64.851036,34.278873 
	C65.330338,29.365095 65.105904,24.368408 64.931786,19.413980 
	C64.880501,17.954672 64.032661,16.523355 63.256805,15.161477 
	C63.256805,15.161477 62.993958,15.007963 62.902214,14.372822 
	C58.459496,12.675290 60.699463,17.198267 59.239197,18.174776 
	C59.239197,18.174776 59.342075,18.231743 58.700809,18.392113 
	C58.551384,18.991177 58.401955,19.590240 57.996983,20.029045 
	C57.996983,20.029045 58.254017,20.181635 57.552849,20.326056 
	C56.159077,22.644611 54.765301,24.963167 53.260300,27.317167 
	C53.260300,27.317167 53.340935,27.232750 52.701843,27.395590 
	C52.568707,27.993513 52.435570,28.591436 52.278107,29.242401 
M113.910797,43.359344 
	C112.240585,42.469868 110.510933,40.742302 108.911858,40.855728 
	C104.898720,41.140392 100.944641,42.257763 96.254845,43.185478 
	C94.545677,45.307301 93.832069,47.333527 97.069290,49.779652 
	C97.880730,54.279087 98.692162,58.778522 99.554604,63.560745 
	C106.560905,63.560745 113.552635,63.560745 120.855461,63.560745 
	C120.855461,61.630527 120.855461,60.009499 120.951881,57.518547 
	C120.519547,55.990448 120.087219,54.462349 119.581963,52.716076 
	C119.581963,52.716076 119.754181,52.563568 119.875366,51.717762 
	C118.730202,49.530712 117.585037,47.343662 115.959045,45.236496 
	C115.633507,45.213154 115.314873,45.153194 114.793625,44.612309 
	C114.595917,44.338409 114.338142,44.144287 113.910797,43.359344 
M111.732697,36.460205 
	C104.049370,26.102814 94.339394,18.691797 80.920547,14.967027 
	C83.542503,19.293663 86.525032,22.535828 87.608040,26.321421 
	C90.696808,37.118000 97.917816,39.955841 108.357224,38.721008 
	C108.900749,38.608780 109.444275,38.496552 110.653992,38.195400 
	C111.109673,38.124641 111.565346,38.053883 112.372856,37.857925 
	C112.440094,37.754494 112.587952,37.597740 112.560822,37.556732 
	C112.433327,37.363983 112.257774,37.203018 111.732697,36.460205 
M13.777217,62.312847 
	C14.213263,62.767700 14.640977,63.609364 15.086611,63.618961 
	C21.072680,63.747879 27.064201,63.861477 33.045773,63.685978 
	C33.873966,63.661682 35.181511,62.167072 35.371037,61.180912 
	C36.332867,56.176140 36.999168,51.114571 37.898949,45.221947 
	C35.421768,45.221947 33.165012,45.221043 30.908260,45.222092 
	C15.484379,45.229263 14.876756,45.801556 13.777217,62.312847 
M114.881577,88.938080 
	C115.713814,88.284622 117.046532,87.781944 117.296257,86.953011 
	C118.804626,81.946152 120.065254,76.864647 121.636238,70.951843 
	C114.183472,70.951843 107.758621,70.861259 101.342979,71.063240 
	C100.514618,71.089325 99.212814,72.524712 99.018600,73.486618 
	C98.012238,78.470879 97.294434,83.513405 96.407982,88.953476 
	C102.425735,88.953476 108.211159,88.953476 114.881577,88.938080 
M35.758846,74.831367 
	C34.971802,73.563194 34.235672,71.236084 33.389618,71.195404 
	C26.977493,70.887123 20.543833,71.026848 12.958737,71.026848 
	C14.406384,76.863815 15.513667,81.830826 16.953651,86.699432 
	C17.232801,87.643242 18.789728,88.807030 19.791964,88.840858 
	C25.743786,89.041779 31.705824,88.940079 37.932384,88.940079 
	C37.169308,84.179184 36.490898,79.946526 35.758846,74.831367 
M78.575600,63.845627 
	C82.835007,63.845627 87.094406,63.845627 92.421654,63.845627 
	C91.373878,58.270088 90.442383,53.478889 89.583298,48.674744 
	C89.126175,46.118458 87.761948,45.117260 85.115456,45.219910 
	C80.588730,45.395481 76.050262,45.268364 71.266754,45.268364 
	C71.266754,51.112823 71.266754,57.275764 71.266754,63.845009 
	C73.682381,63.845009 75.644989,63.845009 78.575600,63.845627 
M62.051613,88.916901 
	C65.797379,83.161118 62.977806,77.141449 63.471485,71.349487 
	C56.064987,71.349487 49.375275,71.349487 42.537968,71.349487 
	C42.680996,72.938408 42.767582,74.083206 42.889259,75.224251 
	C44.353397,88.954353 44.354752,88.954430 58.151970,88.986366 
	C59.147171,88.988670 60.142384,88.984261 62.051613,88.916901 
M70.839302,79.511276 
	C70.839302,82.583328 70.839302,85.655373 70.839302,88.968445 
	C76.258820,88.968445 80.752411,89.137009 85.219116,88.864586 
	C86.540192,88.784019 88.634689,87.695602 88.920830,86.665253 
	C90.280769,81.768341 91.138748,76.732033 92.269066,71.294922 
	C84.747238,71.294922 78.051003,71.294922 70.836380,71.294922 
	C70.836380,73.956657 70.836380,76.249588 70.839302,79.511276 
M23.589888,96.073677 
	C23.635443,97.089600 23.261068,98.582611 23.790590,99.048691 
	C30.065828,104.572067 36.342308,110.112907 42.920685,115.263138 
	C45.335136,117.153419 48.547943,118.023964 52.154652,119.715126 
	C51.883965,117.774033 51.963234,117.058472 51.683681,116.534271 
	C48.493504,110.552185 45.369926,104.527550 41.921852,98.695610 
	C41.181393,97.443222 39.262173,96.281998 37.804028,96.172813 
	C33.352768,95.839485 28.861553,96.039764 23.589888,96.073677 
M52.148376,103.311432 
	C55.613949,108.701538 59.079521,114.091652 62.545094,119.481758 
	C62.833359,119.225464 63.121624,118.969170 63.409889,118.712868 
	C63.409889,111.299385 63.409889,103.885902 63.409889,96.384094 
	C58.485325,96.384094 53.963478,96.384094 48.807629,96.384094 
	C49.980328,98.827461 50.896400,100.736137 52.148376,103.311432 
M82.002655,30.518206 
	C78.749168,25.452448 75.495682,20.386692 72.242195,15.320935 
	C71.782463,15.497735 71.322723,15.674536 70.862991,15.851336 
	C70.862991,22.593086 70.794594,29.336348 70.943398,36.074814 
	C70.963623,36.990601 72.043503,38.639233 72.679352,38.662277 
	C76.763336,38.810265 80.860321,38.599575 86.054710,38.481728 
	C84.310509,34.957123 83.364594,33.045658 82.002655,30.518206 
M83.139259,101.513634 
	C83.805031,99.933487 84.470810,98.353333 85.439667,96.053848 
	C80.846558,96.053848 77.203140,95.904816 73.587364,96.155075 
	C72.643372,96.220421 71.029785,97.505493 71.006355,98.269699 
	C70.801506,104.950706 70.887939,111.640648 70.887939,118.327934 
	C71.385323,118.490227 71.882706,118.652519 72.380089,118.814812 
	C75.861420,113.274933 79.342751,107.735046 83.139259,101.513634 
M20.583775,39.807976 
	C20.205982,39.803581 19.828190,39.799187 19.450397,39.794788 
	C19.448673,39.951542 19.436312,40.244545 19.446762,40.245358 
	C19.822674,40.274712 20.200712,40.276794 20.583775,39.807976 
M49.736572,28.837183 
	C49.581120,28.888069 49.425663,28.938955 49.270210,28.989840 
	C49.426414,29.040087 49.582615,29.090334 49.736572,28.837183 
z"/>
<path fill="#47A9D7" opacity="1.000000" stroke="none" 
	d="
M16.307198,33.857529 
	C14.395901,39.490028 11.949658,45.177322 10.077995,51.047810 
	C9.012799,54.388802 8.520101,58.021149 8.443313,61.537010 
	C8.370420,64.874634 12.100017,67.496178 8.804343,71.864578 
	C6.963692,74.304359 8.783224,79.505493 8.917023,83.905396 
	C3.254527,66.428490 5.812669,49.667606 16.307198,33.857529 
z"/>
<path fill="#50A8D4" opacity="1.000000" stroke="none" 
	d="
M78.242462,7.519771 
	C72.231567,7.975451 65.905746,8.115257 59.583481,8.350681 
	C56.639572,8.460304 53.702572,8.755393 50.328671,8.929454 
	C59.074368,5.534370 68.425728,5.097808 78.242462,7.519771 
z"/>
<path fill="#50A8D4" opacity="1.000000" stroke="none" 
	d="
M49.490387,8.850252 
	C49.622940,9.654318 49.544304,11.075279 49.097473,11.202439 
	C46.535618,11.931502 43.886356,12.353426 40.844379,12.823199 
	C43.317715,11.467748 46.213428,10.168671 49.490387,8.850252 
z"/>
<path fill="#4BABD9" opacity="1.000000" stroke="none" 
	d="
M97.429886,120.135521 
	C99.449501,118.487335 101.805573,116.742256 104.539360,114.998993 
	C102.533508,116.680092 100.149925,118.359360 97.429886,120.135521 
z"/>
<path fill="#4BABD9" opacity="1.000000" stroke="none" 
	d="
M107.393356,113.015648 
	C108.913948,110.839584 110.763947,108.583481 112.966034,106.289825 
	C111.453003,108.480049 109.587883,110.707825 107.393356,113.015648 
z"/>
<path fill="#47A9D7" opacity="1.000000" stroke="none" 
	d="
M20.991514,34.008423 
	C19.682453,35.570148 18.396391,36.200527 16.940350,33.642914 
	C17.585295,31.997942 18.472237,30.624420 19.684937,29.130791 
	C20.010695,29.010681 20.095720,29.095552 20.063602,29.410137 
	C20.356079,31.146875 20.680674,32.569031 21.002743,33.995354 
	C21.000216,33.999519 20.991514,34.008423 20.991514,34.008423 
z"/>
<path fill="#47A9D7" opacity="1.000000" stroke="none" 
	d="
M19.968206,28.968220 
	C20.988106,27.601677 22.050493,26.277596 23.500683,24.920200 
	C23.888485,24.886889 24.053692,25.053473 24.027519,25.420403 
	C22.699471,26.890072 21.397596,27.992813 20.095722,29.095554 
	C20.095720,29.095552 20.010695,29.010681 19.968206,28.968220 
z"/>
<path fill="#47A9D7" opacity="1.000000" stroke="none" 
	d="
M32.664017,17.027790 
	C33.036259,17.974859 33.089691,18.992109 33.159946,20.329706 
	C31.955515,20.214376 30.732912,20.097307 29.175362,19.959818 
	C30.008675,18.992256 31.176937,18.045113 32.664017,17.027790 
z"/>
<path fill="#4BABD9" opacity="1.000000" stroke="none" 
	d="
M115.286591,104.738327 
	C115.513062,103.654686 116.024529,102.425697 116.913734,101.223572 
	C116.718178,102.364616 116.144882,103.478806 115.286591,104.738327 
z"/>
<path fill="#47A9D7" opacity="1.000000" stroke="none" 
	d="
M27.602272,20.878494 
	C27.122921,21.805664 26.330511,22.838451 25.168465,23.851498 
	C25.628958,22.882540 26.459085,21.933325 27.602272,20.878494 
z"/>
<path fill="#50A8D4" opacity="1.000000" stroke="none" 
	d="
M36.495583,14.730197 
	C35.778160,15.476105 34.724209,16.227327 33.309578,16.971851 
	C34.018948,16.221941 35.089001,15.478725 36.495583,14.730197 
z"/>
<path fill="#50A8D4" opacity="1.000000" stroke="none" 
	d="
M38.700783,13.144024 
	C38.474354,13.696692 37.949604,14.271745 37.094910,14.798177 
	C37.310795,14.221840 37.856628,13.694125 38.700783,13.144024 
z"/>
<path fill="#4BABD9" opacity="1.000000" stroke="none" 
	d="
M117.550766,101.160751 
	C117.609161,100.543510 117.957741,99.827530 118.636490,99.054184 
	C118.591431,99.685219 118.216194,100.373619 117.550766,101.160751 
z"/>
<path fill="#4BABD9" opacity="1.000000" stroke="none" 
	d="
M105.435623,114.448318 
	C105.554100,114.072235 105.973961,113.590393 106.739883,113.085892 
	C106.636299,113.489677 106.186653,113.916115 105.435623,114.448318 
z"/>
<path fill="#4BABD9" opacity="1.000000" stroke="none" 
	d="
M113.645691,106.162186 
	C113.304192,106.048042 113.215759,105.848343 113.063599,105.324318 
	C112.999886,105.000000 113.007957,104.989136 113.007957,104.989136 
	C113.259644,105.018639 113.511337,105.048149 114.139511,105.141853 
	C114.310249,105.496246 114.104507,105.786438 113.645691,106.162186 
z"/>
<path fill="#47A9D7" opacity="1.000000" stroke="none" 
	d="
M24.573769,23.891567 
	C24.855627,24.012293 24.900652,24.204763 24.972309,24.699278 
	C24.998940,25.001322 24.985769,25.015362 24.752529,25.019474 
	C24.519287,25.023586 24.053692,25.053473 24.053692,25.053473 
	C24.053692,25.053473 23.888485,24.886889 23.804743,24.803394 
	C23.834126,24.392633 24.039438,24.140438 24.573769,23.891567 
z"/>
<path fill="#EBF4F6" opacity="1.000000" stroke="none" 
	d="
M13.750776,61.857895 
	C14.876756,45.801556 15.484379,45.229263 30.908260,45.222092 
	C33.165012,45.221043 35.421768,45.221947 37.898949,45.221947 
	C36.999168,51.114571 36.332867,56.176140 35.371037,61.180912 
	C35.181511,62.167072 33.873966,63.661682 33.045773,63.685978 
	C27.064201,63.861477 21.072680,63.747879 15.086611,63.618961 
	C14.640977,63.609364 14.213263,62.767700 13.750776,61.857895 
z"/>
<path fill="#E7F3F7" opacity="1.000000" stroke="none" 
	d="
M46.203068,45.276604 
	C50.671947,45.256290 55.143997,45.330753 59.608555,45.181313 
	C62.439445,45.086552 63.967598,45.859600 63.811707,49.056896 
	C63.626560,52.854362 63.685814,56.671627 63.817642,60.474129 
	C63.920338,63.436359 62.475800,64.825241 59.717678,64.814857 
	C54.270477,64.794357 48.823887,64.612457 43.076469,63.757748 
	C43.918285,57.104336 45.060677,51.190472 46.203068,45.276604 
z"/>
<path fill="#EBF4F6" opacity="1.000000" stroke="none" 
	d="
M119.754181,52.563568 
	C119.754181,52.563568 119.581963,52.716076 119.615555,53.233212 
	C120.051254,55.296391 120.453354,56.842430 120.855453,58.388470 
	C120.855461,60.009499 120.855461,61.630527 120.855461,63.560745 
	C113.552635,63.560745 106.560905,63.560745 99.554604,63.560745 
	C98.692162,58.778522 97.880730,54.279087 96.955963,48.972462 
	C96.409470,44.958988 98.646332,45.261646 100.663864,45.239914 
	C105.443718,45.188423 110.223389,45.118866 115.003128,45.056610 
	C115.314873,45.153194 115.633507,45.213154 116.316063,45.555737 
	C117.700119,48.104507 118.727150,50.334038 119.754181,52.563568 
z"/>
<path fill="#EFF5F7" opacity="1.000000" stroke="none" 
	d="
M114.439072,88.945778 
	C108.211159,88.953476 102.425735,88.953476 96.407982,88.953476 
	C97.294434,83.513405 98.012238,78.470879 99.018600,73.486618 
	C99.212814,72.524712 100.514618,71.089325 101.342979,71.063240 
	C107.758621,70.861259 114.183472,70.951843 121.636238,70.951843 
	C120.065254,76.864647 118.804626,81.946152 117.296257,86.953011 
	C117.046532,87.781944 115.713814,88.284622 114.439072,88.945778 
z"/>
<path fill="#EFF5F6" opacity="1.000000" stroke="none" 
	d="
M35.785667,75.272621 
	C36.490898,79.946526 37.169308,84.179184 37.932384,88.940079 
	C31.705824,88.940079 25.743786,89.041779 19.791964,88.840858 
	C18.789728,88.807030 17.232801,87.643242 16.953651,86.699432 
	C15.513667,81.830826 14.406384,76.863815 12.958737,71.026848 
	C20.543833,71.026848 26.977493,70.887123 33.389618,71.195404 
	C34.235672,71.236084 34.971802,73.563194 35.785667,75.272621 
z"/>
<path fill="#ECF4F6" opacity="1.000000" stroke="none" 
	d="
M78.091599,63.845318 
	C75.644989,63.845009 73.682381,63.845009 71.266754,63.845009 
	C71.266754,57.275764 71.266754,51.112823 71.266754,45.268364 
	C76.050262,45.268364 80.588730,45.395481 85.115456,45.219910 
	C87.761948,45.117260 89.126175,46.118458 89.583298,48.674744 
	C90.442383,53.478889 91.373878,58.270088 92.421654,63.845627 
	C87.094406,63.845627 82.835007,63.845627 78.091599,63.845318 
z"/>
<path fill="#EDF4F6" opacity="1.000000" stroke="none" 
	d="
M61.594604,88.949936 
	C60.142384,88.984261 59.147171,88.988670 58.151970,88.986366 
	C44.354752,88.954430 44.353397,88.954353 42.889259,75.224251 
	C42.767582,74.083206 42.680996,72.938408 42.537968,71.349487 
	C49.375275,71.349487 56.064987,71.349487 63.471485,71.349487 
	C62.977806,77.141449 65.797379,83.161118 61.594604,88.949936 
z"/>
<path fill="#F0F5F6" opacity="1.000000" stroke="none" 
	d="
M70.837845,79.026894 
	C70.836380,76.249588 70.836380,73.956657 70.836380,71.294922 
	C78.051003,71.294922 84.747238,71.294922 92.269066,71.294922 
	C91.138748,76.732033 90.280769,81.768341 88.920830,86.665253 
	C88.634689,87.695602 86.540192,88.784019 85.219116,88.864586 
	C80.752411,89.137009 76.258820,88.968445 70.839302,88.968445 
	C70.839302,85.655373 70.839302,82.583328 70.837845,79.026894 
z"/>
<path fill="#EBF3F6" opacity="1.000000" stroke="none" 
	d="
M23.987886,96.053040 
	C28.861553,96.039764 33.352768,95.839485 37.804028,96.172813 
	C39.262173,96.281998 41.181393,97.443222 41.921852,98.695610 
	C45.369926,104.527550 48.493504,110.552185 51.683681,116.534271 
	C51.963234,117.058472 51.883965,117.774033 52.154652,119.715126 
	C48.547943,118.023964 45.335136,117.153419 42.920685,115.263138 
	C36.342308,110.112907 30.065828,104.572067 23.790590,99.048691 
	C23.261068,98.582611 23.635443,97.089600 23.987886,96.053040 
z"/>
<path fill="#EBF4F6" opacity="1.000000" stroke="none" 
	d="
M108.017029,38.414215 
	C97.917816,39.955841 90.696808,37.118000 87.608040,26.321421 
	C86.525032,22.535828 83.542503,19.293663 80.920547,14.967027 
	C94.339394,18.691797 104.049370,26.102814 111.873978,36.981476 
	C112.015266,37.502750 112.021027,37.983124 112.021027,37.983124 
	C111.565346,38.053883 111.109673,38.124641 109.995605,38.196106 
	C108.897148,38.269276 108.457092,38.341743 108.017029,38.414215 
z"/>
<path fill="#ECF4F5" opacity="1.000000" stroke="none" 
	d="
M109.949554,95.844070 
	C110.394745,95.917725 110.839943,95.991386 111.647438,96.379013 
	C111.973083,97.118317 111.936432,97.543648 111.899773,97.968987 
	C111.899773,97.968987 111.978905,97.983658 111.706528,98.110878 
	C111.197899,98.767838 110.961647,99.297569 110.725403,99.827309 
	C110.725403,99.827309 110.781387,99.754578 110.434608,99.862518 
	C107.953911,102.516159 105.819984,105.061852 103.686058,107.607544 
	C103.686058,107.607544 103.682800,107.673470 103.421509,107.696411 
	C102.749557,108.126366 102.338898,108.533363 101.928238,108.940369 
	C101.928246,108.940369 102.007339,108.980530 101.673157,109.004379 
	C100.804306,109.588707 100.269630,110.149185 99.734955,110.709663 
	C99.734955,110.709663 99.733559,110.779533 99.503494,110.827484 
	C99.098297,111.171234 98.923164,111.467033 98.748032,111.762840 
	C98.748032,111.762840 98.862007,111.770004 98.506340,111.730804 
	C97.661774,112.083832 97.172874,112.476051 96.683983,112.868263 
	C92.130943,114.903107 87.577911,116.937950 83.024872,118.972794 
	C82.687195,118.577599 82.349510,118.182404 82.011826,117.787209 
	C84.308693,113.783234 86.605560,109.779259 89.228142,105.220604 
	C89.792007,103.821449 90.030144,102.976974 90.268280,102.132507 
	C90.268288,102.132507 90.094475,102.052422 90.430336,101.949646 
	C91.162231,100.894753 91.558258,99.942635 91.954300,98.990524 
	C92.234840,98.505768 92.515381,98.021004 93.190826,97.082443 
	C99.040344,96.367111 104.494949,96.105591 109.949554,95.844070 
z"/>
<path fill="#ECF4F7" opacity="1.000000" stroke="none" 
	d="
M35.860641,22.991236 
	C35.860641,22.991236 36.089867,22.850433 36.434780,22.628586 
	C37.241634,21.993658 37.703579,21.580578 38.165524,21.167500 
	C38.165524,21.167500 38.067780,21.106558 38.385788,21.131542 
	C39.178131,20.815870 39.652462,20.475214 40.126793,20.134560 
	C40.126793,20.134560 40.052666,20.173233 40.414993,20.113251 
	C41.404156,19.478945 42.030994,18.904621 42.657833,18.330299 
	C42.657833,18.330299 42.788574,18.408958 43.233200,18.366970 
	C44.297085,17.950190 44.916348,17.575397 45.535610,17.200607 
	C45.871349,17.168514 46.207088,17.136421 47.095505,16.902115 
	C48.856953,16.177839 50.065720,15.655777 51.274483,15.133713 
	C51.805550,15.514563 52.336613,15.895413 52.676018,16.667866 
	C52.351704,17.367403 52.219055,17.675337 52.086407,17.983273 
	C52.086407,17.983273 51.881256,18.270350 51.571579,18.601292 
	C50.470707,20.264318 49.679504,21.596399 48.888302,22.928480 
	C48.888302,22.928480 48.955334,22.999790 48.683540,23.119068 
	C48.173706,23.798965 47.935665,24.359583 47.697624,24.920202 
	C47.421516,25.317003 47.145409,25.713802 46.572330,26.573057 
	C44.846779,29.830906 43.625610,32.764023 41.900280,35.362381 
	C41.063774,36.622158 39.313126,37.982746 37.923229,38.041508 
	C32.646404,38.264603 27.347891,37.974670 22.057486,37.876556 
	C22.057486,37.876556 22.150854,37.468533 22.398952,37.056126 
	C25.166374,33.491455 27.685696,30.339193 30.205019,27.186932 
	C30.205019,27.186932 30.006414,27.052839 30.401482,27.073877 
	C31.899321,26.142796 33.002090,25.190678 34.381737,24.173447 
	C35.059288,23.735970 35.459965,23.363604 35.860641,22.991236 
z"/>
<path fill="#E5F1F6" opacity="1.000000" stroke="none" 
	d="
M51.980423,102.978119 
	C50.896400,100.736137 49.980328,98.827461 48.807629,96.384094 
	C53.963478,96.384094 58.485325,96.384094 63.409889,96.384094 
	C63.409889,103.885902 63.409889,111.299385 63.409889,118.712868 
	C63.121624,118.969170 62.833359,119.225464 62.545094,119.481758 
	C59.079521,114.091652 55.613949,108.701538 51.980423,102.978119 
z"/>
<path fill="#E5F3F6" opacity="1.000000" stroke="none" 
	d="
M62.993958,15.007963 
	C62.993958,15.007963 63.256805,15.161477 63.468445,15.581831 
	C63.680084,23.257971 63.680084,30.513756 63.680084,37.938221 
	C58.309155,37.938221 53.671207,37.938221 49.033257,37.938221 
	C49.072582,37.574604 49.111912,37.210987 49.360062,36.354313 
	C49.960930,34.908585 50.352970,33.955914 50.745010,33.003239 
	C50.836567,32.857037 50.928127,32.710835 51.302303,32.095242 
	C51.835365,30.829744 52.085812,30.033636 52.336258,29.237530 
	C52.336258,29.237530 52.278107,29.242401 52.562786,29.082792 
	C53.011955,28.359705 53.176445,27.796228 53.340935,27.232750 
	C53.340935,27.232750 53.260300,27.317167 53.623882,27.202648 
	C55.409649,24.785965 56.831833,22.483799 58.254017,20.181635 
	C58.254017,20.181635 57.996983,20.029045 58.408241,19.981543 
	C58.993694,19.366608 59.167885,18.799175 59.342075,18.231743 
	C59.342075,18.231743 59.239197,18.174776 59.565163,18.207489 
	C60.925404,17.162790 61.959682,16.085377 62.993958,15.007963 
z"/>
<path fill="#ECF5F6" opacity="1.000000" stroke="none" 
	d="
M82.210663,30.826200 
	C83.364594,33.045658 84.310509,34.957123 86.054710,38.481728 
	C80.860321,38.599575 76.763336,38.810265 72.679352,38.662277 
	C72.043503,38.639233 70.963623,36.990601 70.943398,36.074814 
	C70.794594,29.336348 70.862991,22.593086 70.862991,15.851336 
	C71.322723,15.674536 71.782463,15.497735 72.242195,15.320935 
	C75.495682,20.386692 78.749168,25.452448 82.210663,30.826200 
z"/>
<path fill="#ECF4F7" opacity="1.000000" stroke="none" 
	d="
M82.981674,101.854401 
	C79.342751,107.735046 75.861420,113.274933 72.380089,118.814812 
	C71.882706,118.652519 71.385323,118.490227 70.887939,118.327934 
	C70.887939,111.640648 70.801506,104.950706 71.006355,98.269699 
	C71.029785,97.505493 72.643372,96.220421 73.587364,96.155075 
	C77.203140,95.904816 80.846558,96.053848 85.439667,96.053848 
	C84.470810,98.353333 83.805031,99.933487 82.981674,101.854401 
z"/>
<path fill="#47A9D7" opacity="1.000000" stroke="none" 
	d="
M22.176834,38.233616 
	C27.347891,37.974670 32.646404,38.264603 37.923229,38.041508 
	C39.313126,37.982746 41.063774,36.622158 41.900280,35.362381 
	C43.625610,32.764023 44.846779,29.830906 46.568466,26.824791 
	C45.667259,30.373861 45.196323,34.605579 43.119175,37.789394 
	C39.460815,43.396866 32.947048,41.419487 27.550808,41.799335 
	C25.882820,41.916748 24.052292,39.725101 22.176834,38.233616 
z"/>
<path fill="#47A9D7" opacity="1.000000" stroke="none" 
	d="
M49.020954,38.280266 
	C53.671207,37.938221 58.309155,37.938221 63.680084,37.938221 
	C63.680084,30.513756 63.680084,23.257971 63.614979,15.540698 
	C64.032661,16.523355 64.880501,17.954672 64.931786,19.413980 
	C65.105904,24.368408 65.330338,29.365095 64.851036,34.278873 
	C64.629509,36.549950 62.824512,38.666573 61.102283,40.648090 
	C58.361877,40.285675 56.256630,40.128395 54.151382,39.971111 
	C54.152111,40.139935 54.152836,40.308754 54.153564,40.477573 
	C55.764072,40.983330 57.374580,41.489090 58.985088,41.994846 
	C58.544216,41.996082 58.103340,41.997318 56.871101,41.997578 
	C52.389763,41.990536 48.699791,41.984470 45.009823,41.978405 
	C45.816444,41.402557 46.623062,40.826706 47.911057,40.369743 
	C49.260258,40.645836 50.128075,40.803040 50.995895,40.960239 
	C51.032211,40.733288 51.068527,40.506336 51.104839,40.279385 
	C50.404099,40.183323 49.703358,40.087261 49.002617,39.991203 
	C49.004627,39.534904 49.006641,39.078609 49.020954,38.280266 
z"/>
<path fill="#34AAE7" opacity="1.000000" stroke="none" 
	d="
M96.966881,43.041183 
	C100.944641,42.257763 104.898720,41.140392 108.911858,40.855728 
	C110.510933,40.742302 112.240585,42.469868 113.496033,43.692375 
	C107.709808,43.697334 102.338348,43.369259 96.966881,43.041183 
z"/>
<path fill="#55ABD4" opacity="1.000000" stroke="none" 
	d="
M96.610863,43.113335 
	C102.338348,43.369259 107.709808,43.697334 113.550781,44.027672 
	C114.338142,44.144287 114.595917,44.338409 114.898376,44.834457 
	C110.223389,45.118866 105.443718,45.188423 100.663864,45.239914 
	C98.646332,45.261646 96.409470,44.958988 96.828140,48.585098 
	C93.832069,47.333527 94.545677,45.307301 96.610863,43.113335 
z"/>
<path fill="#47A9D7" opacity="1.000000" stroke="none" 
	d="
M29.807167,27.126297 
	C27.685696,30.339193 25.166374,33.491455 22.390665,36.847004 
	C21.758907,36.268093 21.383537,35.485893 20.999840,34.356060 
	C20.991514,34.008423 21.000216,33.999519 21.354206,33.930450 
	C23.468885,31.577126 25.229570,29.292864 26.994574,27.004776 
	C26.998892,27.000950 27.008406,26.990976 27.008406,26.990978 
	C27.808710,27.015873 28.609013,27.040768 29.807167,27.126297 
z"/>
<path fill="#4BABD9" opacity="1.000000" stroke="none" 
	d="
M104.054604,107.701706 
	C105.819984,105.061852 107.953911,102.516159 110.389069,99.856857 
	C111.099777,100.915459 111.509254,102.087677 111.959511,103.629990 
	C112.000290,104.000092 111.988068,104.016457 111.988068,104.016449 
	C109.466423,105.276253 106.944786,106.536064 104.054604,107.701706 
z"/>
<path fill="#51AAD1" opacity="1.000000" stroke="none" 
	d="
M46.144169,45.173569 
	C45.060677,51.190472 43.918285,57.104336 42.760735,63.456413 
	C42.674629,59.924713 42.430313,55.947193 42.604088,51.988022 
	C42.694317,49.932259 43.523689,47.908943 44.347099,45.438690 
	C45.103245,44.960651 45.531456,44.914890 45.959667,44.869125 
	C45.959667,44.869125 46.085270,45.070534 46.144169,45.173569 
z"/>
<path fill="#37A9E4" opacity="1.000000" stroke="none" 
	d="
M46.051723,44.539261 
	C45.531456,44.914890 45.103245,44.960651 44.353500,45.031940 
	C44.017605,44.599056 44.003235,44.140640 43.985477,43.090881 
	C43.982086,42.499538 43.975193,42.003521 43.975193,42.003521 
	C44.147617,42.000546 44.320042,41.997570 44.751144,41.986496 
	C48.699791,41.984470 52.389763,41.990536 56.540443,41.998833 
	C55.382389,42.666836 53.815689,43.602180 52.131168,43.927570 
	C50.189671,44.302608 48.144135,44.139057 46.051723,44.539261 
z"/>
<path fill="#4BABD9" opacity="1.000000" stroke="none" 
	d="
M109.632217,95.588120 
	C104.494949,96.105591 99.040344,96.367111 93.186989,96.793625 
	C89.833084,94.773682 92.693398,95.052635 93.706017,95.054359 
	C98.909119,95.063240 104.111954,95.224274 109.632217,95.588120 
z"/>
<path fill="#47A9D7" opacity="1.000000" stroke="none" 
	d="
M57.903435,20.253845 
	C56.831833,22.483799 55.409649,24.785965 53.679497,27.184925 
	C54.765301,24.963167 56.159077,22.644611 57.903435,20.253845 
z"/>
<path fill="#39AAE5" opacity="1.000000" stroke="none" 
	d="
M59.163010,42.217133 
	C57.374580,41.489090 55.764072,40.983330 54.153564,40.477573 
	C54.152836,40.308754 54.152111,40.139935 54.151382,39.971111 
	C56.256630,40.128395 58.361877,40.285675 60.743614,40.716179 
	C60.460381,41.472736 59.900658,41.956074 59.163010,42.217133 
z"/>
<path fill="#47A9D7" opacity="1.000000" stroke="none" 
	d="
M62.948086,14.690392 
	C61.959682,16.085377 60.925404,17.162790 59.572914,18.265776 
	C60.699463,17.198267 58.459496,12.675290 62.948086,14.690392 
z"/>
<path fill="#55ABD4" opacity="1.000000" stroke="none" 
	d="
M119.814774,52.140663 
	C118.727150,50.334038 117.700119,48.104507 116.556480,45.515793 
	C117.585037,47.343662 118.730202,49.530712 119.814774,52.140663 
z"/>
<path fill="#47A9D7" opacity="1.000000" stroke="none" 
	d="
M34.104862,24.238558 
	C33.002090,25.190678 31.899321,26.142796 30.491146,27.153412 
	C31.219366,25.839550 32.252995,24.467192 33.664661,23.364403 
	C34.063419,23.835497 34.084141,24.037027 34.104862,24.238558 
z"/>
<path fill="#47A9D7" opacity="1.000000" stroke="none" 
	d="
M49.268356,22.908606 
	C49.679504,21.596399 50.470707,20.264318 51.563629,18.777536 
	C51.126369,20.044802 50.387390,21.466766 49.268356,22.908606 
z"/>
<path fill="#50AAD4" opacity="1.000000" stroke="none" 
	d="
M50.912872,15.066660 
	C50.065720,15.655777 48.856953,16.177839 47.325653,16.790539 
	C46.755871,13.557457 48.712528,14.389716 50.912872,15.066660 
z"/>
<path fill="#47A9D7" opacity="1.000000" stroke="none" 
	d="
M43.640320,42.009830 
	C43.975193,42.003521 43.982086,42.499538 43.978638,42.747536 
	C43.167042,43.452801 42.358894,43.910069 41.550747,44.367336 
	C41.358650,44.085499 41.166553,43.803665 40.974453,43.521828 
	C41.751453,43.019932 42.528450,42.518036 43.640320,42.009830 
z"/>
<path fill="#4BABD9" opacity="1.000000" stroke="none" 
	d="
M91.607468,99.060265 
	C91.558258,99.942635 91.162231,100.894753 90.501892,102.013168 
	C90.578606,101.162994 90.919624,100.146500 91.607468,99.060265 
z"/>
<path fill="#55ABD4" opacity="1.000000" stroke="none" 
	d="
M120.903671,57.953506 
	C120.453354,56.842430 120.051254,55.296391 119.652016,53.342300 
	C120.087219,54.462349 120.519547,55.990448 120.903671,57.953506 
z"/>
<path fill="#47A9D7" opacity="1.000000" stroke="none" 
	d="
M20.581116,40.045319 
	C20.200712,40.276794 19.822674,40.274712 19.446762,40.245358 
	C19.436312,40.244545 19.448673,39.951542 19.450397,39.794788 
	C19.828190,39.799187 20.205982,39.803581 20.581116,40.045319 
z"/>
<path fill="#4BABD9" opacity="1.000000" stroke="none" 
	d="
M100.080170,110.762238 
	C100.269630,110.149185 100.804306,109.588707 101.641006,108.973557 
	C101.437157,109.550858 100.931274,110.182831 100.080170,110.762238 
z"/>
<path fill="#47A9D7" opacity="1.000000" stroke="none" 
	d="
M25.006760,24.993771 
	C25.645750,25.444204 26.276922,25.902187 26.958248,26.675573 
	C27.008406,26.990976 26.998892,27.000950 26.679199,26.954849 
	C25.901592,26.277620 25.443682,25.646490 24.985769,25.015362 
	C24.985769,25.015362 24.998940,25.001322 25.006760,24.993771 
z"/>
<path fill="#50AAD4" opacity="1.000000" stroke="none" 
	d="
M42.272362,18.271755 
	C42.030994,18.904621 41.404156,19.478945 40.456818,20.113953 
	C40.719837,19.520830 41.303364,18.867020 42.272362,18.271755 
z"/>
<path fill="#39AAE5" opacity="1.000000" stroke="none" 
	d="
M48.748520,39.994717 
	C49.703358,40.087261 50.404099,40.183323 51.104839,40.279385 
	C51.068527,40.506336 51.032211,40.733288 50.995895,40.960239 
	C50.128075,40.803040 49.260258,40.645836 48.189331,40.246536 
	C48.155621,40.002369 48.325024,40.000301 48.748520,39.994717 
z"/>
<path fill="#47A9D7" opacity="1.000000" stroke="none" 
	d="
M52.044952,29.280972 
	C52.085812,30.033636 51.835365,30.829744 51.341873,31.839527 
	C51.317097,31.143608 51.535370,30.234011 52.044952,29.280972 
z"/>
<path fill="#47A9D7" opacity="1.000000" stroke="none" 
	d="
M50.413040,33.091652 
	C50.352970,33.955914 49.960930,34.908585 49.340622,36.080627 
	C49.435261,35.260025 49.758163,34.220047 50.413040,33.091652 
z"/>
<path fill="#4BABD9" opacity="1.000000" stroke="none" 
	d="
M112.139786,97.838074 
	C111.936432,97.543648 111.973083,97.118317 111.986298,96.373558 
	C112.276344,96.089935 112.589844,96.125725 112.903336,96.161522 
	C112.728828,96.676735 112.554314,97.191940 112.139786,97.838074 
z"/>
<path fill="#4BABD9" opacity="1.000000" stroke="none" 
	d="
M89.948288,102.279320 
	C90.030144,102.976974 89.792007,103.821449 89.294899,104.877281 
	C89.233391,104.201141 89.430840,103.313637 89.948288,102.279320 
z"/>
<path fill="#50AAD4" opacity="1.000000" stroke="none" 
	d="
M37.810539,21.158005 
	C37.703579,21.580578 37.241634,21.993658 36.471275,22.499123 
	C36.593750,22.110510 37.024651,21.629511 37.810539,21.158005 
z"/>
<path fill="#47A9D7" opacity="1.000000" stroke="none" 
	d="
M47.999355,24.796547 
	C47.935665,24.359583 48.173706,23.798965 48.670452,23.071915 
	C48.719803,23.494621 48.510445,24.083757 47.999355,24.796547 
z"/>
<path fill="#4BABD9" opacity="1.000000" stroke="none" 
	d="
M97.028206,112.879234 
	C97.172874,112.476051 97.661774,112.083832 98.471756,111.685379 
	C98.319359,112.082825 97.845894,112.486511 97.028206,112.879234 
z"/>
<path fill="#4BABD9" opacity="1.000000" stroke="none" 
	d="
M102.245636,108.931305 
	C102.338898,108.533363 102.749557,108.126366 103.454506,107.697273 
	C103.353539,108.090874 102.958282,108.506569 102.245636,108.931305 
z"/>
<path fill="#69B3D9" opacity="1.000000" stroke="none" 
	d="
M108.187126,38.567612 
	C108.457092,38.341743 108.897148,38.269276 109.662506,38.290565 
	C109.444275,38.496552 108.900749,38.608780 108.187126,38.567612 
z"/>
<path fill="#50AAD4" opacity="1.000000" stroke="none" 
	d="
M39.806175,20.115849 
	C39.652462,20.475214 39.178131,20.815870 38.403412,21.186375 
	C38.563873,20.843193 39.024715,20.470167 39.806175,20.115849 
z"/>
<path fill="#4BABD9" opacity="1.000000" stroke="none" 
	d="
M111.026794,99.727783 
	C110.961647,99.297569 111.197899,98.767838 111.684860,98.076965 
	C111.733116,98.486633 111.530647,99.057449 111.026794,99.727783 
z"/>
<path fill="#47A9D7" opacity="1.000000" stroke="none" 
	d="
M53.021389,27.314171 
	C53.176445,27.796228 53.011955,28.359705 52.574947,29.056271 
	C52.435570,28.591436 52.568707,27.993513 53.021389,27.314171 
z"/>
<path fill="#50AAD4" opacity="1.000000" stroke="none" 
	d="
M34.381737,24.173447 
	C34.084141,24.037027 34.063419,23.835497 34.030502,23.330650 
	C34.428131,23.014254 34.837967,23.001175 35.554222,22.989666 
	C35.459965,23.363604 35.059288,23.735970 34.381737,24.173447 
z"/>
<path fill="#47A9D7" opacity="1.000000" stroke="none" 
	d="
M59.021442,18.311928 
	C59.167885,18.799175 58.993694,19.366608 58.536015,20.061672 
	C58.401955,19.590240 58.551384,18.991177 59.021442,18.311928 
z"/>
<path fill="#47A9D7" opacity="1.000000" stroke="none" 
	d="
M49.737694,28.988880 
	C49.582615,29.090334 49.426414,29.040087 49.270210,28.989841 
	C49.425663,28.938955 49.581120,28.888069 49.737694,28.988880 
z"/>
<path fill="#50AAD4" opacity="1.000000" stroke="none" 
	d="
M45.145016,17.170328 
	C44.916348,17.575397 44.297085,17.950190 43.304665,18.340271 
	C43.539146,17.950392 44.146782,17.545221 45.145016,17.170328 
z"/>
<path fill="#47A9D7" opacity="1.000000" stroke="none" 
	d="
M52.297112,17.844673 
	C52.219055,17.675337 52.351704,17.367403 52.714287,16.935181 
	C52.798756,17.109287 52.653286,17.407682 52.297112,17.844673 
z"/>
<path fill="#69B3D9" opacity="1.000000" stroke="none" 
	d="
M112.196945,37.920525 
	C112.021027,37.983124 112.015266,37.502750 112.057327,37.266731 
	C112.257774,37.203018 112.433327,37.363983 112.560822,37.556732 
	C112.587952,37.597740 112.440094,37.754494 112.196945,37.920525 
z"/>
<path fill="#4BABD9" opacity="1.000000" stroke="none" 
	d="
M112.994415,105.004105 
	C112.682388,104.886703 112.428230,104.695557 112.107254,104.225616 
	C111.988068,104.016457 112.000290,104.000092 112.008644,103.993828 
	C112.321877,104.112663 112.574257,104.306206 112.891052,104.778664 
	C113.007957,104.989136 112.999886,105.000000 112.994415,105.004105 
z"/>
<path fill="#4BABD9" opacity="1.000000" stroke="none" 
	d="
M99.019539,111.720352 
	C98.923164,111.467033 99.098297,111.171234 99.536858,110.817108 
	C99.630539,111.065147 99.460793,111.371506 99.019539,111.720352 
z"/>
<path fill="#41A9DC" opacity="1.000000" stroke="none" 
	d="
M24.752529,25.019474 
	C25.443682,25.646490 25.901592,26.277620 26.674881,26.958675 
	C25.229570,29.292864 23.468885,31.577126 21.356733,33.926285 
	C20.680674,32.569031 20.356079,31.146875 20.063602,29.410137 
	C21.397596,27.992813 22.699471,26.890072 24.027519,25.420403 
	C24.053692,25.053473 24.519287,25.023586 24.752529,25.019474 
z"/>
</svg>