<svg version="1.1" id="Layer_1" xmlns="http://www.w3.org/2000/svg" xmlns:xlink="http://www.w3.org/1999/xlink" x="0px" y="0px"
	 width="100%" viewBox="0 0 124 129" enable-background="new 0 0 124 129" xml:space="preserve">
<path fill="#F4F5F6" opacity="1.000000" stroke="none" 
	d="
M1.000000,60.000000 
	C1.000000,40.000000 1.000000,20.500000 1.000000,1.000000 
	C42.333332,1.000000 83.666664,1.000000 125.000000,1.000000 
	C125.000000,44.000000 125.000000,87.000000 125.000000,130.000000 
	C83.666664,130.000000 42.333332,130.000000 1.000000,130.000000 
	C1.000000,106.833336 1.000000,83.666664 1.000000,60.000000 
M22.505758,23.817133 
	C21.071621,25.539141 19.637482,27.261148 17.869791,29.153322 
	C17.869791,29.153322 17.809774,29.522934 17.230856,29.804218 
	C16.648859,30.693733 16.066860,31.583246 15.500125,32.558636 
	C15.500125,32.558636 15.416777,32.584358 14.909882,33.007355 
	C12.265783,39.344337 9.621684,45.681320 7.030906,52.811665 
	C6.681838,54.888203 6.332769,56.964737 5.958902,59.465160 
	C5.958902,59.465160 5.960010,59.889771 5.809920,60.815681 
	C5.813149,64.543854 5.816380,68.272026 5.547138,72.200569 
	C5.648252,72.466591 5.749365,72.732613 6.046123,73.582436 
	C6.167051,74.140038 6.287979,74.697647 6.255540,75.880936 
	C6.442525,76.252815 6.629509,76.624687 7.064425,77.560822 
	C7.310233,78.060532 7.556042,78.560249 7.293436,79.437622 
	C5.168762,83.434479 9.134842,84.691109 10.935515,87.685364 
	C11.581525,88.807663 12.227534,89.929962 12.946733,91.760948 
	C12.977908,92.472435 13.009083,93.183914 13.218356,94.371971 
	C13.479633,94.581085 13.740911,94.790192 14.520319,95.425964 
	C19.506819,102.513435 24.880835,109.196808 33.270000,113.686142 
	C41.215355,118.397820 49.737331,121.291649 59.904835,121.982529 
	C69.454277,122.362396 78.573853,120.745270 87.780960,116.039566 
	C90.229813,114.403130 92.678665,112.766701 95.850990,111.127243 
	C104.043877,106.681175 109.353470,99.616737 114.043617,91.070526 
	C114.683556,89.378395 115.323486,87.686264 116.322647,85.314568 
	C117.222862,81.573181 118.123077,77.831787 119.755875,73.663208 
	C119.471771,66.446892 119.187668,59.230572 118.971046,51.238529 
	C116.308701,40.255039 111.471008,30.603096 101.837845,23.098164 
	C99.569016,21.389650 97.300179,19.681135 94.799423,17.315722 
	C88.741936,11.374815 80.836395,9.810437 72.071884,7.877207 
	C67.643898,7.920811 63.211750,7.863628 58.789474,8.045852 
	C56.140278,8.155014 53.506500,8.638492 50.226471,8.913717 
	C49.818680,8.961586 49.410889,9.009454 48.501392,8.998145 
	C48.344650,9.059511 48.187912,9.120876 47.285629,9.154509 
	C43.062714,11.054070 38.839794,12.953631 34.093464,14.879903 
	C33.706955,15.185226 33.320442,15.490550 32.259041,15.958212 
	C29.174648,18.470541 26.090256,20.982868 22.505758,23.817133 
M11.484286,95.579987 
	C11.484286,95.579987 11.424419,95.475662 11.484286,95.579987 
z"/>
<path fill="#041C46" opacity="1.000000" stroke="none" 
	d="
M119.023300,74.090393 
	C118.123077,77.831787 117.222862,81.573181 115.808701,85.705406 
	C114.519310,87.395630 113.743874,88.695023 112.575317,89.986984 
	C107.908226,87.960648 105.775558,89.767555 104.850372,93.699661 
	C104.381538,93.017044 104.104675,92.586624 103.736237,92.259293 
	C101.898613,90.626671 100.222794,88.929375 102.371353,86.426537 
	C104.248276,84.240135 106.217644,83.432762 108.638382,85.943001 
	C109.220634,86.546799 111.181183,86.792992 111.633820,86.336670 
	C112.437355,85.526573 112.945671,84.043358 112.914429,82.859253 
	C112.832001,79.735390 112.008186,76.599983 112.175919,73.506935 
	C112.554855,66.519119 113.392006,59.557049 113.934891,52.576111 
	C114.005615,51.666687 113.681946,50.523018 113.129913,49.802975 
	C110.317810,46.134956 107.549339,42.406235 104.427521,39.009476 
	C100.030258,34.224937 95.328796,29.720442 90.771988,25.081882 
	C88.592842,22.863640 85.668457,20.965187 84.460129,18.297495 
	C82.398628,13.746166 80.094048,14.292903 76.191177,15.698564 
	C72.626770,16.982323 68.516846,16.751432 64.647339,17.188068 
	C64.573700,16.558126 64.500053,15.928187 64.426407,15.298246 
	C66.483948,14.628016 68.541489,13.957786 70.797722,13.222831 
	C69.736359,11.628444 68.866936,10.322392 68.414459,9.013068 
	C70.221390,9.020617 71.611374,9.031435 73.091438,9.414855 
	C74.346222,10.191402 75.537003,10.533378 76.670914,11.010482 
	C80.671875,12.693913 84.620491,14.506788 88.655899,16.101143 
	C90.707298,16.911633 92.901634,17.360359 95.031349,17.972622 
	C97.300179,19.681135 99.569016,21.389650 101.978294,23.782322 
	C105.370735,29.610933 108.764915,34.672512 111.827736,39.927227 
	C114.096344,43.819347 115.934036,47.962635 117.970184,52.439762 
	C118.325554,59.953793 118.674423,67.022095 119.023300,74.090393 
z"/>
<path fill="#051C45" opacity="1.000000" stroke="none" 
	d="
M6.408906,75.255249 
	C6.287979,74.697647 6.167051,74.140038 6.010302,73.038773 
	C5.922856,72.330132 5.871233,72.165161 5.819609,72.000198 
	C5.816380,68.272026 5.813149,64.543854 6.136530,60.340874 
	C6.303327,59.591133 6.143513,59.316204 5.983700,59.041275 
	C6.332769,56.964737 6.681838,54.888203 7.337715,52.360016 
	C10.155401,46.577183 12.719217,41.269707 15.127769,35.892685 
	C15.555288,34.938255 15.336905,33.694508 15.416777,32.584358 
	C15.416777,32.584358 15.500125,32.558636 15.868616,32.551495 
	C16.761330,31.537212 17.285551,30.530073 17.809772,29.522934 
	C17.809774,29.522934 17.869791,29.153322 18.377819,29.065414 
	C20.592688,28.655594 22.299524,28.333681 24.152317,28.345125 
	C23.863281,31.122587 22.846304,33.628838 23.099445,35.999462 
	C23.951841,43.981972 15.546059,48.834568 16.359432,56.738144 
	C16.405470,57.185471 15.066765,57.680325 14.551224,58.301376 
	C13.643435,59.394958 12.873728,60.603157 11.712366,62.231411 
	C16.778627,63.402657 18.767271,66.757339 16.452881,70.385284 
	C12.374453,76.778458 14.321488,82.767067 16.149998,89.337799 
	C16.530445,91.117134 16.763618,92.558418 16.700953,93.845718 
	C15.227924,92.811913 14.050735,91.932083 12.873545,91.052261 
	C12.227534,89.929962 11.581525,88.807663 10.908194,86.981689 
	C9.854532,83.871994 8.828192,81.465981 7.801851,79.059959 
	C7.556042,78.560249 7.310233,78.060532 6.988546,76.968369 
	C6.744748,76.002357 6.576828,75.628799 6.408906,75.255249 
z"/>
<path fill="#041C46" opacity="1.000000" stroke="none" 
	d="
M32.933933,15.795874 
	C33.320442,15.490550 33.706955,15.185226 34.762699,14.905653 
	C41.088074,16.419279 44.546490,11.830739 49.015732,9.779686 
	C49.021690,9.538827 49.003098,9.057323 49.003098,9.057323 
	C49.410889,9.009454 49.818680,8.961586 51.020512,8.950298 
	C56.543781,8.996157 61.273006,9.005434 65.937859,9.369822 
	C63.451893,10.816571 61.077160,12.036707 58.588440,12.944258 
	C57.389904,13.381322 55.806152,12.872522 54.689930,13.405666 
	C49.910946,15.688259 45.387325,18.570259 40.482834,20.503780 
	C36.886055,21.921759 32.841846,22.204824 29.023121,22.732113 
	C30.344105,20.245642 31.639019,18.020758 32.933933,15.795874 
z"/>
<path fill="#101F3E" opacity="1.000000" stroke="none" 
	d="
M117.963692,51.994034 
	C115.934036,47.962635 114.096344,43.819347 111.827736,39.927227 
	C108.764915,34.672512 105.370735,29.610933 102.120468,24.089458 
	C111.471008,30.603096 116.308701,40.255039 118.702332,51.621216 
	C118.433624,52.003899 117.963692,51.994034 117.963692,51.994034 
z"/>
<path fill="#0D1A36" opacity="1.000000" stroke="none" 
	d="
M113.597740,91.584869 
	C109.353470,99.616737 104.043877,106.681175 95.432404,111.071182 
	C95.013817,111.015114 94.899803,110.900246 94.933899,110.540024 
	C94.980087,109.454193 94.992180,108.728592 95.283218,107.868576 
	C96.375092,106.820122 97.188019,105.906090 98.324905,104.944435 
	C99.431168,103.934608 100.213478,102.972404 101.215515,102.263351 
	C102.292580,101.679398 103.149910,100.842293 104.347717,99.945358 
	C105.125656,98.923859 105.563133,97.962181 106.320145,96.956589 
	C107.423126,95.940788 108.206573,94.968895 108.993744,93.665009 
	C108.997795,92.890388 108.998131,92.447746 109.348167,92.001114 
	C110.793396,91.660950 111.888931,91.324799 113.135056,91.140518 
	C113.285637,91.292389 113.597740,91.584869 113.597740,91.584869 
z"/>
<path fill="#0B1633" opacity="1.000000" stroke="none" 
	d="
M12.910140,91.406601 
	C14.050735,91.932083 15.227924,92.811913 16.736099,94.176453 
	C18.709173,95.774719 20.351265,96.888275 22.016190,98.299118 
	C22.357836,99.068062 22.676647,99.539734 22.904308,100.256447 
	C23.203362,101.006378 23.593567,101.511253 24.024738,102.349373 
	C25.374126,103.792137 26.682552,104.901657 28.137325,106.296631 
	C29.189157,107.054115 30.094645,107.526146 31.249409,107.998978 
	C31.498688,107.999794 31.997236,108.003052 32.036831,108.360748 
	C32.413502,110.103973 32.750580,111.489494 33.040794,112.921204 
	C32.993927,112.967384 32.935188,113.085144 32.935188,113.085144 
	C24.880835,109.196808 19.506819,102.513435 14.233971,94.941330 
	C13.645167,94.269600 13.342712,94.082497 13.040257,93.895401 
	C13.009083,93.183914 12.977908,92.472435 12.910140,91.406601 
z"/>
<path fill="#06173C" opacity="1.000000" stroke="none" 
	d="
M87.050056,116.139313 
	C78.573853,120.745270 69.454277,122.362396 59.451084,121.560738 
	C58.995174,120.429947 58.993015,119.720947 59.394630,119.017090 
	C68.047058,120.626175 75.568405,118.053436 83.261650,114.806778 
	C84.346413,114.087318 85.172356,113.542587 86.250916,113.000801 
	C86.671921,113.006653 86.840309,113.009575 87.007431,113.403412 
	C87.020798,114.575981 87.035423,115.357643 87.050056,116.139313 
z"/>
<path fill="#101C38" opacity="1.000000" stroke="none" 
	d="
M58.990860,119.011948 
	C58.993015,119.720947 58.995174,120.429947 58.999054,121.493446 
	C49.737331,121.291649 41.215355,118.397820 33.102592,113.385643 
	C32.935188,113.085144 32.993927,112.967384 33.451931,112.960640 
	C36.273396,113.301682 38.636856,113.649467 41.000160,113.998627 
	C41.000000,114.000000 41.002674,113.999695 41.171898,114.316971 
	C45.894409,116.088783 50.447697,117.543327 55.400124,118.998734 
	C56.863132,119.003723 57.926994,119.007835 58.990860,119.011948 
z"/>
<path fill="#121D3A" opacity="1.000000" stroke="none" 
	d="
M94.915390,17.644173 
	C92.901634,17.360359 90.707298,16.911633 88.655899,16.101143 
	C84.620491,14.506788 80.671875,12.693913 76.670914,11.010482 
	C75.537003,10.533378 74.346222,10.191402 73.092308,9.180571 
	C73.003090,8.573685 72.989868,8.106296 72.989868,8.106296 
	C80.836395,9.810437 88.741936,11.374815 94.915390,17.644173 
z"/>
<path fill="#15203B" opacity="1.000000" stroke="none" 
	d="
M15.163330,32.795856 
	C15.336905,33.694508 15.555288,34.938255 15.127769,35.892685 
	C12.719217,41.269707 10.155401,46.577183 7.311054,51.963341 
	C9.621684,45.681320 12.265783,39.344337 15.163330,32.795856 
z"/>
<path fill="#0B1636" opacity="1.000000" stroke="none" 
	d="
M49.009777,10.020544 
	C44.546490,11.830739 41.088074,16.419279 35.024406,14.892299 
	C38.839794,12.953631 43.062714,11.054070 47.776989,9.354650 
	C48.472404,9.778624 48.719547,9.933875 49.009777,10.020544 
z"/>
<path fill="#0B1636" opacity="1.000000" stroke="none" 
	d="
M32.596489,15.877043 
	C31.639019,18.020758 30.344105,20.245642 28.704792,22.760788 
	C27.573170,23.366932 26.785942,23.682812 25.671391,23.999077 
	C24.908278,24.011547 24.472490,24.023630 23.787830,23.883728 
	C23.361258,23.652897 23.183561,23.574047 23.005863,23.495197 
	C26.090256,20.982868 29.174648,18.470541 32.596489,15.877043 
z"/>
<path fill="#05092A" opacity="1.000000" stroke="none" 
	d="
M117.970184,52.439762 
	C117.963692,51.994034 118.433624,52.003899 118.668594,52.009079 
	C119.187668,59.230572 119.471771,66.446892 119.389587,73.876801 
	C118.674423,67.022095 118.325554,59.953793 117.970184,52.439762 
z"/>
<path fill="#020D27" opacity="1.000000" stroke="none" 
	d="
M72.530876,7.991751 
	C72.989868,8.106296 73.003090,8.573685 73.002220,8.807969 
	C71.611374,9.031435 70.221390,9.020617 68.081947,9.006813 
	C66.889069,9.007456 66.445648,9.011084 66.002235,9.014711 
	C61.273006,9.005434 56.543781,8.996157 51.340172,8.970303 
	C53.506500,8.638492 56.140278,8.155014 58.789474,8.045852 
	C63.211750,7.863628 67.643898,7.920811 72.530876,7.991751 
z"/>
<path fill="#E2E7EF" opacity="1.000000" stroke="none" 
	d="
M7.547644,79.248795 
	C8.828192,81.465981 9.854532,83.871994 10.793892,86.651413 
	C9.134842,84.691109 5.168762,83.434479 7.547644,79.248795 
z"/>
<path fill="#0D1A36" opacity="1.000000" stroke="none" 
	d="
M87.415512,116.089439 
	C87.035423,115.357643 87.020798,114.575981 87.343170,113.397766 
	C88.454666,112.668945 89.229149,112.336670 90.362778,111.963760 
	C92.114555,111.582161 93.507179,111.241203 94.899803,110.900246 
	C94.899803,110.900246 95.013817,111.015114 95.070671,111.072693 
	C92.678665,112.766701 90.229813,114.403130 87.415512,116.089439 
z"/>
<path fill="#0B1636" opacity="1.000000" stroke="none" 
	d="
M24.006363,28.011768 
	C22.299524,28.333681 20.592688,28.655594 18.544598,28.980331 
	C19.637482,27.261148 21.071621,25.539141 22.755810,23.656166 
	C23.183561,23.574047 23.361258,23.652897 23.799894,24.174507 
	C24.369835,25.079645 24.678835,25.542025 24.967422,26.300400 
	C24.633463,27.068188 24.319912,27.539978 24.006363,28.011768 
z"/>
<path fill="#0D1A36" opacity="1.000000" stroke="none" 
	d="
M112.968430,89.994415 
	C113.743874,88.695023 114.519310,87.395630 115.629089,86.045189 
	C115.323486,87.686264 114.683556,89.378395 113.820679,91.327698 
	C113.597740,91.584869 113.285637,91.292389 113.134865,90.891953 
	C112.984093,90.491524 112.968422,89.994408 112.968430,89.994415 
z"/>
<path fill="#15203B" opacity="1.000000" stroke="none" 
	d="
M17.520313,29.663576 
	C17.285551,30.530073 16.761330,31.537212 15.860985,32.508556 
	C16.066860,31.583246 16.648859,30.693733 17.520313,29.663576 
z"/>
<path fill="#E2E7EF" opacity="1.000000" stroke="none" 
	d="
M6.332224,75.568092 
	C6.576828,75.628799 6.744748,76.002357 6.864581,76.686234 
	C6.629509,76.624687 6.442525,76.252815 6.332224,75.568092 
z"/>
<path fill="#E2E7EF" opacity="1.000000" stroke="none" 
	d="
M11.454353,95.527824 
	C11.424419,95.475662 11.484286,95.579987 11.454353,95.527824 
z"/>
<path fill="#E2E7EF" opacity="1.000000" stroke="none" 
	d="
M5.683373,72.100388 
	C5.871233,72.165161 5.922856,72.330132 5.912479,72.746872 
	C5.749365,72.732613 5.648252,72.466591 5.683373,72.100388 
z"/>
<path fill="#E2E7EF" opacity="1.000000" stroke="none" 
	d="
M13.129307,94.133682 
	C13.342712,94.082497 13.645167,94.269600 13.974905,94.727997 
	C13.740911,94.790192 13.479633,94.581085 13.129307,94.133682 
z"/>
<path fill="#E2E7EF" opacity="1.000000" stroke="none" 
	d="
M5.971301,59.253220 
	C6.143513,59.316204 6.303327,59.591133 6.211575,59.877914 
	C5.960010,59.889771 5.958902,59.465160 5.971301,59.253220 
z"/>
<path fill="#020D27" opacity="1.000000" stroke="none" 
	d="
M49.015732,9.779686 
	C48.719547,9.933875 48.472404,9.778624 48.149757,9.368517 
	C48.187912,9.120876 48.344650,9.059511 48.752243,9.027734 
	C49.003098,9.057323 49.021690,9.538827 49.015732,9.779686 
z"/>
<path fill="#011F4B" opacity="1.000000" stroke="none" 
	d="
M24.152317,28.345125 
	C24.319912,27.539978 24.633463,27.068188 25.210211,26.128777 
	C25.648512,25.106998 25.823614,24.552845 25.998716,23.998692 
	C26.785942,23.682812 27.573170,23.366932 28.678722,23.022377 
	C32.841846,22.204824 36.886055,21.921759 40.482834,20.503780 
	C45.387325,18.570259 49.910946,15.688259 54.689930,13.405666 
	C55.806152,12.872522 57.389904,13.381322 58.588440,12.944258 
	C61.077160,12.036707 63.451893,10.816571 65.937859,9.369823 
	C66.445648,9.011084 66.889069,9.007456 67.664993,9.010083 
	C68.866936,10.322392 69.736359,11.628444 70.797722,13.222831 
	C68.541489,13.957786 66.483948,14.628016 64.426407,15.298246 
	C64.500053,15.928187 64.573700,16.558126 64.647339,17.188068 
	C68.516846,16.751432 72.626770,16.982323 76.191177,15.698564 
	C80.094048,14.292903 82.398628,13.746166 84.460129,18.297495 
	C85.668457,20.965187 88.592842,22.863640 90.771988,25.081882 
	C95.328796,29.720442 100.030258,34.224937 104.427521,39.009476 
	C107.549339,42.406235 110.317810,46.134956 113.129913,49.802975 
	C113.681946,50.523018 114.005615,51.666687 113.934891,52.576111 
	C113.392006,59.557049 112.554855,66.519119 112.175919,73.506935 
	C112.008186,76.599983 112.832001,79.735390 112.914429,82.859253 
	C112.945671,84.043358 112.437355,85.526573 111.633820,86.336670 
	C111.181183,86.792992 109.220634,86.546799 108.638382,85.943001 
	C106.217644,83.432762 104.248276,84.240135 102.371353,86.426537 
	C100.222794,88.929375 101.898613,90.626671 103.736237,92.259293 
	C104.104675,92.586624 104.381538,93.017044 104.852325,94.036835 
	C105.336220,95.449318 105.668419,96.224907 106.000610,97.000496 
	C105.563133,97.962181 105.125656,98.923859 104.025902,99.972351 
	C102.574348,100.709518 101.785072,101.359863 100.995789,102.010208 
	C100.213478,102.972404 99.431168,103.934608 98.070076,104.675308 
	C94.993645,105.301819 92.495995,106.149834 89.890808,107.256561 
	C89.522659,108.010010 89.262047,108.504738 88.665802,109.051933 
	C87.552864,110.402222 86.775581,111.700043 85.998291,112.997864 
	C85.172356,113.542587 84.346413,114.087318 83.198380,114.456497 
	C80.258034,113.248901 77.133865,110.747688 75.110909,111.444328 
	C67.209946,114.165115 59.840130,111.937202 52.449833,110.162361 
	C45.972343,108.606712 39.673939,106.288811 33.331486,104.201111 
	C32.021446,103.769897 30.569422,103.130486 29.692604,102.137093 
	C26.471460,98.487679 23.586109,94.537994 20.303324,90.949265 
	C19.326620,89.881538 17.461029,89.626930 16.002724,88.999748 
	C14.321488,82.767067 12.374453,76.778458 16.452881,70.385284 
	C18.767271,66.757339 16.778627,63.402657 11.712366,62.231411 
	C12.873728,60.603157 13.643435,59.394958 14.551224,58.301376 
	C15.066765,57.680325 16.405470,57.185471 16.359432,56.738144 
	C15.546059,48.834568 23.951841,43.981972 23.099445,35.999462 
	C22.846304,33.628838 23.863281,31.122587 24.152317,28.345125 
M87.351074,96.991699 
	C88.474815,96.186432 89.802330,95.557999 90.683716,94.542404 
	C93.230568,91.607773 95.639526,88.549614 98.022194,85.477577 
	C99.892136,83.066605 102.569824,80.794464 103.254753,78.052505 
	C104.727928,72.154984 105.801971,65.992073 105.781166,59.942116 
	C105.765900,55.502598 104.878052,50.242146 102.368896,46.822559 
	C98.305870,41.285286 92.636742,37.119026 88.208618,31.499693 
	C82.144081,23.803745 73.110512,18.677162 62.159668,23.748484 
	C61.588600,24.012947 60.841194,23.867323 60.195011,24.003433 
	C53.830040,25.344122 46.836086,23.870392 41.143936,28.330278 
	C40.445206,28.877747 39.256245,28.907797 38.280479,28.975243 
	C33.260471,29.322227 31.278275,32.735275 30.019772,36.962124 
	C29.421455,38.971649 28.965462,41.082310 27.997782,42.910427 
	C26.186043,46.333122 22.347992,49.589699 22.360298,52.904213 
	C22.399750,63.530331 20.065403,74.299080 24.610538,84.848366 
	C27.320641,91.138542 31.419321,96.829872 36.731342,99.251686 
	C46.798470,103.841415 57.803299,108.012299 69.211853,105.701271 
	C74.028290,104.725609 81.374405,106.575012 83.167328,98.576660 
	C83.333122,97.837059 85.383644,97.519943 87.351074,96.991699 
z"/>
<path fill="#021B44" opacity="1.000000" stroke="none" 
	d="
M106.320145,96.956589 
	C105.668419,96.224907 105.336220,95.449318 105.002075,94.336563 
	C105.775558,89.767555 107.908226,87.960648 112.575317,89.986977 
	C112.968422,89.994408 112.984093,90.491524 112.984283,90.740082 
	C111.888931,91.324799 110.793396,91.660950 109.054291,92.040756 
	C108.096680,92.486740 107.782631,92.889076 107.468582,93.291405 
	C107.975731,93.526596 108.482872,93.761795 108.990021,93.996994 
	C108.206573,94.968895 107.423126,95.940788 106.320145,96.956589 
z"/>
<path fill="#021D48" opacity="1.000000" stroke="none" 
	d="
M16.149998,89.337799 
	C17.461029,89.626930 19.326620,89.881538 20.303324,90.949265 
	C23.586109,94.537994 26.471460,98.487679 29.692604,102.137093 
	C30.569422,103.130486 32.021446,103.769897 33.331486,104.201111 
	C39.673939,106.288811 45.972343,108.606712 52.449833,110.162361 
	C59.840130,111.937202 67.209946,114.165115 75.110909,111.444328 
	C77.133865,110.747688 80.258034,113.248901 82.939552,114.631226 
	C75.568405,118.053436 68.047058,120.626175 59.394630,119.017090 
	C57.926994,119.007835 56.863132,119.003723 55.348404,118.625229 
	C50.814201,115.041725 46.185638,113.614670 41.002674,113.999695 
	C41.002674,113.999695 41.000000,114.000000 40.994434,113.622772 
	C39.937294,108.161011 36.034832,107.966148 31.997236,108.003052 
	C31.997236,108.003052 31.498688,107.999794 31.191433,107.656853 
	C29.919777,106.879669 28.955378,106.445427 27.990978,106.011185 
	C26.682552,104.901657 25.374126,103.792137 24.030567,101.982468 
	C23.663544,100.188210 23.331657,99.094109 22.748167,98.000259 
	C22.328827,98.000969 22.161091,98.001404 21.993355,98.001831 
	C20.351265,96.888275 18.709173,95.774719 17.031937,94.330429 
	C16.763618,92.558418 16.530445,91.117134 16.149998,89.337799 
z"/>
<path fill="#021B44" opacity="1.000000" stroke="none" 
	d="
M89.998344,106.997864 
	C92.495995,106.149834 94.993645,105.301819 97.746124,104.722931 
	C97.188019,105.906090 96.375092,106.820122 94.944832,107.720001 
	C92.884445,107.469849 91.441399,107.233856 89.998344,106.997864 
z"/>
<path fill="#06173C" opacity="1.000000" stroke="none" 
	d="
M89.890808,107.256569 
	C91.441399,107.233856 92.884445,107.469849 94.665886,107.854416 
	C94.992180,108.728592 94.980087,109.454193 94.933899,110.540024 
	C93.507179,111.241203 92.114555,111.582161 90.358795,111.626312 
	C89.664246,110.552834 89.332840,109.776154 89.001442,108.999474 
	C89.262047,108.504738 89.522659,108.010010 89.890808,107.256569 
M91.484619,109.576591 
	C91.484619,109.576591 91.428207,109.477654 91.484619,109.576591 
z"/>
<path fill="#021B44" opacity="1.000000" stroke="none" 
	d="
M101.215515,102.263351 
	C101.785072,101.359863 102.574348,100.709518 103.685440,100.032181 
	C103.149910,100.842293 102.292580,101.679398 101.215515,102.263351 
z"/>
<path fill="#041C46" opacity="1.000000" stroke="none" 
	d="
M108.993736,93.665009 
	C108.482872,93.761795 107.975731,93.526596 107.468582,93.291405 
	C107.782631,92.889076 108.096680,92.486740 108.704605,92.044762 
	C108.998131,92.447746 108.997795,92.890388 108.993736,93.665009 
z"/>
<path fill="#051C43" opacity="1.000000" stroke="none" 
	d="
M32.036831,108.360748 
	C36.034832,107.966148 39.937294,108.161011 40.994591,113.621399 
	C38.636856,113.649467 36.273396,113.301682 33.498795,112.914459 
	C32.750580,111.489494 32.413502,110.103973 32.036831,108.360748 
z"/>
<path fill="#051C43" opacity="1.000000" stroke="none" 
	d="
M28.137325,106.296638 
	C28.955378,106.445427 29.919777,106.879669 30.942154,107.656036 
	C30.094645,107.526146 29.189157,107.054115 28.137325,106.296638 
z"/>
<path fill="#051C43" opacity="1.000000" stroke="none" 
	d="
M22.999771,98.000000 
	C23.331657,99.094109 23.663544,100.188210 23.989601,101.649231 
	C23.593567,101.511253 23.203362,101.006378 22.905869,99.921066 
	C22.998976,98.893761 22.999374,98.446884 22.999771,98.000000 
z"/>
<path fill="#051C45" opacity="1.000000" stroke="none" 
	d="
M22.748167,98.000259 
	C22.999374,98.446884 22.998976,98.893761 22.997017,99.676025 
	C22.676647,99.539734 22.357836,99.068062 22.016191,98.299118 
	C22.161091,98.001404 22.328827,98.000969 22.748167,98.000259 
z"/>
<path fill="#021B44" opacity="1.000000" stroke="none" 
	d="
M88.665802,109.051933 
	C89.332840,109.776154 89.664246,110.552834 89.999641,111.666954 
	C89.229149,112.336670 88.454666,112.668945 87.344444,113.006859 
	C86.840309,113.009575 86.671921,113.006653 86.250916,113.000801 
	C86.775581,111.700043 87.552864,110.402222 88.665802,109.051933 
z"/>
<path fill="#051C43" opacity="1.000000" stroke="none" 
	d="
M41.171898,114.316971 
	C46.185638,113.614670 50.814201,115.041725 54.949257,118.624352 
	C50.447697,117.543327 45.894409,116.088783 41.171898,114.316971 
z"/>
<path fill="#041C46" opacity="1.000000" stroke="none" 
	d="
M25.671391,23.999077 
	C25.823614,24.552845 25.648512,25.106998 25.230621,25.832777 
	C24.678835,25.542025 24.369835,25.079645 24.048767,24.326488 
	C24.472490,24.023630 24.908278,24.011547 25.671391,23.999077 
z"/>
<path fill="#032450" opacity="1.000000" stroke="none" 
	d="
M86.955048,96.999176 
	C85.383644,97.519943 83.333122,97.837059 83.167328,98.576660 
	C81.374405,106.575012 74.028290,104.725609 69.211853,105.701271 
	C57.803299,108.012299 46.798470,103.841415 36.731342,99.251686 
	C31.419321,96.829872 27.320641,91.138542 24.610538,84.848366 
	C20.065403,74.299080 22.399750,63.530331 22.360298,52.904213 
	C22.347992,49.589699 26.186043,46.333122 27.997782,42.910427 
	C28.965462,41.082310 29.421455,38.971649 30.019772,36.962124 
	C31.278275,32.735275 33.260471,29.322227 38.280479,28.975243 
	C39.256245,28.907797 40.445206,28.877747 41.143936,28.330278 
	C46.836086,23.870392 53.830040,25.344122 60.195011,24.003433 
	C60.841194,23.867323 61.588600,24.012947 62.159668,23.748484 
	C73.110512,18.677162 82.144081,23.803745 88.208618,31.499693 
	C92.636742,37.119026 98.305870,41.285286 102.368896,46.822559 
	C104.878052,50.242146 105.765900,55.502598 105.781166,59.942116 
	C105.801971,65.992073 104.727928,72.154984 103.254753,78.052505 
	C102.569824,80.794464 99.892136,83.066605 98.022194,85.477577 
	C95.639526,88.549614 93.230568,91.607773 90.683716,94.542404 
	C89.802330,95.557999 88.474815,96.186432 86.955048,96.999176 
M34.439491,46.979607 
	C34.439491,46.979607 34.551952,46.913879 34.551952,46.913879 
	C34.551952,46.913879 34.353733,47.039234 33.972290,47.515667 
	C33.640026,48.017117 33.307762,48.518566 32.388554,49.609276 
	C32.259064,57.357029 32.039116,65.104897 32.049042,72.852478 
	C32.052528,75.572807 32.620228,78.292427 33.119965,80.869095 
	C33.119965,80.869095 33.340885,80.956833 33.188442,81.467865 
	C33.272835,81.624313 33.357231,81.780762 33.423195,82.381050 
	C33.638149,82.585350 33.842278,82.799942 34.070347,83.687424 
	C34.416679,84.507675 34.763016,85.327934 35.473793,86.649467 
	C39.318398,86.778076 43.162998,86.906685 46.862000,87.728722 
	C44.924343,89.000595 42.986687,90.272469 40.015213,92.222946 
	C54.248997,96.042526 66.891785,97.120773 79.820740,94.134308 
	C85.672493,92.782616 85.946114,92.807816 83.646545,87.676102 
	C84.760147,87.469398 85.873741,87.262695 87.108101,87.695824 
	C89.654800,89.396202 90.605270,88.152481 90.847778,85.077827 
	C90.875328,84.695816 90.902878,84.313805 91.650253,83.918983 
	C92.240585,82.258842 93.314285,80.606087 93.339806,78.937309 
	C93.468559,70.515785 93.515961,62.082150 93.167816,53.670322 
	C93.052025,50.872639 91.675591,48.127129 90.514236,44.668926 
	C88.670433,44.417450 86.826630,44.165970 85.102501,43.279774 
	C85.602753,42.483574 86.103012,41.687370 86.604591,40.889061 
	C71.707176,31.899164 49.422230,31.465422 41.414467,40.769958 
	C42.280609,41.827766 43.146751,42.885578 43.216240,43.976067 
	C41.483677,44.262917 39.751114,44.549763 37.507099,45.003803 
	C37.342083,45.074078 37.177063,45.144356 36.270836,45.335327 
	C35.804756,46.185375 35.338676,47.035427 34.618019,47.395340 
	C34.487320,47.265678 34.356621,47.136021 34.439491,46.979607 
z"/>
<path fill="#021B44" opacity="1.000000" stroke="none" 
	d="
M91.456413,109.527122 
	C91.428207,109.477654 91.484619,109.576591 91.456413,109.527122 
z"/>
<path fill="#F3F6F9" opacity="1.000000" stroke="none" 
	d="
M90.930435,83.931793 
	C90.902878,84.313805 90.875328,84.695816 90.532875,85.385155 
	C89.803413,85.822853 89.388863,85.953224 88.511597,86.015625 
	C70.979607,85.967964 53.910324,85.988281 36.567818,85.788788 
	C36.859154,84.184601 37.253765,82.696411 38.022999,81.437042 
	C39.721680,78.656021 41.608994,75.990227 43.793808,73.192223 
	C45.149506,71.771233 46.130753,70.435448 47.429451,69.027786 
	C49.158150,67.380066 50.569389,65.804222 52.300362,64.086311 
	C52.798962,63.295124 52.977837,62.646008 53.519577,62.004738 
	C56.248917,64.451195 58.615387,66.889801 61.175575,69.528030 
	C62.457451,69.385239 64.233475,69.187408 66.383827,69.024727 
	C69.450615,67.418633 72.143074,65.777382 74.818665,64.146416 
	C76.828239,66.047699 78.943192,68.048683 81.049469,70.036865 
	C81.040779,70.024078 81.011642,70.013733 81.070648,70.371063 
	C83.435127,73.495850 85.740601,76.263298 88.035980,79.003693 
	C88.025887,78.976631 87.978470,78.943657 87.646652,79.200676 
	C88.560051,80.995438 89.805267,82.533188 91.026260,84.031151 
	C91.002037,83.991371 90.930435,83.931793 90.930435,83.931793 
z"/>
<path fill="#F5F8F9" opacity="1.000000" stroke="none" 
	d="
M66.009499,68.989571 
	C64.233475,69.187408 62.457451,69.385239 61.175575,69.528030 
	C58.615387,66.889801 56.248917,64.451195 53.330250,61.723270 
	C49.188110,58.227890 45.598160,55.021828 41.976227,51.519657 
	C40.300171,49.220577 38.656105,47.217609 37.012039,45.214638 
	C37.177063,45.144356 37.342083,45.074078 38.225563,44.994705 
	C55.961887,45.097931 72.979744,45.210258 89.803345,45.574951 
	C85.754707,49.594227 81.900337,53.361141 77.891449,57.420799 
	C73.827797,61.472221 69.918648,65.230896 66.009499,68.989571 
z"/>
<path fill="#F2F4F7" opacity="1.000000" stroke="none" 
	d="
M78.045959,57.128052 
	C81.900337,53.361141 85.754707,49.594227 90.023819,45.558575 
	C90.438545,45.289833 90.875481,45.357769 90.875481,45.357769 
	C91.675591,48.127129 93.052025,50.872639 93.167816,53.670322 
	C93.515961,62.082150 93.468559,70.515785 93.339806,78.937309 
	C93.314285,80.606087 92.240585,82.258842 91.290344,83.925385 
	C90.930435,83.931793 91.002037,83.991371 91.090591,83.655380 
	C90.112259,81.860809 89.045364,80.402229 87.978470,78.943657 
	C87.978470,78.943657 88.025887,78.976631 88.074287,78.641495 
	C85.752342,75.542145 83.381989,72.777939 81.011642,70.013733 
	C81.011642,70.013733 81.040779,70.024078 80.787415,69.771118 
	C79.252510,66.993912 77.970978,64.469658 76.392899,61.361298 
	C77.426987,60.536381 78.556984,59.634956 79.686974,58.733528 
	C79.139961,58.198364 78.592964,57.663208 78.045959,57.128052 
z"/>
<path fill="#032756" opacity="1.000000" stroke="none" 
	d="
M44.012897,43.943386 
	C43.146751,42.885578 42.280609,41.827766 41.414661,40.769806 
	C49.422230,31.465422 71.707176,31.899164 86.604591,40.889061 
	C86.103012,41.687370 85.602753,42.483574 84.711975,43.612206 
	C83.879776,43.944664 83.438103,43.944695 82.902802,43.795452 
	C82.540810,43.744453 82.272438,43.842724 81.535309,43.953133 
	C68.715332,43.957973 56.364117,43.950680 44.012897,43.943386 
z"/>
<path fill="#022756" opacity="1.000000" stroke="none" 
	d="
M83.010490,87.937843 
	C85.946114,92.807816 85.672493,92.782616 79.820740,94.134308 
	C66.891785,97.120773 54.248997,96.042526 40.015213,92.222946 
	C42.986687,90.272469 44.924343,89.000595 47.402519,87.370514 
	C50.421143,87.010910 52.901237,86.944298 55.376999,87.019753 
	C64.588936,87.300499 73.799446,87.627937 83.010490,87.937843 
z"/>
<path fill="#F3F6F9" opacity="1.000000" stroke="none" 
	d="
M32.975502,49.020012 
	C33.307762,48.518566 33.640026,48.017117 34.141121,47.248081 
	C34.309948,46.980495 34.225922,47.006367 34.225922,47.006367 
	C34.356621,47.136021 34.487320,47.265678 34.878197,47.912228 
	C37.043980,49.954559 38.949589,51.480003 41.011040,53.304825 
	C44.110657,56.734470 47.054428,59.864738 49.664143,63.034821 
	C48.219494,64.382317 47.108906,65.689995 45.651527,67.059082 
	C44.210144,69.169838 43.115551,71.219193 41.748047,73.442169 
	C38.995285,76.752144 36.515434,79.888496 34.035580,83.024841 
	C33.842278,82.799942 33.638149,82.585350 33.540615,82.051521 
	C33.750107,81.396011 33.644390,81.140961 33.340885,80.956833 
	C33.340885,80.956833 33.119965,80.869095 33.106407,80.477722 
	C33.160469,70.050453 33.228088,60.014565 33.427063,49.886826 
	C33.744850,49.481911 33.690201,49.206654 33.295574,49.030128 
	C33.196682,49.091057 32.975498,49.020012 32.975502,49.020012 
z"/>
<path fill="#00122E" opacity="1.000000" stroke="none" 
	d="
M83.328522,87.806976 
	C73.799446,87.627937 64.588936,87.300499 55.376999,87.019753 
	C52.901237,86.944298 50.421143,87.010910 47.475319,87.023796 
	C43.162998,86.906685 39.318398,86.778076 35.581093,86.383484 
	C36.072605,86.081200 36.456821,86.044899 36.841038,86.008591 
	C53.910324,85.988281 70.979607,85.967964 88.337738,86.247589 
	C88.080170,86.717018 87.533760,86.886505 86.987343,87.056000 
	C85.873741,87.262695 84.760147,87.469398 83.328522,87.806976 
z"/>
<path fill="#011335" opacity="1.000000" stroke="none" 
	d="
M82.996429,43.944721 
	C83.438103,43.944695 83.879776,43.944664 84.652138,43.929565 
	C86.826630,44.165970 88.670433,44.417450 90.694855,45.013348 
	C90.875481,45.357769 90.438545,45.289833 90.218079,45.306210 
	C72.979744,45.210258 55.961887,45.097931 38.481293,44.911110 
	C39.751114,44.549763 41.483677,44.262917 43.614571,43.959724 
	C56.364117,43.950680 68.715332,43.957973 81.783272,43.966106 
	C82.499992,43.966946 82.996429,43.944721 82.996429,43.944721 
z"/>
<path fill="#222836" opacity="1.000000" stroke="none" 
	d="
M36.567818,85.788788 
	C36.456821,86.044899 36.072605,86.081200 35.398869,86.132843 
	C34.763016,85.327934 34.416679,84.507675 34.052963,83.356133 
	C36.515434,79.888496 38.995285,76.752144 41.970001,73.580452 
	C42.783028,73.455879 43.101192,73.366653 43.419353,73.277420 
	C41.608994,75.990227 39.721680,78.656021 38.022999,81.437042 
	C37.253765,82.696411 36.859154,84.184601 36.567818,85.788788 
z"/>
<path fill="#00082B" opacity="1.000000" stroke="none" 
	d="
M33.295712,49.978676 
	C33.228088,60.014565 33.160469,70.050453 33.011570,80.549355 
	C32.620228,78.292427 32.052528,75.572807 32.049042,72.852478 
	C32.039116,65.104897 32.259064,57.357029 32.682026,49.314644 
	C32.975498,49.020012 33.196682,49.091057 33.163956,49.271881 
	C33.186058,49.628033 33.240883,49.803356 33.295712,49.978676 
z"/>
<path fill="#EBEFF4" opacity="1.000000" stroke="none" 
	d="
M40.855194,53.005451 
	C38.949589,51.480003 37.043980,49.954559 35.005486,48.157295 
	C35.338676,47.035427 35.804756,46.185375 36.641438,45.274982 
	C38.656105,47.217609 40.300171,49.220577 41.724930,51.654415 
	C41.288811,52.392006 41.072002,52.698730 40.855194,53.005451 
z"/>
<path fill="#072347" opacity="1.000000" stroke="none" 
	d="
M87.047722,87.375908 
	C87.533760,86.886505 88.080170,86.717018 88.800446,86.315567 
	C89.388863,85.953224 89.803413,85.822853 90.546555,85.672958 
	C90.605270,88.152481 89.654800,89.396202 87.047722,87.375908 
z"/>
<path fill="#EBEFF4" opacity="1.000000" stroke="none" 
	d="
M33.264664,81.212349 
	C33.644390,81.140961 33.750107,81.396011 33.549828,81.829605 
	C33.357231,81.780762 33.272835,81.624313 33.264664,81.212349 
z"/>
<path fill="#EBEFF4" opacity="1.000000" stroke="none" 
	d="
M34.332706,46.992989 
	C34.225922,47.006367 34.309948,46.980495 34.331841,47.009865 
	C34.353733,47.039234 34.551952,46.913879 34.551952,46.913879 
	C34.551952,46.913879 34.439491,46.979607 34.332706,46.992989 
z"/>
<path fill="#242E42" opacity="1.000000" stroke="none" 
	d="
M77.891449,57.420799 
	C78.592964,57.663208 79.139961,58.198364 79.686974,58.733528 
	C78.556984,59.634956 77.426987,60.536381 76.392899,61.361298 
	C77.970978,64.469658 79.252510,66.993912 80.796097,69.783913 
	C78.943192,68.048683 76.828239,66.047699 74.818665,64.146416 
	C72.143074,65.777382 69.450615,67.418633 66.383827,69.024727 
	C69.918648,65.230896 73.827797,61.472221 77.891449,57.420799 
z"/>
<path fill="#20263B" opacity="1.000000" stroke="none" 
	d="
M41.011040,53.304825 
	C41.072002,52.698730 41.288811,52.392006 41.756916,51.950523 
	C45.598160,55.021828 49.188110,58.227890 52.967384,61.715420 
	C52.977837,62.646008 52.798962,63.295124 52.016525,63.997169 
	C50.941376,63.698399 50.469788,63.346703 49.998199,62.995010 
	C47.054428,59.864738 44.110657,56.734470 41.011040,53.304825 
z"/>
<path fill="#232437" opacity="1.000000" stroke="none" 
	d="
M81.070648,70.371063 
	C83.381989,72.777939 85.752342,75.542145 88.084381,78.668549 
	C85.740601,76.263298 83.435127,73.495850 81.070648,70.371063 
z"/>
<path fill="#EBEFF4" opacity="1.000000" stroke="none" 
	d="
M43.793808,73.192223 
	C43.101192,73.366653 42.783028,73.455879 42.242912,73.406830 
	C43.115551,71.219193 44.210144,69.169838 45.652428,67.060242 
	C46.000118,67.000000 46.002277,67.003395 46.016556,67.278412 
	C46.317074,67.979111 46.603317,68.404800 46.943138,68.899460 
	C46.996719,68.968430 47.112000,69.099655 47.112000,69.099655 
	C46.130753,70.435448 45.149506,71.771233 43.793808,73.192223 
z"/>
<path fill="#EBEFF4" opacity="1.000000" stroke="none" 
	d="
M49.664143,63.034821 
	C50.469788,63.346703 50.941376,63.698399 51.696796,64.139236 
	C50.569389,65.804222 49.158150,67.380066 47.429451,69.027786 
	C47.112000,69.099655 46.996719,68.968430 46.950844,68.628235 
	C46.604073,67.859825 46.303173,67.431610 46.002277,67.003395 
	C46.002277,67.003395 46.000118,67.000000 45.999214,66.998840 
	C47.108906,65.689995 48.219494,64.382317 49.664143,63.034821 
z"/>
<path fill="#232437" opacity="1.000000" stroke="none" 
	d="
M87.646652,79.200676 
	C89.045364,80.402229 90.112259,81.860809 91.114815,83.695160 
	C89.805267,82.533188 88.560051,80.995438 87.646652,79.200676 
z"/>
<path fill="#032450" opacity="1.000000" stroke="none" 
	d="
M82.902802,43.795452 
	C82.996429,43.944721 82.499992,43.966946 82.252029,43.953972 
	C82.272438,43.842724 82.540810,43.744453 82.902802,43.795452 
z"/>
<path fill="#EBEFF4" opacity="1.000000" stroke="none" 
	d="
M33.427063,49.886826 
	C33.240883,49.803356 33.186058,49.628033 33.262848,49.210953 
	C33.690201,49.206654 33.744850,49.481911 33.427063,49.886826 
z"/>
<path fill="#F3F6F9" opacity="1.000000" stroke="none" 
	d="
M46.016556,67.278412 
	C46.303173,67.431610 46.604073,67.859825 46.897266,68.559265 
	C46.603317,68.404800 46.317074,67.979111 46.016556,67.278412 
z"/>
</svg>