<svg version="1.1" id="Layer_1" xmlns="http://www.w3.org/2000/svg" xmlns:xlink="http://www.w3.org/1999/xlink" x="0px" y="0px"
	 width="100%" viewBox="0 0 131 131" enable-background="new 0 0 131 131" xml:space="preserve">
<path fill="#094C90" opacity="1.000000" stroke="none" 
	d="
M76.000000,132.000000 
	C69.312355,132.000000 62.624710,132.000000 55.348801,131.637970 
	C53.974808,131.011627 53.202431,130.694962 52.401402,130.490616 
	C26.001060,123.755547 9.359333,107.250053 2.567584,80.826790 
	C2.308016,79.816940 1.534190,78.939262 1.000000,78.000000 
	C1.000000,70.645752 1.000000,63.291500 1.362033,55.348900 
	C1.988373,53.974812 2.305044,53.202438 2.509397,52.401409 
	C9.244460,26.001060 25.749941,9.359337 52.173210,2.567585 
	C53.183064,2.308017 54.060734,1.534191 55.000000,1.000000 
	C61.687645,1.000000 68.375290,1.000000 75.691910,1.361685 
	C103.074425,5.834681 123.803551,25.043362 130.270004,51.648884 
	C130.635010,53.150700 131.413803,54.551945 132.000000,56.000000 
	C132.000000,63.020947 132.000000,70.041893 131.637970,77.651138 
	C130.889786,79.505974 130.454636,80.759895 130.124832,82.040939 
	C124.764702,102.860695 112.211479,117.723640 92.689842,126.516167 
	C87.380341,128.907562 81.576797,130.202072 76.000000,132.000000 
M27.085886,108.427544 
	C44.197536,124.575851 70.339699,129.368652 92.898949,117.763313 
	C117.565956,105.073677 129.887802,75.787079 121.459518,49.023979 
	C113.181213,22.737120 85.796387,5.113932 58.939964,9.365745 
	C35.766293,13.034519 19.487320,26.033861 12.005715,48.328659 
	C4.436185,70.885483 10.014031,90.923073 27.085886,108.427544 
z"/>
<path fill="#FDFDFE" opacity="1.000000" stroke="none" 
	d="
M132.000000,55.531342 
	C131.413803,54.551945 130.635010,53.150700 130.270004,51.648884 
	C123.803551,25.043362 103.074425,5.834681 76.160446,1.361685 
	C94.592789,1.000000 113.185577,1.000000 132.000000,1.000000 
	C132.000000,19.020288 132.000000,37.041485 132.000000,55.531342 
z"/>
<path fill="#FDFDFE" opacity="1.000000" stroke="none" 
	d="
M76.468658,132.000000 
	C81.576797,130.202072 87.380341,128.907562 92.689842,126.516167 
	C112.211479,117.723640 124.764702,102.860695 130.124832,82.040939 
	C130.454636,80.759895 130.889786,79.505974 131.637970,78.119720 
	C132.000000,95.928108 132.000000,113.856224 132.000000,132.000000 
	C113.646332,132.000000 95.291824,132.000000 76.468658,132.000000 
z"/>
<path fill="#FDFDFE" opacity="1.000000" stroke="none" 
	d="
M54.531342,1.000000 
	C54.060734,1.534191 53.183064,2.308017 52.173210,2.567585 
	C25.749941,9.359337 9.244460,26.001060 2.509397,52.401409 
	C2.305044,53.202438 1.988373,53.974812 1.362033,54.880272 
	C1.000000,37.073223 1.000000,19.146444 1.000000,1.000000 
	C18.686954,1.000000 36.374821,1.000000 54.531342,1.000000 
z"/>
<path fill="#FDFDFE" opacity="1.000000" stroke="none" 
	d="
M1.000000,78.468658 
	C1.534190,78.939262 2.308016,79.816940 2.567584,80.826790 
	C9.359333,107.250053 26.001060,123.755547 52.401402,130.490616 
	C53.202431,130.694962 53.974808,131.011627 54.880272,131.637970 
	C37.073227,132.000000 19.146450,132.000000 1.000000,132.000000 
	C1.000000,114.313042 1.000000,96.625183 1.000000,78.468658 
z"/>
<path fill="#FDFDFE" opacity="1.000000" stroke="none" 
	d="
M26.827488,108.181480 
	C10.014031,90.923073 4.436185,70.885483 12.005715,48.328659 
	C19.487320,26.033861 35.766293,13.034519 58.939964,9.365745 
	C85.796387,5.113932 113.181213,22.737120 121.459518,49.023979 
	C129.887802,75.787079 117.565956,105.073677 92.898949,117.763313 
	C70.339699,129.368652 44.197536,124.575851 26.827488,108.181480 
M58.919201,28.413542 
	C58.653599,28.154800 58.387993,27.896059 58.091209,27.112415 
	C57.791191,26.711599 57.491173,26.310783 57.096790,25.313488 
	C56.747150,24.836382 56.397511,24.359274 55.864269,23.189837 
	C53.028194,20.352318 51.110207,23.067104 48.547417,24.397629 
	C48.299110,24.534702 48.114021,24.731300 47.522869,24.980570 
	C47.178959,25.047651 46.957729,25.249315 46.167984,25.859964 
	C45.789318,26.905037 45.410652,27.950109 45.010372,29.660950 
	C45.903542,31.144464 46.796715,32.627979 47.910576,34.825989 
	C47.621265,35.851402 47.331955,36.876820 46.978840,37.202961 
	C45.616123,34.814129 44.253407,32.425297 42.974575,30.183516 
	C34.388611,33.954838 31.635592,40.427666 33.194855,48.718544 
	C37.423576,71.203407 48.174191,90.066093 65.248405,105.321121 
	C71.906471,111.269806 79.032654,113.062256 87.538757,107.752388 
	C88.022194,107.172363 88.505630,106.592339 89.630020,106.297485 
	C91.845535,105.619995 94.098175,105.043266 96.268623,104.243469 
	C100.436653,102.707573 100.817322,100.282143 98.402885,96.593391 
	C95.148247,91.621002 92.110619,86.469101 89.445930,81.160294 
	C87.433838,77.151611 85.268440,76.813828 81.623978,79.028397 
	C75.807137,82.563034 75.622597,82.722595 78.920792,88.554497 
	C79.899254,90.284607 80.842575,92.034584 80.950493,93.870667 
	C80.666611,93.901970 80.382721,93.933266 79.662712,93.431953 
	C78.232468,91.034836 76.802231,88.637718 75.228714,86.000465 
	C69.558609,88.507980 65.330109,85.805023 61.567005,82.017685 
	C56.166134,76.582024 52.524193,70.056084 51.798744,62.420761 
	C51.512207,59.404980 53.088890,56.222355 53.746643,53.100842 
	C53.961510,52.081131 53.953232,51.014400 54.159092,49.311565 
	C54.777996,49.180988 55.396904,49.050415 56.029442,49.004990 
	C56.029442,49.004990 56.114464,48.990593 56.282936,49.402813 
	C56.456120,49.661373 56.692787,49.831772 56.977264,49.981693 
	C56.977264,49.981693 57.045193,49.996223 57.311932,50.683933 
	C58.835300,50.441666 60.358665,50.199394 61.956547,49.994110 
	C61.956547,49.994110 61.992493,49.919090 62.553185,49.894527 
	C62.805092,49.633350 63.056999,49.372169 63.841934,49.060921 
	C64.244560,48.738907 64.647179,48.416893 65.742119,47.979115 
	C67.776482,46.707413 69.119362,45.259705 66.978882,42.396919 
	C66.853287,42.266914 66.727692,42.136909 66.392693,41.478329 
	C65.970825,40.873940 65.548965,40.269547 65.034149,39.048870 
	C64.588676,38.352161 64.143204,37.655449 63.656734,36.543941 
	C63.520470,36.281849 63.310204,36.110664 63.041954,35.982208 
	C63.041954,35.982208 62.992779,35.969593 62.923141,35.379059 
	C62.653828,35.099777 62.384510,34.820499 62.057716,33.888531 
	C61.266331,32.579922 60.474949,31.271315 59.645451,29.548553 
	C59.505703,29.290518 59.295158,29.119797 59.031769,28.991056 
	C59.031769,28.991056 58.984146,28.980587 58.919201,28.413542 
z"/>
<path fill="#054B8F" opacity="1.000000" stroke="none" 
	d="
M87.023926,107.999474 
	C79.032654,113.062256 71.906471,111.269806 65.248405,105.321121 
	C48.174191,90.066093 37.423576,71.203407 33.194855,48.718544 
	C31.635592,40.427666 34.388611,33.954838 42.974575,30.183516 
	C44.253407,32.425297 45.616123,34.814129 47.059525,37.909744 
	C49.089767,41.406250 51.039330,44.195969 52.994431,46.992493 
	C52.999977,46.999298 53.012482,47.011585 53.022133,47.338589 
	C53.370193,48.433453 53.708599,49.201313 54.047005,49.969173 
	C53.953232,51.014400 53.961510,52.081131 53.746643,53.100842 
	C53.088890,56.222355 51.512207,59.404980 51.798744,62.420761 
	C52.524193,70.056084 56.166134,76.582024 61.567005,82.017685 
	C65.330109,85.805023 69.558609,88.507980 75.228714,86.000465 
	C76.802231,88.637718 78.232468,91.034836 79.921913,94.047554 
	C82.462051,99.108589 84.742989,103.554031 87.023926,107.999474 
z"/>
<path fill="#084B90" opacity="1.000000" stroke="none" 
	d="
M81.801994,93.775459 
	C80.842575,92.034584 79.899254,90.284607 78.920792,88.554497 
	C75.622597,82.722595 75.807137,82.563034 81.623978,79.028397 
	C85.268440,76.813828 87.433838,77.151611 89.445930,81.160294 
	C92.110619,86.469101 95.148247,91.621002 98.402885,96.593391 
	C100.817322,100.282143 100.436653,102.707573 96.268623,104.243469 
	C94.098175,105.043266 91.845535,105.619995 89.201385,105.824883 
	C86.449165,101.493340 84.125580,97.634399 81.801994,93.775459 
z"/>
<path fill="#054B8F" opacity="1.000000" stroke="none" 
	d="
M46.859177,25.585564 
	C46.957729,25.249315 47.178959,25.047651 47.934288,24.901134 
	C48.574535,24.691628 48.776829,24.528629 48.952591,24.332701 
	C51.110207,23.067104 53.028194,20.352318 56.005234,23.835888 
	C56.494514,24.957947 56.842834,25.433956 57.191158,25.909966 
	C57.491173,26.310783 57.791191,26.711599 58.203537,27.626629 
	C58.538628,28.420755 58.761387,28.700670 58.984146,28.980587 
	C58.984146,28.980587 59.031769,28.991056 59.109188,29.184742 
	C59.321751,29.599131 59.487404,29.793890 59.683563,29.962708 
	C60.474949,31.271315 61.266331,32.579922 62.184147,34.481911 
	C62.537975,35.373394 62.765377,35.671494 62.992779,35.969593 
	C62.992779,35.969593 63.041954,35.982208 63.119301,36.178444 
	C63.331589,36.596889 63.498619,36.791576 63.697739,36.958736 
	C64.143204,37.655449 64.588676,38.352161 65.098999,39.657581 
	C65.643272,40.846497 66.122681,41.426701 66.602097,42.006905 
	C66.727692,42.136909 66.853287,42.266914 66.980301,43.021481 
	C66.337746,45.128986 65.693771,46.611931 65.049805,48.094875 
	C64.647179,48.416893 64.244560,48.738907 63.331608,49.177769 
	C62.545017,49.502773 62.268757,49.710934 61.992493,49.919090 
	C61.992493,49.919090 61.956547,49.994110 61.517208,49.986126 
	C59.733643,49.984169 58.389420,49.990196 57.045193,49.996223 
	C57.045193,49.996223 56.977264,49.981693 56.863926,49.771759 
	C56.568474,49.338085 56.356434,49.147678 56.114464,48.990593 
	C56.114464,48.990593 56.029442,49.004990 56.009521,48.674244 
	C54.997227,47.899529 54.004852,47.455559 53.012482,47.011585 
	C53.012482,47.011585 52.999977,46.999298 53.063873,46.707253 
	C54.921753,40.719952 49.601452,38.169003 47.689888,34.111492 
	C46.796715,32.627979 45.903542,31.144464 45.252907,29.097311 
	C45.950024,27.550970 46.404602,26.568268 46.859177,25.585564 
z"/>
<path fill="#074B90" opacity="1.000000" stroke="none" 
	d="
M47.800232,34.468742 
	C49.601452,38.169003 54.921753,40.719952 53.058327,46.700447 
	C51.039330,44.195969 49.089767,41.406250 47.091427,38.259384 
	C47.331955,36.876820 47.621265,35.851402 47.800232,34.468742 
z"/>
<path fill="#DADEE9" opacity="1.000000" stroke="none" 
	d="
M81.376244,93.823059 
	C84.125580,97.634399 86.449165,101.493340 88.880913,105.682297 
	C88.505630,106.592339 88.022194,107.172363 87.281342,107.875931 
	C84.742989,103.554031 82.462051,99.108589 80.139977,94.313858 
	C80.382721,93.933266 80.666611,93.901970 81.376244,93.823059 
z"/>
<path fill="#074B90" opacity="1.000000" stroke="none" 
	d="
M53.022133,47.338589 
	C54.004852,47.455559 54.997227,47.899529 56.002701,48.631668 
	C55.396904,49.050415 54.777996,49.180988 54.103050,49.640369 
	C53.708599,49.201313 53.370193,48.433453 53.022133,47.338589 
z"/>
<path fill="#074B90" opacity="1.000000" stroke="none" 
	d="
M65.395958,48.036995 
	C65.693771,46.611931 66.337746,45.128986 67.003601,43.291626 
	C69.119362,45.259705 67.776482,46.707413 65.395958,48.036995 
z"/>
<path fill="#074B90" opacity="1.000000" stroke="none" 
	d="
M57.178562,50.340080 
	C58.389420,49.990196 59.733643,49.984169 61.479950,49.967632 
	C60.358665,50.199394 58.835300,50.441666 57.178562,50.340080 
z"/>
<path fill="#074B90" opacity="1.000000" stroke="none" 
	d="
M46.513580,25.722765 
	C46.404602,26.568268 45.950024,27.550970 45.263718,28.764427 
	C45.410652,27.950109 45.789318,26.905037 46.513580,25.722765 
z"/>
<path fill="#074B90" opacity="1.000000" stroke="none" 
	d="
M66.497391,41.742615 
	C66.122681,41.426701 65.643272,40.846497 65.145477,39.965725 
	C65.548965,40.269547 65.970825,40.873940 66.497391,41.742615 
z"/>
<path fill="#074B90" opacity="1.000000" stroke="none" 
	d="
M57.143974,25.611727 
	C56.842834,25.433956 56.494514,24.957947 56.097031,24.182053 
	C56.397511,24.359274 56.747150,24.836382 57.143974,25.611727 
z"/>
<path fill="#074B90" opacity="1.000000" stroke="none" 
	d="
M62.957962,35.674324 
	C62.765377,35.671494 62.537975,35.373394 62.212887,34.808254 
	C62.384510,34.820499 62.653828,35.099777 62.957962,35.674324 
z"/>
<path fill="#074B90" opacity="1.000000" stroke="none" 
	d="
M63.677238,36.751339 
	C63.498619,36.791576 63.331589,36.596889 63.111290,36.202530 
	C63.310204,36.110664 63.520470,36.281849 63.677238,36.751339 
z"/>
<path fill="#074B90" opacity="1.000000" stroke="none" 
	d="
M56.198700,49.196701 
	C56.356434,49.147678 56.568474,49.338085 56.871761,49.737919 
	C56.692787,49.831772 56.456120,49.661373 56.198700,49.196701 
z"/>
<path fill="#074B90" opacity="1.000000" stroke="none" 
	d="
M62.272839,49.906807 
	C62.268757,49.710934 62.545017,49.502773 63.065094,49.202805 
	C63.056999,49.372169 62.805092,49.633350 62.272839,49.906807 
z"/>
<path fill="#074B90" opacity="1.000000" stroke="none" 
	d="
M59.664505,29.755630 
	C59.487404,29.793890 59.321751,29.599131 59.100216,29.207411 
	C59.295158,29.119797 59.505703,29.290518 59.664505,29.755630 
z"/>
<path fill="#074B90" opacity="1.000000" stroke="none" 
	d="
M58.951675,28.697063 
	C58.761387,28.700670 58.538628,28.420755 58.219131,27.889080 
	C58.387993,27.896059 58.653599,28.154800 58.951675,28.697063 
z"/>
<path fill="#074B90" opacity="1.000000" stroke="none" 
	d="
M48.750004,24.365166 
	C48.776829,24.528629 48.574535,24.691628 48.168930,24.904560 
	C48.114021,24.731300 48.299110,24.534702 48.750004,24.365166 
z"/>
</svg>