<?xml version="1.0" standalone="no"?>
<!DOCTYPE svg PUBLIC "-//W3C//DTD SVG 20010904//EN"
 "http://www.w3.org/TR/2001/REC-SVG-20010904/DTD/svg10.dtd">
<svg version="1.0" xmlns="http://www.w3.org/2000/svg"
 width="568.000000pt" height="111.000000pt" viewBox="0 0 568.000000 111.000000"
 preserveAspectRatio="xMidYMid meet">

<g transform="translate(0.000000,111.000000) scale(0.100000,-0.100000)"
fill="#000000" stroke="none">
<path d="M2790 862 c-23 -11 -39 -29 -49 -55 -7 -20 -11 -40 -8 -43 4 -5 91 9
195 32 22 4 22 5 5 31 -16 24 -67 53 -95 53 -7 0 -29 -8 -48 -18z"/>
<path d="M3400 873 c-8 -3 -28 -17 -43 -32 l-29 -26 39 -6 38 -5 -50 -16 c-48
-14 -52 -19 -112 -117 -35 -55 -61 -101 -59 -101 2 0 38 16 80 35 89 41 266
93 227 67 -10 -7 -1 -14 33 -27 26 -10 49 -15 53 -12 8 8 -35 165 -54 195 -22
36 -85 59 -123 45z m150 -218 c14 -8 21 -14 15 -14 -5 0 -21 6 -35 14 -14 8
-20 14 -15 14 6 0 21 -6 35 -14z"/>
<path d="M321 793 l-60 -78 124 -3 125 -3 0 -144 c0 -113 3 -145 13 -145 14 0
114 16 155 25 21 5 22 9 22 135 l0 130 93 0 92 0 27 38 c14 20 41 56 58 80
l32 42 -310 0 -311 0 -60 -77z"/>
<path d="M1020 690 c0 -166 1 -180 18 -180 10 0 146 22 302 50 185 32 289 55
299 65 14 13 -8 15 -207 15 l-222 0 0 35 0 35 176 0 176 0 22 27 c49 62 80
107 68 99 -7 -4 -48 -13 -90 -20 -68 -11 -82 -10 -115 4 -36 16 -37 18 -15 24
13 3 68 6 123 6 55 0 107 5 115 10 10 6 -99 10 -317 10 l-333 0 0 -180z"/>
<path d="M1980 848 c-19 -13 -64 -65 -102 -116 -57 -77 -65 -92 -46 -87 13 2
106 19 208 36 102 17 186 32 187 33 1 1 -16 27 -38 58 -68 96 -140 122 -209
76z"/>
<path d="M3721 727 l1 -145 66 23 c105 36 102 34 102 71 l0 34 94 0 c76 0 106
5 162 26 38 14 71 27 73 30 10 9 -34 56 -72 76 -39 21 -57 23 -235 26 l-193 4
2 -145z"/>
<path d="M4290 830 l0 -39 83 -3 82 -3 -50 -23 c-27 -13 -65 -30 -82 -37 l-33
-14 0 -230 0 -231 90 0 90 0 0 90 0 90 38 0 c36 0 38 -2 85 -90 l48 -90 100 0
100 0 -55 103 -55 102 43 46 c87 91 83 223 -7 306 -58 53 -105 63 -312 63
l-165 0 0 -40z m358 -136 c24 -17 30 -62 10 -82 -8 -8 -45 -12 -100 -12 l-88
0 0 55 0 55 78 0 c54 0 84 -5 100 -16z"/>
<path d="M5011 854 c-54 -14 -95 -38 -143 -82 -23 -21 -25 -28 -17 -55 20 -70
1 -168 -43 -214 -19 -20 -20 -25 -8 -55 53 -131 168 -204 308 -196 116 6 211
71 259 175 83 180 -11 378 -203 428 -70 18 -83 18 -153 -1z m147 -191 c13 -8
32 -28 42 -46 68 -110 -65 -236 -177 -167 -90 55 -78 181 22 226 33 15 78 10
113 -13z"/>
<path d="M4176 666 c-43 -19 -83 -40 -87 -49 -5 -8 -28 -18 -52 -22 -37 -6
-82 -17 -127 -33 -8 -3 -18 -5 -21 -4 -14 3 -75 2 -104 -2 -16 -1 -38 -4 -47
-4 -16 -2 -18 -16 -18 -152 l0 -150 90 0 90 0 0 89 0 88 104 5 c90 4 110 8
150 32 66 38 97 90 103 171 3 36 4 65 2 65 -2 -1 -40 -16 -83 -34z"/>
<path d="M3014 682 c3 -5 -75 -34 -172 -66 l-178 -57 -15 -57 -16 -58 66 18
c121 31 134 20 26 -21 l-100 -38 -18 -48 c-10 -26 -16 -51 -15 -55 2 -4 53 15
115 44 l111 51 22 94 22 94 40 -62 c33 -53 42 -61 61 -55 19 6 137 62 145 69
4 4 -88 155 -94 155 -3 0 -3 -4 0 -8z"/>
<path d="M3518 512 c-36 -15 -69 -30 -73 -34 -6 -6 10 -93 36 -190 l10 -38
104 0 c79 0 103 3 100 13 -2 6 -22 72 -45 145 -24 78 -46 132 -53 131 -7 0
-42 -13 -79 -27z"/>
<path d="M2126 380 c-142 -49 -266 -96 -275 -104 -14 -15 17 -16 337 -16 194
0 352 3 352 7 0 11 -52 83 -60 83 -4 0 -24 -7 -45 -15 -29 -13 -43 -14 -71 -5
-19 6 -34 15 -34 19 0 4 21 13 48 19 74 19 77 23 50 65 -13 20 -27 36 -33 35
-5 0 -127 -40 -269 -88z"/>
<path d="M3165 386 c-66 -23 -126 -44 -134 -47 -12 -4 -11 -10 4 -33 35 -53
116 -73 163 -40 20 14 70 84 101 142 15 29 14 28 -134 -22z"/>
</g>
</svg>
